<svg width="24" height="24" viewBox="0 0 24 24" fill="none" xmlns="http://www.w3.org/2000/svg">
<path fill-rule="evenodd" clip-rule="evenodd" d="M14.9627 5.50255L13.4503 3.99016C13.8977 3.68024 14.3653 3.4366 14.8393 3.25785L16.0234 4.44189L17.531 2.93421C18.099 3.01533 18.6355 3.19614 19.1127 3.47384L17.084 5.50255L18.4982 6.91677L20.527 4.88802C20.8047 5.3652 20.9855 5.90167 21.0667 6.46967L19.5589 7.97743L20.743 9.16158C20.5643 9.63563 20.3207 10.1032 20.0107 10.5506L18.4982 9.03809L16.7305 10.8059L18.243 12.3184C17.7956 12.6283 17.328 12.872 16.854 13.0507L15.6698 11.8665L14.1619 13.3744C13.5939 13.2933 13.0575 13.1124 12.5803 12.8347L14.6091 10.8059L13.1949 9.39164L11.1661 11.4205C10.8884 10.9433 10.7076 10.4068 10.6265 9.83877L12.1343 8.33098L10.9502 7.14689C11.1289 6.67285 11.3726 6.20529 11.6825 5.7579L13.1949 7.27032L14.9627 5.50255ZM20.9731 3.02779C18.4527 0.507426 14.172 0.9901 11.4272 3.7349C8.87847 6.28359 8.28021 10.1566 10.2255 12.7148L6.47501 16.4654C6.44875 16.4671 6.4223 16.4698 6.3957 16.4736L5.57074 16.5914C5.35655 16.622 5.15805 16.7213 5.00506 16.8743L1.705 20.1743C1.31448 20.5649 1.31448 21.198 1.705 21.5886L2.41211 22.2957C2.80263 22.6862 3.4358 22.6862 3.82632 22.2957L7.12638 18.9956C7.27937 18.8426 7.37862 18.6441 7.40922 18.4299L7.52707 17.605C7.53083 17.5786 7.53354 17.5525 7.53524 17.5265L11.2862 13.7755C13.8445 15.7207 17.7174 15.1224 20.266 12.5737C23.0108 9.82893 23.4935 5.54816 20.9731 3.02779ZM15.6698 9.7452L14.2556 8.33098L16.0234 6.56321L17.4376 7.97743L15.6698 9.7452Z" fill="#26272B"/>
</svg>
