<svg width="24" height="24" viewBox="0 0 24 24" fill="none" xmlns="http://www.w3.org/2000/svg">
<g clip-path="url(#clip0_20070_3324)">
<path fill-rule="evenodd" clip-rule="evenodd" d="M11.3325 1.52172C8.87192 1.67751 6.45577 2.6956 4.57538 4.57599C2.69499 6.45637 1.67691 8.87253 1.52111 11.3331C2.58742 11.3996 3.66306 11.2823 4.69649 10.9812L4.55488 10.4147C4.45442 10.0129 4.69874 9.6057 5.10058 9.50524C5.50243 9.40477 5.90963 9.64909 6.01009 10.0509L6.10759 10.4409C6.80814 10.1043 7.47507 9.67434 8.08972 9.15099L7.58058 8.64185C7.28769 8.34896 7.28769 7.87408 7.58058 7.58119C7.87348 7.2883 8.34835 7.2883 8.64124 7.58119L9.15038 8.09033C9.67373 7.47568 10.1037 6.80875 10.4403 6.1082L10.0503 6.0107C9.64849 5.91024 9.40416 5.50304 9.50463 5.10119C9.60509 4.69935 10.0123 4.45503 10.4141 4.55549L10.9806 4.6971C11.2817 3.66366 11.399 2.58803 11.3325 1.52172ZM5.06059 12.4376L5.26199 13.2432C5.36245 13.645 5.76965 13.8893 6.17149 13.7889C6.57334 13.6884 6.81766 13.2812 6.7172 12.8794L6.47802 11.9226C7.43 11.4986 8.33298 10.9292 9.15336 10.2146L9.7019 10.7632C9.9948 11.0561 10.4697 11.0561 10.7626 10.7632C11.0555 10.4703 11.0555 9.99541 10.7626 9.70251L10.214 9.15397C10.9286 8.33359 11.498 7.43061 11.922 6.47863L12.8788 6.71781C13.2806 6.81827 13.6878 6.57395 13.7883 6.1721C13.8887 5.77026 13.6444 5.36306 13.2426 5.26259L12.437 5.0612C12.765 3.91188 12.8979 2.71863 12.8356 1.53371C15.2379 1.72434 17.5871 2.73843 19.4246 4.57599C21.2622 6.41354 22.2763 8.76273 22.4669 11.165C21.282 11.1028 20.0887 11.2356 18.9394 11.5636L18.738 10.758C18.6376 10.3562 18.2304 10.1119 17.8285 10.2123C17.4267 10.3128 17.1823 10.72 17.2828 11.1219L17.522 12.0786C16.57 12.5027 15.667 13.072 14.8466 13.7866L14.2981 13.238C14.0052 12.9452 13.5303 12.9452 13.2374 13.238C12.9445 13.5309 12.9445 14.0058 13.2374 14.2987L13.786 14.8472C13.0714 15.6676 12.502 16.5706 12.078 17.5226L11.1212 17.2834C10.7194 17.1829 10.3122 17.4273 10.2117 17.8291C10.1113 18.231 10.3556 18.6382 10.7574 18.7386L11.563 18.94C11.235 20.0893 11.1021 21.2826 11.1644 22.4675C8.76212 22.2769 6.41293 21.2628 4.57538 19.4252C2.73782 17.5877 1.72373 15.2385 1.5331 12.8362C2.71802 12.8985 3.91127 12.7656 5.06059 12.4376ZM13.5859 19.4457L13.0194 19.3041C12.7183 20.3376 12.601 21.4132 12.6675 22.4795C15.1281 22.3237 17.5442 21.3056 19.4246 19.4252C21.305 17.5448 22.3231 15.1287 22.4789 12.6682C21.4126 12.6016 20.3369 12.7189 19.3035 13.02L19.4451 13.5865C19.5456 13.9883 19.3013 14.3955 18.8994 14.496C18.4976 14.5964 18.0904 14.3521 17.9899 13.9503L17.8924 13.5603C17.1919 13.8969 16.5249 14.3269 15.9103 14.8502L16.4194 15.3594C16.7123 15.6523 16.7123 16.1271 16.4194 16.42C16.1265 16.7129 15.6517 16.7129 15.3588 16.42L14.8496 15.9109C14.3263 16.5255 13.8963 17.1925 13.5597 17.893L13.9497 17.9905C14.3515 18.091 14.5958 18.4982 14.4954 18.9C14.3949 19.3019 13.9877 19.5462 13.5859 19.4457Z" fill="#26272B"/>
</g>
<defs>
<clipPath id="clip0_20070_3324">
<rect width="24" height="24" fill="white"/>
</clipPath>
</defs>
</svg>
