<svg width="24" height="24" viewBox="0 0 24 24" fill="none" xmlns="http://www.w3.org/2000/svg">
<path fill-rule="evenodd" clip-rule="evenodd" d="M22.5 7.26089V15.5C22.5 16.6046 21.6046 17.5 20.5 17.5H17.9162C17.8554 17.5 17.8086 17.4461 17.8172 17.3859L18.4849 12.7121C18.4903 12.6747 18.4942 12.6373 18.4967 12.5999C18.5004 12.5448 18.5448 12.5 18.6 12.5H20C20.4142 12.5 20.75 12.1642 20.75 11.75C20.75 11.3358 20.4142 11 20 11H17H7H4C3.58579 11 3.25 11.3358 3.25 11.75C3.25 12.1642 3.58579 12.5 4 12.5H5.39999C5.45522 12.5 5.49964 12.5448 5.50333 12.5999C5.50583 12.6373 5.50973 12.6747 5.51508 12.7121L6.18275 17.3859C6.19136 17.4461 6.14461 17.5 6.08376 17.5H3.5C2.39543 17.5 1.5 16.6046 1.5 15.5V7.26089C1.5 6.4402 1.74943 5.63394 2.32139 5.04538C3.73164 3.59422 6.95784 1 12 1C17.0422 1 20.2684 3.59422 21.6786 5.04538C22.2506 5.63394 22.5 6.4402 22.5 7.26089ZM9 6.75H15C15.1381 6.75 15.25 6.86193 15.25 7V8.5C15.25 8.91421 15.5858 9.25 16 9.25C16.4142 9.25 16.75 8.91421 16.75 8.5V7C16.75 6.0335 15.9665 5.25 15 5.25H9C8.0335 5.25 7.25 6.0335 7.25 7V8.5C7.25 8.91421 7.58579 9.25 8 9.25C8.41421 9.25 8.75 8.91421 8.75 8.5V7C8.75 6.86193 8.86193 6.75 9 6.75ZM7.57627 12.5H9.67793C9.70445 12.5 9.72989 12.5105 9.74864 12.5293L16.0544 18.835C16.0766 18.8573 16.0871 18.8887 16.0826 18.9198L15.6412 22.01C15.5946 22.3359 15.2669 22.5076 14.9883 22.4149C14.975 22.4105 14.9631 22.4026 14.9532 22.3926L7.34653 14.786C7.33123 14.7707 7.32131 14.7508 7.31825 14.7294L7.08129 13.0707C7.03826 12.7695 7.27199 12.5 7.57627 12.5ZM16.9182 13.0707L16.3832 16.8162C16.3715 16.8978 16.2717 16.931 16.2135 16.8728L12.0114 12.6707C11.9484 12.6077 11.993 12.5 12.0821 12.5H16.4233C16.7275 12.5 16.9613 12.7695 16.9182 13.0707ZM7.71894 17.5343C7.70535 17.4391 7.8207 17.3815 7.88865 17.4494L10.8988 20.4596C10.9378 20.4986 10.9378 20.5619 10.8988 20.601L9.20687 22.2929C8.91552 22.5842 8.41661 22.4179 8.35834 22.0101L7.71894 17.5343Z" fill="#26272B"/>
</svg>
