<svg width="24" height="24" viewBox="0 0 24 24" fill="none" xmlns="http://www.w3.org/2000/svg">
<path fill-rule="evenodd" clip-rule="evenodd" d="M17.2212 5.1263L18.9839 14.8211C19.0827 15.3645 18.7223 15.8851 18.1789 15.9839C17.6355 16.0827 17.1149 15.7223 17.0161 15.1789L15.7918 8.44516L7.61628 12.3383C8.75676 13.1546 9.5 14.4905 9.5 16C9.5 18.4853 7.48528 20.5 5 20.5C2.51472 20.5 0.5 18.4853 0.5 16C0.5 13.5666 2.43152 11.5843 4.84506 11.5026L4.2194 9H3C2.44772 9 2 8.55228 2 8C2 7.44772 2.44772 7 3 7H4.99845H5.00354H7C7.55228 7 8 7.44772 8 8C8 8.55228 7.55228 9 7 9H6.28095L6.67392 10.5718L15.4212 6.40649L15.0161 4.1789C14.9631 3.88729 15.0422 3.58717 15.232 3.35955C15.4219 3.13192 15.7029 3.00023 15.9993 3.00002L16.0054 3.00001C16.2793 2.99979 17.2956 2.99897 18.3364 3.3708C19.4124 3.7552 20.6384 4.59319 20.9806 6.30387C21.0889 6.84543 20.7377 7.37226 20.1962 7.48059C19.6546 7.58892 19.1278 7.23772 19.0194 6.69616C18.8616 5.9072 18.3376 5.49501 17.6636 5.25422C17.5156 5.20136 17.3665 5.15948 17.2212 5.1263ZM5 17.5C5.82843 17.5 6.5 16.8284 6.5 16C6.5 15.1716 5.82843 14.5 5 14.5C4.17157 14.5 3.5 15.1716 3.5 16C3.5 16.8284 4.17157 17.5 5 17.5ZM12.5 15.0008C12.5 13.1182 13.4459 11.4564 14.8884 10.465L15.7863 15.4033C16.0086 16.6259 17.1799 17.4368 18.4025 17.2145C19.6251 16.9922 20.436 15.8209 20.2137 14.5983L19.3157 9.65918C21.7179 10.2489 23.5 12.4167 23.5 15.0008C23.5 18.0384 21.0376 20.5008 18 20.5008C14.9624 20.5008 12.5 18.0384 12.5 15.0008Z" fill="#26272B"/>
</svg>
