<svg width="24" height="24" viewBox="0 0 24 24" fill="none" xmlns="http://www.w3.org/2000/svg">
<path fill-rule="evenodd" clip-rule="evenodd" d="M22.5 12C22.5 17.799 17.799 22.5 12 22.5C6.20101 22.5 1.5 17.799 1.5 12C1.5 6.20101 6.20101 1.5 12 1.5C17.799 1.5 22.5 6.20101 22.5 12ZM16 13C16 9.68629 13.5376 7 10.5 7C7.46243 7 5 9.68629 5 13C5 16.3137 7.46243 19 10.5 19C13.5376 19 16 16.3137 16 13ZM9.75 11C9.75 11.4142 10.0858 11.75 10.5 11.75C10.9142 11.75 11.25 11.4142 11.25 11C11.25 10.5858 10.9142 10.25 10.5 10.25C10.0858 10.25 9.75 10.5858 9.75 11ZM12.75 11C12.75 11.526 12.5695 12.0098 12.2672 12.3929C12.868 12.8973 13.25 13.6541 13.25 14.5C13.25 16.0188 12.0188 17.25 10.5 17.25C8.98122 17.25 7.75 16.0188 7.75 14.5C7.75 13.6541 8.13197 12.8973 8.73284 12.3929C8.43046 12.0098 8.25 11.526 8.25 11C8.25 9.75736 9.25736 8.75 10.5 8.75C11.7426 8.75 12.75 9.75736 12.75 11ZM9.25 14.5C9.25 15.1904 9.80964 15.75 10.5 15.75C11.1904 15.75 11.75 15.1904 11.75 14.5C11.75 13.8096 11.1904 13.25 10.5 13.25C9.80964 13.25 9.25 13.8096 9.25 14.5Z" fill="#26272B"/>
</svg>
