<svg width="24" height="24" viewBox="0 0 24 24" fill="none" xmlns="http://www.w3.org/2000/svg">
<path fill-rule="evenodd" clip-rule="evenodd" d="M13.2923 10.7071C13.5019 10.9167 13.5073 11.2548 13.3046 11.471L12.2678 12.5769C12.1583 12.4258 12.0294 12.2727 11.8781 12.1213C11.7267 11.9699 11.5736 11.8411 11.4225 11.7316L12.5283 10.6948C12.7446 10.4921 13.0827 10.4975 13.2923 10.7071ZM10.8365 14.1037L3.72389 21.6904C3.34616 22.0933 3.36658 22.7262 3.76949 23.1039C4.1724 23.4816 4.80524 23.4612 5.18297 23.0583L14.7637 12.8389C15.7047 11.8352 15.6794 10.2658 14.7065 9.29289C13.7336 8.32001 12.1642 8.2947 11.1605 9.23571L0.941062 18.8164C0.53815 19.1941 0.517735 19.827 0.895466 20.2299C1.2732 20.6328 1.90603 20.6532 2.30894 20.2755L9.89569 13.1629C10.0317 13.2101 10.2399 13.3116 10.4638 13.5355C10.6878 13.7595 10.7893 13.9677 10.8365 14.1037Z" fill="#26272B"/>
<path fill-rule="evenodd" clip-rule="evenodd" d="M13.9994 18.5C18.6938 18.5 22.4994 14.6944 22.4994 10C22.4994 5.30558 18.6938 1.5 13.9994 1.5C9.30495 1.5 5.49937 5.30558 5.49937 10C5.49937 10.8642 5.62833 11.6982 5.86805 12.4839L10.3055 8.32379C11.8015 6.92135 14.1404 6.95906 15.5904 8.40901C17.0403 9.85896 17.078 12.1979 15.6756 13.6938L11.5154 18.1313C12.3012 18.371 13.1352 18.5 13.9994 18.5Z" fill="#26272B"/>
</svg>
