<svg width="24" height="24" viewBox="0 0 24 24" fill="none" xmlns="http://www.w3.org/2000/svg">
<g clip-path="url(#clip0_20070_3342)">
<path fill-rule="evenodd" clip-rule="evenodd" d="M3.63655 0.868546C3.79882 0.791869 4.0287 0.704121 4.28149 0.704102C4.64796 0.704073 4.91814 0.902221 5.06918 1.0423C5.23433 1.19548 5.37263 1.38614 5.48614 1.57309C5.71568 1.95116 5.91526 2.43352 6.06059 2.91796C6.20601 3.4027 6.31056 3.93425 6.32396 4.41634C6.33067 4.65747 6.31535 4.91005 6.25782 5.14875C6.25469 5.16175 6.25139 5.17486 6.24792 5.18807L7.87533 6.81548C10.312 4.56585 12.747 3.35894 14.8691 2.73647C15.2719 4.06959 16.2013 5.44055 17.325 6.53029C18.0868 7.26902 18.943 7.9278 19.811 8.40601C20.2508 8.64828 20.7076 8.85189 21.167 8.9929C20.5496 11.1249 19.3355 13.5657 17.049 15.9892L18.811 17.7512L18.8193 17.749L18.8504 17.7413C19.0891 17.6838 19.3416 17.6684 19.5828 17.6751C20.0649 17.6886 20.5964 17.7931 21.0812 17.9385C21.5656 18.0838 22.048 18.2834 22.426 18.513C22.613 18.6265 22.8036 18.7648 22.9568 18.9299C23.0969 19.081 23.295 19.3511 23.295 19.7176C23.295 19.9704 23.2072 20.2003 23.1306 20.3626C23.0469 20.5397 22.9359 20.7188 22.8158 20.8895C22.5749 21.2318 22.2574 21.5961 21.9263 21.9273C21.5951 22.2584 21.2308 22.5759 20.8885 22.8168C20.7178 22.9369 20.5387 23.0478 20.3616 23.1316C20.1993 23.2082 19.9694 23.296 19.7166 23.296C19.3501 23.296 19.0799 23.0978 18.9289 22.9577C18.7638 22.8045 18.6255 22.6139 18.512 22.4269C18.2825 22.0488 18.0829 21.5664 17.9376 21.082C17.7922 20.5972 17.6877 20.0657 17.6743 19.5836C17.6676 19.3424 17.6829 19.0899 17.7405 18.8512C17.7436 18.8382 17.7469 18.8251 17.7504 18.8118L5.18727 6.24873C5.17406 6.2522 5.16095 6.2555 5.14795 6.25863C4.90926 6.31616 4.65667 6.33149 4.41554 6.32479C3.93344 6.3114 3.40188 6.20688 2.91712 6.06148C2.43267 5.91617 1.95029 5.71661 1.5722 5.48709C1.38524 5.3736 1.19457 5.23531 1.04139 5.07018C0.901303 4.91917 0.70312 4.64899 0.703125 4.28252C0.703129 4.02971 0.790878 3.79982 0.86755 3.63755C0.951267 3.46039 1.0622 3.28129 1.18227 3.11066C1.42316 2.76834 1.74069 2.40397 2.07183 2.07284C2.40296 1.7417 2.76733 1.42417 3.10966 1.18327C3.28029 1.0632 3.45938 0.952266 3.63655 0.868546ZM14.9676 13.9077C15.5504 13.1865 15.9962 12.409 16.2505 11.6459C16.5628 10.7091 16.7253 9.29123 15.7166 8.28252C14.7079 7.27381 13.2901 7.43628 12.3532 7.74858C11.5901 8.00293 10.8126 8.44866 10.0914 9.03152L11.1592 10.0993C12.5378 9.03289 13.996 8.68329 14.6559 9.34318C15.3158 10.0031 14.9662 11.4613 13.8998 12.8399L14.9676 13.9077ZM5.71472 9.12916L8.00135 11.4158C7.74885 11.8392 7.54673 12.2705 7.40448 12.6973C7.09218 13.6342 6.92971 15.052 7.93841 16.0607C8.94712 17.0694 10.3649 16.9069 11.3018 16.5946C11.7286 16.4524 12.1599 16.2503 12.5833 15.9978L14.7118 18.1263C9.50414 22.2049 4.55359 21.8483 2.9349 21.5864C2.58799 21.5302 2.3267 21.2708 2.26772 20.9243C1.99067 19.297 1.58986 14.3024 5.71472 9.12916ZM8.99907 15C9.49716 15.4981 10.4501 15.4211 11.4803 14.8948L9.10436 12.5188C8.57804 13.549 8.50099 14.5019 8.99907 15ZM21.5903 2.93472C21.7294 3.75175 21.8997 5.4176 21.5127 7.52873C21.2066 7.42711 20.8786 7.28156 20.5348 7.0922C19.804 6.68954 19.0534 6.11691 18.3693 5.45347C17.3617 4.47637 16.6448 3.35504 16.331 2.38442C18.4455 1.98472 20.1074 2.1407 20.9231 2.27267C21.2701 2.3288 21.5314 2.58827 21.5903 2.93472Z" fill="#26272B"/>
</g>
<defs>
<clipPath id="clip0_20070_3342">
<rect width="24" height="24" fill="white"/>
</clipPath>
</defs>
</svg>
