<svg width="24" height="24" viewBox="0 0 24 24" fill="none" xmlns="http://www.w3.org/2000/svg">
<path fill-rule="evenodd" clip-rule="evenodd" d="M1.58405 1.37604C1.9287 1.14628 2.39435 1.23941 2.62412 1.58405C2.93824 2.05524 3.53036 2.3273 4.55373 2.4767C5.0527 2.54954 5.6068 2.58721 6.21801 2.62241L6.48695 2.63766C7.01265 2.66723 7.57294 2.69875 8.1354 2.75362C9.45311 2.88218 10.8776 3.14553 12.1495 3.88236C13.0133 4.38281 13.7814 5.0866 14.3992 6.06522L11.4432 9.0213C11.0787 8.02497 10.5716 7.30756 9.99446 6.76554C9.20705 6.02606 8.24271 5.56898 7.19434 5.20954C6.71891 5.04654 6.23826 4.90739 5.75207 4.76859L7.30585 13.159L5.58965 14.8752L3.58919 4.07266C2.73558 3.72335 1.92156 3.23437 1.37604 2.4161C1.14628 2.07146 1.23941 1.60581 1.58405 1.37604ZM14.9786 12.5569C15.9751 12.9214 16.6927 13.4285 17.2348 14.0056C17.9743 14.793 18.4315 15.7573 18.791 16.8056C18.9541 17.2812 19.0933 17.762 19.2322 18.2484L10.8414 16.6945L9.12519 18.4107L19.9285 20.4113C20.2778 21.2645 20.7667 22.0781 21.5847 22.6235C21.9294 22.8532 22.395 22.7601 22.6248 22.4154C22.8545 22.0708 22.7614 21.6051 22.4168 21.3754C21.9455 21.0612 21.6735 20.4691 21.524 19.4458C21.4511 18.9469 21.4134 18.3928 21.3782 17.7816L21.3629 17.5127L21.3629 17.5126V17.5126C21.3333 16.987 21.3018 16.4267 21.2469 15.8644C21.1182 14.5467 20.8548 13.1224 20.1179 11.8505C19.6174 10.9867 18.9135 10.2186 17.9348 9.60077L14.9786 12.5569ZM7.05631 18.3579L7.05624 20.3488C7.05623 20.466 7.00993 20.5785 6.9274 20.6617L5.14918 22.455C4.86975 22.7369 4.38917 22.5389 4.38922 22.1421L4.38952 19.666H1.90698C1.5111 19.666 1.31281 19.1874 1.59269 18.9074L3.36983 17.1297C3.4532 17.0463 3.56628 16.9995 3.68419 16.9995L5.58596 16.9998L17.6893 4.89645L16.7788 4.59293C16.209 4.40299 16.209 3.59701 16.7788 3.40707L21.3141 1.89528C21.8027 1.73242 22.2676 2.19725 22.1047 2.68585L20.5929 7.22122C20.403 7.79103 19.597 7.79103 19.4071 7.22122L19.1036 6.31066L7.05631 18.3579Z" fill="#26272B"/>
</svg>
