<svg width="24" height="24" viewBox="0 0 24 24" fill="none" xmlns="http://www.w3.org/2000/svg">
<path fill-rule="evenodd" clip-rule="evenodd" d="M9.5 4C9.5 2.5 10.5 1.5 12 1.5C13.5 1.5 14.5 2.5 14.5 4C14.5 4.94009 14.1072 5.88018 13.814 6.45102C13.6374 6.79476 13.625 7.20907 13.8117 7.54743C13.8463 7.61023 13.8833 7.67785 13.9224 7.75H10.0776C10.1167 7.67785 10.1537 7.61023 10.1883 7.54743C10.375 7.20907 10.3626 6.79476 10.186 6.45102C9.89279 5.88018 9.5 4.94009 9.5 4ZM9.32579 9.22966C8.95086 10.0176 8.54739 10.9506 8.21533 11.9203C7.80247 13.1261 7.5 14.3886 7.5 15.5C7.5 16.7038 7.7826 17.9077 8.1534 18.9691C8.16441 19.0006 8.1755 19.032 8.18667 19.0633C8.65876 20.3857 9.26087 21.4767 9.60781 22.0542C9.77802 22.3375 10.0864 22.5 10.4169 22.5H13.5705C13.9001 22.5 14.2076 22.3385 14.3781 22.0566C14.7267 21.4801 15.333 20.3888 15.8084 19.0656C15.8196 19.0344 15.8308 19.003 15.8418 18.9715C16.2153 17.9095 16.5 16.7048 16.5 15.5C16.5 14.3886 16.1975 13.1261 15.7847 11.9203C15.4526 10.9506 15.0491 10.0176 14.6742 9.22966C14.6183 9.24296 14.56 9.25 14.5 9.25H9.5C9.44003 9.25 9.3817 9.24296 9.32579 9.22966ZM2.09081 11.25C1.52315 12.4025 1 13.8989 1 15.5C1 18.2007 2.12455 19.7106 2.6382 20.2593C2.79254 20.4242 3.01167 20.5 3.23752 20.5H6.75024C6.87478 20.5 6.99731 20.4769 7.10806 20.4286C6.52932 19.0466 6 17.2946 6 15.5C6 14.1011 6.38817 12.5886 6.8602 11.25H2.09081ZM7.045 9.75C7.00973 9.69703 6.97558 9.64657 6.94273 9.59873C6.69206 9.23364 6.66869 8.7463 6.86522 8.34943C7.1509 7.77255 7.5 6.88628 7.5 6C7.5 4.5 6.5 3.5 5 3.5C3.5 3.5 2.5 4.5 2.5 6C2.5 6.88628 2.8491 7.77255 3.13478 8.34943C3.33131 8.7463 3.30794 9.23364 3.05727 9.59873C3.02442 9.64657 2.99027 9.69703 2.955 9.75H7.045ZM17.2375 20.5C17.1149 20.5 16.9944 20.4777 16.885 20.4309C17.4674 19.0485 18 17.2957 18 15.5C18 14.1011 17.6118 12.5886 17.1398 11.25H21.9092C22.4769 12.4025 23 13.8989 23 15.5C23 18.2047 21.8636 19.715 21.3471 20.2618C21.1929 20.425 20.9748 20.5 20.7502 20.5H17.2375ZM16.955 9.75H21.045C21.0097 9.69703 20.9756 9.64657 20.9427 9.59873C20.6921 9.23364 20.6687 8.7463 20.8652 8.34943C21.1509 7.77255 21.5 6.88628 21.5 6C21.5 4.5 20.5 3.5 19 3.5C17.5 3.5 16.5 4.5 16.5 6C16.5 6.88628 16.8491 7.77255 17.1348 8.34943C17.3313 8.7463 17.3079 9.23364 17.0573 9.59873C17.0244 9.64657 16.9903 9.69703 16.955 9.75Z" fill="#26272B"/>
</svg>
