<svg width="24" height="24" viewBox="0 0 24 24" fill="none" xmlns="http://www.w3.org/2000/svg">
<path fill-rule="evenodd" clip-rule="evenodd" d="M6 1H18C18.5523 1 19 1.44772 19 2C19 2.55228 18.5523 3 18 3H14.2038L16.2526 5.3415C16.2628 5.35322 16.2728 5.36511 16.2824 5.37716C16.7129 5.51107 17.0611 5.70966 17.3739 6.01944C17.9123 6.55259 18.124 7.21707 18.2483 8.25H5.83571C5.96003 7.21707 6.17167 6.55259 6.71007 6.01944C6.99527 5.73701 7.30988 5.547 7.68948 5.41417C7.7075 5.38931 7.72681 5.36506 7.74742 5.3415L9.79623 3H6C5.44772 3 5 2.55228 5 2C5 1.44772 5.44772 1 6 1ZM13.3288 5.03726L12 3.51859L10.667 5.04206C11.1364 5.01585 11.6021 5 12.042 5C12.4543 5 12.8893 5.01392 13.3288 5.03726ZM5.68492 10.1032L5.70848 9.75H18.3755L18.3991 10.1032C18.4806 11.332 18.542 12.6299 18.542 13.75C18.542 14.8256 18.4853 16.0651 18.4087 17.25H5.67531C5.59865 16.0651 5.54199 14.8256 5.54199 13.75C5.54199 12.6299 5.60343 11.332 5.68492 10.1032ZM6.71007 21.4806C6.08942 20.866 5.903 20.0769 5.78399 18.75H18.3C18.181 20.0769 17.9946 20.866 17.3739 21.4806C16.5666 22.28 15.5237 22.3389 13.4379 22.4568C12.9614 22.4837 12.4884 22.5 12.042 22.5C11.5956 22.5 11.1226 22.4837 10.6461 22.4568C8.56031 22.3389 7.5174 22.28 6.71007 21.4806Z" fill="#26272B"/>
</svg>
