<svg width="24" height="24" viewBox="0 0 24 24" fill="none" xmlns="http://www.w3.org/2000/svg">
<path fill-rule="evenodd" clip-rule="evenodd" d="M5.18477 12.7422C5.24366 1.90955 12.2711 -0.31929 16.1484 1.91926C19.1955 3.67853 20.3076 5.73241 20.1697 7.37261C18.892 7.21461 17.6661 7.79033 17.0788 8.80759C16.5469 9.72884 16.518 10.8027 16.9043 11.7089C17.0667 12.09 17.5073 12.2672 17.8883 12.1047C18.2694 11.9423 18.4466 11.5017 18.2842 11.1207C18.0749 10.6297 18.0918 10.053 18.3778 9.55759C18.6953 9.00776 19.6315 8.5883 20.5882 9.03035C22.5357 10.2634 22.1339 12.5519 21.2416 14.0974C20.6495 15.123 19.2107 15.8621 17.6962 16.6402C16.6992 17.1524 15.6693 17.6814 14.8267 18.3201C14.8222 18.3193 14.8176 18.3184 14.8129 18.3175C14.6815 18.2927 14.4852 18.2523 14.2352 18.1917C13.7348 18.0705 13.0212 17.8687 12.1832 17.5491C11.3963 17.249 10.502 16.8459 9.57277 16.3094C8.11784 15.4694 6.98962 14.5406 6.2266 13.8231C5.84558 13.4648 5.55706 13.1606 5.36585 12.9484C5.29 12.8643 5.22954 12.7948 5.18477 12.7422Z" fill="#26272B"/>
<path fill-rule="evenodd" clip-rule="evenodd" d="M4.4549 14.1733C4.65122 14.3821 4.89985 14.6345 5.19904 14.9159C6.02653 15.694 7.24661 16.6984 8.82277 17.6084C9.83042 18.1902 10.7982 18.6263 11.6487 18.9507C12.5543 19.2961 13.3295 19.5157 13.882 19.6495C13.9159 19.6578 13.949 19.6657 13.9812 19.6732L12.4607 22.3068C11.9084 23.2634 10.6852 23.5912 9.72865 23.0389L3.66653 19.5389C2.70994 18.9866 2.38196 17.7639 2.93423 16.8073L4.4549 14.1733Z" fill="#26272B"/>
</svg>
