<svg width="24" height="24" viewBox="0 0 24 24" fill="none" xmlns="http://www.w3.org/2000/svg">
<path fill-rule="evenodd" clip-rule="evenodd" d="M8.01334 3.79775C8.30607 3.01715 9.05231 2.5 9.886 2.5H17.25C18.4926 2.5 19.5 3.50736 19.5 4.75C19.5 5.99264 18.4926 7 17.25 7H12.3772C12.1539 7 11.9577 7.14799 11.8964 7.36264L11.3571 9.25H5.96875L8.01334 3.79775ZM1.5 14.5C1.5 12.2909 3.29086 10.5 5.5 10.5H18.5C20.7091 10.5 22.5 12.2909 22.5 14.5V15.25H1.5V14.5ZM1.5 16.75H22.5V17.5C22.5 19.7091 20.7091 21.5 18.5 21.5H5.5C3.29086 21.5 1.5 19.7091 1.5 17.5V16.75Z" fill="#26272B"/>
</svg>
