<svg width="24" height="24" viewBox="0 0 24 24" fill="none" xmlns="http://www.w3.org/2000/svg">
<path fill-rule="evenodd" clip-rule="evenodd" d="M19.4498 10.9139L21.8917 8.46957C22.2855 9.57288 22.5 10.7614 22.5 12C22.5 17.799 17.799 22.5 12 22.5C6.20101 22.5 1.5 17.799 1.5 12C1.5 6.20101 6.20101 1.5 12 1.5C13.2371 1.5 14.4243 1.71395 15.5265 2.10687L13.0846 4.55123C12.8771 4.75896 12.72 5.00761 12.6211 5.27819C12.4165 5.25954 12.2094 5.25 12 5.25C8.27208 5.25 5.25 8.27208 5.25 12C5.25 15.7279 8.27208 18.75 12 18.75C15.7279 18.75 18.75 15.7279 18.75 12C18.75 11.7906 18.7405 11.5833 18.7218 11.3788C18.9929 11.2796 19.2419 11.122 19.4498 10.9139ZM12.4997 7.96496L10.2321 10.2329C9.25586 11.2093 9.25598 12.7922 10.2324 13.7684C11.2088 14.7447 12.7917 14.7445 13.7679 13.7682L16.0355 11.5003L17.2265 11.5004C17.2421 11.6648 17.25 11.8315 17.25 12C17.25 14.8995 14.8995 17.25 12 17.25C9.1005 17.25 6.75 14.8995 6.75 12C6.75 9.1005 9.1005 6.75 12 6.75C12.1685 6.75 12.3352 6.75794 12.4996 6.77346L12.4997 7.96496ZM15.4146 9.99977L12.7072 12.7076C12.3167 13.0981 11.6835 13.0982 11.2929 12.7077C10.9024 12.3172 10.9023 11.684 11.2928 11.2935L13.9993 8.58661L13.9991 5.96448C13.9991 5.83185 14.0518 5.70466 14.1456 5.61088L18.0895 1.66716C18.4013 1.3554 18.9346 1.57044 18.943 2.01126L18.9995 4.99997L21.9881 5.05652C22.4289 5.06486 22.644 5.59824 22.3322 5.91L18.3882 9.85354C18.2945 9.94731 18.1673 9.99998 18.0347 9.99997L15.4146 9.99977Z" fill="#26272B"/>
</svg>
