<svg width="24" height="24" viewBox="0 0 24 24" fill="none" xmlns="http://www.w3.org/2000/svg">
<path fill-rule="evenodd" clip-rule="evenodd" d="M23 3C23 2.44772 22.5523 2 22 2C21.4477 2 21 2.44772 21 3V8H19.8389C19.5974 6.08896 17.973 4.49902 15.8667 4.49902H5.13414C2.37994 4.49902 0.449758 7.21754 1.35777 9.81775L1.84291 11.207C2.74827 13.7996 5.93704 14.7298 8.09435 13.0306L9.2629 12.1102C9.98885 11.5383 11.012 11.5383 11.738 12.1102L12.9065 13.0306C15.0638 14.7298 18.2526 13.7997 19.158 11.207L19.5795 10H21V16.5C21 18.1569 19.6569 19.5 18 19.5H13.8555C13.9498 19.8169 14.0004 20.1525 14.0004 20.5C14.0004 20.8475 13.9498 21.1831 13.8555 21.5H18C20.7614 21.5 23 19.2614 23 16.5V3ZM12.5 20.5C12.5 21.6046 11.6046 22.5 10.5 22.5C9.39543 22.5 8.5 21.6046 8.5 20.5C8.5 19.3954 9.39543 18.5 10.5 18.5C11.6046 18.5 12.5 19.3954 12.5 20.5ZM5.25038 8.99991C5.25038 9.41413 4.9146 9.74991 4.50038 9.74991C4.08617 9.74991 3.75038 9.41413 3.75038 8.99991C3.75038 7.75727 4.75774 6.74991 6.00038 6.74991C6.4146 6.74991 6.75038 7.0857 6.75038 7.49991C6.75038 7.91413 6.4146 8.24991 6.00038 8.24991C5.58617 8.24991 5.25038 8.5857 5.25038 8.99991ZM10.5 16C9.45628 16 8.50592 15.6003 7.79368 14.9455C8.22068 14.7605 8.63359 14.5165 9.02216 14.2104L10.1907 13.29C10.3722 13.1471 10.628 13.1471 10.8095 13.29L11.978 14.2104C12.3666 14.5165 12.7794 14.7605 13.2064 14.9455C12.4941 15.6002 11.5438 16 10.5 16Z" fill="#26272B"/>
</svg>
