<svg width="24" height="24" viewBox="0 0 24 24" fill="none" xmlns="http://www.w3.org/2000/svg">
<g clip-path="url(#clip0_20070_3306)">
<path fill-rule="evenodd" clip-rule="evenodd" d="M19.4242 1.74651C18.6432 0.965461 17.3769 0.965461 16.5958 1.74651L16.2423 2.10011L21.8992 7.75696L22.2527 7.40336C23.0337 6.62231 23.0337 5.35598 22.2527 4.57494L19.4242 1.74651ZM11.2926 2.09999C12.069 1.32362 13.3248 1.31897 14.1069 2.08606L21.9131 9.89225C22.6802 10.6744 22.6756 11.9302 21.8992 12.7066C21.1181 13.4876 19.8518 13.4876 19.0708 12.7066L16.9494 10.5853L16.9494 10.5853L13.4138 7.04981L13.4139 7.04974L11.2926 4.92842C10.5115 4.14737 10.5115 2.88104 11.2926 2.09999ZM12.3532 8.11047L8.11054 12.3531L11.6461 15.8886L15.8887 11.646L12.3532 8.11047ZM2.1002 11.2924C2.87659 10.516 4.13249 10.5114 4.9146 11.2785L12.7207 19.0846C13.4878 19.8667 13.4832 21.1226 12.7068 21.899C11.9257 22.68 10.6594 22.68 9.87837 21.899L8.81792 20.8385L8.81786 20.8386L3.161 15.1818L3.16107 15.1817L2.10019 14.1208C1.31915 13.3398 1.31915 12.0734 2.1002 11.2924ZM2.10034 16.2424L1.74719 16.5956C0.966138 17.3766 0.966139 18.6429 1.74719 19.424L4.57561 22.2524C5.35666 23.0335 6.62299 23.0335 7.40404 22.2524L7.7572 21.8993L2.10034 16.2424Z" fill="#26272B"/>
</g>
<defs>
<clipPath id="clip0_20070_3306">
<rect width="24" height="24" fill="white"/>
</clipPath>
</defs>
</svg>
