<svg width="24" height="24" viewBox="0 0 24 24" fill="none" xmlns="http://www.w3.org/2000/svg">
<path fill-rule="evenodd" clip-rule="evenodd" d="M7.7138 13.2567L8.85993 12.1016L10.9813 14.2229L9.84337 15.3697C9.78832 15.4252 9.73 15.4755 9.66903 15.5206C10.6622 17.4078 10.3652 19.7967 8.77799 21.3839C8.53583 21.6261 8.27501 21.8382 8.00016 22.0203L5.59563 19.6158L5.59551 19.6159L3.47419 17.4946L3.47431 17.4945L1.07053 15.0907C1.25263 14.8159 1.46476 14.555 1.70692 14.3129C3.29449 12.7253 5.68403 12.4285 7.57146 13.4225C7.61422 13.3647 7.66167 13.3092 7.7138 13.2567ZM21.5648 3.55651L15.2074 9.96374L13.086 7.8424L19.4352 1.44349C20.0187 0.855418 20.9685 0.851714 21.5565 1.43521C22.1446 2.01871 22.1483 2.96845 21.5648 3.55651ZM22.3854 14.3129C20.7978 12.7253 18.4082 12.4285 16.5208 13.4225C16.477 13.3633 16.4283 13.3067 16.3746 13.253L4.56092 1.43934C3.97514 0.853553 3.02539 0.853553 2.4396 1.43934C1.85382 2.02513 1.85382 2.97487 2.4396 3.56066L14.2533 15.3744C14.3071 15.4281 14.3639 15.4769 14.4232 15.5208C13.4301 17.408 13.7272 19.7968 15.3143 21.3839C15.5565 21.6261 15.8173 21.8382 16.0922 22.0203L18.4967 19.6158L18.4968 19.6159L20.6181 17.4946L20.618 17.4945L23.0218 15.0907C22.8397 14.8159 22.6276 14.555 22.3854 14.3129ZM23.0319 19.9084L21.6788 18.5553L19.5575 20.6766L20.9106 22.0297C21.4964 22.6155 22.4461 22.6155 23.0319 22.0297C23.6177 21.4439 23.6177 20.4941 23.0319 19.9084ZM1.06043 19.9084L2.41353 18.5553L4.53485 20.6766L3.18175 22.0297C2.59597 22.6155 1.64622 22.6155 1.06043 22.0297C0.474647 21.4439 0.474647 20.4941 1.06043 19.9084Z" fill="#26272B"/>
</svg>
