<svg width="24" height="24" viewBox="0 0 24 24" fill="none" xmlns="http://www.w3.org/2000/svg">
<path fill-rule="evenodd" clip-rule="evenodd" d="M17.749 1.61315C18.2612 1.54549 18.7153 1.93336 18.7477 2.4414C18.7492 2.46074 18.75 2.48028 18.75 2.5V6.93653C19.3412 7.32075 20.1862 7.95862 20.9244 8.85012C19.9709 9.45897 18.976 9.75 18 9.75C17.024 9.75 16.0291 9.45897 15.0756 8.85012C15.8138 7.95862 16.6588 7.32075 17.25 6.93653V3.00983C12.1955 4.90409 9.50179 7.81412 8.07483 11.2833C9.78342 11.9217 11 13.5688 11 15.5C11 17.9744 9.00283 19.9824 6.53251 19.9999C6.42717 21.3898 5.29048 22.4996 3.88498 22.4996C2.75954 22.4996 1.73741 21.78 1.58094 20.6655C0.682956 14.2694 4.27379 3.39302 17.749 1.61315ZM18.7434 19.0678C20.0216 18.2385 22.5 16.2159 22.5 13C22.5 11.8887 22.204 10.9199 21.7639 10.0936C20.583 10.8553 19.3011 11.25 18 11.25C16.6989 11.25 15.417 10.8553 14.2361 10.0936C13.796 10.9199 13.5 11.8887 13.5 13C13.5 16.2159 15.9785 18.2385 17.2567 19.0678C17.1105 19.1475 16.9198 19.245 16.6923 19.3474C16.1127 19.6082 15.3116 19.8928 14.407 20.0059C14.0791 20.0469 13.8166 20.2977 13.7608 20.6234C13.705 20.9492 13.869 21.2731 14.1646 21.4209C14.1643 21.4207 14.1639 21.4205 14.1639 21.4205C14.164 21.4206 14.1645 21.4209 14.1662 21.4217L14.1856 21.4319C14.203 21.441 14.2264 21.4531 14.2552 21.4675C14.3128 21.4965 14.3897 21.5337 14.4852 21.5761C14.676 21.6609 14.9388 21.7655 15.2686 21.8669C15.9285 22.0698 16.855 22.259 18.0059 22.25C19.1503 22.2411 20.0711 22.0529 20.7269 21.8559C21.0547 21.7574 21.316 21.6567 21.5059 21.5753C21.6009 21.5346 21.6777 21.4988 21.7355 21.4708C21.7876 21.4456 21.8392 21.419 21.8355 21.4209C22.1311 21.2731 22.2951 20.9492 22.2393 20.6234C22.1835 20.2977 21.921 20.0469 21.5931 20.0059C20.6885 19.8928 19.8874 19.6082 19.3078 19.3474C19.0803 19.245 18.8896 19.1475 18.7434 19.0678ZM6.5 14.25C7.19036 14.25 7.75 14.8096 7.75 15.5C7.75 16.1904 7.19036 16.75 6.5 16.75C5.80964 16.75 5.25 16.1904 5.25 15.5C5.25 14.8096 5.80964 14.25 6.5 14.25ZM9.25 15.5C9.25 13.9812 8.01878 12.75 6.5 12.75C4.98122 12.75 3.75 13.9812 3.75 15.5C3.75 17.0188 4.98122 18.25 6.5 18.25C8.01878 18.25 9.25 17.0188 9.25 15.5Z" fill="#26272B"/>
</svg>
