<svg width="24" height="24" viewBox="0 0 24 24" fill="none" xmlns="http://www.w3.org/2000/svg">
<path fill-rule="evenodd" clip-rule="evenodd" d="M19.6434 5.53145L11.4626 1.2632C10.7968 0.915847 10 1.39885 10 2.14979V9.97491C10 9.97913 10 9.98334 10.0001 9.98755C10 9.99169 10 9.99584 10 10V18C10 18.5523 10.4477 19 11 19C11.5523 19 12 18.5523 12 18V10.6306L19.5795 7.33511C20.3507 6.99984 20.3889 5.9204 19.6434 5.53145ZM8.75 16.6372C5.70717 17.0195 3.5 18.1566 3.5 19.4999C3.5 21.1567 6.85786 22.4999 11 22.4999C15.1421 22.4999 18.5 21.1567 18.5 19.4999C18.5 18.1566 16.2928 17.0195 13.25 16.6372V17.9999C13.25 19.2425 12.2426 20.2499 11 20.2499C9.75736 20.2499 8.75 19.2425 8.75 17.9999V16.6372Z" fill="#26272B"/>
</svg>
