<svg width="24" height="24" viewBox="0 0 24 24" fill="none" xmlns="http://www.w3.org/2000/svg">
<path fill-rule="evenodd" clip-rule="evenodd" d="M4.49856 14.5C7.65513 14.1054 10.8124 15.5794 12.0031 16.2183C12.2698 16.3615 12.6096 16.2545 12.7342 15.9786L19.0779 1.93246C19.3343 1.36483 19.8993 1 20.5222 1C21.6787 1 22.4457 2.19878 21.9611 3.24886L14.4646 19.4906C14.1555 20.1603 13.7611 20.7949 13.1718 21.2385C11.9308 22.1728 9.31735 23.5414 5.49855 22.5C-0.00191545 21 0.499031 15 4.49856 14.5ZM8.12386 17.352C7.76512 17.559 7.64216 18.0177 7.84923 18.3765L8.65956 19.7804C8.86663 20.1391 9.32531 20.2621 9.68405 20.055C10.0428 19.848 10.1658 19.3893 9.95869 19.0305L9.14835 17.6266C8.94129 17.2679 8.48261 17.1449 8.12386 17.352ZM4.61385 16.929C4.2551 17.1361 4.13214 17.5948 4.33921 17.9535L5.14954 19.3574C5.35661 19.7162 5.81529 19.8391 6.17403 19.6321C6.53278 19.425 6.65574 18.9663 6.44867 18.6076L5.63833 17.2037C5.43127 16.8449 4.97259 16.722 4.61385 16.929ZM19.999 21.5C21.3797 21.5 22.499 20.3807 22.499 19C22.499 17.6193 21.3797 16.5 19.999 16.5C18.6183 16.5 17.499 17.6193 17.499 19C17.499 20.3807 18.6183 21.5 19.999 21.5Z" fill="#26272B"/>
</svg>
