<svg width="24" height="24" viewBox="0 0 24 24" fill="none" xmlns="http://www.w3.org/2000/svg">
<path fill-rule="evenodd" clip-rule="evenodd" d="M12.0006 10.5C9.51532 10.5 7.5006 8.48528 7.5006 6C7.5006 3.51472 9.51532 1.5 12.0006 1.5C14.1676 1.5 15.9769 3.03176 16.4047 5.07162C16.4267 5.11806 16.4453 5.16679 16.4602 5.21761L18.231 11.2382L16.2986 11.756L15.4542 8.88509C14.6287 9.87215 13.388 10.5 12.0006 10.5ZM12.0006 8.5C13.3813 8.5 14.5006 7.38071 14.5006 6C14.5006 4.61929 13.3813 3.5 12.0006 3.5C10.6199 3.5 9.5006 4.61929 9.5006 6C9.5006 7.38071 10.6199 8.5 12.0006 8.5ZM3.82948 13.3072C3.97243 12.7737 4.52076 12.4571 5.05423 12.6L5.34711 12.6785L6.56416 8.54056C6.92175 9.30436 7.43555 9.98042 8.06444 10.5276L7.27953 13.1963L7.46904 13.2471C8.00251 13.39 8.31909 13.9384 8.17615 14.4718L6.1056 22.1992C5.96266 22.7327 5.41432 23.0493 4.88085 22.9064L2.46604 22.2593C1.93257 22.1164 1.61599 21.568 1.75893 21.0346L3.82948 13.3072ZM18.947 12.5991C19.4804 12.4561 20.0288 12.7727 20.1717 13.3062L22.2423 21.0336C22.3852 21.5671 22.0686 22.1154 21.5352 22.2583L19.1203 22.9054C18.5869 23.0483 18.0385 22.7317 17.8956 22.1983L15.8251 14.4709C15.6821 13.9374 15.9987 13.3891 16.5322 13.2461L18.947 12.5991Z" fill="#26272B"/>
</svg>
