<svg width="24" height="24" viewBox="0 0 24 24" fill="none" xmlns="http://www.w3.org/2000/svg">
<path fill-rule="evenodd" clip-rule="evenodd" d="M1.50199 11.7993C1.49992 11.9097 1.58965 12 1.70011 12H11.8001C11.9106 12 12.0001 12.0895 12.0001 12.2V18C12.0001 19.933 13.5671 21.5 15.5001 21.5C17.366 21.5 18.8908 20.0399 18.9945 18.2C19.0007 18.0897 19.0897 18 19.2001 18H20.5137C20.5791 18 20.6405 17.9681 20.6773 17.9141C21.8275 16.2298 22.5001 14.1935 22.5001 12C22.5001 6.20101 17.7991 1.5 12.0001 1.5C6.26817 1.5 1.60897 6.09292 1.50199 11.7993ZM17 18C17 18.8284 16.3285 19.5 15.5 19.5C14.6716 19.5 14 18.8284 14 18C14 17.1716 14.6716 16.5 15.5 16.5C16.3285 16.5 17 17.1716 17 18ZM11.1686 20.4999C11.118 20.4123 11.0699 20.3231 11.0246 20.2323L11.0228 20.2288C10.9332 20.049 10.8541 19.8632 10.7862 19.6719C10.7152 19.4715 10.6565 19.2651 10.6112 19.0538C10.5806 18.9114 10.4166 18.838 10.2946 18.9175L7.55654 20.702C7.49302 20.7434 7.41145 20.7455 7.34658 20.7062C6.80681 20.3796 6.30405 19.9977 5.84614 19.5686C5.81236 19.5369 5.77882 19.505 5.74553 19.4728C5.51779 19.2527 5.30163 19.0207 5.09805 18.7779C5.02176 18.6868 4.94725 18.5943 4.87455 18.5003C4.784 18.3832 4.8533 18.2143 4.9993 18.1898L10.3331 17.2941C10.4294 17.2779 10.5 17.1945 10.5 17.0969V15.4745C10.5 15.3508 10.3889 15.2567 10.2669 15.2772L2.9008 16.5142C2.58739 16.5668 2.31765 16.7653 2.17415 17.0488C2.03066 17.3324 2.03048 17.6673 2.17368 17.951C3.23409 20.0518 4.94768 21.7654 7.04851 22.8258C7.36676 22.9864 7.74646 22.9655 8.04512 22.7708L11.1055 20.7763C11.1971 20.7166 11.2234 20.5946 11.1686 20.4999Z" fill="#26272B"/>
</svg>
