<svg width="24" height="24" viewBox="0 0 24 24" fill="none" xmlns="http://www.w3.org/2000/svg">
<path fill-rule="evenodd" clip-rule="evenodd" d="M18.2965 10.8645L13.5095 19.1558L13.509 19.1555L13.5078 19.1576C13.5005 19.1703 13.493 19.183 13.4854 19.1955C11.6794 22.2731 7.72515 23.3213 4.62979 21.5342C1.52089 19.7392 0.455969 15.764 2.2509 12.6551C2.80338 11.6991 4.02618 11.3717 4.98252 11.9238C5.93886 12.476 6.26727 13.699 5.71557 14.6555L5.7146 14.6572C5.02424 15.8529 5.43393 17.3819 6.62966 18.0722C7.81401 18.756 9.3253 18.3606 10.0248 17.1911C10.031 17.1799 10.0373 17.1687 10.0437 17.1576C10.0486 17.1492 10.0534 17.1409 10.0584 17.1326C10.0615 17.1273 10.0647 17.122 10.0679 17.1168L14.8323 8.8646L14.8324 8.86467L18.2965 10.8645ZM19.0465 9.56542L20.6341 6.81553L17.17 4.81568L15.5823 7.56556L15.5824 7.5656L19.0465 9.56542ZM17.92 3.51663L21.3841 5.51649L22.2595 4.00033C22.8118 3.04375 22.484 1.82057 21.5274 1.26828C20.5709 0.715998 19.3477 1.04375 18.7954 2.00033L17.92 3.51663ZM19.5005 22C21.1573 22 22.5005 20.6569 22.5005 19C22.5005 17.3431 21.1573 16 19.5005 16C17.8436 16 16.5005 17.3431 16.5005 19C16.5005 20.6569 17.8436 22 19.5005 22Z" fill="#26272B"/>
</svg>
