<svg width="24" height="24" viewBox="0 0 24 24" fill="none" xmlns="http://www.w3.org/2000/svg">
<path fill-rule="evenodd" clip-rule="evenodd" d="M6.99981 15.9991C5.07288 14.843 2.46391 15.9106 1.97644 18.1043L1.54066 20.0653C1.2631 21.3143 2.21257 22.4991 3.49206 22.4991H6.99981C8.94024 22.4991 10.4196 22.1917 11.3527 21.9178C11.7325 21.8063 12.0695 21.6109 12.3605 21.3574C12.1289 20.8701 11.9993 20.3249 11.9993 19.7494C11.9993 17.7281 13.5984 16.0803 15.6006 16.0023L18.4596 10.9341C18.4036 10.9176 18.3486 10.8942 18.2959 10.8638L14.8473 8.87292L11.0581 15.3987C11.0367 15.4356 11.0167 15.4729 10.9967 15.5103C10.9804 15.5408 10.964 15.5714 10.9469 15.6016C10.7061 16.0277 9.60991 17.5652 6.99981 15.9991ZM13.5001 19.7258L13.4994 19.7272C13.5071 18.9275 13.932 18.2276 14.5669 17.8347L14.5664 17.8356C14.9102 17.6225 15.3157 17.4995 15.75 17.4995H20.25C21.4926 17.4995 22.5 18.5069 22.5 19.7495C22.5 20.9922 21.4926 21.9995 20.25 21.9995H15.75C14.5074 21.9995 13.5 20.9922 13.5 19.7495C13.5 19.7416 13.5 19.7337 13.5001 19.7258ZM15.6005 7.57574L19.0458 9.56471C19.0941 9.59259 19.1381 9.62502 19.1776 9.66116L20.752 6.87021C20.7116 6.85546 20.6719 6.83703 20.6334 6.81479L17.1949 4.82976L15.6005 7.57574ZM17.9481 3.53257L21.3833 5.51572C21.4174 5.53539 21.4494 5.55734 21.4791 5.58125L22.5226 3.73144C23.0632 2.77315 22.7282 1.55819 21.7729 1.01232L21.7243 0.984546C20.77 0.439206 19.5544 0.766212 19.0025 1.71676L17.9481 3.53257Z" fill="#26272B"/>
</svg>
