<svg width="24" height="24" viewBox="0 0 24 24" fill="none" xmlns="http://www.w3.org/2000/svg">
<path fill-rule="evenodd" clip-rule="evenodd" d="M3.17842 5.56405C3.08791 5.21098 3.14562 4.82427 3.4016 4.56479C5.64037 2.29542 8.73074 1.70657 10.1838 1.55377C10.6578 1.50392 11.0683 1.83669 11.1618 2.30411L11.5435 4.2124L9.37496 4.79345C8.97486 4.90066 8.73742 5.31191 8.84463 5.71201C8.95183 6.11211 9.36309 6.34955 9.76319 6.24234L11.8423 5.68524C11.9451 6.11512 12.0938 6.52729 12.2831 6.91611L10.875 7.29342C10.4749 7.40063 10.2374 7.81188 10.3446 8.21198C10.4519 8.61208 10.8631 8.84952 11.2632 8.74231L13.1575 8.23474C13.8882 9.0717 14.85 9.70493 15.9535 10.036L20.6622 11.4486C21.7536 11.776 22.501 12.7806 22.501 13.92C22.501 15.345 21.3458 16.5002 19.9208 16.5002H19.8089C19.4026 15.4534 18.391 14.7502 17.251 14.7502C16.1109 14.7502 15.0994 15.4534 14.6931 16.5002H9.3089C8.90256 15.4534 7.89103 14.7502 6.75098 14.7502C5.61093 14.7502 4.5994 15.4534 4.19305 16.5002H3.76607C1.77368 16.5002 0.692608 13.4452 1.76725 11.7675C3.04453 9.7734 3.69443 7.57686 3.17842 5.56405ZM3.17827 19C2.76936 19 2.40165 19.249 2.24979 19.6286L1.77551 20.8143C1.64414 21.1427 1.88602 21.5 2.23975 21.5H21.7627C22.1165 21.5 22.3583 21.1427 22.227 20.8143L21.7527 19.6286C21.6008 19.249 21.2331 19 20.8242 19H19.6783C19.2694 19 18.9017 18.751 18.7498 18.3714L18.2527 17.1286C18.1008 16.749 17.7331 16.5 17.3242 16.5H17.1783C16.7694 16.5 16.4017 16.749 16.2498 17.1286L15.7527 18.3714C15.6008 18.751 15.2331 19 14.8242 19H9.17827C8.76936 19 8.40165 18.751 8.24979 18.3714L7.75268 17.1286C7.60081 16.749 7.23311 16.5 6.8242 16.5H6.67827C6.26936 16.5 5.90165 16.749 5.74979 17.1286L5.25268 18.3714C5.10081 18.751 4.73311 19 4.3242 19H3.17827Z" fill="#26272B"/>
</svg>
