<svg width="24" height="24" viewBox="0 0 24 24" fill="none" xmlns="http://www.w3.org/2000/svg">
<path fill-rule="evenodd" clip-rule="evenodd" d="M14.2104 4.09371C14.5609 4.07303 14.9205 4.09351 15.2841 4.1596C17.4038 4.54502 18.9641 6.37819 18.9993 8.51648C18.9995 8.52546 18.9997 8.53441 19.0001 8.54333C18.9994 8.55902 18.999 8.5748 18.999 8.59067V9.50003H20.999V8.59067C20.999 8.57617 20.9987 8.56175 20.9981 8.54741C20.9991 8.52629 20.9994 8.505 20.9991 8.48357C20.948 5.38361 18.6929 2.7466 15.6418 2.19186C14.3613 1.95904 13.1073 2.11957 11.999 2.57969C10.8907 2.11959 9.63673 1.95906 8.35621 2.19189C5.26994 2.75303 2.99902 5.44482 2.99902 8.59067V9.50003H4.99902V8.59067C4.99902 6.42036 6.56985 4.54947 8.71398 4.15963C9.07749 4.09353 9.4371 4.07305 9.78762 4.09373C8.68871 5.24032 7.99902 6.79683 7.99902 8.54149C7.99902 8.5415 7.99902 8.54151 7.99902 8.54152V11.0005C7.99902 13.2096 9.78988 15.0005 11.999 15.0005C14.2082 15.0005 15.999 13.2096 15.999 11.0005V8.54152C15.999 6.79683 15.3093 5.2403 14.2104 4.09371ZM11.999 4.83564C10.8007 5.6304 9.99902 6.98057 9.99902 8.54149C9.99902 8.5415 9.99902 8.54151 9.99902 8.54152V11.0005C9.99902 12.1051 10.8945 13.0005 11.999 13.0005C13.1036 13.0005 13.999 12.1051 13.999 11.0005V8.54152C13.999 6.98058 13.1973 5.6304 11.999 4.83564ZM2.64361 11C1.91977 11 1.47267 11.7897 1.84508 12.4104C2.26895 13.1168 2.44666 13.9439 2.3504 14.7621L1.76166 19.7663C1.62178 20.9553 2.55077 22 3.74796 22H4.24979C5.44697 22 6.37597 20.9553 6.23609 19.7663L5.64735 14.7621C5.55109 13.9439 5.7288 13.1168 6.15266 12.4104C6.52508 11.7897 6.07798 11 5.35414 11H2.64361ZM18.6436 11C17.9198 11 17.4727 11.7897 17.8451 12.4104C18.269 13.1168 18.4467 13.9439 18.3504 14.7621L17.7617 19.7663C17.6218 20.9553 18.5508 22 19.748 22H20.2498C21.447 22 22.376 20.9553 22.2361 19.7663L21.6473 14.7621C21.5511 13.9439 21.7288 13.1168 22.1527 12.4104C22.5251 11.7897 22.078 11 21.3541 11H18.6436Z" fill="#26272B"/>
</svg>
