<svg width="24" height="24" viewBox="0 0 24 24" fill="none" xmlns="http://www.w3.org/2000/svg">
<path fill-rule="evenodd" clip-rule="evenodd" d="M7.65718 4.87837C7.66672 4.91153 7.68542 4.95397 7.71879 4.99986L8.82117 6.51563C7.84647 6.84221 6.93874 7.31485 6.12397 7.90753L5.29258 6.76438C4.33001 5.44084 4.31195 3.18207 6.26103 2.22142C7.51427 1.60372 9.4086 1 12.0005 1C14.5924 1 16.4867 1.60372 17.74 2.22142C19.6891 3.18207 19.671 5.44084 18.7084 6.76438L17.8769 7.90775C17.0621 7.31504 16.1544 6.84237 15.1798 6.51575L16.2822 4.99986C16.3156 4.95397 16.3343 4.91153 16.3438 4.87837C15.4747 4.46195 14.0534 4 12.0005 4C9.94765 4 8.52631 4.46195 7.65718 4.87837ZM16.8944 9.04918C16.928 9.07287 16.9614 9.09679 16.9946 9.12094L16.9946 9.12095C19.119 10.6662 20.5 13.1716 20.5 15.9995C20.5 18.2492 19.626 20.2948 18.1991 21.8152C17.8447 22.1928 17.3366 22.3745 16.8187 22.3745H7.18128C6.66341 22.3745 6.15533 22.1928 5.80094 21.8152C4.37398 20.2948 3.5 18.2492 3.5 15.9995C3.5 11.3051 7.30558 7.49951 12 7.49951C13.7304 7.49951 15.3399 8.01656 16.6827 8.90457C16.754 8.95174 16.8246 8.99995 16.8944 9.04918ZM12 13.2495C13.5188 13.2495 14.75 14.4807 14.75 15.9995C14.75 17.5183 13.5188 18.7495 12 18.7495C10.4812 18.7495 9.25 17.5183 9.25 15.9995C9.25 14.4807 10.4812 13.2495 12 13.2495ZM7.75 15.9995C7.75 18.3467 9.65279 20.2495 12 20.2495C14.3472 20.2495 16.25 18.3467 16.25 15.9995C16.25 13.6523 14.3472 11.7495 12 11.7495C9.65279 11.7495 7.75 13.6523 7.75 15.9995Z" fill="#26272B"/>
</svg>
