<svg width="24" height="24" viewBox="0 0 24 24" fill="none" xmlns="http://www.w3.org/2000/svg">
<path fill-rule="evenodd" clip-rule="evenodd" d="M3.38061 11.6964C3.78683 11.1001 4.49309 10.5 5.49938 10.5C6.63037 10.5 7.2876 11.258 7.68541 11.9167C7.89538 12.2644 8.25595 12.5 8.66213 12.5C9.15419 12.5 9.57949 12.1549 9.84924 11.7433C10.25 11.132 10.9667 10.5 11.9994 10.5C13.1304 10.5 13.7876 11.258 14.1854 11.9167C14.3954 12.2644 14.756 12.5 15.1621 12.5C15.6542 12.5 16.0795 12.1549 16.3492 11.7433C16.75 11.132 17.4667 10.5 18.4994 10.5C19.5733 10.5 20.2201 11.1834 20.6232 11.8164C20.8802 12.22 21.3016 12.5 21.7802 12.5C22.4559 12.5 23.0201 11.9665 22.9744 11.2923C22.5911 5.64703 17.7817 1 11.9994 1C6.17849 1 1.34362 5.70917 1.01733 11.4053C0.9823 12.0167 1.49298 12.5 2.10543 12.5C2.63081 12.5 3.08482 12.1306 3.38061 11.6964ZM9.68304 18.4213L8.01165 13.6578C8.21547 13.7177 8.43277 13.7507 8.66096 13.7507C9.19323 13.7507 9.64638 13.5751 10.0153 13.3276L11.9986 18.98L13.9532 13.4097C14.2996 13.6212 14.7089 13.7507 15.161 13.7507C15.4705 13.7507 15.7534 13.6913 16.0084 13.5929L14.3142 18.4213L20.0845 12.9395C20.6216 13.3774 21.3092 13.7236 22.136 13.7492L12.6874 22.7254C12.3014 23.0921 11.6959 23.0921 11.3099 22.7254L1.83594 13.7251C2.44055 13.6477 2.96189 13.4045 3.38396 13.1385C3.53193 13.0453 3.67421 12.945 3.80992 12.8418L9.68304 18.4213Z" fill="#26272B"/>
</svg>
