<svg width="24" height="24" viewBox="0 0 24 24" fill="none" xmlns="http://www.w3.org/2000/svg">
<path fill-rule="evenodd" clip-rule="evenodd" d="M2 2C1.44772 2 1 2.44772 1 3C1 3.55228 1.44772 4 2 4H6.5V7.58296C3.66229 8.05904 1.5 10.527 1.5 13.5C1.5 16.8137 4.18629 19.5 7.5 19.5C8.26782 19.5 9.00251 19.3553 9.67779 19.0921C9.25908 18.1781 9.01865 17.1654 9.00102 16.0984C8.55952 16.3542 8.04745 16.5 7.5 16.5C5.84315 16.5 4.5 15.1569 4.5 13.5C4.5 11.8431 5.84315 10.5 7.5 10.5C8.62319 10.5 9.60303 11.1179 10.1171 12.0319C10.6609 11.1528 11.3812 10.3945 12.2285 9.8064C11.3252 8.65134 10.0082 7.83587 8.5 7.58293V4H15.5V10.1103C12.6623 10.5864 10.5 13.0543 10.5 16.0273C10.5 19.3411 13.1863 22.0273 16.5 22.0273C19.8137 22.0273 22.5 19.3411 22.5 16.0273C22.5 13.0543 20.3377 10.5864 17.5 10.1103V4H22C22.5523 4 23 3.55228 23 3C23 2.44772 22.5523 2 22 2H16.5H7.5H2ZM16.5 13.0273C18.1569 13.0273 19.5 14.3705 19.5 16.0273C19.5 17.6842 18.1569 19.0273 16.5 19.0273C14.8431 19.0273 13.5 17.6842 13.5 16.0273C13.5 14.3705 14.8431 13.0273 16.5 13.0273Z" fill="#26272B"/>
</svg>
