<svg width="24" height="24" viewBox="0 0 24 24" fill="none" xmlns="http://www.w3.org/2000/svg">
<path fill-rule="evenodd" clip-rule="evenodd" d="M3.00103 5C6.00103 1.5 11.001 1.5 11.001 1.5L11.5435 4.21217L9.37496 4.79322C8.97486 4.90043 8.73742 5.31168 8.84463 5.71178C8.95183 6.11188 9.36309 6.34932 9.76319 6.24211L11.8423 5.68501C11.9451 6.11489 12.0938 6.52706 12.2831 6.91588L10.875 7.29319C10.4749 7.4004 10.2374 7.81165 10.3446 8.21175C10.4519 8.61185 10.8631 8.84929 11.2632 8.74208L13.1575 8.23451C13.8882 9.07147 14.85 9.7047 15.9535 10.0357L20.6622 11.4484C21.7536 11.7758 22.501 12.7803 22.501 13.9198C22.501 14.4353 22.3498 14.9155 22.0894 15.3185C21.3573 14.8028 20.4645 14.5 19.501 14.5C17.9408 14.5 16.566 15.294 15.7588 16.5H15.7432C14.9359 15.294 13.5612 14.5 12.001 14.5C10.4408 14.5 9.06601 15.294 8.25875 16.5H8.2432C7.43594 15.294 6.06118 14.5 4.50098 14.5C3.53147 14.5 2.63358 14.8066 1.89896 15.3281C1.25466 14.2868 1.12022 12.7774 1.76725 11.7673C3.1649 9.58525 3.81135 7.16085 3.00103 5ZM3.50098 19C3.50098 18.4477 3.94869 18 4.50098 18C5.05326 18 5.50098 18.4477 5.50098 19C5.50098 19.5523 5.05326 20 4.50098 20C3.94869 20 3.50098 19.5523 3.50098 19ZM4.50098 16C2.84412 16 1.50098 17.3431 1.50098 19C1.50098 20.6569 2.84412 22 4.50098 22C6.15783 22 7.50098 20.6569 7.50098 19C7.50098 17.3431 6.15783 16 4.50098 16ZM11.001 19C11.001 18.4477 11.4487 18 12.001 18C12.5533 18 13.001 18.4477 13.001 19C13.001 19.5523 12.5533 20 12.001 20C11.4487 20 11.001 19.5523 11.001 19ZM12.001 16C10.3441 16 9.00098 17.3431 9.00098 19C9.00098 20.6569 10.3441 22 12.001 22C13.6578 22 15.001 20.6569 15.001 19C15.001 17.3431 13.6578 16 12.001 16ZM18.501 19C18.501 18.4477 18.9487 18 19.501 18C20.0533 18 20.501 18.4477 20.501 19C20.501 19.5523 20.0533 20 19.501 20C18.9487 20 18.501 19.5523 18.501 19ZM19.501 16C17.8441 16 16.501 17.3431 16.501 19C16.501 20.6569 17.8441 22 19.501 22C21.1578 22 22.501 20.6569 22.501 19C22.501 17.3431 21.1578 16 19.501 16Z" fill="#26272B"/>
</svg>
