<svg width="24" height="24" viewBox="0 0 24 24" fill="none" xmlns="http://www.w3.org/2000/svg">
<path fill-rule="evenodd" clip-rule="evenodd" d="M21.1944 3.19437C21.9256 3.92561 22.611 6.39859 22.3204 9.39863C18.4621 8.99238 15.3964 5.92664 14.9901 2.06833C17.9902 1.77777 20.4631 2.46313 21.1944 3.19437ZM13.5051 2.28847C14.0088 6.79907 17.5897 10.38 22.1003 10.8837C21.6141 13.3095 20.4553 15.9334 18.1944 18.1944C15.9334 20.4553 13.3095 21.6141 10.8837 22.1003C10.38 17.5897 6.79906 14.0088 2.28847 13.5051C2.77464 11.0792 3.93342 8.45532 6.19437 6.19437C8.45532 3.93342 11.0792 2.77465 13.5051 2.28847ZM9.39863 22.3204C6.39859 22.611 3.92561 21.9256 3.19437 21.1944C2.46313 20.4631 1.77777 17.9902 2.06833 14.9901C5.92664 15.3964 8.99238 18.4621 9.39863 22.3204ZM15.2247 9.16404C14.9318 8.87115 14.4569 8.87115 14.164 9.16404L13.4444 9.88371L12.2247 8.66404C11.9318 8.37115 11.4569 8.37115 11.164 8.66404C10.8711 8.95694 10.8711 9.43181 11.164 9.7247L12.3837 10.9444L10.9444 12.3837L9.7247 11.164C9.43181 10.8711 8.95694 10.8711 8.66404 11.164C8.37115 11.4569 8.37115 11.9318 8.66404 12.2247L9.88371 13.4444L9.16404 14.164C8.87115 14.4569 8.87115 14.9318 9.16404 15.2247C9.45694 15.5176 9.93181 15.5176 10.2247 15.2247L10.9444 14.505L12.164 15.7247C12.4569 16.0176 12.9318 16.0176 13.2247 15.7247C13.5176 15.4318 13.5176 14.9569 13.2247 14.664L12.005 13.4444L13.4444 12.005L14.664 13.2247C14.9569 13.5176 15.4318 13.5176 15.7247 13.2247C16.0176 12.9318 16.0176 12.4569 15.7247 12.164L14.505 10.9444L15.2247 10.2247C15.5176 9.93181 15.5176 9.45694 15.2247 9.16404Z" fill="#26272B"/>
</svg>
