<svg width="24" height="24" viewBox="0 0 24 24" fill="none" xmlns="http://www.w3.org/2000/svg">
<path fill-rule="evenodd" clip-rule="evenodd" d="M22.9998 16.2498H1.49998L1.49997 17C1.49996 17.5523 1.94768 17.9996 2.49997 17.9996H21.9998C22.552 17.9996 22.9998 17.5519 22.9998 16.9996L22.9998 16.2498ZM22.9954 14.7498H1.43979C0.647124 11.329 1.33313 8.66307 2.85196 7.07471C3.19589 6.71504 3.76376 6.76236 4.18348 7.02973C4.92089 7.49946 6.08523 7.99962 7.49966 7.99962C8.84448 7.99962 9.96323 7.24606 10.7039 6.499C11.1619 6.03701 11.873 6.00591 12.2707 6.52077C12.3351 6.60422 12.4033 6.69043 12.4754 6.77863L10.8835 9.07211C10.6473 9.41239 10.7317 9.87971 11.072 10.1159C11.4123 10.3521 11.8796 10.2677 12.1158 9.9274L13.5347 7.88304C13.8677 8.17348 14.2454 8.45349 14.6726 8.69912L13.7647 10.1404C13.5439 10.4909 13.6491 10.9539 13.9995 11.1747C14.35 11.3955 14.8131 11.2904 15.0339 10.9399L16.0685 9.29757C16.3619 9.38409 16.672 9.45281 16.9997 9.49962C20.4152 9.98755 22.8786 11.4278 22.9954 14.7498Z" fill="#26272B"/>
</svg>
