<svg width="24" height="24" viewBox="0 0 24 24" fill="none" xmlns="http://www.w3.org/2000/svg">
<path fill-rule="evenodd" clip-rule="evenodd" d="M10.999 1.39064V11.0003C10.999 11.2764 11.2229 11.5003 11.499 11.5003H19.4374C19.8604 11.5003 20.0923 11.0079 19.8229 10.6818L11.8845 1.0722C11.586 0.710841 10.999 0.921927 10.999 1.39064ZM11.2324 20.9499C11.6867 20.6092 12.3114 20.6091 12.7657 20.9499L12.8217 20.9919C14.3095 22.1077 16.3552 22.1077 17.843 20.9919C18.2871 20.6588 18.903 20.6789 19.3245 21.0402L20.0229 21.6388C20.6519 22.1779 21.5988 22.1051 22.1379 21.4761C22.6771 20.8471 22.6042 19.9001 21.9752 19.361L21.2768 18.7624C19.7878 17.486 17.612 17.4152 16.043 18.5919C15.6219 18.9077 15.0429 18.9077 14.6217 18.5919L14.5657 18.5499C13.0447 17.4092 10.9534 17.4092 9.43238 18.5499L9.37636 18.5919C8.95524 18.9077 8.37619 18.9077 7.95507 18.5919C6.38609 17.4152 4.21032 17.486 2.72125 18.7624L2.02286 19.361C1.39387 19.9001 1.32103 20.8471 1.86017 21.4761C2.3993 22.1051 3.34625 22.1779 3.97524 21.6388L4.67362 21.0402C5.09511 20.6789 5.71097 20.6588 6.15507 20.9919C7.64286 22.1077 9.68857 22.1077 11.1764 20.9919L11.2324 20.9499ZM4.58593 11.5H8.99882C9.27496 11.5 9.49882 11.2761 9.49882 11V5.85159C9.49882 5.38738 8.92129 5.17374 8.61919 5.52619L4.2063 10.6746C3.9283 10.9989 4.15875 11.5 4.58593 11.5ZM22.156 13H1.84055C1.46102 13 1.21986 13.4062 1.4016 13.7394L2.96991 16.6147C3.02033 16.7071 3.13368 16.7442 3.23068 16.7032C4.94391 15.9791 6.94217 16.1296 8.54761 17.1767C8.61781 17.2225 8.70902 17.2219 8.77858 17.1752C10.7248 15.8675 13.2733 15.8675 15.2196 17.1752C15.2891 17.2219 15.3804 17.2225 15.4505 17.1767C17.0556 16.1298 19.0533 15.9792 20.7662 16.7027C20.8632 16.7437 20.9765 16.7065 21.027 16.6141L22.595 13.7394C22.7767 13.4062 22.5355 13 22.156 13Z" fill="#26272B"/>
</svg>
