<svg width="24" height="24" viewBox="0 0 24 24" fill="none" xmlns="http://www.w3.org/2000/svg">
<path fill-rule="evenodd" clip-rule="evenodd" d="M9.94315 2.04384C15.0062 2.58943 19.0285 8.12417 20.2512 11.3611L10.7884 12.6515C10.9098 10.2858 10.8703 6.09244 9.47098 2.73564C9.32797 2.39256 9.5736 2.00402 9.94315 2.04384ZM9.24818 8.68164C8.16511 10.2929 6.73412 11.9787 5.36719 13.3903L9.27493 12.8574C9.32271 12.0667 9.35612 11.0075 9.31277 9.82055C9.29917 9.4481 9.27812 9.06723 9.24818 8.68164ZM22.0965 12.624L1.90958 15.3767C1.51723 15.4302 1.33981 15.8969 1.59751 16.1975L2.40307 17.1373C4.30761 15.9293 6.77614 15.9559 8.66451 17.2544C10.6626 15.8411 13.3374 15.8411 15.3355 17.2544C17.0352 16.0856 19.2049 15.9473 21.0103 16.8122L22.618 13.3289C22.7835 12.9704 22.4877 12.5706 22.0965 12.624ZM11.2334 20.9499C11.6877 20.6092 12.3124 20.6091 12.7667 20.9499L12.8227 20.9919C14.3105 22.1077 16.3562 22.1077 17.844 20.9919C18.2881 20.6588 18.904 20.6789 19.3255 21.0402L20.0238 21.6388C20.6528 22.1779 21.5998 22.1051 22.1389 21.4761C22.678 20.8471 22.6052 19.9001 21.9762 19.361L21.2778 18.7624C19.7888 17.486 17.613 17.4152 16.044 18.5919C15.6229 18.9077 15.0438 18.9077 14.6227 18.5919L14.5667 18.5499C13.0457 17.4092 10.9543 17.4092 9.43336 18.5499L9.37734 18.5919C8.95622 18.9077 8.37717 18.9077 7.95605 18.5919C6.38706 17.4152 4.2113 17.486 2.72222 18.7624L2.02384 19.361C1.39485 19.9001 1.32201 20.8471 1.86114 21.4761C2.40028 22.1051 3.34723 22.1779 3.97621 21.6388L4.6746 21.0402C5.09608 20.6789 5.71194 20.6588 6.15605 20.9919C7.64384 22.1077 9.68955 22.1077 11.1773 20.9919L11.2334 20.9499Z" fill="#26272B"/>
</svg>
