<svg width="24" height="24" viewBox="0 0 24 24" fill="none" xmlns="http://www.w3.org/2000/svg">
<path fill-rule="evenodd" clip-rule="evenodd" d="M2.5 5.5C2.5 3.84315 3.84315 2.5 5.5 2.5H18.5C20.1569 2.5 21.5 3.84315 21.5 5.5V18.5C21.5 20.1569 20.1569 21.5 18.5 21.5H5.5C3.84315 21.5 2.5 20.1569 2.5 18.5V5.5ZM12 6.75C13.7196 6.75 15.1872 7.13578 16.1971 7.50551C16.832 7.7379 17.25 8.39155 17.25 9.19857V12.2338C17.25 12.3208 17.203 12.4276 17.0686 12.5127C16.9306 12.6002 16.7691 12.617 16.6458 12.5726C15.6015 12.1964 14.132 11.8099 12.4056 11.7563L10.624 9.08397C10.3943 8.73933 9.92862 8.6462 9.58397 8.87596C9.23933 9.10573 9.1462 9.57138 9.37596 9.91603L10.6452 11.82C9.3283 11.9555 8.20138 12.2674 7.35424 12.5726C7.23093 12.617 7.06942 12.6002 6.93139 12.5127C6.79704 12.4276 6.75 12.3208 6.75 12.2338V9.19857C6.75 8.39155 7.16804 7.7379 7.80286 7.50551C8.81282 7.13578 10.2804 6.75 12 6.75ZM12.0112 13.25C13.6923 13.2516 15.1318 13.6216 16.1374 13.9838C16.7454 14.2028 17.3881 14.0861 17.8715 13.7798C18.3585 13.4712 18.75 12.9241 18.75 12.2338V9.19857C18.75 7.89801 18.0571 6.58904 16.7128 6.09692C15.5851 5.68411 13.9398 5.25 12 5.25C10.0602 5.25 8.41489 5.68411 7.28721 6.09692C5.9429 6.58904 5.25 7.89801 5.25 9.19857V12.2338C5.25 12.9241 5.64151 13.4712 6.12854 13.7798C6.61188 14.0861 7.25457 14.2028 7.86256 13.9838C8.86843 13.6215 10.3083 13.2515 11.9897 13.25" fill="#26272B"/>
</svg>
