<svg width="24" height="24" viewBox="0 0 24 24" fill="none" xmlns="http://www.w3.org/2000/svg">
<path fill-rule="evenodd" clip-rule="evenodd" d="M14.5 2.5H15.909C17.3059 2.5 18.518 3.46423 18.8321 4.82542L21.3218 15.614C22.5791 15.9713 23.5 17.1281 23.5 18.5C23.5 20.1569 22.1569 21.5 20.5 21.5C18.8431 21.5 17.5 20.1569 17.5 18.5C17.5 17.2696 18.2407 16.2122 19.3005 15.7494L19.0725 14.7615C17.5682 15.3362 16.5 16.794 16.5 18.4996V19C16.5 19.5523 16.0523 20 15.5 20V20.0006L6.0981 20.001C5.57925 20.8971 4.61003 21.5 3.5 21.5C1.84315 21.5 0.5 20.1569 0.5 18.5C0.5 16.8431 1.84315 15.5 3.5 15.5C4.61112 15.5 5.58115 16.1041 6.09963 17.0017L14.6886 17.001C15.1978 15.0202 16.6931 13.4357 18.6199 12.8003L16.8834 5.27514C16.7787 4.82141 16.3746 4.5 15.909 4.5H14.5C13.9477 4.5 13.5 4.05228 13.5 3.5C13.5 2.94772 13.9477 2.5 14.5 2.5ZM20.4846 17.5001C19.9394 17.5083 19.5 17.9528 19.5 18.5C19.5 19.0523 19.9477 19.5 20.5 19.5C21.0523 19.5 21.5 19.0523 21.5 18.5C21.5 17.9525 21.0601 17.5078 20.5145 17.5001C20.5045 17.5003 20.4946 17.5003 20.4846 17.5001ZM3.5 17.5C2.94772 17.5 2.5 17.9477 2.5 18.5C2.5 19.0523 2.94772 19.5 3.5 19.5C4.05228 19.5 4.5 19.0523 4.5 18.5C4.5 17.9477 4.05228 17.5 3.5 17.5Z" fill="#26272B"/>
</svg>
