<svg width="24" height="24" viewBox="0 0 24 24" fill="none" xmlns="http://www.w3.org/2000/svg">
<path fill-rule="evenodd" clip-rule="evenodd" d="M14.1219 3.51532L14.1218 3.51543L13.7679 3.1615C13.3774 2.77098 12.7442 2.77098 12.3537 3.1615L10.9395 4.57572C10.5489 4.96624 10.5489 5.59941 10.9395 5.98993L11.6466 6.69704C11.713 6.76342 11.7864 6.81852 11.8644 6.86233L11.8783 6.86999C12.2573 7.07522 12.7409 7.01765 13.0613 6.6973L14.4755 5.28309C14.866 4.89257 14.866 4.2594 14.4755 3.86888L14.1219 3.51532ZM15.5361 2.80822L15.2614 2.53351C17 1.43802 19.3251 1.64744 20.8394 3.16177C22.3538 4.6761 22.5632 7.0012 21.4677 8.73978L21.193 8.46507C20.2167 7.48876 18.6338 7.48876 17.6575 8.46507L17.4807 8.64185L15.3594 6.52053L15.5361 6.34375C16.5124 5.36744 16.5124 3.78453 15.5361 2.80822ZM14.2987 7.58119L14.1219 7.75796C13.1456 8.73427 11.5627 8.73427 10.5864 7.75796L10.2328 7.40441L7.40372 10.2335L7.75727 10.5871C8.73358 11.5634 8.73358 13.1463 7.75727 14.1226L7.58119 14.2987L9.70251 16.42L9.87859 16.2439C10.8549 15.2676 12.4378 15.2676 13.4141 16.2439L13.7677 16.5975L16.5968 13.7684L16.2432 13.4148C15.2669 12.4385 15.2669 10.8556 16.2432 9.87928L16.42 9.70251L14.2987 7.58119ZM6.34306 15.5368L6.52053 15.3594L8.64185 17.4807L8.46438 17.6581C7.48807 18.6345 7.48807 20.2174 8.46438 21.1937L8.73893 21.4682C7.00044 22.5631 4.67585 22.3535 3.16177 20.8394C1.64768 19.3254 1.43809 17.0008 2.53298 15.2623L2.80753 15.5368C3.78384 16.5131 5.36675 16.5131 6.34306 15.5368ZM12.3017 17.2563C11.9089 16.914 11.3124 16.9299 10.9384 17.3039L9.52419 18.7181C9.13367 19.1086 9.13367 19.7418 9.52419 20.1323L10.2313 20.8394C10.6218 21.2299 11.255 21.2299 11.6455 20.8394L13.0597 19.4252C13.4503 19.0347 13.4503 18.4015 13.0597 18.011L12.707 17.6582L12.707 17.6581L12.3535 17.3046C12.3367 17.2878 12.3194 17.2717 12.3017 17.2563ZM20.1323 9.52573L20.4859 9.87928L20.4858 9.87939L20.839 10.2326C21.2295 10.6232 21.2295 11.2563 20.839 11.6469L19.4248 13.0611C19.0343 13.4516 18.4011 13.4516 18.0106 13.0611L17.3035 12.354C16.913 11.9634 16.913 11.3303 17.3035 10.9397L18.7177 9.52554C19.0159 9.22733 19.4556 9.15685 19.8207 9.31407C19.8293 9.31776 19.8378 9.32157 19.8463 9.32551C19.9499 9.37356 20.0469 9.4403 20.1323 9.52573ZM6.34301 11.2942L6.34306 11.2942L6.69661 11.6477C6.80571 11.7568 6.88433 11.8849 6.93247 12.0213C7.05675 12.3731 6.97815 12.7806 6.69667 13.0621L5.28246 14.4763C4.89193 14.8669 4.25877 14.8669 3.86824 14.4763L3.16114 13.7692C2.77061 13.3787 2.77061 12.7455 3.16114 12.355L4.57535 10.9408C4.96588 10.5503 5.59904 10.5503 5.98956 10.9408L6.34301 11.2942Z" fill="#26272B"/>
</svg>
