<svg width="24" height="24" viewBox="0 0 24 24" fill="none" xmlns="http://www.w3.org/2000/svg">
<path fill-rule="evenodd" clip-rule="evenodd" d="M21.4997 12.5H18.9551C18.2187 11.4758 17.7495 10.0715 17.7495 8.5C17.7495 6.8946 18.2391 5.46375 19.0031 4.43433C20.9576 6.35448 22.1874 8.96856 22.4478 11.5018C22.5043 12.0512 22.052 12.5 21.4997 12.5ZM11.9997 1.5C14.2549 1.5 16.241 2.25397 17.8616 3.45678C16.8523 4.77408 16.2495 6.55902 16.2495 8.5C16.2495 9.9674 16.594 11.3456 17.1983 12.5H6.80073C7.40498 11.3456 7.74951 9.9674 7.74951 8.5C7.74951 6.55913 7.14678 4.77428 6.13756 3.457C7.75827 2.25406 9.74445 1.5 11.9997 1.5ZM4.99612 4.4346C3.04175 6.35472 1.81208 8.96868 1.55165 11.5018C1.49517 12.0512 1.94746 12.5 2.49975 12.5H5.04389C5.78032 11.4758 6.24951 10.0715 6.24951 8.5C6.24951 6.89474 5.75997 5.464 4.99612 4.4346ZM7.57143 21.5C9.78057 21.5 11 20.1569 11 18.5C11 18.4564 10.9992 18.413 10.9975 18.3698C11.6799 18.0434 12.3195 18.0434 13.0025 18.3696C13.0009 18.4128 13 18.4563 13 18.5C13 20.1569 14.2194 21.5 16.4286 21.5C18.1823 21.5 20.0326 20.6535 20.7209 19.4756L20.7428 19.4704L22.7428 18.9704C23.2786 18.8364 23.6043 18.2935 23.4704 17.7577C23.3364 17.2219 22.7935 16.8961 22.2577 17.0301L20.6622 17.429C19.932 16.301 18.1346 15.5 16.4286 15.5C15.2357 15.5 14.3314 15.8916 13.7518 16.5128C12.5963 15.996 11.4044 15.9954 10.2483 16.5129C9.66872 15.8917 8.76437 15.5 7.57143 15.5C5.86545 15.5 4.06813 16.301 3.33791 17.4289L1.74277 17.0301C1.20698 16.8961 0.664043 17.2219 0.530094 17.7577C0.396145 18.2935 0.721906 18.8364 1.2577 18.9704L3.2577 19.4704L3.27902 19.4755C3.96725 20.6535 5.8176 21.5 7.57143 21.5Z" fill="#26272B"/>
</svg>
