<svg width="24" height="24" viewBox="0 0 24 24" fill="none" xmlns="http://www.w3.org/2000/svg">
<path fill-rule="evenodd" clip-rule="evenodd" d="M10.0571 3.69975C10.8263 3.39208 11.2004 2.51913 10.8927 1.74995C10.585 0.980778 9.71209 0.606655 8.94291 0.914325C6.86351 1.74609 5.5 3.76004 5.5 5.99962V16.2554C6.54172 16.2653 7.58319 16.5606 8.5 17.1455V17.1454C8.5553 17.1807 8.61015 17.2171 8.66451 17.2544C10.6626 15.8411 13.3374 15.8411 15.3355 17.2544C15.3899 17.2171 15.4447 17.1807 15.5 17.1454V17.1455C16.4168 16.5606 17.4583 16.2653 18.5 16.2554V5.99962C18.5 4.98675 19.1167 4.07593 20.0571 3.69975C20.8263 3.39208 21.2004 2.51913 20.8927 1.74995C20.585 0.980778 19.7121 0.606655 18.9429 0.914325C16.8635 1.74609 15.5 3.76004 15.5 5.99962V6H8.5V5.99962C8.5 4.98675 9.11666 4.07593 10.0571 3.69975ZM15.5 13.75H8.5V12.25H15.5V13.75ZM15.5 9.75H8.5V8.25H15.5V9.75ZM11.2334 20.9499C11.6877 20.6092 12.3124 20.6091 12.7667 20.9499L12.8227 20.9919C14.3105 22.1077 16.3562 22.1077 17.844 20.9919C18.2881 20.6588 18.904 20.6789 19.3255 21.0402L20.0238 21.6388C20.6528 22.1779 21.5998 22.1051 22.1389 21.4761C22.678 20.8471 22.6052 19.9001 21.9762 19.361L21.2778 18.7624C19.7888 17.486 17.613 17.4152 16.044 18.5919C15.6229 18.9077 15.0438 18.9077 14.6227 18.5919L14.5667 18.5499C13.0457 17.4092 10.9543 17.4092 9.43336 18.5499L9.37734 18.5919C8.95622 18.9077 8.37717 18.9077 7.95605 18.5919C6.38706 17.4152 4.2113 17.486 2.72222 18.7624L2.02384 19.361C1.39485 19.9001 1.32201 20.8471 1.86114 21.4761C2.40028 22.1051 3.34723 22.1779 3.97621 21.6388L4.6746 21.0402C5.09608 20.6789 5.71194 20.6588 6.15605 20.9919C7.64384 22.1077 9.68955 22.1077 11.1773 20.9919L11.2334 20.9499Z" fill="#26272B"/>
</svg>
