<svg width="24" height="24" viewBox="0 0 24 24" fill="none" xmlns="http://www.w3.org/2000/svg">
<path fill-rule="evenodd" clip-rule="evenodd" d="M16.5877 2.5526C15.2016 1.87828 13.645 1.5 12 1.5C10.3549 1.5 8.79821 1.87832 7.41211 2.5527L10.1775 7.34254C10.7422 7.1214 11.3569 7 12 7C12.643 7 13.2576 7.12137 13.8223 7.34245L16.5877 2.5526ZM17.8861 3.30368L15.1208 8.09329C15.4104 8.32494 15.6737 8.58812 15.9055 8.87763L20.6952 6.11227C19.9456 5.00746 18.991 4.05304 17.8861 3.30368ZM21.4465 7.41054L16.6568 10.1759C16.8784 10.741 17 11.3563 17 12C17 12.6433 16.8785 13.2582 16.6572 13.8231L21.447 16.5885C22.1216 15.2022 22.5 13.6453 22.5 12C22.5 10.3543 22.1214 8.79703 21.4465 7.41054ZM20.6958 17.8868L15.9061 15.1215C15.6744 15.4111 15.4112 15.6743 15.1217 15.906L17.887 20.6957C18.9919 19.9462 19.9464 18.9917 20.6958 17.8868ZM16.5886 21.4469L13.8233 16.6572C13.2584 16.8785 12.6434 17 12 17C11.3565 17 10.7415 16.8785 10.1765 16.6571L7.41114 21.4468C8.79748 22.1215 10.3545 22.5 12 22.5C13.6454 22.5 15.2024 22.1215 16.5886 21.4469ZM6.11282 20.6956L8.87815 15.9059C8.58826 15.6739 8.32476 15.4103 8.09287 15.1203L3.30331 17.8855C4.05285 18.9909 5.00759 19.9458 6.11282 20.6956ZM2.55231 16.5871L7.3422 13.8216C7.12128 13.2572 7 12.6427 7 12C7 11.3569 7.12143 10.7421 7.3426 10.1774L2.55278 7.41195C1.87835 8.79809 1.5 10.3549 1.5 12C1.5 13.6448 1.87817 15.2012 2.55231 16.5871ZM3.30392 6.11357L8.09355 8.87886C8.3255 8.58893 8.58906 8.32538 8.879 8.09344L6.11371 3.30382C5.0084 4.05345 4.05356 5.00827 3.30392 6.11357Z" fill="#26272B"/>
</svg>
