<svg width="24" height="24" viewBox="0 0 24 24" fill="none" xmlns="http://www.w3.org/2000/svg">
<path fill-rule="evenodd" clip-rule="evenodd" d="M15.8135 16.5825C16.7836 15.8572 17.6524 14.8858 18.354 13.6706C20.9255 9.21673 19.5178 4.45664 15.6915 2.2475C11.8651 0.0383723 7.06906 1.21673 4.49763 5.67058C3.79599 6.88585 3.38911 8.12391 3.2461 9.32674L9.39018 12.874L15.8135 16.5825ZM14.339 17.4633L8.64018 14.1731L3.22059 11.0441C3.4506 13.5624 4.8638 15.7794 7.14012 17.0937C9.41643 18.4079 12.0431 18.5232 14.339 17.4633ZM5.34395 17.6976L3.19526 20.6951C3.02308 20.9353 3.09569 21.2716 3.35164 21.4194L5.3547 22.5759C5.61439 22.7258 5.94674 22.615 6.06452 22.3393L7.51223 18.9496C7.13192 18.7903 6.75688 18.6045 6.38909 18.3922C6.02099 18.1797 5.67235 17.9475 5.34395 17.6976ZM18.999 22.5003C20.3797 22.5003 21.499 21.3811 21.499 20.0003C21.499 18.6196 20.3797 17.5003 18.999 17.5003C17.6183 17.5003 16.499 18.6196 16.499 20.0003C16.499 21.3811 17.6183 22.5003 18.999 22.5003Z" fill="#26272B"/>
</svg>
