<svg width="24" height="24" viewBox="0 0 24 24" fill="none" xmlns="http://www.w3.org/2000/svg">
<path fill-rule="evenodd" clip-rule="evenodd" d="M1.56513 10.8311C2.10427 5.96644 5.96683 2.10401 10.8316 1.56507C11.103 2.32621 11.2507 3.14604 11.2507 4.00038C11.2507 8.00445 8.00479 11.2504 4.00072 11.2504C3.14628 11.2504 2.32636 11.1026 1.56513 10.8311ZM12.7507 4.00038C12.7507 3.13438 12.6249 2.29777 12.3906 1.50781C17.8795 1.70816 22.2931 6.12173 22.4936 11.6106C21.7036 11.3762 20.8668 11.2504 20.0007 11.2504C15.1682 11.2504 11.2507 15.1679 11.2507 20.0004C11.2507 20.8666 11.3766 21.7035 11.6111 22.4936C6.12183 22.2934 1.70795 17.8794 1.50781 12.3901C2.29787 12.6245 3.1346 12.7504 4.00072 12.7504C8.83322 12.7504 12.7507 8.83287 12.7507 4.00038ZM22.4364 13.1697C21.8975 18.0346 18.035 21.8973 13.1701 22.4363C12.8986 21.675 12.7507 20.855 12.7507 20.0004C12.7507 15.9963 15.9967 12.7504 20.0007 12.7504C20.8552 12.7504 21.6751 12.8982 22.4364 13.1697Z" fill="#26272B"/>
</svg>
