<svg width="24" height="24" viewBox="0 0 24 24" fill="none" xmlns="http://www.w3.org/2000/svg">
<path fill-rule="evenodd" clip-rule="evenodd" d="M19.1162 3.47517L17.0869 5.50447L18.5011 6.91869L20.5302 4.88962C20.8078 5.36688 20.9886 5.90343 21.0696 6.4715L19.5618 7.97935L20.7457 9.16321C20.5669 9.63723 20.3232 10.1048 20.0132 10.5521L18.5011 9.04001L16.7334 10.8078L18.2453 12.3197C17.7979 12.6296 17.3303 12.8732 16.8562 13.0519L15.6727 11.8684L14.1656 13.3755C13.5976 13.2945 13.061 13.1137 12.5838 12.8361L14.612 10.8078L13.1978 9.39356L11.1693 11.4221C10.8915 10.945 10.7107 10.4085 10.6294 9.84061L12.1372 8.3329L10.9528 7.14852C11.1315 6.67444 11.3751 6.20684 11.685 5.75941L13.1978 7.27224L14.9656 5.50447L13.4526 3.9915C13.9 3.68155 14.3675 3.43787 14.8415 3.25908L16.0262 4.44381L17.5347 2.93531C18.1027 3.01652 18.6391 3.19741 19.1162 3.47517ZM20.976 3.02877C18.4556 0.508403 14.1748 0.991076 11.43 3.73588C9.90031 5.26558 9.07321 7.27235 9.07696 9.18559C8.90268 10.3663 8.52498 11.927 8.12857 13.2643C7.92726 13.9435 7.72505 14.5517 7.54778 15.0123C7.45882 15.2434 7.38004 15.4271 7.31457 15.5599C7.2728 15.6446 7.24622 15.688 7.23615 15.7045C7.23507 15.7063 7.23418 15.7077 7.23348 15.7089C7.23251 15.7105 7.23191 15.7115 7.23168 15.7121L5.7667 17.1736C5.74148 17.1753 5.71608 17.178 5.69055 17.1816L4.86559 17.2995C4.65139 17.3301 4.4529 17.4293 4.2999 17.5823L1.70696 20.1752C1.31643 20.5658 1.31643 21.1989 1.70696 21.5895L2.41406 22.2966C2.80459 22.6871 3.43775 22.6871 3.82827 22.2966L6.42122 19.7036C6.57422 19.5506 6.67347 19.3521 6.70407 19.1379L6.82192 18.313C6.82583 18.2856 6.82861 18.2584 6.83029 18.2313L8.29217 16.7729C8.2928 16.7727 8.2953 16.7712 8.3 16.7683C8.31647 16.7583 8.3599 16.7317 8.4446 16.6899C8.57737 16.6245 8.76108 16.5457 8.99222 16.4567C9.45278 16.2794 10.061 16.0772 10.7402 15.8759C12.0769 15.4797 13.6368 15.1022 14.8173 14.9278C16.7311 14.932 18.7387 14.1049 20.2689 12.5747C23.0137 9.82991 23.4963 5.54914 20.976 3.02877ZM9.56673 13.6906C9.69714 13.2506 9.82658 12.7841 9.94849 12.3113C10.1648 12.6561 10.4225 12.9814 10.7229 13.2818C11.0232 13.5821 11.3484 13.8397 11.6931 14.056C11.2203 14.1779 10.7538 14.3074 10.3139 14.4378C9.92946 14.5517 9.56128 14.6676 9.22322 14.7813C9.33691 14.4432 9.45278 14.075 9.56673 13.6906ZM16.0262 6.56513L14.2585 8.3329L15.6727 9.74711L17.4405 7.97935L16.0262 6.56513Z" fill="#26272B"/>
</svg>
