<svg width="24" height="24" viewBox="0 0 24 24" fill="none" xmlns="http://www.w3.org/2000/svg">
<path fill-rule="evenodd" clip-rule="evenodd" d="M19.7399 2.32733C20.1114 2.73599 20.0813 3.36844 19.6727 3.73995L17.0851 6.09233L19.9292 14.6247C21.4112 15.0317 22.5 16.3887 22.5 18C22.5 19.933 20.933 21.5 19 21.5H4.14239C2.68304 21.5 1.5 20.317 1.5 18.8576C1.5 17.5143 2.50778 16.3848 3.84236 16.2323L17.8242 14.6344L15.4671 7.56316L14.3157 8.60992C14.0396 8.86092 13.6798 9.00001 13.3067 9.00001H9.5C8.94772 9.00001 8.5 8.55229 8.5 8.00001C8.5 7.44772 8.94772 7.00001 9.5 7.00001H13.1134L18.3273 2.26007C18.736 1.88856 19.3684 1.91868 19.7399 2.32733ZM18.9732 16.0002C17.881 16.0145 17 16.9044 17 18C17 19.1046 17.8954 20 19 20C20.1046 20 21 19.1046 21 18C21 16.9044 20.1191 16.0146 19.027 16.0002C19.009 16.0007 18.9911 16.0007 18.9732 16.0002ZM18 18C18 17.4477 18.4477 17 19 17C19.5523 17 20 17.4477 20 18C20 18.5523 19.5523 19 19 19C18.4477 19 18 18.5523 18 18Z" fill="#26272B"/>
</svg>
