<svg width="24" height="24" viewBox="0 0 24 24" fill="none" xmlns="http://www.w3.org/2000/svg">
<path fill-rule="evenodd" clip-rule="evenodd" d="M22.494 12.3592C19.8895 9.52584 16.1522 7.75015 12.0003 7.75015C11.8124 7.75015 11.6255 7.75378 11.4395 7.76097C11.5368 8.9511 11.8671 10.1394 12.4492 11.2594C14.2158 11.332 15.874 11.8314 17.3217 12.6577C19.0134 13.6232 20.4181 15.0357 21.3745 16.7346C22.0436 15.4124 22.4412 13.9295 22.494 12.3592ZM15.3355 17.2544C16.519 16.4406 17.9303 16.1264 19.2879 16.3025C18.7107 15.5653 18.024 14.9178 17.252 14.3844C17.1645 14.549 17.0738 14.7127 16.9799 14.8754C16.7429 15.286 16.49 15.682 16.2225 16.0631C15.9354 16.4723 15.6315 16.8641 15.3123 17.2381L15.3355 17.2544ZM2.73387 16.9429C1.94644 15.4698 1.5 13.7871 1.5 12C1.5 6.20101 6.20101 1.5 12 1.5C11.8027 1.5 11.607 1.50544 11.4124 1.51618C11.3916 1.55145 11.3709 1.58683 11.3505 1.62231C10.3982 3.27408 9.89946 5.15586 9.90898 7.06304C9.91729 8.72981 10.3139 10.4155 11.1342 11.9817C10.4553 13.0458 9.59145 13.926 8.60943 14.6054C8.51019 14.4479 8.41357 14.2878 8.31965 14.1251C6.24307 10.5284 5.91266 6.40267 7.06539 2.72961C6.39669 3.08632 5.77112 3.51327 5.19853 4.00061C4.49922 7.59727 5.04475 11.4529 7.02061 14.8751C7.11451 15.0378 7.21088 15.1981 7.30966 15.3562C5.78234 16.0801 4.07251 16.3794 2.375 16.2023C2.48524 16.4544 2.60486 16.7015 2.73387 16.9429ZM8.66451 17.2544C8.3934 17.068 8.11033 16.9078 7.81869 16.7737C8.14322 16.6253 8.46087 16.4606 8.77029 16.2798C10.2096 15.4392 11.4711 14.2529 12.4173 12.7594C13.6784 12.8153 14.8726 13.1233 15.952 13.6342C15.8652 13.7989 15.7748 13.9627 15.6809 14.1254C15.466 14.4977 15.2369 14.8564 14.9948 15.2014C14.6663 15.6693 14.3137 16.1122 13.9396 16.5292C12.1983 15.9089 10.225 16.1506 8.66451 17.2544ZM13.1728 1.56477C17.7934 2.0783 21.5092 5.59018 22.3305 10.1108C19.5652 7.70604 15.9527 6.25015 12.0003 6.25015C11.8125 6.25015 11.6255 6.25344 11.4393 6.25996C11.5502 4.89396 11.9631 3.56289 12.65 2.37146C12.8096 2.09461 12.984 1.82527 13.1728 1.56477ZM11.2334 20.9499C11.6877 20.6092 12.3124 20.6091 12.7667 20.9499L12.8227 20.9919C14.3105 22.1077 16.3562 22.1077 17.844 20.9919C18.2881 20.6588 18.904 20.6789 19.3255 21.0402L20.0238 21.6388C20.6528 22.1779 21.5998 22.1051 22.1389 21.4761C22.678 20.8471 22.6052 19.9001 21.9762 19.361L21.2778 18.7624C19.7888 17.486 17.613 17.4152 16.044 18.5919C15.6229 18.9077 15.0438 18.9077 14.6227 18.5919L14.5667 18.5499C13.0457 17.4092 10.9543 17.4092 9.43336 18.5499L9.37734 18.5919C8.95622 18.9077 8.37717 18.9077 7.95605 18.5919C6.38706 17.4152 4.2113 17.486 2.72222 18.7624L2.02384 19.361C1.39485 19.9001 1.32201 20.8471 1.86114 21.4761C2.40028 22.1051 3.34723 22.1779 3.97621 21.6388L4.6746 21.0402C5.09608 20.6789 5.71194 20.6588 6.15605 20.9919C7.64384 22.1077 9.68955 22.1077 11.1773 20.9919L11.2334 20.9499Z" fill="#26272B"/>
</svg>
