<svg width="24" height="24" viewBox="0 0 24 24" fill="none" xmlns="http://www.w3.org/2000/svg">
<path fill-rule="evenodd" clip-rule="evenodd" d="M9.56266 1.31856C9.16753 1.40965 8.85386 1.57502 8.64058 1.71475C8.5329 1.7853 8.44741 1.85153 8.38611 1.90278C8.35537 1.92849 8.3304 1.95069 8.31147 1.96811C8.30199 1.97683 8.294 1.98438 8.28752 1.99061L8.27893 1.99894L8.27548 2.00234L8.27397 2.00384L8.27327 2.00454C8.27293 2.00487 8.2726 2.0052 8.80301 2.53546L8.2726 2.0052C8.19343 2.0844 8.133 2.18031 8.09574 2.28591L3.90988 14.1494C2.86863 15.2184 2.09578 16.3597 1.83954 17.5346C1.55982 18.8171 1.91721 20.0446 2.97037 21.0977C4.0234 22.1506 5.25129 22.5086 6.53402 22.2292C7.70927 21.9732 8.85066 21.2004 9.91891 20.1581L21.783 15.9732C21.8886 15.936 21.9846 15.8755 22.0638 15.7963L21.5335 15.2659C22.0638 15.7963 22.0641 15.796 22.0644 15.7957L22.0651 15.795L22.0666 15.7935L22.07 15.79L22.0784 15.7814C22.0846 15.7749 22.0921 15.7669 22.1009 15.7575C22.1183 15.7385 22.1405 15.7136 22.1662 15.6828C22.2174 15.6215 22.2837 15.536 22.3542 15.4284C22.494 15.2151 22.6593 14.9014 22.7504 14.5063C22.9451 13.6618 22.7632 12.6065 21.7092 11.5525C20.6695 10.5128 19.5103 10.193 18.6148 10.1405C18.5175 10.1348 18.4233 10.1322 18.3327 10.1321C18.3388 10.0785 18.3438 10.0235 18.3475 9.96728C18.4051 9.10398 18.1605 8.00378 17.113 6.95637C16.0656 5.90898 14.9653 5.66427 14.102 5.72168C14.0456 5.72543 13.9906 5.73044 13.9368 5.73652C13.9368 5.64582 13.9342 5.55154 13.9285 5.45411C13.876 4.55868 13.5561 3.39945 12.5164 2.35975C11.4624 1.30581 10.4071 1.1239 9.56266 1.31856ZM9.43981 2.9847C9.44709 2.97973 9.45469 2.97464 9.46259 2.96946C9.56972 2.89928 9.72012 2.82161 9.89962 2.78023C10.2044 2.70996 10.7407 2.70536 11.4557 3.42042C12.1851 4.14972 12.3955 4.93504 12.4311 5.5419C12.4491 5.84958 12.4217 6.11168 12.3905 6.29367C12.3806 6.35158 12.3704 6.40074 12.3614 6.43995L5.90251 14.8372L5.42598 14.3607L9.43981 2.9847ZM4.5787 15.6349L5.44552 16.5021L5.44562 16.5022L7.56673 18.6233L7.56684 18.6234L8.43354 19.4898C7.62633 20.1961 6.87901 20.6189 6.2148 20.7636C5.46521 20.9268 4.74848 20.7544 4.031 20.037C3.31362 19.3196 3.14166 18.6036 3.30509 17.8542C3.44994 17.1901 3.8728 16.4428 4.5787 15.6349ZM9.70739 18.6421L9.23173 18.1664L17.629 11.7075C17.6682 11.6985 17.7174 11.6883 17.7753 11.6784C17.9573 11.6473 18.2194 11.6198 18.527 11.6379C19.1339 11.6735 19.9192 11.8839 20.6486 12.6132C21.3636 13.3283 21.359 13.8645 21.2888 14.1693C21.2474 14.3488 21.1697 14.4992 21.0995 14.6063C21.0943 14.6142 21.0893 14.6218 21.0843 14.6291L9.70739 18.6421ZM6.97216 15.9069L13.5349 7.37466C13.5574 7.36515 13.583 7.35487 13.6116 7.34427C13.7528 7.29186 13.9572 7.23462 14.2015 7.21837C14.6643 7.18761 15.332 7.29667 16.0524 8.01705C16.7728 8.7374 16.8817 9.40496 16.8508 9.86747C16.8345 10.1117 16.7773 10.3161 16.7248 10.4572C16.7142 10.4858 16.7039 10.5115 16.6944 10.534L8.16208 17.0968L6.97216 15.9069Z" fill="#26272B"/>
</svg>
