<svg width="24" height="24" viewBox="0 0 24 24" fill="none" xmlns="http://www.w3.org/2000/svg">
<g clip-path="url(#clip0_20067_1646)">
<path fill-rule="evenodd" clip-rule="evenodd" d="M14.1617 3.28352C13.8239 3.51654 13.4975 3.78728 13.1885 4.09634C12.886 4.39882 12.6202 4.71786 12.3906 5.04797L13.9044 6.56178L15.6722 4.79401L14.1617 3.28352ZM15.5531 2.55368L16.7328 3.73335L18.2312 2.23493C17.3783 2.11321 16.4542 2.21628 15.5531 2.55368ZM19.8066 2.7707C19.7859 2.79814 19.763 2.82448 19.738 2.84949L17.7935 4.79401L19.2077 6.20823L21.1522 4.26371C21.1773 4.23864 21.2037 4.21572 21.2312 4.19495C21.0614 3.90199 20.8551 3.63128 20.6131 3.38924C20.3708 3.14698 20.0999 2.94059 19.8066 2.7707ZM21.7672 5.77001L20.2684 7.26889L21.4486 8.44917C21.7862 7.5477 21.8892 6.62327 21.7672 5.77001ZM20.7188 9.84065L19.2077 8.32955L17.4399 10.0973L18.9543 11.6117C19.2844 11.3821 19.6035 11.1163 19.906 10.8139C20.215 10.5048 20.4858 10.1784 20.7188 9.84065ZM17.5678 12.3465L16.3793 11.158L14.8621 12.6751C15.7238 12.7983 16.658 12.692 17.5678 12.3465ZM13.2905 12.1411C13.3151 12.1062 13.3429 12.073 13.374 12.0419L15.3186 10.0973L13.9044 8.6831L11.9598 10.6277C11.9287 10.6588 11.8956 10.6866 11.8608 10.7111C12.0311 11.0056 12.2381 11.2778 12.4814 11.521C12.7244 11.764 12.9962 11.9709 13.2905 12.1411ZM11.327 9.13912L12.8437 7.62244L11.6558 6.43451C11.3104 7.34398 11.2041 8.27779 11.327 9.13912ZM14.965 7.62244L16.3793 9.03666L18.147 7.26889L16.7328 5.85467L14.965 7.62244ZM12.1278 3.03568C14.8726 0.290881 19.1534 -0.191792 21.6737 2.32858C24.1941 4.84894 23.7114 9.12972 20.9666 11.8745C18.418 14.4232 14.545 15.0215 11.9868 13.0762L7.88522 17.1774C7.86854 17.1941 7.85127 17.2098 7.83347 17.2246C7.92638 17.4824 7.96002 17.7677 7.91771 18.0639L7.847 18.5589C7.76285 19.1479 7.48992 19.6938 7.06918 20.1145L4.35861 22.8251C3.67519 23.5085 2.56715 23.5085 1.88373 22.8251L1.17663 22.118C0.493208 21.4346 0.493208 20.3265 1.17663 19.6431L3.8872 16.9325C4.30794 16.5118 4.8538 16.2389 5.44284 16.1547L5.93781 16.084C6.23414 16.0417 6.5196 16.0754 6.77748 16.1684C6.79224 16.1506 6.80794 16.1334 6.82459 16.1167L10.9261 12.0155C8.98086 9.45727 9.57915 5.58433 12.1278 3.03568ZM6.14994 17.5689L5.65497 17.6396C5.38722 17.6779 5.13911 17.8019 4.94786 17.9932L2.23729 20.7038C2.13965 20.8014 2.13965 20.9597 2.23729 21.0573L2.94439 21.7644C3.04202 21.8621 3.20031 21.8621 3.29795 21.7644L6.00852 19.0538C6.19977 18.8626 6.32383 18.6145 6.36208 18.3467L6.43279 17.8518C6.45636 17.6868 6.31493 17.5454 6.14994 17.5689Z" fill="#26272B"/>
</g>
<defs>
<clipPath id="clip0_20067_1646">
<rect width="24" height="24" fill="white"/>
</clipPath>
</defs>
</svg>
