<svg width="24" height="24" viewBox="0 0 24 24" fill="none" xmlns="http://www.w3.org/2000/svg">
<path fill-rule="evenodd" clip-rule="evenodd" d="M11.3438 1.27003L11.3437 1.25807L11.6842 1.25469C11.8237 1.2506 11.9632 1.24922 12.1026 1.25053L12.8436 1.24316L12.844 1.28296C15.3078 1.47561 17.7178 2.51417 19.6023 4.39865C21.4868 6.28316 22.5254 8.69326 22.718 11.1571L22.7577 11.1575L22.7504 11.8914C22.7518 12.0355 22.7504 12.1796 22.7461 12.3237L22.7428 12.6574L22.7309 12.6573C22.577 15.1855 21.5341 17.6696 19.6023 19.6014C17.6704 21.5333 15.1862 22.5762 12.658 22.7301L12.6581 22.742L12.3184 22.7454C12.1784 22.7495 12.0384 22.7509 11.8984 22.7496L11.1582 22.7569L11.1578 22.7171C8.69404 22.5245 6.28399 21.4859 4.39951 19.6014C2.51501 17.7169 1.47644 15.3068 1.28381 12.843L1.24414 12.8426L1.25145 12.1075C1.25002 11.9642 1.25145 11.8209 1.25572 11.6776L1.25905 11.3427L1.2709 11.3428C1.42482 8.81463 2.46769 6.33048 4.39951 4.39865C6.33137 2.46679 8.81557 1.42392 11.3438 1.27003ZM21.2139 11.1713C21.0276 9.08734 20.1368 7.05449 18.5416 5.45931C16.9465 3.86416 14.9137 2.9734 12.8297 2.78703C12.7809 3.55371 12.6503 4.31632 12.4379 5.06058L13.2432 5.26192C13.6451 5.36238 13.8894 5.76958 13.7889 6.17143C13.6885 6.57328 13.2813 6.8176 12.8794 6.71713L11.9229 6.47801C11.4989 7.43005 10.9295 8.33313 10.215 9.15348L10.7634 9.70182C11.0563 9.99471 11.0563 10.4696 10.7634 10.7625C10.4705 11.0554 9.9956 11.0554 9.7027 10.7625L9.15436 10.2141C8.33397 10.9287 7.43084 11.498 6.47876 11.922L6.7179 12.8786C6.81836 13.2804 6.57404 13.6876 6.17219 13.7881C5.77035 13.8886 5.36315 13.6442 5.26269 13.2424L5.06133 12.437C4.3171 12.6494 3.55452 12.78 2.78788 12.8288C2.97423 14.9128 3.86499 16.9456 5.46017 18.5408C7.05532 20.1359 9.08812 21.0267 11.1721 21.2131C11.2209 20.4463 11.3515 19.6836 11.564 18.9393L10.7585 18.7379C10.3566 18.6375 10.1123 18.2303 10.2127 17.8284C10.3132 17.4266 10.7204 17.1823 11.1223 17.2827L12.079 17.5219C12.503 16.5699 13.0723 15.6669 13.7868 14.8466L13.2383 14.298C12.9454 14.0051 12.9454 13.5303 13.2383 13.2374C13.5311 12.9445 14.006 12.9445 14.2989 13.2374L14.8475 13.7859C15.6678 13.0714 16.5709 12.5021 17.523 12.0781L17.2838 11.1213C17.1833 10.7194 17.4276 10.3122 17.8295 10.2118C18.2313 10.1113 18.6385 10.3556 18.739 10.7575L18.9404 11.5631C19.6847 11.3507 20.4473 11.2201 21.2139 11.1713ZM21.2265 12.6739C20.5778 12.7209 19.9333 12.836 19.3044 13.0192L19.4461 13.5859C19.5466 13.9877 19.3022 14.3949 18.9004 14.4954C18.4986 14.5959 18.0914 14.3515 17.9909 13.9497L17.8933 13.5594C17.1927 13.896 16.5258 14.3261 15.9111 14.8495L16.4202 15.3587C16.7131 15.6516 16.7131 16.1264 16.4202 16.4193C16.1273 16.7122 15.6525 16.7122 15.3596 16.4193L14.8504 15.9102C14.327 16.5249 13.8969 17.1917 13.5603 17.8922L13.9507 17.9898C14.3525 18.0903 14.5968 18.4975 14.4964 18.8993C14.3959 19.3012 13.9887 19.5455 13.5869 19.445L13.0201 19.3033C12.8368 19.9322 12.7217 20.5769 12.6746 21.2256C14.8126 21.0704 16.9069 20.1755 18.5416 18.5408C20.1763 16.9061 21.0713 14.8118 21.2265 12.6739ZM2.77534 11.3262C3.42401 11.2791 4.06851 11.164 4.69731 10.9809L4.55558 10.414C4.45512 10.0121 4.69944 9.60493 5.10128 9.50447C5.50313 9.40401 5.91033 9.64833 6.01079 10.0502L6.10843 10.4407C6.80904 10.1041 7.47599 9.67401 8.09075 9.15053L7.58138 8.64116C7.28849 8.34827 7.28849 7.87339 7.58138 7.5805C7.87428 7.28761 8.34915 7.28761 8.64204 7.5805L9.15142 8.08988C9.67489 7.47515 10.1049 6.80824 10.4416 6.10767L10.051 6.01003C9.64916 5.90957 9.40484 5.50237 9.5053 5.10052C9.60576 4.69867 10.013 4.45435 10.4148 4.55481L10.9818 4.69656C11.165 4.06772 11.2801 3.42318 11.3272 2.77447C9.1892 2.92966 7.09488 3.82461 5.46017 5.45931C3.8255 7.09399 2.93056 9.18827 2.77534 11.3262Z" fill="#26272B"/>
</svg>
