<svg width="24" height="24" viewBox="0 0 24 24" fill="none" xmlns="http://www.w3.org/2000/svg">
<path fill-rule="evenodd" clip-rule="evenodd" d="M10.7747 2.93947C11.6654 0.809664 14.2239 -0.0539765 16.2231 1.1003C18.2224 2.25457 18.7537 4.90206 17.3545 6.73831L7.79856 19.2797C8.48998 20.4133 8.55647 21.8797 7.8458 23.1106C7.74634 23.2829 7.58253 23.4085 7.39039 23.46C7.19826 23.5115 6.99354 23.4846 6.82128 23.3851L1.62513 20.3851C1.26641 20.178 1.1435 19.7193 1.35061 19.3606C2.06121 18.1298 3.36419 17.4542 4.6915 17.486L10.7747 2.93947ZM6.17274 17.8319C6.27422 17.879 6.37447 17.931 6.4732 17.988C6.57183 18.0449 6.6669 18.1057 6.75832 18.1699L9.21169 14.9501L7.73453 14.0973L6.17274 17.8319ZM8.31799 12.7021L10.1282 13.7472L16.1614 5.82921C17.0126 4.71213 16.6894 3.10153 15.4731 2.39933C14.2569 1.69713 12.7004 2.22253 12.1586 3.51819L8.31799 12.7021ZM18.0001 15.7498C16.7575 15.7498 15.7501 16.7572 15.7501 17.9998C15.7501 19.2425 16.7575 20.2498 18.0001 20.2498C19.2428 20.2498 20.2501 19.2425 20.2501 17.9998C20.2501 16.7572 19.2428 15.7498 18.0001 15.7498ZM14.2501 17.9998C14.2501 15.9287 15.9291 14.2498 18.0001 14.2498C20.0712 14.2498 21.7501 15.9287 21.7501 17.9998C21.7501 20.0709 20.0712 21.7498 18.0001 21.7498C15.9291 21.7498 14.2501 20.0709 14.2501 17.9998ZM3.13552 19.5251L6.81088 21.6471C6.98033 20.7358 6.57162 19.7769 5.7232 19.287C4.87479 18.7972 3.83996 18.9227 3.13552 19.5251Z" fill="#26272B"/>
</svg>
