<svg width="24" height="24" viewBox="0 0 24 24" fill="none" xmlns="http://www.w3.org/2000/svg">
<path fill-rule="evenodd" clip-rule="evenodd" d="M12 2.25C7.28657 2.25 4.51528 4.39264 3.31823 5.6078C2.94012 5.99163 2.75 6.55689 2.75 7.2111V15C2.75 15.6904 3.30964 16.25 4 16.25H6.87911L6.35411 12.75H5C4.58579 12.75 4.25 12.4142 4.25 12C4.25 11.5858 4.58579 11.25 5 11.25H19C19.4142 11.25 19.75 11.5858 19.75 12C19.75 12.4142 19.4142 12.75 19 12.75H17.6459L17.1209 16.25H20C20.6904 16.25 21.25 15.6904 21.25 15V7.2111C21.25 6.55689 21.0599 5.99163 20.6818 5.6078C19.4847 4.39264 16.7134 2.25 12 2.25ZM16.8959 17.75L16.2417 22.1113C16.1997 22.3913 16.0036 22.6237 15.7347 22.7123C15.4658 22.8009 15.1699 22.7305 14.9697 22.5303L12 19.5607L9.03033 22.5303C8.83012 22.7305 8.53424 22.8009 8.26532 22.7123C7.9964 22.6237 7.8003 22.3913 7.7583 22.1113L7.10411 17.75H4C2.48122 17.75 1.25 16.5188 1.25 15V7.2111C1.25 6.28592 1.51936 5.29646 2.24964 4.55513C3.64556 3.13809 6.78019 0.75 12 0.75C17.2198 0.75 20.3544 3.13809 21.7504 4.55513C22.4806 5.29646 22.75 6.28592 22.75 7.2111V15C22.75 16.5188 21.5188 17.75 20 17.75H16.8959ZM15.631 16.0704L16.1291 12.75H12.3106L15.631 16.0704ZM10.1893 12.75H7.87089L7.97073 13.4156C7.99132 13.4322 8.01123 13.4501 8.03036 13.4693L14.9789 20.4182L15.3555 17.9075C15.3303 17.888 15.306 17.8667 15.2829 17.8436L10.1893 12.75ZM10.9394 18.4999L8.34404 15.9043L9.02112 20.4182L10.9394 18.4999ZM9 7.25C8.86193 7.25 8.75 7.36193 8.75 7.5V9C8.75 9.41421 8.41421 9.75 8 9.75C7.58579 9.75 7.25 9.41421 7.25 9V7.5C7.25 6.5335 8.0335 5.75 9 5.75H15C15.9665 5.75 16.75 6.5335 16.75 7.5V9C16.75 9.41421 16.4142 9.75 16 9.75C15.5858 9.75 15.25 9.41421 15.25 9V7.5C15.25 7.36193 15.1381 7.25 15 7.25H9Z" fill="#26272B"/>
</svg>
