<svg width="24" height="24" viewBox="0 0 24 24" fill="none" xmlns="http://www.w3.org/2000/svg">
<path fill-rule="evenodd" clip-rule="evenodd" d="M10.9854 2.80494C11.6777 4.53397 12.1805 6.35908 12.4683 8.25435C13.4888 8.27329 14.4943 8.35404 15.4813 8.49301C16.072 7.14426 16.9929 5.97333 18.1411 5.08254C16.5072 3.63073 14.3569 2.75 12 2.75C11.6569 2.75 11.3184 2.76865 10.9854 2.80494ZM19.1847 6.17346C18.2727 6.85007 17.5255 7.73521 17.0133 8.75817C18.3946 9.04239 19.7341 9.44172 21.0212 9.94576C20.7026 8.54017 20.0637 7.25594 19.1847 6.17346ZM21.2439 11.66C19.7327 11.0044 18.138 10.5047 16.48 10.1811C16.3298 10.7624 16.25 11.3719 16.25 12C16.25 14.3867 17.4028 16.5046 19.1847 17.8265C20.4766 16.2357 21.25 14.2089 21.25 12C21.25 11.8861 21.2479 11.7728 21.2439 11.66ZM18.1411 18.9175C16.079 17.3176 14.75 14.8143 14.75 12C14.75 11.2907 14.8344 10.6012 14.9937 9.94087C14.2237 9.84192 13.4418 9.78062 12.6499 9.7589C12.7161 10.4972 12.75 11.2447 12.75 12C12.75 15.248 12.124 18.3515 10.9854 21.1951C11.3184 21.2314 11.6569 21.25 12 21.25C14.3569 21.25 16.5072 20.3693 18.1411 18.9175ZM9.48426 20.904C10.6218 18.1624 11.25 15.1554 11.25 12C11.25 11.2461 11.2141 10.5008 11.1441 9.76546C10.2564 9.79756 9.38158 9.8794 8.52224 10.0083C8.67121 10.648 8.75 11.3148 8.75 12C8.75 14.6912 7.53454 17.0983 5.6251 18.7025C6.69944 19.7247 8.01843 20.4907 9.48426 20.904ZM4.62471 17.5837C6.22962 16.253 7.25 14.2456 7.25 12C7.25 11.4071 7.17886 10.8307 7.0446 10.2791C5.55679 10.602 4.12236 11.0673 2.75613 11.66C2.75206 11.7728 2.75 11.8861 2.75 12C2.75 14.0981 3.44777 16.0318 4.62471 17.5837ZM2.97876 9.94576C4.125 9.4969 5.31279 9.13106 6.53465 8.85563C6.07913 7.91064 5.4245 7.07944 4.62472 6.41628C3.84375 7.44607 3.27389 8.64383 2.97876 9.94576ZM5.62509 5.2975C6.66899 6.17452 7.50547 7.29152 8.04931 8.56371C9.00024 8.41113 9.96917 8.31273 10.9528 8.27177C10.6622 6.46835 10.1642 4.73478 9.48426 3.09602C8.01843 3.5093 6.69944 4.2753 5.62509 5.2975ZM9.76668 1.48245C10.4878 1.33004 11.235 1.25 12 1.25C15.104 1.25 17.9016 2.5665 19.8629 4.66941C21.461 6.38287 22.5067 8.62119 22.7127 11.0981C22.7374 11.3956 22.75 11.6964 22.75 12C22.75 14.8327 21.6534 17.4109 19.8629 19.3306C17.9016 21.4335 15.104 22.75 12 22.75C11.235 22.75 10.4878 22.67 9.76668 22.5175C7.46523 22.0311 5.4369 20.8092 3.93815 19.1114C2.26568 17.2167 1.25 14.7261 1.25 12C1.25 11.6964 1.2626 11.3956 1.28734 11.0981C1.4846 8.72557 2.45237 6.57179 3.93815 4.88863C5.4369 3.19077 7.46523 1.9689 9.76668 1.48245Z" fill="#26272B"/>
</svg>
