<svg width="24" height="24" viewBox="0 0 24 24" fill="none" xmlns="http://www.w3.org/2000/svg">
<path fill-rule="evenodd" clip-rule="evenodd" d="M16 3.25V4C16 3.25 16.0003 3.25 16.0006 3.25L16.0012 3.25L16.0027 3.25L16.0068 3.25002L16.0187 3.25013L16.0572 3.25082C16.0892 3.25158 16.1338 3.25304 16.1892 3.25584C16.2999 3.26143 16.455 3.27242 16.6413 3.29408C17.0111 3.33708 17.5179 3.42372 18.0497 3.60099C19.0915 3.94828 20.4075 4.71325 20.7354 6.35291C20.8167 6.75908 20.5533 7.1542 20.1471 7.23544C19.7409 7.31667 19.3458 7.05326 19.2646 6.64709C19.0925 5.78675 18.4085 5.30172 17.5753 5.02401C17.3488 4.94851 17.1242 4.89346 16.9175 4.85345L17.7181 9.25679C17.8115 9.25228 17.9055 9.25 18 9.25C21.1756 9.25 23.75 11.8244 23.75 15C23.75 18.1756 21.1756 20.75 18 20.75C14.8244 20.75 12.25 18.1756 12.25 15C12.25 12.4375 13.9262 10.2665 16.242 9.52371L15.9793 8.07866L7.63924 12.0501C8.91203 12.9022 9.75 14.3533 9.75 16C9.75 18.6234 7.62335 20.75 5 20.75C2.37665 20.75 0.25 18.6234 0.25 16C0.25 13.3766 2.37665 11.25 5 11.25C5.01316 11.25 5.02632 11.2501 5.03946 11.2502L4.41442 8.75H3C2.58579 8.75 2.25 8.41421 2.25 8C2.25 7.58579 2.58579 7.25 3 7.25H4.98431C4.99518 7.24976 5.00601 7.24976 5.01682 7.25H7C7.41421 7.25 7.75 7.58579 7.75 8C7.75 8.41421 7.41421 8.75 7 8.75H5.96058L6.50526 10.9287L15.7013 6.54965L15.2621 4.13416C15.2223 3.91536 15.2817 3.69018 15.4242 3.51944C15.5667 3.3487 15.7776 3.25 16 3.25ZM16.5136 11.0172C14.8994 11.6199 13.75 13.1757 13.75 15C13.75 17.3472 15.6528 19.25 18 19.25C20.3472 19.25 22.25 17.3472 22.25 15C22.25 12.6528 20.3472 10.75 18 10.75C17.9965 10.75 17.993 10.75 17.9896 10.75L18.7379 14.8658C18.812 15.2734 18.5417 15.6638 18.1342 15.7379C17.7266 15.812 17.3362 15.5417 17.2621 15.1342L16.5136 11.0172ZM5 12.75C3.20507 12.75 1.75 14.2051 1.75 16C1.75 17.7949 3.20507 19.25 5 19.25C6.79493 19.25 8.25 17.7949 8.25 16C8.25 14.2051 6.79493 12.75 5 12.75Z" fill="#26272B"/>
</svg>
