<svg width="24" height="24" viewBox="0 0 24 24" fill="none" xmlns="http://www.w3.org/2000/svg">
<path fill-rule="evenodd" clip-rule="evenodd" d="M13.9993 2.75C18.0034 2.75 21.2493 5.99594 21.2493 10C21.2493 14.0041 18.0034 17.25 13.9993 17.25C12.899 17.25 11.8576 17.0054 10.9249 16.568L14.5813 12.6678C15.43 11.7625 15.4072 10.347 14.5297 9.46956C13.6522 8.59209 12.2368 8.56927 11.3314 9.41799L7.43132 13.0744C6.99387 12.1416 6.7493 11.1002 6.7493 10C6.7493 5.99594 9.99523 2.75 13.9993 2.75ZM9.85568 17.7084C11.0898 18.3731 12.5016 18.75 13.9993 18.75C18.8318 18.75 22.7493 14.8325 22.7493 10C22.7493 5.16751 18.8318 1.25 13.9993 1.25C9.1668 1.25 5.2493 5.16751 5.2493 10C5.2493 11.4978 5.62623 12.9096 6.29083 14.1436L1.11205 18.9987C0.809862 19.282 0.794552 19.7566 1.07785 20.0588C1.36115 20.361 1.83577 20.3763 2.13796 20.093L9.82706 12.8845C9.86307 12.892 9.9086 12.9035 9.9615 12.9211C10.1294 12.9771 10.3787 13.0967 10.6406 13.3587C10.9025 13.6206 11.0222 13.8699 11.0781 14.0378C11.0958 14.0907 11.1073 14.1362 11.1148 14.1722L3.90628 21.8613C3.62298 22.1635 3.63829 22.6381 3.94047 22.9214C4.24266 23.2047 4.71728 23.1894 5.00058 22.8872L9.85568 17.7084ZM12.2333 12.9792C12.1028 12.7585 11.9299 12.5266 11.7013 12.298C11.4727 12.0694 11.2407 11.8965 11.0201 11.766L12.3574 10.5123C12.672 10.2173 13.164 10.2252 13.469 10.5302C13.774 10.8352 13.782 11.3272 13.487 11.6419L12.2333 12.9792Z" fill="#26272B"/>
</svg>
