<svg width="24" height="24" viewBox="0 0 24 24" fill="none" xmlns="http://www.w3.org/2000/svg">
<path fill-rule="evenodd" clip-rule="evenodd" d="M12 2.75C6.89137 2.75 2.75 6.89137 2.75 12C2.75 17.1086 6.89137 21.25 12 21.25C17.1086 21.25 21.25 17.1086 21.25 12C21.25 6.89137 17.1086 2.75 12 2.75ZM1.25 12C1.25 6.06294 6.06294 1.25 12 1.25C17.9371 1.25 22.75 6.06294 22.75 12C22.75 17.9371 17.9371 22.75 12 22.75C6.06294 22.75 1.25 17.9371 1.25 12ZM10 8.75C7.71846 8.75 5.75 10.8078 5.75 13.5C5.75 16.1922 7.71846 18.25 10 18.25C12.2815 18.25 14.25 16.1922 14.25 13.5C14.25 10.8078 12.2815 8.75 10 8.75ZM4.25 13.5C4.25 10.1171 6.7587 7.25 10 7.25C13.2413 7.25 15.75 10.1171 15.75 13.5C15.75 16.8829 13.2413 19.75 10 19.75C6.7587 19.75 4.25 16.8829 4.25 13.5ZM10.0001 10.7501C9.58592 10.7501 9.25013 11.0859 9.25013 11.5001C9.25013 11.9143 9.58592 12.2501 10.0001 12.2501C10.4143 12.2501 10.7501 11.9143 10.7501 11.5001C10.7501 11.0859 10.4143 10.7501 10.0001 10.7501ZM11.7673 12.893C12.3682 13.3974 12.7501 14.1541 12.7501 15.0001C12.7501 16.5189 11.5189 17.7501 10.0001 17.7501C8.48135 17.7501 7.25013 16.5189 7.25013 15.0001C7.25013 14.1541 7.6321 13.3974 8.23298 12.893C7.93059 12.5098 7.75013 12.026 7.75013 11.5001C7.75013 10.2575 8.75749 9.25009 10.0001 9.25009C11.2428 9.25009 12.2501 10.2575 12.2501 11.5001C12.2501 12.026 12.0697 12.5098 11.7673 12.893ZM10.0001 13.7501C9.30978 13.7501 8.75013 14.3097 8.75013 15.0001C8.75013 15.6904 9.30978 16.2501 10.0001 16.2501C10.6905 16.2501 11.2501 15.6904 11.2501 15.0001C11.2501 14.3097 10.6905 13.7501 10.0001 13.7501Z" fill="#26272B"/>
</svg>
