<svg width="24" height="24" viewBox="0 0 24 24" fill="none" xmlns="http://www.w3.org/2000/svg">
<g clip-path="url(#clip0_20067_1624)">
<path fill-rule="evenodd" clip-rule="evenodd" d="M3.63655 0.868546C3.79882 0.791869 4.0287 0.704121 4.28149 0.704102C4.64796 0.704073 4.91814 0.90222 5.06918 1.0423C5.23433 1.19548 5.37263 1.38614 5.48614 1.57309C5.71568 1.95116 5.91526 2.43352 6.06059 2.91796C6.20601 3.4027 6.31056 3.93425 6.32396 4.41634C6.33067 4.65747 6.31535 4.91005 6.25782 5.14875C6.25469 5.16175 6.25139 5.17486 6.24792 5.18807L7.76828 6.70842C13.3502 1.53695 18.8542 1.71311 20.7134 1.96231C21.4076 2.05535 21.9419 2.58532 22.0407 3.27865C22.3068 5.14513 22.5309 10.6988 17.2963 16.2364L18.811 17.7512C18.8243 17.7477 18.8374 17.7444 18.8504 17.7413C19.0891 17.6838 19.3416 17.6684 19.5828 17.6751C20.0649 17.6886 20.5964 17.7931 21.0812 17.9385C21.5656 18.0838 22.048 18.2834 22.426 18.513C22.613 18.6265 22.8036 18.7648 22.9568 18.9299C23.0969 19.081 23.295 19.3511 23.295 19.7176C23.295 19.9704 23.2072 20.2003 23.1306 20.3626C23.0469 20.5397 22.9359 20.7188 22.8158 20.8894C22.5749 21.2318 22.2574 21.5961 21.9263 21.9273C21.5951 22.2584 21.2308 22.5759 20.8885 22.8168C20.7178 22.9369 20.5387 23.0478 20.3616 23.1316C20.1993 23.2082 19.9694 23.296 19.7166 23.296C19.3501 23.296 19.0799 23.0978 18.9289 22.9577C18.7638 22.8045 18.6255 22.6139 18.512 22.4269C18.2825 22.0488 18.0829 21.5664 17.9376 21.082C17.7922 20.5972 17.6877 20.0657 17.6743 19.5836C17.6676 19.3424 17.6829 19.0899 17.7405 18.8512C17.7436 18.8382 17.7469 18.8251 17.7504 18.8118L16.2301 17.2916C10.6484 22.463 5.14444 22.2866 3.28525 22.0374C2.59108 21.9443 2.0568 21.4144 1.95796 20.7211C1.69187 18.8547 1.46751 13.301 6.70208 7.76354L5.18727 6.24873C5.17406 6.2522 5.16095 6.2555 5.14795 6.25863C4.90926 6.31616 4.65667 6.33149 4.41554 6.32479C3.93344 6.3114 3.40188 6.20688 2.91712 6.06148C2.43267 5.91617 1.95029 5.71661 1.5722 5.48709C1.38524 5.3736 1.19457 5.23531 1.04139 5.07018C0.901303 4.91917 0.70312 4.64899 0.703125 4.28252C0.703129 4.02971 0.790878 3.79982 0.86755 3.63755C0.951267 3.46039 1.0622 3.28129 1.18227 3.11066C1.42316 2.76834 1.74069 2.40397 2.07183 2.07284C2.40296 1.7417 2.76733 1.42417 3.10966 1.18327C3.28029 1.0632 3.45938 0.952266 3.63655 0.868546ZM7.76322 8.82469C2.96623 13.9217 3.21954 18.9423 3.44295 20.5094C3.44458 20.5208 3.44736 20.5278 3.44923 20.5315C3.45115 20.5354 3.45304 20.5377 3.45462 20.5393C3.45619 20.5408 3.45854 20.5427 3.46238 20.5446C3.46614 20.5464 3.47311 20.5491 3.48456 20.5507C5.04198 20.7595 10.0226 20.9705 15.1686 16.2301L13.3814 14.4429C12.7711 14.9264 12.1113 15.2735 11.4719 15.4479C10.6443 15.6736 9.68232 15.6425 9.01935 14.9795C8.35639 14.3165 8.32528 13.3545 8.55099 12.527C8.72536 11.8876 9.07248 11.2278 9.55597 10.6174L7.76322 8.82469ZM10.6258 11.6873C10.3111 12.1144 10.1013 12.5435 9.99813 12.9216C9.83995 13.5017 9.96194 13.8008 10.08 13.9189C10.1981 14.0369 10.4972 14.1589 11.0772 14.0007C11.4554 13.8976 11.8845 13.6878 12.3116 13.373L10.6258 11.6873ZM13.3796 12.3197C13.7187 11.8735 13.9431 11.4224 14.051 11.027C14.2092 10.447 14.0872 10.1478 13.9691 10.0298C13.851 9.91169 13.5519 9.7897 12.9719 9.94788C12.5765 10.0557 12.1254 10.2802 11.6792 10.6193L13.3796 12.3197ZM14.4477 13.3879L16.2352 15.1753C18.0587 13.2376 19.1525 11.311 19.7956 9.58097C18.5735 9.25973 17.383 8.58838 16.3871 7.59247C15.409 6.61441 14.7441 5.44878 14.4163 4.24996C12.6949 4.89459 10.7742 5.97886 8.8298 7.76995L10.611 9.55114C11.237 9.04395 11.918 8.68052 12.5772 8.50074C13.4048 8.27504 14.3668 8.30614 15.0298 8.96911C15.6927 9.63208 15.7238 10.5941 15.4981 11.4216C15.3183 12.0809 14.9549 12.7618 14.4477 13.3879ZM20.2437 8.14736C20.7918 5.99363 20.6699 4.2911 20.5557 3.49031C20.5541 3.47886 20.5513 3.4719 20.5495 3.46815C20.5475 3.46431 20.5457 3.46198 20.5441 3.46041C20.5425 3.45885 20.5402 3.45698 20.5363 3.4551C20.5326 3.45326 20.5256 3.45055 20.5141 3.44901C19.7143 3.34181 18.0118 3.23406 15.8477 3.79656C16.0991 4.7573 16.6333 5.71733 17.4478 6.53181C18.2795 7.36352 19.2628 7.90287 20.2437 8.14736ZM2.28545 4.1636C2.30501 4.17656 2.32667 4.19034 2.35058 4.20486C2.59124 4.35095 2.9486 4.5049 3.34807 4.62472C3.74724 4.74444 4.14379 4.81666 4.45718 4.82537C4.6138 4.82972 4.72581 4.81742 4.79646 4.80039C4.79731 4.80019 4.79815 4.79998 4.79897 4.79978C4.79917 4.79896 4.79938 4.79813 4.79958 4.79729C4.8166 4.72665 4.8289 4.61464 4.82454 4.45803C4.81583 4.14466 4.74359 3.74813 4.62385 3.34898C4.50402 2.94953 4.35006 2.5922 4.20395 2.35155C4.18943 2.32763 4.17565 2.30596 4.16267 2.28641C4.10761 2.3189 4.04415 2.35984 3.9729 2.40998C3.7186 2.58893 3.42006 2.84592 3.13249 3.1335C2.84491 3.42107 2.58793 3.71961 2.40898 3.9739C2.35886 4.04512 2.31793 4.10855 2.28545 4.1636ZM4.03945 2.13393C4.03944 2.13373 4.04168 2.13535 4.04622 2.13942C4.04173 2.13616 4.03946 2.13413 4.03945 2.13393ZM2.13842 4.04713C2.13435 4.04259 2.13273 4.04035 2.13293 4.04036C2.13313 4.04037 2.13516 4.04264 2.13842 4.04713ZM19.1993 19.2001C19.1991 19.201 19.1989 19.2018 19.1987 19.2026C19.1817 19.2733 19.1694 19.3853 19.1737 19.5419C19.1824 19.8553 19.2547 20.2519 19.3744 20.651C19.4942 21.0505 19.6482 21.4079 19.7943 21.6485C19.8088 21.6724 19.8225 21.6941 19.8355 21.7137C19.8906 21.6812 19.954 21.6402 20.0252 21.5901C20.2795 21.4112 20.578 21.1542 20.8656 20.8666C21.1532 20.579 21.4102 20.2805 21.5891 20.0262C21.6393 19.955 21.6802 19.8915 21.7127 19.8364C21.6931 19.8235 21.6715 19.8097 21.6476 19.7952C21.4069 19.649 21.0496 19.4951 20.6501 19.3753C20.251 19.2555 19.8545 19.1833 19.5411 19.1746C19.3845 19.1702 19.2725 19.1825 19.2018 19.1995C19.201 19.1997 19.2001 19.1999 19.1993 19.2001ZM21.8652 19.9597C21.865 19.9596 21.8629 19.9574 21.8597 19.9529C21.8638 19.9574 21.8654 19.9597 21.8652 19.9597ZM19.9588 21.8662C19.9588 21.8664 19.9565 21.8648 19.952 21.8607C19.9565 21.8639 19.9587 21.866 19.9588 21.8662Z" fill="#26272B"/>
</g>
<defs>
<clipPath id="clip0_20067_1624">
<rect width="24" height="24" fill="white"/>
</clipPath>
</defs>
</svg>
