<svg width="24" height="24" viewBox="0 0 24 24" fill="none" xmlns="http://www.w3.org/2000/svg">
<path fill-rule="evenodd" clip-rule="evenodd" d="M22.5304 1.46969C22.7312 1.67056 22.8014 1.96769 22.7115 2.23719L20.7115 8.23719C20.6095 8.54345 20.3229 8.75002 20 8.75002C19.6772 8.75002 19.3906 8.54345 19.2885 8.23719L18.6723 6.38844L16.0607 8.99998L17.3153 10.2545C19.2742 10.312 20.5871 10.9135 21.3499 12.0088C22.1127 13.1041 22.1877 14.5164 22.1241 15.7874C22.095 16.3702 22.0332 16.9649 21.9749 17.5261C21.9682 17.5903 21.9616 17.6542 21.9551 17.7175C21.8903 18.3452 21.8354 18.9233 21.8281 19.4479C21.8127 20.5524 22.0177 21.1104 22.416 21.376C22.7607 21.6058 22.8538 22.0714 22.6241 22.4161C22.3943 22.7607 21.9286 22.8538 21.584 22.6241C20.685 22.0247 20.242 21.1063 19.9703 20.1918L8.25004 18.7854V19.9999C8.25004 20.1753 8.18853 20.3452 8.07622 20.48L5.57622 23.4801C5.37407 23.7227 5.04164 23.8127 4.74473 23.7052C4.44782 23.5977 4.25004 23.3158 4.25004 23V19.75H1.00004C0.684277 19.75 0.402336 19.5522 0.294839 19.2554C0.187341 18.9585 0.277315 18.626 0.519883 18.4239L3.51988 15.9237C3.65468 15.8114 3.8246 15.7499 4.00007 15.7499L5.21465 15.7499L3.80832 4.03055C2.89356 3.75891 1.97479 3.31593 1.37532 2.41673C1.14556 2.07208 1.23869 1.60643 1.58333 1.37666C1.92798 1.1469 2.39363 1.24003 2.6234 1.58468C2.88896 1.98302 3.44699 2.18796 4.55148 2.17258C5.07613 2.16527 5.65424 2.11029 6.28191 2.04553C6.34529 2.03899 6.40917 2.03236 6.4735 2.02567C7.03464 1.96736 7.62928 1.90557 8.21211 1.8764C9.48312 1.81278 10.8954 1.88761 11.9909 2.65035C13.0862 3.41301 13.6879 4.72587 13.7455 6.68476L15.0001 7.93932L17.6116 5.32778L15.7629 4.71153C15.4566 4.60945 15.25 4.32284 15.25 4.00002C15.25 3.6772 15.4566 3.39059 15.7629 3.28851L21.7629 1.28851C22.0324 1.19867 22.3295 1.26882 22.5304 1.46969ZM13.9394 8.99998L12.4697 7.53031C12.3291 7.38967 12.2501 7.19891 12.2501 7.00001C12.25 5.13431 11.7308 4.29707 11.1338 3.88135C10.4791 3.42551 9.51622 3.313 8.28709 3.37452C8.15708 3.38103 8.0263 3.3893 7.89474 3.39893C8.80062 3.66872 9.71418 4.08958 10.4281 4.86819C11.23 5.74278 11.6954 6.97322 11.7458 8.6845L13.0003 9.93906L13.9394 8.99998ZM11.9397 10.9997L10.47 9.53005C10.3294 9.38939 10.2503 9.19861 10.2503 8.99969C10.2504 7.37655 9.84732 6.45431 9.32249 5.88192C8.78332 5.29389 8.0178 4.9653 7.06813 4.728C6.61171 4.61396 6.13835 4.52665 5.64379 4.43544C5.62596 4.43215 5.6081 4.42886 5.59021 4.42555C5.51443 4.41157 5.4381 4.39746 5.36139 4.38313L6.72541 15.75L7.18939 15.75L11.9397 10.9997ZM6.75004 17.25L4.27157 17.2499L3.07148 18.25H5.00004C5.41425 18.25 5.75004 18.5858 5.75004 19V20.9284L6.75004 19.7283V17.25ZM8.25004 16.8107L13.0003 12.0604L14.47 13.53C14.6107 13.6707 14.8014 13.7497 15.0003 13.7497C16.6235 13.7498 17.5458 14.1529 18.1183 14.6778C18.7064 15.2169 19.0351 15.9824 19.2724 16.9319C19.3865 17.3883 19.4739 17.8616 19.5651 18.3562L19.575 18.4096C19.589 18.4855 19.6031 18.5619 19.6175 18.6387L8.25004 17.2746V16.8107ZM20.6015 16.1055C20.6112 15.9737 20.6195 15.8427 20.626 15.7124C20.6874 14.4834 20.5749 13.5206 20.119 12.866C19.7032 12.269 18.8659 11.7499 17.0001 11.75C16.8012 11.75 16.6104 11.671 16.4697 11.5303L15.0001 10.0606L14.061 10.9997L15.3156 12.2543C17.0269 12.3048 18.2573 12.7702 19.132 13.5721C19.9107 14.286 20.3317 15.1996 20.6015 16.1055ZM18.3717 4.00002L19.2372 4.28851C19.4612 4.36316 19.6369 4.5389 19.7115 4.76285L20 5.62831L20.8142 3.18587L18.3717 4.00002Z" fill="#26272B"/>
</svg>
