<svg width="24" height="24" viewBox="0 0 24 24" fill="none" xmlns="http://www.w3.org/2000/svg">
<path fill-rule="evenodd" clip-rule="evenodd" d="M5.12087 2.65083C4.90918 2.92028 4.74995 3.36581 4.74995 4C4.74995 4.314 4.80635 4.60274 4.89125 4.85998C5.11533 5.53897 5.29415 6.40402 5.16803 7.25H6.8319C6.70578 6.40402 6.88458 5.53895 7.10867 4.85996C7.19356 4.60273 7.24995 4.31399 7.24995 4C7.24995 3.3658 7.09074 2.92028 6.87906 2.65084C6.68302 2.4013 6.40399 2.25001 5.99998 2.25C5.59599 2.24999 5.31693 2.40128 5.12087 2.65083ZM7.40638 8.75H4.59358C3.75522 10.436 2.75 12.9904 2.75 15.5C2.75 17.6366 3.22442 19.2878 3.69123 20.3965C3.92484 20.9513 4.15665 21.3704 4.32624 21.646C4.34921 21.6833 4.37103 21.718 4.39155 21.75H7.60845C7.69621 21.6131 7.8077 21.4275 7.93114 21.1948C8.2163 20.6571 8.56442 19.8692 8.83134 18.8493C8.45715 17.9747 8.25 17.0115 8.25 16C8.25 14.8969 8.49636 13.8513 8.93707 12.9153C8.57232 11.3187 7.95073 9.84452 7.40638 8.75ZM10.0335 11.2375C11.3626 9.71322 13.3188 8.75 15.5 8.75C19.5041 8.75 22.75 11.9959 22.75 16C22.75 20.0041 19.5041 23.25 15.5 23.25C13.2219 23.25 11.1891 22.1993 9.86003 20.556C9.65812 21.0894 9.44707 21.5379 9.2563 21.8976C9.077 22.2356 8.9154 22.4958 8.7957 22.6751C8.73584 22.7647 8.68641 22.8342 8.65042 22.8832C8.63242 22.9077 8.61777 22.9271 8.60685 22.9414L8.59332 22.9588L8.58873 22.9646L8.587 22.9668L8.58565 22.9685C8.5855 22.9687 8.58565 22.9685 8 22.5L8.58565 22.9685C8.44332 23.1464 8.22784 23.25 8 23.25H4C3.77216 23.25 3.55668 23.1464 3.41435 22.9685L4 22.5C3.41435 22.9685 3.41367 22.9677 3.41345 22.9674L3.41237 22.966L3.40968 22.9626L3.40215 22.953C3.3962 22.9454 3.38841 22.9352 3.3789 22.9226C3.35988 22.8974 3.33398 22.8624 3.3022 22.8175C3.23864 22.7279 3.15149 22.5991 3.04876 22.4321C2.84335 22.0984 2.57516 21.6112 2.30877 20.9785C1.77558 19.7122 1.25 17.8634 1.25 15.5C1.25 12.3623 2.61069 9.2788 3.51425 7.5674C3.81192 7.00361 3.74834 6.18309 3.46682 5.33008C3.33912 4.94317 3.24995 4.49535 3.24995 4C3.24995 3.13419 3.4656 2.3297 3.94136 1.72415C4.43275 1.09869 5.15371 0.749981 6.00002 0.75C6.84629 0.750019 7.56723 1.09872 8.0586 1.72418C8.53433 2.32973 8.74995 3.1342 8.74995 4C8.74995 4.49534 8.66079 4.94315 8.5331 5.33006C8.25158 6.18308 8.18801 7.00361 8.48568 7.5674C8.96765 8.48024 9.57097 9.76755 10.0335 11.2375ZM9.75293 15.8146C9.75098 15.8762 9.75 15.938 9.75 16C9.75 19.1756 12.3244 21.75 15.5 21.75C18.6756 21.75 21.25 19.1756 21.25 16C21.25 12.8244 18.6756 10.25 15.5 10.25C12.3864 10.25 9.85079 12.7248 9.75293 15.8146ZM14.3699 11.7424C14.9199 11.4249 15.6232 11.6133 15.9407 12.1633C16.2583 12.7133 16.0698 13.4166 15.5198 13.7342C14.9698 14.0517 14.2665 13.8633 13.949 13.3133C13.6314 12.7633 13.8199 12.06 14.3699 11.7424ZM11.7716 13.2428C12.3216 12.9252 13.0249 13.1137 13.3424 13.6637C13.6599 14.2137 13.4715 14.917 12.9215 15.2345C12.3715 15.5521 11.6682 15.3636 11.3507 14.8136C11.0331 14.2636 11.2216 13.5603 11.7716 13.2428ZM14.3211 14.6574C14.8711 14.3399 15.5744 14.5283 15.8919 15.0784C16.2094 15.6284 16.021 16.3316 15.471 16.6492C14.921 16.9667 14.2177 16.7783 13.9002 16.2283C13.5826 15.6783 13.7711 14.975 14.3211 14.6574Z" fill="#26272B"/>
</svg>
