<svg width="24" height="24" viewBox="0 0 24 24" fill="none" xmlns="http://www.w3.org/2000/svg">
<path fill-rule="evenodd" clip-rule="evenodd" d="M11.1209 3.15083C10.9092 3.42028 10.75 3.86581 10.75 4.5C10.75 4.83821 10.8154 5.14722 10.9115 5.41903C11.1438 6.07661 11.3381 6.91908 11.2196 7.75H12.7804C12.6619 6.91908 12.8562 6.07661 13.0885 5.41903C13.1846 5.14722 13.25 4.83821 13.25 4.5C13.25 3.8658 13.0908 3.42028 12.8791 3.15084C12.6831 2.9013 12.404 2.75001 12 2.75C11.596 2.74999 11.317 2.90128 11.1209 3.15083ZM13.3513 9.25H10.6487C10.2711 10.022 9.84978 10.9638 9.49944 11.9496C9.05854 13.1903 8.75 14.4462 8.75 15.5C8.75 17.1119 9.21204 18.5773 9.68624 19.6526C9.92211 20.1875 10.1576 20.6182 10.3324 20.9127C10.3586 20.9568 10.3833 20.9977 10.4065 21.0355H13.5935C13.6167 20.9977 13.6414 20.9568 13.6676 20.9127C13.8424 20.6182 14.0779 20.1875 14.3138 19.6526C14.788 18.5773 15.25 17.1119 15.25 15.5C15.25 14.4462 14.9415 13.1903 14.5006 11.9496C14.1502 10.9638 13.7289 10.022 13.3513 9.25ZM14 21.7855L14.6092 22.2229C14.4683 22.4191 14.2416 22.5355 14 22.5355H10C9.75844 22.5355 9.53166 22.4191 9.39077 22.2229L10 21.7855C9.39077 22.2229 9.39092 22.2231 9.39077 22.2229L9.38939 22.221L9.38728 22.218L9.38092 22.209L9.35998 22.1789C9.34249 22.1536 9.3181 22.1176 9.28778 22.0716C9.22717 21.9796 9.14278 21.8472 9.04259 21.6784C8.88785 21.4178 8.69461 21.0691 8.49283 20.6474C8.38127 20.839 8.28298 20.9865 8.20949 21.0898C8.17241 21.142 8.14162 21.1829 8.1186 21.2126C8.10709 21.2274 8.09752 21.2394 8.09006 21.2487L8.0805 21.2604L8.07695 21.2647L8.07484 21.2672C8.0747 21.2674 8.07425 21.2679 7.5 20.7855L8.07484 21.2672C7.93234 21.4368 7.72154 21.5355 7.5 21.5355H3.5C3.27846 21.5355 3.06825 21.4375 2.92575 21.2679L3.5 20.7855C2.92575 21.2679 2.92599 21.2682 2.92575 21.2679L2.92477 21.2667L2.92366 21.2654L2.92102 21.2622L2.91414 21.2539L2.89424 21.229C2.87833 21.2088 2.85726 21.1814 2.83178 21.1469C2.78083 21.0777 2.71221 20.9798 2.63198 20.8531C2.47155 20.5997 2.26444 20.231 2.05957 19.7482C1.64911 18.7807 1.25 17.3601 1.25 15.5C1.25 13.344 2.11066 11.3998 2.83173 10.1416C3.1932 9.51091 3.16046 8.5571 2.90173 7.61451C2.80984 7.27975 2.75 6.90573 2.75 6.5C2.75 5.63419 2.96565 4.8297 3.4414 4.22415C3.93279 3.59869 4.65376 3.24998 5.50006 3.25C6.34634 3.25002 7.06728 3.59872 7.55864 4.22418C8.03437 4.82973 8.25 5.6342 8.25 6.5C8.25 6.90573 8.19016 7.27975 8.09827 7.61451C7.83954 8.5571 7.8068 9.51091 8.16827 10.1416C8.24858 10.2818 8.33029 10.4298 8.41212 10.5852C8.8045 9.60471 9.23246 8.71179 9.58462 8.02554C9.85706 7.49466 9.78513 6.73388 9.49714 5.91869C9.35349 5.51209 9.25 5.03369 9.25 4.5C9.25 3.63419 9.46565 2.8297 9.9414 2.22415C10.4328 1.59869 11.1538 1.24998 12.0001 1.25C12.8463 1.25002 13.5673 1.59872 14.0586 2.22418C14.5344 2.82973 14.75 3.6342 14.75 4.5C14.75 5.03368 14.6465 5.51209 14.5029 5.9187C14.2149 6.73388 14.1429 7.49466 14.4154 8.02554C14.7675 8.71179 15.1955 9.6047 15.5879 10.5852C15.6697 10.4298 15.7514 10.2818 15.8317 10.1416C16.1932 9.51091 16.1605 8.5571 15.9017 7.61451C15.8098 7.27975 15.75 6.90573 15.75 6.5C15.75 5.6342 15.9656 4.82973 16.4414 4.22418C16.9327 3.59872 17.6537 3.25002 18.4999 3.25C19.3462 3.24998 20.0672 3.59869 20.5586 4.22415C21.0343 4.8297 21.25 5.63419 21.25 6.5C21.25 6.90573 21.1902 7.27975 21.0983 7.61451C20.8395 8.55711 20.8068 9.51091 21.1683 10.1416C21.8893 11.3998 22.75 13.344 22.75 15.5C22.75 17.3601 22.3509 18.7807 21.9404 19.7482C21.7356 20.231 21.5285 20.5997 21.368 20.8531C21.2878 20.9798 21.2192 21.0777 21.1682 21.1469C21.1427 21.1814 21.1217 21.2088 21.1058 21.229L21.0859 21.2539L21.079 21.2622L21.0763 21.2654L21.0752 21.2667C21.075 21.267 21.0742 21.2679 20.5 20.7855L21.0742 21.2679C20.9317 21.4375 20.7215 21.5355 20.5 21.5355H16.5C16.2785 21.5355 16.0683 21.4375 15.9258 21.2679L16.5 20.7855C15.9258 21.2679 15.9259 21.2681 15.9258 21.2679L15.923 21.2647L15.9195 21.2604L15.9099 21.2487C15.9025 21.2394 15.8929 21.2274 15.8814 21.2126C15.8584 21.1829 15.8276 21.142 15.7905 21.0898C15.717 20.9865 15.6187 20.839 15.5072 20.6474C15.3054 21.0691 15.1122 21.4178 14.9574 21.6784C14.8572 21.8472 14.7728 21.9796 14.7122 22.0716C14.6819 22.1176 14.6575 22.1536 14.64 22.1789L14.6191 22.209L14.6127 22.218L14.6106 22.221L14.6098 22.2221C14.6097 22.2223 14.6092 22.2229 14 21.7855ZM16.2618 18.6999C16.4451 19.2233 16.6448 19.6199 16.8009 19.8884C16.8325 19.9427 16.8623 19.9917 16.8898 20.0355H20.1102C20.2303 19.8443 20.3939 19.5529 20.5596 19.1623C20.8991 18.362 21.25 17.1399 21.25 15.5C21.25 13.7199 20.5297 12.0441 19.8669 10.8875C19.8408 10.8421 19.8161 10.7962 19.7925 10.75H17.2075C17.1839 10.7962 17.1592 10.8421 17.1331 10.8875C16.8519 11.3783 16.5556 11.9705 16.3097 12.6302C16.3065 12.6385 16.3033 12.6467 16.2999 12.6549C16.5677 13.6072 16.75 14.5875 16.75 15.5C16.75 16.6691 16.5437 17.7574 16.2618 18.6999ZM17.5911 9.25H19.4089C19.3667 8.52751 19.4894 7.80912 19.6518 7.21746C19.7121 6.99762 19.75 6.75738 19.75 6.5C19.75 5.86581 19.5908 5.42028 19.3791 5.15083C19.183 4.90128 18.904 4.74999 18.5 4.75C18.096 4.75001 17.8169 4.9013 17.6209 5.15084C17.4092 5.42028 17.25 5.8658 17.25 6.5C17.25 6.75738 17.2879 6.99762 17.3482 7.21746C17.5106 7.80912 17.6333 8.52751 17.5911 9.25ZM19.9227 20.3067C19.9222 20.3073 19.9226 20.3069 19.9227 20.3067ZM7.70006 12.6549C7.69669 12.6467 7.69345 12.6385 7.69035 12.6302C7.44439 11.9705 7.14812 11.3783 6.86685 10.8875C6.84083 10.8421 6.81607 10.7962 6.79254 10.75H4.20746C4.18393 10.7962 4.15917 10.8421 4.13315 10.8875C3.47028 12.0441 2.75 13.7199 2.75 15.5C2.75 17.1399 3.10089 18.362 3.44043 19.1623C3.60614 19.5529 3.76972 19.8443 3.88976 20.0355H7.11024C7.13773 19.9917 7.1675 19.9427 7.19907 19.8884C7.35517 19.6199 7.55489 19.2233 7.73818 18.6999C7.45626 17.7574 7.25 16.6691 7.25 15.5C7.25 14.5875 7.43227 13.6072 7.70006 12.6549ZM4.59109 9.25H6.40891C6.36667 8.52751 6.48937 7.80912 6.65178 7.21746C6.71212 6.99762 6.75 6.75738 6.75 6.5C6.75 5.8658 6.59079 5.42028 6.37911 5.15084C6.18307 4.9013 5.90403 4.75001 5.50003 4.75C5.09603 4.74999 4.81698 4.90128 4.62092 5.15083C4.40922 5.42028 4.25 5.86581 4.25 6.5C4.25 6.75738 4.28788 6.99761 4.34822 7.21746C4.51063 7.80912 4.63333 8.52751 4.59109 9.25Z" fill="#26272B"/>
</svg>
