<svg width="24" height="24" viewBox="0 0 24 24" fill="none" xmlns="http://www.w3.org/2000/svg">
<path fill-rule="evenodd" clip-rule="evenodd" d="M5.25 1.5C5.25 1.08579 5.58579 0.75 6 0.75H18C18.4142 0.75 18.75 1.08579 18.75 1.5C18.75 1.91421 18.4142 2.25 18 2.25H13.6307L15.5694 4.51191C15.5702 4.51282 15.571 4.51373 15.5718 4.51465C16.2739 4.66439 16.8635 4.93279 17.3875 5.45065C17.9281 5.9849 18.2016 6.6074 18.3579 7.35228C18.5046 8.05165 18.5578 8.91503 18.622 9.95877L18.6254 10.0128C18.6967 11.1707 18.75 12.402 18.75 13.5C18.75 14.598 18.6967 15.8293 18.6254 16.9872L18.622 17.0412C18.5578 18.085 18.5046 18.9483 18.3579 19.6477C18.2016 20.3926 17.9281 21.0151 17.3875 21.5493C16.854 22.0766 16.2525 22.3452 15.5336 22.4934C14.8649 22.6311 14.0511 22.6716 13.0783 22.7199L13.0233 22.7227C12.6768 22.7399 12.3322 22.75 12 22.75C11.6678 22.75 11.3232 22.7399 10.9767 22.7227L10.9217 22.7199C9.94887 22.6716 9.13507 22.6311 8.46638 22.4934C7.74747 22.3452 7.14601 22.0766 6.61253 21.5493C6.07192 21.0151 5.7984 20.3926 5.64211 19.6477C5.49537 18.9483 5.44222 18.085 5.37797 17.0412L5.37464 16.9872C5.30332 15.8293 5.25 14.598 5.25 13.5C5.25 12.402 5.30332 11.1707 5.37464 10.0128L5.37797 9.95878C5.44222 8.91504 5.49537 8.05166 5.64211 7.35228C5.7984 6.6074 6.07192 5.9849 6.61253 5.45065C7.13655 4.93279 7.72614 4.66439 8.42822 4.51465C8.429 4.51373 8.42977 4.51282 8.43056 4.51191L10.3693 2.25H6C5.58579 2.25 5.25 1.91421 5.25 1.5ZM12 2.65244L10.5906 4.2967C10.6989 4.29116 10.8092 4.28568 10.9217 4.28009L10.9767 4.27735C11.3232 4.26012 11.6678 4.25 12 4.25C12.3322 4.25 12.6768 4.26012 13.0233 4.27735L13.0783 4.28009C13.1908 4.28568 13.3011 4.29116 13.4094 4.2967L12 2.65244ZM12 5.75C11.6975 5.75 11.3782 5.75924 11.0512 5.7755C10.009 5.82733 9.31133 5.86406 8.76909 5.97579C8.26451 6.07975 7.94854 6.23923 7.6669 6.51756C7.39237 6.78886 7.22476 7.11403 7.11015 7.66029C7.05887 7.9047 7.02063 8.18001 6.98842 8.5H17.0116C16.9794 8.18001 16.9411 7.90471 16.8899 7.66029C16.7752 7.11403 16.6076 6.78886 16.3331 6.51756C16.0515 6.23923 15.7355 6.07975 15.2309 5.97579C14.6887 5.86406 13.991 5.82733 12.9488 5.7755C12.6218 5.75924 12.3025 5.75 12 5.75ZM17.1217 10H6.87828C6.87614 10.0347 6.87398 10.0697 6.8718 10.105C6.80143 11.2477 6.75 12.4451 6.75 13.5C6.75 14.5549 6.80143 15.7523 6.8718 16.895C6.87398 16.9303 6.87614 16.9653 6.87828 17H17.1217C17.1239 16.9653 17.126 16.9303 17.1282 16.895C17.1986 15.7523 17.25 14.5549 17.25 13.5C17.25 12.4451 17.1986 11.2477 17.1282 10.105C17.126 10.0697 17.1239 10.0347 17.1217 10ZM17.0116 18.5H6.98842C7.02063 18.82 7.05887 19.0953 7.11015 19.3397C7.22476 19.886 7.39237 20.2111 7.6669 20.4824C7.94854 20.7608 8.26451 20.9202 8.76909 21.0242C9.31133 21.1359 10.009 21.1727 11.0512 21.2245C11.3782 21.2408 11.6975 21.25 12 21.25C12.3025 21.25 12.6218 21.2408 12.9488 21.2245C13.991 21.1727 14.6887 21.1359 15.2309 21.0242C15.7355 20.9202 16.0515 20.7608 16.3331 20.4824C16.6076 20.2111 16.7752 19.886 16.8899 19.3397C16.9411 19.0953 16.9794 18.82 17.0116 18.5Z" fill="#26272B"/>
</svg>
