<svg width="24" height="24" viewBox="0 0 24 24" fill="none" xmlns="http://www.w3.org/2000/svg">
<path fill-rule="evenodd" clip-rule="evenodd" d="M9.23916 2.35546C11.6334 0.586933 14.5308 0.632255 16.7208 1.89664C18.7584 3.07304 19.946 4.36158 20.498 5.61628C21.0541 6.88044 20.9456 8.07871 20.4414 8.95215C20.4156 8.99698 20.3888 9.04056 20.3614 9.08295C21.1144 9.51364 21.6366 10.1722 21.8891 10.9485C22.2232 11.9762 22.0646 13.1411 21.4726 14.1664C21.1477 14.7291 20.6522 15.1849 20.1164 15.5706C19.5778 15.9582 18.9523 16.307 18.325 16.6368C18.08 16.7656 17.8354 16.8914 17.5929 17.0161C16.6016 17.5261 15.6482 18.0165 14.8675 18.6075L12.9415 21.9427C12.1821 23.258 10.5002 23.7086 9.18494 22.9492L3.98879 19.9492C2.67354 19.1899 2.22273 17.5081 2.98216 16.1928L4.8903 12.8886C5.13735 7.50096 6.87914 4.09869 9.23916 2.35546ZM5.59489 14.668L4.28119 16.9428C4.28118 16.9428 4.28121 16.9427 4.28119 16.9428C3.9361 17.5406 4.14089 18.305 4.73879 18.6502L9.93494 21.6502C10.5328 21.9954 11.2973 21.7905 11.6425 21.1927L12.956 18.9181C12.9117 18.9149 12.8664 18.9112 12.8204 18.907C11.8237 18.8158 10.4486 18.4834 8.83693 17.5529C7.22523 16.6223 6.24982 15.5978 5.67254 14.7802C5.64579 14.7423 5.61992 14.7049 5.59489 14.668ZM13.9762 17.4011C14.8759 16.7238 15.9705 16.162 16.9608 15.6537C17.1897 15.5362 17.413 15.4216 17.627 15.3091C18.243 14.9853 18.791 14.6763 19.2402 14.3531C19.6921 14.0279 19.9985 13.7197 20.1736 13.4164C20.5817 12.7096 20.6485 11.984 20.4626 11.4124C20.2955 10.8985 19.9076 10.4514 19.2463 10.2158C19.2323 10.2269 19.2186 10.2378 19.205 10.2486C19.0664 10.3583 18.9504 10.4503 18.8192 10.5739C18.6305 10.7517 18.5305 10.8958 18.481 11.0489C18.4328 11.1983 18.4066 11.4376 18.5163 11.8472C18.6235 12.2473 18.3861 12.6586 17.986 12.7658C17.5858 12.8729 17.1746 12.6355 17.0674 12.2354C16.9027 11.6205 16.8956 11.077 17.0537 10.5877C17.2106 10.1022 17.5043 9.75195 17.7905 9.48224C17.9524 9.3296 18.17 9.15504 18.3544 9.00712C18.4491 8.93112 18.5351 8.86215 18.6002 8.80681C18.8388 8.60417 19.0174 8.41871 19.1423 8.20226C19.388 7.7766 19.5051 7.08436 19.125 6.22028C18.7407 5.34675 17.8304 4.26931 15.9708 3.19568C14.2636 2.21002 12.0139 2.17077 10.1304 3.562C8.25637 4.94623 6.61506 7.85034 6.38697 12.9961C6.40172 13.0346 6.42198 13.0843 6.4488 13.1438C6.52942 13.3228 6.66946 13.5915 6.89788 13.915C7.3529 14.5594 8.16755 15.4343 9.58693 16.2538C11.0063 17.0733 12.1714 17.3414 12.957 17.4132C13.3513 17.4493 13.654 17.4362 13.8493 17.4165C13.8985 17.4116 13.9409 17.4062 13.9762 17.4011Z" fill="#26272B"/>
</svg>
