<svg width="24" height="24" viewBox="0 0 24 24" fill="none" xmlns="http://www.w3.org/2000/svg">
<path fill-rule="evenodd" clip-rule="evenodd" d="M7.8111 4.03441C8.2136 2.96108 9.23968 2.25 10.386 2.25H18C19.5188 2.25 20.75 3.48122 20.75 5C20.75 6.51878 19.5188 7.75 18 7.75H12.7808C12.6661 7.75 12.5661 7.82807 12.5382 7.93937L11.9606 10.25H18C20.6234 10.25 22.75 12.3766 22.75 15V17C22.75 19.6234 20.6234 21.75 18 21.75H6C3.37665 21.75 1.25 19.6234 1.25 17V15C1.25 12.5561 3.09571 10.5432 5.46925 10.2793L7.8111 4.03441ZM7.08225 10.25H10.4144L11.083 7.57556C11.2778 6.79652 11.9778 6.25 12.7808 6.25H18C18.6904 6.25 19.25 5.69036 19.25 5C19.25 4.30964 18.6904 3.75 18 3.75H10.386C9.86494 3.75 9.39854 4.07322 9.21559 4.5611L7.08225 10.25ZM6 11.75C4.20507 11.75 2.75 13.2051 2.75 15V15.25H21.25V15C21.25 13.2051 19.7949 11.75 18 11.75H6ZM21.25 16.75H2.75V17C2.75 18.7949 4.20507 20.25 6 20.25H18C19.7949 20.25 21.25 18.7949 21.25 17V16.75Z" fill="#26272B"/>
</svg>
