<svg width="24" height="24" viewBox="0 0 24 24" fill="none" xmlns="http://www.w3.org/2000/svg">
<path fill-rule="evenodd" clip-rule="evenodd" d="M18.9439 1.10371C19.2226 1.21547 19.4077 1.48265 19.4145 1.78282L19.4763 4.50699H22.2786C22.582 4.50699 22.8554 4.68973 22.9715 4.96998C23.0876 5.25024 23.0234 5.57283 22.8089 5.78732L21.5453 7.05096C22.3151 8.5329 22.75 10.2166 22.75 12.0001C22.75 17.9372 17.9371 22.7501 12 22.7501C6.06294 22.7501 1.25 17.9372 1.25 12.0001C1.25 6.06303 6.06294 1.25009 12 1.25009C13.7834 1.25009 15.467 1.68492 16.9489 2.45468L18.1344 1.26948C18.3467 1.0572 18.6652 0.991948 18.9439 1.10371ZM15.8273 3.57633C14.6615 3.04575 13.366 2.75009 12 2.75009C6.89137 2.75009 2.75 6.89146 2.75 12.0001C2.75 17.1087 6.89137 21.2501 12 21.2501C17.1086 21.2501 21.25 17.1087 21.25 12.0001C21.25 10.634 20.9543 9.33842 20.4237 8.1726L18.5663 10.0299C18.5393 10.057 18.5103 10.0818 18.4799 10.1041C18.6558 10.7062 18.75 11.3426 18.75 12.0001C18.75 15.728 15.7279 18.7501 12 18.7501C8.27208 18.7501 5.25 15.728 5.25 12.0001C5.25 8.27217 8.27208 5.25009 12 5.25009C12.6575 5.25009 13.2939 5.34431 13.8959 5.5202C13.9183 5.48975 13.943 5.46085 13.9701 5.43381L15.8273 3.57633ZM13.7502 7.04868C13.2035 6.85542 12.6147 6.75009 12 6.75009C9.1005 6.75009 6.75 9.1006 6.75 12.0001C6.75 14.8996 9.1005 17.2501 12 17.2501C14.8995 17.2501 17.25 14.8996 17.25 12.0001C17.25 11.3853 17.1446 10.7964 16.9513 10.2496H14.8111L12.5307 12.5304C12.2378 12.8234 11.7629 12.8234 11.47 12.5305C11.1771 12.2377 11.1771 11.7628 11.4699 11.4699L13.7504 9.18904L13.7502 7.04868ZM20.4677 6.00699H18.7431C18.3355 6.00699 18.0025 5.68147 17.9933 5.27399L17.9547 3.57053L15.2504 6.27476V8.74962L17.7253 8.7496L20.085 6.38955L20.4677 6.00699Z" fill="#26272B"/>
</svg>
