<svg width="24" height="24" viewBox="0 0 24 24" fill="none" xmlns="http://www.w3.org/2000/svg">
<path fill-rule="evenodd" clip-rule="evenodd" d="M22.5001 1.75C22.9143 1.75 23.2501 2.08579 23.2501 2.5V15.9994C23.2501 15.9995 23.2501 15.9994 23.2501 15.9994C23.2501 18.6228 21.1235 20.75 18.5001 20.75H13.1221C12.8132 21.6239 11.9798 22.25 11.0001 22.25C9.75747 22.25 8.75011 21.2426 8.75011 20C8.75011 18.7574 9.75747 17.75 11.0001 17.75C11.9798 17.75 12.8132 18.3761 13.1221 19.25H18.5001C20.295 19.25 21.7501 17.7949 21.7501 16C21.7501 16 21.7501 16 21.7501 16V9.75H20.3842C20.3328 10.0646 20.2485 10.3806 20.1287 10.6943L19.6879 11.849C18.7508 14.3033 15.8133 15.2031 13.6828 13.8353C13.0975 14.6894 12.115 15.2501 11.0004 15.2501C9.88721 15.2501 8.90573 14.6907 8.32015 13.8384C7.36864 14.4683 6.25436 14.6898 5.20157 14.4526C3.96382 14.1737 2.89661 13.2803 2.31868 11.865C2.13007 11.4031 1.93152 10.8601 1.88008 10.7184C1.87402 10.7017 1.86797 10.6854 1.86079 10.6661C1.85908 10.6615 1.85731 10.6567 1.85546 10.6517C0.705343 7.55419 2.9957 4.25 6.30903 4.25H15.6912C18.141 4.25 20.0316 6.05644 20.3858 8.25H21.7501V2.5C21.7501 2.08579 22.0859 1.75 22.5001 1.75ZM9.55672 12.9897C9.8724 13.4492 10.4018 13.7501 11.0004 13.7501C11.599 13.7501 12.1284 13.4492 12.4441 12.9899C12.1634 12.8588 11.8688 12.7679 11.5689 12.7174C10.8927 12.6036 10.1892 12.6944 9.55672 12.9897ZM13.85 12.0807C13.9687 12.1654 14.0846 12.256 14.1971 12.3525C15.5525 13.5143 17.6498 12.9816 18.2865 11.3139L18.7274 10.1593C19.5397 8.03168 17.9686 5.75 15.6912 5.75H6.30903C4.04221 5.75 2.47493 8.01076 3.26166 10.1296C3.26306 10.1334 3.26453 10.1374 3.26605 10.1414C3.27334 10.1611 3.28182 10.1839 3.29002 10.2065C3.34073 10.3461 3.53074 10.8654 3.70736 11.2979C4.11705 12.3012 4.81423 12.8277 5.5313 12.9893C6.25868 13.1532 7.09291 12.9612 7.80307 12.3525C9.52678 10.875 12.0186 10.7819 13.8392 12.0731C13.8428 12.0756 13.8464 12.0782 13.85 12.0807ZM7.00011 8.75C6.58589 8.75 6.25011 9.08579 6.25011 9.5C6.25011 9.91421 5.91432 10.25 5.50011 10.25C5.08589 10.25 4.75011 9.91421 4.75011 9.5C4.75011 8.25736 5.75747 7.25 7.00011 7.25C7.41432 7.25 7.75011 7.58579 7.75011 8C7.75011 8.41421 7.41432 8.75 7.00011 8.75ZM11.0001 19.25C10.5859 19.25 10.2501 19.5858 10.2501 20C10.2501 20.4142 10.5859 20.75 11.0001 20.75C11.4143 20.75 11.7501 20.4142 11.7501 20C11.7501 19.5858 11.4143 19.25 11.0001 19.25Z" fill="#26272B"/>
</svg>
