<svg width="24" height="24" viewBox="0 0 24 24" fill="none" xmlns="http://www.w3.org/2000/svg">
<path fill-rule="evenodd" clip-rule="evenodd" d="M13.2383 2.98432L19.9559 9.70183C19.9562 9.70216 19.9565 9.70249 19.9568 9.70282L21.0165 10.7625C21.3094 11.0554 21.3094 11.5303 21.0165 11.8232C20.7236 12.116 20.2488 12.116 19.9559 11.8232L12.1777 4.04498C11.8848 3.75209 11.8848 3.27721 12.1777 2.98432C12.4706 2.69143 12.9454 2.69143 13.2383 2.98432ZM14.8293 2.45399L14.299 1.92366C13.4203 1.04498 11.9957 1.04498 11.117 1.92366C10.2383 2.80234 10.2383 4.22696 11.117 5.10564L13.0616 7.05018L7.05116 13.0606L5.10662 11.116C4.22794 10.2374 2.80331 10.2374 1.92463 11.116C1.04596 11.9947 1.04596 13.4193 1.92463 14.298L2.45497 14.8284L2.27819 15.0051C1.20425 16.0791 1.20425 17.8203 2.27819 18.8942L5.10662 21.7226C6.18056 22.7966 7.92176 22.7966 8.9957 21.7226L9.17248 21.5459L9.70281 22.0762C10.5815 22.9549 12.0061 22.9549 12.8848 22.0762C13.7635 21.1975 13.7635 19.7729 12.8848 18.8942L10.9402 16.9497L16.9507 10.9393L18.8952 12.8838C19.7739 13.7625 21.1985 13.7625 22.0772 12.8838C22.9559 12.0051 22.9559 10.5805 22.0772 9.70183L21.5468 9.1715L21.7236 8.99473C22.7976 7.92078 22.7976 6.17958 21.7236 5.10564L18.8952 2.27721C17.8213 1.20327 16.0801 1.20327 15.0061 2.27721L14.8293 2.45399ZM15.89 3.51465L16.0668 3.33787C16.5549 2.84972 17.3464 2.84972 17.8345 3.33787L20.663 6.1663C21.1511 6.65445 21.1511 7.44591 20.663 7.93407L20.4862 8.11084L15.89 3.51465ZM15.89 9.87861L9.87959 15.889L8.11182 14.1213L14.1222 8.11084L15.89 9.87861ZM9.34926 17.48L11.8241 19.9549C12.117 20.2478 12.117 20.7226 11.8241 21.0155C11.5312 21.3084 11.0564 21.3084 10.7635 21.0155L9.7038 19.9559C9.70347 19.9555 9.70314 19.9552 9.70281 19.9549L2.98529 13.2374C2.6924 12.9445 2.6924 12.4696 2.98529 12.1767C3.27819 11.8838 3.75306 11.8838 4.04595 12.1767L9.34926 17.48C9.34919 17.4799 9.34932 17.4801 9.34926 17.48ZM8.11182 20.4852L7.93504 20.662C7.44689 21.1501 6.65543 21.1501 6.16728 20.662L3.33885 17.8336C2.85069 17.3454 2.85069 16.5539 3.33885 16.0658L3.51562 15.889L8.11182 20.4852Z" fill="#26272B"/>
</svg>
