<svg width="24" height="24" viewBox="0 0 24 24" fill="none" xmlns="http://www.w3.org/2000/svg">
<path fill-rule="evenodd" clip-rule="evenodd" d="M23.4801 2.42385C23.7983 2.68903 23.8413 3.16195 23.5762 3.48016L21.2261 6.30025C20.9886 6.58524 20.6368 6.75002 20.2658 6.75002H19.5198L16.9014 13.7322L20.5168 15.635C21.5827 16.196 22.25 17.3013 22.25 18.5058C22.25 20.2975 20.7975 21.75 19.0058 21.75H7.77036C4.44541 21.75 1.75 19.0546 1.75 15.7297C1.75 12.7253 3.86765 10.4348 6.46347 9.84798L7.3626 7.75002H5.5C5.08579 7.75002 4.75 7.41423 4.75 7.00002C4.75 6.5858 5.08579 6.25002 5.5 6.25002H7.74173C8.63913 6.25002 9.24416 7.16758 8.89066 7.99242L8.15317 9.71324C8.96285 9.76532 9.78424 9.9863 10.5743 10.4021L15.5635 13.028L17.9177 6.75002H16C15.5858 6.75002 15.25 6.41423 15.25 6.00002C15.25 5.58581 15.5858 5.25002 16 5.25002H18.9827C18.9943 5.24975 19.0059 5.24975 19.0175 5.25002H20.1487L22.4238 2.51988C22.689 2.20167 23.1619 2.15868 23.4801 2.42385ZM9.8757 11.7295C6.86555 10.1452 3.25 12.328 3.25 15.7297C3.25 18.2262 5.27384 20.25 7.77036 20.25H19.0058C19.9691 20.25 20.75 19.4691 20.75 18.5058C20.75 17.8583 20.3912 17.264 19.8182 16.9624L9.8757 11.7295ZM7.5 14.75C7.08579 14.75 6.75 15.0858 6.75 15.5C6.75 15.9142 7.08579 16.25 7.5 16.25C7.91421 16.25 8.25 15.9142 8.25 15.5C8.25 15.0858 7.91421 14.75 7.5 14.75ZM5.25 15.5C5.25 14.2574 6.25736 13.25 7.5 13.25C8.74264 13.25 9.75 14.2574 9.75 15.5C9.75 15.7751 9.70063 16.0387 9.61028 16.2823L10.7715 17.25H12C12.4142 17.25 12.75 17.5858 12.75 18C12.75 18.4142 12.4142 18.75 12 18.75H10.5C10.3245 18.75 10.1546 18.6885 10.0199 18.5762L8.64979 17.4345C8.3133 17.6349 7.9201 17.75 7.5 17.75C6.25736 17.75 5.25 16.7427 5.25 15.5Z" fill="#26272B"/>
</svg>
