<svg width="24" height="24" viewBox="0 0 24 24" fill="none" xmlns="http://www.w3.org/2000/svg">
<path fill-rule="evenodd" clip-rule="evenodd" d="M2.47013 1.46967C2.76302 1.17678 3.2379 1.17678 3.53079 1.46967L12.0005 9.93934L20.4701 1.46967C20.763 1.17678 21.2379 1.17678 21.5308 1.46967C21.8237 1.76256 21.8237 2.23744 21.5308 2.53033L13.0611 11L15.4995 13.4383C16.4691 12.6931 17.683 12.25 19.0005 12.25C20.7021 12.25 22.2319 12.9901 23.2836 14.1636C23.7429 14.6761 23.6517 15.4089 23.2239 15.8367L21.5609 17.4997L22.5308 18.4697C23.376 19.3148 23.376 20.6852 22.5308 21.5303C21.6856 22.3755 20.3153 22.3755 19.4701 21.5303L18.5002 20.5604L16.8377 22.2229C16.4099 22.6507 15.6771 22.7419 15.1646 22.2827C13.9911 21.2312 13.2505 19.7019 13.2505 18C13.2505 16.6826 13.6936 15.4686 14.4388 14.499L12.0005 12.0607L9.56211 14.499C10.3074 15.4686 10.7504 16.6826 10.7504 18C10.7504 19.7019 10.0098 21.2312 8.83629 22.2827C8.3238 22.7419 7.59106 22.6507 7.16324 22.2229L5.50072 20.5604L4.53079 21.5303C3.68561 22.3755 2.31531 22.3755 1.47013 21.5303C0.624952 20.6852 0.624951 19.3148 1.47013 18.4697L2.44006 17.4997L0.777029 15.8367C0.34921 15.4089 0.258007 14.6761 0.71732 14.1636C1.76903 12.9901 3.2988 12.25 5.00043 12.25C6.31789 12.25 7.53185 12.6931 8.50145 13.4383L10.9398 11L2.47013 2.53033C2.17724 2.23744 2.17724 1.76256 2.47013 1.46967ZM3.50072 18.5604L2.53079 19.5303C2.2714 19.7897 2.2714 20.2103 2.53079 20.4697C2.79018 20.7291 3.21074 20.7291 3.47013 20.4697L4.44006 19.4997L3.50072 18.5604ZM19.5609 19.4997L20.5308 20.4697C20.7902 20.7291 21.2107 20.7291 21.4701 20.4697C21.7295 20.2103 21.7295 19.7897 21.4701 19.5303L20.5002 18.5604L19.5609 19.4997ZM2.02598 14.9643L8.03565 20.974C8.78789 20.2067 9.25043 19.1579 9.25043 18C9.25043 15.6528 7.34764 13.75 5.00043 13.75C3.84243 13.75 2.79326 14.2123 2.02598 14.9643ZM19.0005 13.75C16.6533 13.75 14.7505 15.6528 14.7505 18C14.7505 19.1579 15.213 20.2067 15.9653 20.974L21.9749 14.9643C21.2077 14.2123 20.1585 13.75 19.0005 13.75Z" fill="#26272B"/>
</svg>
