<svg width="24" height="24" viewBox="0 0 24 24" fill="none" xmlns="http://www.w3.org/2000/svg">
<path fill-rule="evenodd" clip-rule="evenodd" d="M18.4732 1.41841C18.6481 1.56083 18.7497 1.77441 18.7497 1.99996L18.75 7.04699C18.8302 7.09242 18.9195 7.14464 19.0161 7.20368C19.421 7.45111 19.9625 7.82306 20.5068 8.32203C21.5869 9.31209 22.75 10.8726 22.75 12.9999C22.75 15.1272 21.5869 16.6877 20.5068 17.6778C20.063 18.0846 19.621 18.407 19.2535 18.6463C19.3477 18.7263 19.4493 18.8098 19.5571 18.8945C20.1883 19.3905 20.9533 19.8657 21.6572 20.0165C21.9611 20.0817 22.1934 20.3276 22.2411 20.6348C22.2888 20.942 22.142 21.2468 21.8721 21.4011L21.5 20.7499C21.8721 21.4011 21.8719 21.4012 21.8716 21.4013L21.8711 21.4016L21.87 21.4023L21.8675 21.4037L21.8609 21.4074L21.8418 21.4179C21.8265 21.4262 21.806 21.437 21.7804 21.4501C21.7293 21.4762 21.6579 21.5111 21.5669 21.5517C21.3851 21.633 21.125 21.7376 20.7935 21.8409C20.1304 22.0476 19.1799 22.2499 18 22.2499C16.8201 22.2499 15.8696 22.0476 15.2065 21.8409C14.875 21.7376 14.6149 21.633 14.4331 21.5517C14.3422 21.5111 14.2707 21.4762 14.2196 21.4501C14.194 21.437 14.1735 21.4262 14.1582 21.4179L14.1391 21.4074L14.1325 21.4037L14.13 21.4023L14.1289 21.4016L14.1284 21.4013C14.1281 21.4012 14.1279 21.4011 14.5 20.7499L14.1279 21.4011C13.858 21.2468 13.7112 20.942 13.7589 20.6348C13.8066 20.3276 14.0389 20.0817 14.3429 20.0165C15.0468 19.8657 15.8117 19.3905 16.4429 18.8945C16.5507 18.8098 16.6524 18.7263 16.7466 18.6463C16.379 18.407 15.9371 18.0846 15.4932 17.6778C14.4131 16.6877 13.25 15.1272 13.25 12.9999C13.25 10.8726 14.4131 9.31209 15.4932 8.32203C16.0375 7.82306 16.579 7.45111 16.9839 7.20368C17.0805 7.14465 17.1698 7.09244 17.25 7.04702L17.2498 3.23033C12.2312 5.89976 9.55379 8.53364 8.1399 11.3274C9.40145 12.064 10.25 13.4321 10.25 14.9999C10.25 17.1337 8.67746 18.9002 6.62805 19.2038C6.62982 19.5296 6.6358 19.8601 6.64525 20.1954C6.69161 21.8397 5.39414 23.25 3.71435 23.25C2.38691 23.25 1.12194 22.3256 0.978626 20.8851C0.635887 17.44 1.41364 13.2424 4.01381 9.54384C6.62325 5.83205 11.0304 2.67606 17.8477 1.26556C18.0686 1.21986 18.2983 1.276 18.4732 1.41841ZM5.12783 19.1602C4.05475 18.9364 3.13028 18.308 2.52114 17.4418C2.37708 18.5897 2.36834 19.7021 2.47126 20.7366C2.52665 21.2933 3.03471 21.75 3.71435 21.75C4.51453 21.75 5.16938 21.0723 5.14584 20.2376C5.13562 19.875 5.12929 19.5159 5.12783 19.1602ZM4.9144 10.8898C5.26094 10.7985 5.6248 10.7499 6.00001 10.7499C6.24553 10.7499 6.48658 10.7708 6.72135 10.811C7.75444 8.70112 9.38353 6.7413 11.8625 4.85303C8.86927 6.34691 6.7228 8.29862 5.24092 10.4065C5.12835 10.5666 5.01954 10.7278 4.9144 10.8898ZM18 8.34612C17.9309 8.3851 17.8523 8.43094 17.7661 8.4836C17.421 8.69451 16.9625 9.01006 16.5068 9.42776C16.2412 9.67125 15.9825 9.9436 15.7488 10.2449C17.1692 10.9187 18.8308 10.9187 20.2512 10.2449C20.0175 9.9436 19.7588 9.67125 19.4932 9.42776C19.0375 9.01006 18.579 8.69451 18.2339 8.4836C18.1477 8.43094 18.0691 8.3851 18 8.34612ZM20.9904 11.5536C19.1106 12.4825 16.8894 12.4825 15.0096 11.5536C14.8464 11.9955 14.75 12.4775 14.75 12.9999C14.75 14.5393 15.5869 15.7288 16.5068 16.572C16.9625 16.9897 17.421 17.3053 17.7661 17.5162C17.8523 17.5688 17.9309 17.6147 18 17.6537C18.0691 17.6147 18.1477 17.5688 18.2339 17.5162C18.579 17.3053 19.0375 16.9897 19.4932 16.572C20.4131 15.7288 21.25 14.5393 21.25 12.9999C21.25 12.4775 21.1537 11.9955 20.9904 11.5536ZM18 19.5422C17.824 19.7012 17.6108 19.8845 17.3696 20.074C17.1406 20.2539 16.8773 20.4468 16.5889 20.6321C16.9966 20.702 17.4694 20.7499 18 20.7499C18.5306 20.7499 19.0035 20.702 19.4111 20.6321C19.1227 20.4468 18.8594 20.2539 18.6304 20.074C18.3892 19.8845 18.176 19.7012 18 19.5422ZM18.3137 8.18112C18.314 8.18102 18.314 8.18101 18.3138 8.18109L18.3137 8.18112ZM17.6862 8.18109C17.686 8.181 17.6861 8.18102 17.6863 8.18115L17.6862 8.18109ZM6.00001 12.2499C4.48122 12.2499 3.25001 13.4811 3.25001 14.9999C3.25001 16.4873 4.43107 17.6991 5.90613 17.7483C5.93732 17.7494 5.96861 17.7499 6.00001 17.7499C7.51879 17.7499 8.75001 16.5187 8.75001 14.9999C8.75001 13.7963 7.97637 12.7715 6.89703 12.3993C6.61685 12.3027 6.31538 12.2499 6.00001 12.2499ZM4.75001 14.9999C4.75001 14.3095 5.30965 13.7499 6.00001 13.7499C6.69036 13.7499 7.25001 14.3095 7.25001 14.9999C7.25001 15.6902 6.69036 16.2499 6.00001 16.2499C5.30965 16.2499 4.75001 15.6902 4.75001 14.9999Z" fill="#26272B"/>
</svg>
