<svg width="24" height="24" viewBox="0 0 24 24" fill="none" xmlns="http://www.w3.org/2000/svg">
<path fill-rule="evenodd" clip-rule="evenodd" d="M10.25 2.69097C10.25 1.35991 11.6771 0.516131 12.8434 1.15759L19.6055 4.87677C20.8702 5.57236 20.7965 7.4137 19.4803 8.00601L11.75 11.4846V16.2634C13.4539 16.3258 15.0081 16.5992 16.202 17.0256C16.8823 17.2686 17.4859 17.5754 17.9338 17.9535C18.3782 18.3288 18.75 18.8481 18.75 19.4997C18.75 20.1513 18.3782 20.6706 17.9338 21.0459C17.4859 21.424 16.8823 21.7308 16.202 21.9738C14.8349 22.462 12.9957 22.7497 11 22.7497C9.00431 22.7497 7.16505 22.462 5.798 21.9738C5.11774 21.7308 4.51411 21.424 4.06623 21.0459C3.62183 20.6706 3.25 20.1513 3.25 19.4997C3.25 18.8481 3.62183 18.3288 4.06623 17.9535C4.51411 17.5754 5.11774 17.2686 5.798 17.0256C6.99194 16.5992 8.54606 16.3258 10.25 16.2634V2.69097ZM10.25 17.7644C8.68755 17.8263 7.31047 18.0782 6.30251 18.4382C5.71602 18.6477 5.29451 18.8796 5.03396 19.0996C4.76993 19.3226 4.75 19.4609 4.75 19.4997C4.75 19.5385 4.76993 19.6768 5.03396 19.8998C5.29451 20.1198 5.71602 20.3517 6.3025 20.5612C7.46895 20.9777 9.1297 21.2497 11 21.2497C12.8703 21.2497 14.531 20.9777 15.6975 20.5612C16.284 20.3517 16.7055 20.1198 16.966 19.8998C17.2301 19.6768 17.25 19.5385 17.25 19.4997C17.25 19.4609 17.2301 19.3226 16.966 19.0996C16.7055 18.8796 16.284 18.6477 15.6975 18.4382C14.6895 18.0782 13.3124 17.8263 11.75 17.7644V18.9997C11.75 19.4139 11.4142 19.7497 11 19.7497C10.5858 19.7497 10.25 19.4139 10.25 18.9997V17.7644ZM11.75 9.83976L18.8647 6.63813C19.0528 6.55351 19.0633 6.29046 18.8826 6.19109L12.1205 2.47192C11.9539 2.38028 11.75 2.50082 11.75 2.69097V9.83976Z" fill="#26272B"/>
</svg>
