<svg width="24" height="24" viewBox="0 0 24 24" fill="none" xmlns="http://www.w3.org/2000/svg">
<path fill-rule="evenodd" clip-rule="evenodd" d="M12 2.75C8.82436 2.75 6.25 5.32436 6.25 8.5C6.25 11.6756 8.82436 14.25 12 14.25C15.1756 14.25 17.75 11.6756 17.75 8.5C17.75 5.32436 15.1756 2.75 12 2.75ZM4.75 8.5C4.75 4.49594 7.99594 1.25 12 1.25C16.0041 1.25 19.25 4.49594 19.25 8.5C19.25 12.5041 16.0041 15.75 12 15.75C7.99594 15.75 4.75 12.5041 4.75 8.5ZM7.50597 17.5643L7.50606 17.5644L7.50612 17.5644L7.50744 17.5656L7.5144 17.5717L7.54449 17.5985C7.57149 17.6227 7.61204 17.6594 7.66419 17.7073C7.76854 17.8033 7.91905 17.9444 8.10028 18.1218C8.46365 18.4776 8.94606 18.9753 9.42629 19.5456C9.90871 20.1185 10.3755 20.7488 10.7182 21.3701C11.0676 22.0033 11.2499 22.5591 11.2498 22.9999C11.2498 23.4141 11.5856 23.75 11.9998 23.75C12.414 23.75 12.7498 23.4142 12.7498 23C12.7499 22.5592 12.9322 22.0034 13.2816 21.3701C13.6244 20.7489 14.0912 20.1185 14.5737 19.5456C15.0539 18.9753 15.5363 18.4776 15.8997 18.1218C16.0809 17.9444 16.2315 17.8033 16.3358 17.7073C16.388 17.6594 16.4285 17.6227 16.4555 17.5985L16.4856 17.5717L16.4926 17.5656L16.4939 17.5644L16.4939 17.5644L16.494 17.5643C16.7913 17.3041 16.8357 16.8578 16.5955 16.5441C16.356 16.2313 15.9155 16.1572 15.587 16.3739M15.5844 16.3757L15.5848 16.3754L15.5856 16.3749L15.5867 16.3742L15.582 16.3771C15.5758 16.3811 15.564 16.3884 15.5468 16.3986C15.5124 16.4192 15.4563 16.4513 15.3796 16.4913C15.2262 16.5714 14.9908 16.6826 14.6812 16.7952C14.0621 17.0203 13.1491 17.25 12 17.25C10.8509 17.25 9.93788 17.0203 9.31881 16.7952C9.00923 16.6826 8.77385 16.5714 8.62036 16.4913C8.54367 16.4513 8.48763 16.4192 8.45319 16.3986C8.43598 16.3884 8.42419 16.3811 8.41795 16.3771L8.41334 16.3742L8.41442 16.3749L8.41511 16.3754C8.4144 16.3749 8.41369 16.3744 8.41298 16.3739C8.08449 16.1572 7.64398 16.2313 7.40449 16.5441C7.1643 16.8578 7.2087 17.3041 7.50597 17.5643M13.3621 18.6561C12.8782 19.237 12.3858 19.9012 11.9999 20.5886C11.6141 19.9012 11.1217 19.237 10.6379 18.6561C11.0551 18.7145 11.5102 18.75 12 18.75C12.4898 18.75 12.9449 18.7145 13.3621 18.6561Z" fill="#26272B"/>
</svg>
