<svg width="24" height="24" viewBox="0 0 24 24" fill="none" xmlns="http://www.w3.org/2000/svg">
<path fill-rule="evenodd" clip-rule="evenodd" d="M20.835 2.62307C20.5724 2.52268 20.2846 2.63867 20.1655 2.88554C19.4298 4.41057 18.0114 7.34026 16.6737 10.0436C16.005 11.395 15.3552 12.6924 14.8204 13.7305C14.2954 14.7495 13.8579 15.5651 13.6238 15.9162C13.5518 16.0241 13.482 16.1306 13.4146 16.2332C13.2657 16.4604 13.1291 16.6686 13.0092 16.8318C12.8347 17.0693 12.6066 17.3421 12.2752 17.5027C11.9105 17.6794 11.544 17.6655 11.2107 17.5919C10.8971 17.5226 10.5367 17.3826 10.1332 17.2153C8.6435 16.5978 6.53956 15.987 4.48151 16.2443C3.64455 16.3489 3.20968 16.6688 2.99044 17C2.76272 17.344 2.68365 17.8271 2.8089 18.4032C3.06455 19.5791 4.11847 20.8571 5.59448 21.2789C7.27344 21.7586 9.29631 21.3284 10.8737 20.7762C12.16 20.3259 13.1629 19.2741 13.8245 17.9509L21.1211 3.35848C21.2618 3.07697 21.129 2.73546 20.835 2.62307ZM18.8145 2.2338C19.2753 1.27857 20.3866 0.845763 21.3706 1.22196C22.4929 1.651 23 2.9547 22.4627 4.02933L15.1661 18.6217C15.1661 18.6217 15.1661 18.6217 15.1661 18.6217C14.3857 20.1826 13.1264 21.5769 11.3693 22.192C9.72236 22.7685 7.32593 23.3336 5.18237 22.7212C3.15862 22.1429 1.71254 20.421 1.34314 18.7219C1.15588 17.8605 1.23302 16.9374 1.73965 16.172C2.25476 15.3938 3.13239 14.9012 4.29546 14.7558C6.73142 14.4514 9.12142 15.1721 10.7076 15.8297C11.1215 16.0012 11.3672 16.0903 11.5342 16.1272C11.5823 16.1378 11.6135 16.1417 11.632 16.1429C11.6551 16.1224 11.7083 16.0691 11.8004 15.9437C11.8965 15.8129 11.9973 15.6591 12.1298 15.4568C12.2012 15.3479 12.2818 15.2249 12.3758 15.084C12.5526 14.8189 12.9479 14.09 13.487 13.0435C14.0163 12.0161 14.662 10.727 15.3293 9.3784C16.6636 6.6818 18.0794 3.75742 18.8145 2.2338ZM19.9998 17.75C19.3094 17.75 18.7498 18.3097 18.7498 19C18.7498 19.6904 19.3094 20.25 19.9998 20.25C20.6902 20.25 21.2498 19.6904 21.2498 19C21.2498 18.3097 20.6902 17.75 19.9998 17.75ZM17.2498 19C17.2498 17.4813 18.481 16.2501 19.9998 16.2501C21.5186 16.2501 22.7498 17.4813 22.7498 19C22.7498 20.5188 21.5186 21.75 19.9998 21.75C18.481 21.75 17.2498 20.5188 17.2498 19ZM7.85821 17.4697C8.1511 17.1768 8.62597 17.1768 8.91887 17.4697L9.91887 18.4697C10.2118 18.7626 10.2118 19.2375 9.91887 19.5303C9.62597 19.8232 9.1511 19.8232 8.85821 19.5303L7.85821 18.5303C7.56531 18.2375 7.56531 17.7626 7.85821 17.4697ZM4.85821 17.9697C5.1511 17.6768 5.62597 17.6768 5.91887 17.9697L6.91887 18.9697C7.21176 19.2626 7.21176 19.7375 6.91887 20.0303C6.62597 20.3232 6.1511 20.3232 5.85821 20.0303L4.85821 19.0303C4.56531 18.7375 4.56531 18.2626 4.85821 17.9697Z" fill="#26272B"/>
</svg>
