<svg width="24" height="24" viewBox="0 0 24 24" fill="none" xmlns="http://www.w3.org/2000/svg">
<path fill-rule="evenodd" clip-rule="evenodd" d="M12.0003 2.75C10.4815 2.75 9.25031 3.98122 9.25031 5.5C9.25031 7.01878 10.4815 8.25 12.0003 8.25C13.5191 8.25 14.7503 7.01878 14.7503 5.5C14.7503 3.98122 13.5191 2.75 12.0003 2.75ZM7.83439 4.6546C8.22639 2.71241 9.94257 1.25 12.0003 1.25C14.0581 1.25 15.7742 2.71241 16.1662 4.65461C16.1912 4.7028 16.2112 4.75446 16.2256 4.80913L18.0006 11.5539L18.204 11.4994C19.1376 11.2493 20.0972 11.8033 20.3473 12.7368L22.4179 20.4642C22.668 21.3978 22.114 22.3574 21.1805 22.6075L19.2486 23.1252C18.315 23.3753 17.3555 22.8213 17.1053 21.8877L15.0348 14.1603C14.7846 13.2268 15.3386 12.2672 16.2722 12.017L16.5517 11.9422L15.4936 7.92136C14.7261 9.02647 13.4477 9.75 12.0003 9.75C10.5529 9.75 9.27452 9.02647 8.50707 7.92136L7.47644 11.8377L7.68038 11.8924C8.61395 12.1425 9.16797 13.1021 8.91782 14.0357L6.84727 21.7631C6.59712 22.6967 5.63753 23.2507 4.70396 23.0005L2.77211 22.4829C1.83855 22.2328 1.28453 21.2732 1.53467 20.3396L3.60523 12.6122C3.85537 11.6786 4.81496 11.1246 5.74853 11.3748L6.02753 11.4495L7.775 4.80913C7.78939 4.75446 7.80945 4.7028 7.83439 4.6546ZM5.3603 12.8236C5.22694 12.7879 5.08985 12.8671 5.05411 13.0004L2.98356 20.7278C2.94783 20.8612 3.02697 20.9983 3.16034 21.034L5.09219 21.5517C5.22556 21.5874 5.36264 21.5082 5.39838 21.3749L7.46893 13.6475C7.50466 13.5141 7.42552 13.377 7.29215 13.3413L5.3603 12.8236ZM18.8985 13.1251C18.8627 12.9917 18.7256 12.9126 18.5923 12.9483L16.6604 13.4659C16.5271 13.5017 16.4479 13.6387 16.4836 13.7721L18.5542 21.4995C18.5899 21.6329 18.727 21.712 18.8604 21.6763L20.7922 21.1587C20.9256 21.1229 21.0047 20.9858 20.969 20.8525L18.8985 13.1251Z" fill="#26272B"/>
</svg>
