<svg width="24" height="24" viewBox="0 0 24 24" fill="none" xmlns="http://www.w3.org/2000/svg">
<path fill-rule="evenodd" clip-rule="evenodd" d="M2.77997 11.25H12C12.4142 11.25 12.75 11.5858 12.75 12V15.9876C12.7502 15.9965 12.7502 16.0054 12.75 16.0142V17C12.75 18.5188 13.9812 19.75 15.5 19.75C17.0188 19.75 18.25 18.5188 18.25 17C18.25 16.5858 18.5858 16.25 19 16.25H20.2182C20.3115 16.0699 20.3991 15.8864 20.4806 15.6997C20.9752 14.5677 21.25 13.3169 21.25 12C21.25 6.89137 17.1086 2.75 12 2.75C7.14386 2.75 3.16173 6.49211 2.77997 11.25ZM11.25 15.3654V12.75H2C1.58579 12.75 1.25 12.4142 1.25 12C1.25 6.06294 6.06294 1.25 12 1.25C17.9371 1.25 22.75 6.06294 22.75 12C22.75 13.5275 22.431 14.9824 21.8552 16.3003C21.6936 16.6701 21.5119 17.029 21.3114 17.3755C21.1773 17.6073 20.9299 17.75 20.6622 17.75H19.684C19.3298 19.7395 17.5913 21.25 15.5 21.25C14.1943 21.25 13.0261 20.6612 12.2465 19.7346L7.9096 22.561C7.6856 22.707 7.40082 22.7227 7.16214 22.6022C5.10902 21.5659 3.43417 19.8911 2.39784 17.838C2.29044 17.6252 2.29057 17.374 2.39819 17.1613C2.50582 16.9487 2.70812 16.7998 2.94318 16.7604L11.25 15.3654ZM11.4974 18.4323C11.3372 17.9848 11.25 17.5026 11.25 17V16.8864L4.256 18.0609C5.06741 19.2998 6.16821 20.3324 7.462 21.0623L11.4974 18.4323ZM15.5 16.25C15.2239 16.25 15 16.4739 15 16.75C15 17.0261 15.2239 17.25 15.5 17.25C15.7761 17.25 16 17.0261 16 16.75C16 16.4739 15.7761 16.25 15.5 16.25ZM13.5 16.75C13.5 15.6454 14.3954 14.75 15.5 14.75C16.6046 14.75 17.5 15.6454 17.5 16.75C17.5 17.8546 16.6046 18.75 15.5 18.75C14.3954 18.75 13.5 17.8546 13.5 16.75Z" fill="#26272B"/>
</svg>
