<svg width="24" height="24" viewBox="0 0 24 24" fill="none" xmlns="http://www.w3.org/2000/svg">
<path fill-rule="evenodd" clip-rule="evenodd" d="M18.2002 2.37538C18.8215 1.29922 20.1976 0.930499 21.2738 1.55182C22.3499 2.17314 22.7186 3.54922 22.0973 4.62538L13.8582 18.896C13.8545 18.9028 13.8507 18.9097 13.8468 18.9164C11.9828 22.1449 7.8546 23.2511 4.62613 21.3871C1.39765 19.5231 0.291495 15.3949 2.15546 12.1664C2.77678 11.0903 4.15285 10.7216 5.22901 11.3429C6.30517 11.9642 6.67389 13.3403 6.05257 14.4164C5.43125 15.4926 5.79997 16.8687 6.87613 17.49C7.94682 18.1082 9.31438 17.7463 9.94015 16.6828C9.94341 16.6768 9.94677 16.6708 9.95022 16.6648L18.2002 2.37538ZM11.2601 17.396C11.2564 17.4028 11.2526 17.4096 11.2487 17.4164C10.2132 19.21 7.91972 19.8246 6.12613 18.789C4.33253 17.7535 3.718 15.46 4.75353 13.6664C4.96064 13.3077 4.83773 12.849 4.47901 12.6419C4.12029 12.4348 3.6616 12.5577 3.45449 12.9164C2.00475 15.4275 2.86509 18.6383 5.37613 20.0881C7.88127 21.5344 11.0829 20.6815 12.5375 18.1841C12.541 18.1776 12.5446 18.1712 12.5483 18.1648L17.3991 9.76297L16.1136 8.98942L11.2601 17.396ZM16.8638 7.69016L18.1492 8.46372L18.9867 7.01322L17.7012 6.23967L16.8638 7.69016ZM18.4513 4.94041L19.7368 5.71397L20.7983 3.87538C21.0054 3.51666 20.8825 3.05796 20.5238 2.85086C20.1651 2.64375 19.7064 2.76666 19.4993 3.12538L18.4513 4.94041ZM19.0001 17.2501C18.0336 17.2501 17.2501 18.0336 17.2501 19.0001C17.2501 19.9666 18.0336 20.7501 19.0001 20.7501C19.9666 20.7501 20.7501 19.9666 20.7501 19.0001C20.7501 18.0336 19.9666 17.2501 19.0001 17.2501ZM15.7501 19.0001C15.7501 17.2052 17.2052 15.7501 19.0001 15.7501C20.7951 15.7501 22.2501 17.2052 22.2501 19.0001C22.2501 20.7951 20.7951 22.2501 19.0001 22.2501C17.2052 22.2501 15.7501 20.7951 15.7501 19.0001Z" fill="#26272B"/>
</svg>
