<svg width="24" height="24" viewBox="0 0 24 24" fill="none" xmlns="http://www.w3.org/2000/svg">
<path fill-rule="evenodd" clip-rule="evenodd" d="M18.9094 1.90405C19.3137 1.1908 20.0702 0.75 20.89 0.75C22.6313 0.75 23.728 2.62526 22.8743 4.14289L15.5009 17.25H19.501C21.0198 17.25 22.251 18.4812 22.251 20C22.251 21.5188 21.0198 22.75 19.501 22.75H14.501C13.5838 22.75 12.7722 22.3013 12.2727 21.6117C11.4673 22.1549 10.5313 22.5066 9.51837 22.5944C8.51741 22.6813 7.3114 22.75 6.00051 22.75C5.16866 22.75 4.47043 22.7223 3.88723 22.6792C2.92772 22.6083 2.16693 22.1164 1.73038 21.3828C1.30224 20.6633 1.21589 19.7661 1.46336 18.9L1.73267 17.9574C2.42341 15.5398 4.97565 14.1961 7.32506 15.3239C8.37314 15.8269 9.31426 15.9554 10.0139 15.9529C10.6096 15.9508 11.1816 15.5381 11.5864 14.824L18.9094 1.90405ZM11.7541 20.1318C11.752 20.0881 11.751 20.0441 11.751 20C11.751 18.7537 12.5794 17.7021 13.7157 17.3639L17.9684 9.80439L16.6167 8.991L12.8914 15.5636C12.3416 16.5337 11.3594 17.4482 10.0192 17.4529C9.12769 17.4561 7.95729 17.2912 6.67596 16.6761C5.24606 15.9898 3.63588 16.7562 3.17495 18.3695L2.90565 19.3121C2.75652 19.834 2.82933 20.2963 3.01943 20.6157C3.2011 20.921 3.51763 21.1478 3.99784 21.1833C4.54056 21.2234 5.20168 21.25 6.00051 21.25C7.26016 21.25 8.42214 21.1839 9.38875 21.1C10.2657 21.024 11.0765 20.6782 11.7541 20.1318ZM17.3566 7.6856L18.7041 8.49649L19.5255 7.03634L18.1827 6.22823L17.3566 7.6856ZM18.9226 4.92282L20.2613 5.72844L21.5669 3.40745C21.8582 2.88973 21.4841 2.25 20.89 2.25C20.6104 2.25 20.3523 2.40038 20.2144 2.64369L18.9226 4.92282ZM14.501 18.75C14.4377 18.75 14.3759 18.7546 14.3159 18.7635C13.7135 18.8524 13.251 19.3729 13.251 20C13.251 20.0941 13.2612 20.185 13.2804 20.2718C13.4042 20.8317 13.9046 21.25 14.501 21.25H19.501C20.1913 21.25 20.751 20.6904 20.751 20C20.751 19.3096 20.1913 18.75 19.501 18.75H14.501Z" fill="#26272B"/>
</svg>
