<svg width="24" height="24" viewBox="0 0 24 24" fill="none" xmlns="http://www.w3.org/2000/svg">
<path fill-rule="evenodd" clip-rule="evenodd" d="M11 1.75C11.3575 1.75 11.6653 2.00234 11.7354 2.35291L12.54 6.37589C12.9154 8.25254 14.2822 9.77628 16.1071 10.3526L20.8281 11.8434C21.9782 12.2066 22.75 13.2868 22.75 14.4802C22.75 15.9894 21.5283 17.25 20 17.25H19.1078L19.4449 18.0928C19.4829 18.1878 19.5748 18.25 19.677 18.25H20.323C21.0386 18.25 21.682 18.6857 21.9478 19.3501L22.6964 21.2215C22.7888 21.4525 22.7606 21.7144 22.6211 21.9205C22.4815 22.1266 22.2489 22.25 22 22.25H2C1.75114 22.25 1.51848 22.1266 1.37895 21.9205C1.23943 21.7144 1.21122 21.4525 1.30365 21.2215L2.0522 19.3501C2.31796 18.6857 2.96145 18.25 3.67704 18.25H4.32297C4.4252 18.25 4.51712 18.1878 4.55509 18.0928L4.89223 17.25H4.76505C3.34761 17.25 2.40798 16.2224 2.00078 15.1151C1.59461 14.0106 1.62483 12.6221 2.3048 11.5488C3.34724 9.90339 3.70345 8.02806 2.80365 5.77854C2.69222 5.49998 2.75753 5.18182 2.96967 4.96967C4.60008 3.33927 6.61792 2.54119 8.1931 2.14739C8.98499 1.94942 9.67797 1.85034 10.1754 1.8006C10.4245 1.77569 10.6255 1.76305 10.7667 1.75663C10.8374 1.75342 10.8931 1.75177 10.9324 1.75091C10.9521 1.75048 10.9677 1.75025 10.979 1.75013L10.9928 1.75002L10.9972 1.75L11 1.75C11.0003 1.75 11 1.75 11 2.5V1.75ZM10.3925 3.28658C10.3704 3.28865 10.3478 3.29084 10.3246 3.29315C9.88453 3.33716 9.26501 3.42558 8.55691 3.60261C7.24933 3.9295 5.6829 4.54756 4.3754 5.70563C5.2354 8.23952 4.77237 10.4567 3.57191 12.3516C3.1856 12.9614 3.13297 13.8478 3.40861 14.5974C3.68323 15.3442 4.19009 15.75 4.76505 15.75H20C20.6808 15.75 21.25 15.1802 21.25 14.4802C21.25 13.9285 20.8904 13.4361 20.3764 13.2738L15.6554 11.783C14.0536 11.2771 12.7263 10.2036 11.8917 8.80548L10.2623 9.24208C9.86217 9.34929 9.45091 9.11185 9.34371 8.71175C9.2365 8.31165 9.47394 7.9004 9.87404 7.79319L11.2646 7.42059C11.1857 7.17611 11.1203 6.92563 11.0692 6.67006L11.0164 6.40605L9.76227 6.74208C9.36217 6.84929 8.95091 6.61185 8.84371 6.21175C8.7365 5.81165 8.97394 5.4004 9.37404 5.29319L10.7216 4.93212L10.3925 3.28658ZM15.3922 17.25H8.60778L8.94492 18.0928C8.98288 18.1878 9.07481 18.25 9.17704 18.25H14.823C14.9252 18.25 15.0171 18.1878 15.0551 18.0928L15.3922 17.25ZM6.82297 17.25H6.67704C6.57481 17.25 6.48288 17.3122 6.44492 17.4072L5.9478 18.6499C5.68204 19.3143 5.03855 19.75 4.32297 19.75H3.67704C3.57481 19.75 3.48288 19.8122 3.44492 19.9072L3.10778 20.75H20.8922L20.5551 19.9072C20.5171 19.8122 20.4252 19.75 20.323 19.75H19.677C18.9615 19.75 18.318 19.3143 18.0522 18.6499L17.5551 17.4072C17.5171 17.3122 17.4252 17.25 17.323 17.25H17.177C17.0748 17.25 16.9829 17.3122 16.9449 17.4072L16.4478 18.6499C16.182 19.3143 15.5386 19.75 14.823 19.75H9.17704C8.46145 19.75 7.81796 19.3143 7.5522 18.6499L7.05509 17.4072C7.01712 17.3122 6.9252 17.25 6.82297 17.25Z" fill="#26272B"/>
</svg>
