<svg width="24" height="24" viewBox="0 0 24 24" fill="none" xmlns="http://www.w3.org/2000/svg">
<path fill-rule="evenodd" clip-rule="evenodd" d="M13.6571 3.40751C14.929 4.53255 15.75 6.17539 15.75 8.04149V10.5005C15.75 12.5715 14.0711 14.2505 12 14.2505C9.92893 14.2505 8.25 12.5715 8.25 10.5005V8.04149C8.25 6.17539 9.07098 4.53255 10.3428 3.40751C9.80648 3.3127 9.24278 3.30953 8.67023 3.41363C6.40833 3.82488 4.75 5.79839 4.75 8.09064V10.7505H4.87323C6.17213 10.7505 6.97443 12.1675 6.30615 13.2813C5.96427 13.8511 5.82591 14.5201 5.91374 15.1787L6.47909 19.4189C6.679 20.9182 5.51259 22.2505 4 22.2505C2.4874 22.2505 1.32099 20.9182 1.5209 19.4189L2.08626 15.1787C2.17408 14.5201 2.03573 13.8511 1.69384 13.2813C1.02556 12.1675 1.82786 10.7505 3.12677 10.7505H3.25V8.09064C3.25 5.06674 5.43341 2.47755 8.4019 1.93782C9.67043 1.70718 10.9112 1.87786 12 2.3513C13.0888 1.87786 14.3296 1.70718 15.5981 1.93782C18.5666 2.47755 20.75 5.06674 20.75 8.09064V10.7505H20.8732C22.1721 10.7505 22.9744 12.1675 22.3061 13.2813C21.9643 13.8511 21.8259 14.5201 21.9137 15.1787L22.4791 19.4189C22.679 20.9182 21.5126 22.2505 20 22.2505C18.4874 22.2505 17.321 20.9182 17.5209 19.4189L18.0863 15.1787C18.1741 14.5201 18.0357 13.8511 17.6938 13.2813C17.0256 12.1675 17.8279 10.7505 19.1268 10.7505H19.25V8.09064C19.25 5.79839 17.5917 3.82488 15.3298 3.41363C14.7572 3.30953 14.1935 3.3127 13.6571 3.40751ZM19.1268 12.2505C18.9938 12.2505 18.9117 12.3955 18.9801 12.5095C19.4967 13.3706 19.7058 14.3816 19.5731 15.377L19.0077 19.6171C18.9277 20.2172 19.3946 20.7505 20 20.7505C20.6054 20.7505 21.0723 20.2172 20.9922 19.6171L20.4269 15.377C20.2942 14.3816 20.5033 13.3706 21.0199 12.5095C21.0883 12.3955 21.0062 12.2505 20.8732 12.2505H19.1268ZM3.12677 12.2505C2.9938 12.2505 2.91167 12.3955 2.98008 12.5095C3.49674 13.3706 3.70582 14.3816 3.5731 15.377L3.00775 19.6171C2.92773 20.2172 3.39458 20.7505 4 20.7505C4.60541 20.7505 5.07226 20.2172 4.99225 19.6171L4.4269 15.377C4.29418 14.3816 4.50325 13.3706 5.01991 12.5095C5.08832 12.3955 5.00619 12.2505 4.87323 12.2505H3.12677ZM12 4.03901C10.6601 4.86325 9.75 6.33195 9.75 8.04149V10.5005C9.75 11.7431 10.7574 12.7505 12 12.7505C13.2426 12.7505 14.25 11.7431 14.25 10.5005V8.04149C14.25 6.33195 13.3398 4.86325 12 4.03901Z" fill="#26272B"/>
</svg>
