<svg width="24" height="24" viewBox="0 0 24 24" fill="none" xmlns="http://www.w3.org/2000/svg">
<path fill-rule="evenodd" clip-rule="evenodd" d="M12 2.75C13.8728 2.75 15.278 3.01978 16.2585 3.31673C16.9924 3.539 17.3855 4.37018 17.035 5.33424L15.9892 8.21017C14.793 7.59637 13.4369 7.25 12 7.25C10.5631 7.25 9.20703 7.59637 8.01084 8.21017L6.96504 5.33424C6.61448 4.37018 7.00757 3.539 7.7415 3.31673C8.72202 3.01978 10.1272 2.75 12 2.75ZM17.2879 9.02797L18.4446 5.84685C18.9971 4.32761 18.4883 2.42475 16.6933 1.88112C15.571 1.54125 14.0193 1.25 12 1.25C9.98075 1.25 8.429 1.54125 7.30673 1.88112C5.5117 2.42475 5.0029 4.32761 5.55535 5.84685L6.71212 9.02797C4.6084 10.626 3.25 13.1544 3.25 16C3.25 18.3155 4.15039 20.4223 5.61871 21.9868C6.1188 22.5197 6.80936 22.75 7.46473 22.75H16.5353C17.1906 22.75 17.8812 22.5197 18.3813 21.9868C19.8496 20.4223 20.75 18.3155 20.75 16C20.75 13.1544 19.3916 10.626 17.2879 9.02797ZM12 8.75C16.0041 8.75 19.25 11.9959 19.25 16C19.25 17.9192 18.5053 19.6628 17.2875 20.9603C17.1205 21.1383 16.8547 21.25 16.5353 21.25H7.46473C7.14529 21.25 6.87948 21.1383 6.71246 20.9603C5.49475 19.6628 4.75 17.9192 4.75 16C4.75 11.9959 7.99594 8.75 12 8.75ZM12 13.75C13.2426 13.75 14.25 14.7574 14.25 16C14.25 17.2426 13.2426 18.25 12 18.25C10.7574 18.25 9.75 17.2426 9.75 16C9.75 14.7574 10.7574 13.75 12 13.75ZM8.25 16C8.25 18.0711 9.92893 19.75 12 19.75C14.0711 19.75 15.75 18.0711 15.75 16C15.75 13.9289 14.0711 12.25 12 12.25C9.92893 12.25 8.25 13.9289 8.25 16Z" fill="#26272B"/>
</svg>
