<svg width="24" height="24" viewBox="0 0 24 24" fill="none" xmlns="http://www.w3.org/2000/svg">
<path fill-rule="evenodd" clip-rule="evenodd" d="M2.95887 10.0363C3.57777 9.61648 4.38668 9.25 5.33333 9.25C6.57043 9.25 7.57229 9.87585 8.22229 10.4287C8.38872 10.5702 8.53733 10.7114 8.66667 10.8435C8.796 10.7114 8.94461 10.5702 9.11105 10.4287C9.76104 9.87585 10.7629 9.25 12 9.25C13.2371 9.25 14.239 9.87585 14.889 10.4287C15.0554 10.5702 15.204 10.7114 15.3333 10.8435C15.4627 10.7114 15.6113 10.5702 15.7777 10.4287C16.4277 9.87585 17.4296 9.25 18.6667 9.25C19.6133 9.25 20.4222 9.61648 21.0411 10.0363C20.1407 5.87092 16.4348 2.75 12 2.75C7.56519 2.75 3.85932 5.87092 2.95887 10.0363ZM20.9862 11.9531C20.8726 11.8334 20.7376 11.7021 20.5838 11.5713C20.058 11.1241 19.3932 10.75 18.6667 10.75C17.9401 10.75 17.2753 11.1241 16.7495 11.5713C16.4936 11.789 16.2895 12.0082 16.1499 12.1727C16.0889 12.2446 16.0412 12.3049 16.0076 12.3488L13.7162 19.2232L20.9862 11.9531ZM12 19.6283L14.494 12.1461C14.3554 11.985 14.1595 11.7774 13.9171 11.5713C13.3914 11.1241 12.7266 10.75 12 10.75C11.2734 10.75 10.6086 11.1241 10.0829 11.5713C9.84047 11.7774 9.64457 11.985 9.50595 12.1461L12 19.6283ZM7.99236 12.3488C7.95883 12.3049 7.91106 12.2446 7.85009 12.1727C7.71053 12.0082 7.50642 11.789 7.25047 11.5713C6.72472 11.1241 6.05992 10.75 5.33333 10.75C4.60675 10.75 3.94195 11.1241 3.4162 11.5713C3.26243 11.7021 3.12738 11.8334 3.01378 11.9531L10.2838 19.2232L7.99236 12.3488ZM1.25 12C1.25 6.06294 6.06294 1.25 12 1.25C17.9371 1.25 22.75 6.06294 22.75 12C22.75 12.1989 22.671 12.3897 22.5303 12.5303L12.5303 22.5303C12.2374 22.8232 11.7626 22.8232 11.4697 22.5303L1.46967 12.5303C1.32902 12.3897 1.25 12.1989 1.25 12Z" fill="#26272B"/>
</svg>
