<svg width="24" height="24" viewBox="0 0 24 24" fill="none" xmlns="http://www.w3.org/2000/svg">
<path fill-rule="evenodd" clip-rule="evenodd" d="M1.25 3C1.25 2.58579 1.58579 2.25 2 2.25H22C22.4142 2.25 22.75 2.58579 22.75 3C22.75 3.41421 22.4142 3.75 22 3.75H17.25V10.2945C20.3482 10.6651 22.75 13.302 22.75 16.5C22.75 19.9518 19.9518 22.75 16.5 22.75C13.572 22.75 11.1143 20.7366 10.4358 18.0188C9.56034 18.4854 8.56058 18.75 7.5 18.75C4.04822 18.75 1.25 15.9518 1.25 12.5C1.25 9.30204 3.65183 6.66505 6.75 6.29454V3.75H2C1.58579 3.75 1.25 3.41421 1.25 3ZM8.25 3.75V6.29453C10.8407 6.60433 12.9442 8.49875 13.5641 10.9811C14.23 10.6261 14.9678 10.3881 15.75 10.2945V3.75H8.25ZM12.2182 11.9471C11.9445 9.5845 9.9363 7.75 7.5 7.75C4.87665 7.75 2.75 9.87665 2.75 12.5C2.75 15.1234 4.87665 17.25 7.5 17.25C8.52618 17.25 9.47494 16.9253 10.2513 16.3726C10.2861 14.6287 11.0353 13.06 12.2182 11.9471ZM16.5 11.75C13.8766 11.75 11.75 13.8766 11.75 16.5C11.75 19.1234 13.8766 21.25 16.5 21.25C19.1234 21.25 21.25 19.1234 21.25 16.5C21.25 13.8766 19.1234 11.75 16.5 11.75Z" fill="#26272B"/>
</svg>
