<svg width="24" height="24" viewBox="0 0 24 24" fill="none" xmlns="http://www.w3.org/2000/svg">
<path fill-rule="evenodd" clip-rule="evenodd" d="M11.0006 2.25C11.3581 2.25 11.6659 2.50234 11.736 2.85291L12.5406 6.87589C12.9159 8.75254 14.2827 10.2763 16.1077 10.8526L20.8287 12.3434C21.9788 12.7066 22.7506 13.7868 22.7506 14.9802C22.7506 16.0382 22.1503 16.9739 21.2649 17.4389C21.5712 17.8824 21.7506 18.4202 21.7506 19C21.7506 20.5188 20.5194 21.75 19.0006 21.75C17.4818 21.75 16.2506 20.5188 16.2506 19C16.2506 18.5499 16.3587 18.125 16.5504 17.75H14.4507C14.6424 18.125 14.7506 18.5499 14.7506 19C14.7506 20.5188 13.5194 21.75 12.0006 21.75C10.4818 21.75 9.25059 20.5188 9.25059 19C9.25059 18.5499 9.35873 18.125 9.55044 17.75H7.45073C7.64245 18.125 7.75059 18.5499 7.75059 19C7.75059 20.5188 6.51937 21.75 5.00059 21.75C3.4818 21.75 2.25059 20.5188 2.25059 19C2.25059 18.2642 2.53953 17.596 3.01013 17.1025C2.54432 16.7067 2.20577 16.1709 2.00136 15.6151C1.59519 14.5106 1.62541 13.1221 2.30538 12.0488C3.34782 10.4034 3.70403 8.52806 2.80423 6.27854C2.6928 5.99998 2.75811 5.68182 2.97026 5.46967C4.60066 3.83927 6.6185 3.04119 8.19368 2.64739C8.98558 2.44942 9.67856 2.35034 10.176 2.3006C10.425 2.27569 10.6261 2.26305 10.7673 2.25663C10.8379 2.25342 10.8937 2.25177 10.933 2.25091C10.9527 2.25048 10.9683 2.25025 10.9796 2.25013L10.9934 2.25002L10.9978 2.25L11.0006 2.25C11.0009 2.25 11.0006 2.25 11.0006 3V2.25ZM10.393 3.78658C10.371 3.78865 10.3483 3.79084 10.3252 3.79315C9.88512 3.83716 9.26559 3.92558 8.55749 4.10261C7.24991 4.4295 5.68348 5.04756 4.37598 6.20563C5.23598 8.73952 4.77295 10.9567 3.57249 12.8516C3.18618 13.4614 3.13355 14.3478 3.40919 15.0974C3.68381 15.8442 4.19067 16.25 4.76563 16.25H20.0006C20.6814 16.25 21.2506 15.6802 21.2506 14.9802C21.2506 14.4285 20.891 13.9361 20.377 13.7738L15.656 12.283C14.0542 11.7771 12.727 10.7036 11.8924 9.30565L10.2627 9.74232C9.8626 9.84953 9.45135 9.61209 9.34415 9.21199C9.23694 8.81189 9.47438 8.40064 9.87448 8.29343L11.2652 7.92078C11.1863 7.67624 11.1209 7.4257 11.0697 7.17006L11.017 6.90638L9.7628 7.24244C9.3627 7.34964 8.95145 7.11221 8.84425 6.71211C8.73704 6.31201 8.97448 5.90076 9.37458 5.79355L10.7222 5.43245L10.393 3.78658ZM5.00059 17.75C4.31023 17.75 3.75059 18.3096 3.75059 19C3.75059 19.6904 4.31023 20.25 5.00059 20.25C5.69094 20.25 6.25059 19.6904 6.25059 19C6.25059 18.3096 5.69094 17.75 5.00059 17.75ZM12.0006 17.75C11.3102 17.75 10.7506 18.3096 10.7506 19C10.7506 19.6904 11.3102 20.25 12.0006 20.25C12.6909 20.25 13.2506 19.6904 13.2506 19C13.2506 18.3096 12.6909 17.75 12.0006 17.75ZM19.0006 17.75C18.3102 17.75 17.7506 18.3096 17.7506 19C17.7506 19.6904 18.3102 20.25 19.0006 20.25C19.6909 20.25 20.2506 19.6904 20.2506 19C20.2506 18.3096 19.6909 17.75 19.0006 17.75Z" fill="#26272B"/>
</svg>
