<svg width="24" height="24" viewBox="0 0 24 24" fill="none" xmlns="http://www.w3.org/2000/svg">
<path fill-rule="evenodd" clip-rule="evenodd" d="M15.0017 3.02853C15.7413 5.95409 18.0454 8.25833 20.9708 8.99829C21.0514 7.86842 20.9606 6.84553 20.7794 6.00896C20.5492 4.94597 20.1965 4.28559 19.9551 4.04426C19.7138 3.80296 19.0535 3.45026 17.9907 3.22006C17.1542 3.0389 16.1314 2.94804 15.0017 3.02853ZM20.7686 10.4929C17.1754 9.65123 14.3484 6.82398 13.5071 3.23069C11.3783 3.65599 9.02475 4.72161 6.87367 6.87269C4.72253 9.02383 3.65691 11.3774 3.23163 13.5063C6.82484 14.3476 9.65202 17.1746 10.4937 20.7677C12.6224 20.3423 14.9758 19.2767 17.1267 17.1257C19.2776 14.9748 20.3432 12.6215 20.7686 10.4929ZM8.99909 20.9699C8.25911 18.0445 5.95496 15.7406 3.0295 15.0009C2.94902 16.1306 3.03989 17.1533 3.22105 17.9897C3.45125 19.0526 3.80394 19.7129 4.04524 19.9542C4.28656 20.1955 4.94692 20.5482 6.00988 20.7784C6.84642 20.9596 7.86927 21.0504 8.99909 20.9699ZM18.3082 1.75405C19.4734 2.00642 20.4715 2.43931 21.0158 2.9836C21.5601 3.52793 21.993 4.5261 22.2454 5.69149C22.5052 6.8912 22.5985 8.37903 22.3729 9.9994C22.0109 12.6 20.8262 15.5476 18.1874 18.1864C15.5485 20.8252 12.6008 22.01 10.0002 22.372C8.37988 22.5975 6.89208 22.5042 5.6924 22.2444C4.52705 21.9921 3.5289 21.5591 2.98458 21.0148C2.4403 20.4705 2.00742 19.4725 1.75504 18.3072C1.49523 17.1077 1.4019 15.62 1.62735 13.9999C1.98925 11.3991 3.17395 8.45109 5.81301 5.81203C8.45201 3.17303 11.3999 1.98832 14.0007 1.6264C15.6209 1.40092 17.1086 1.49424 18.3082 1.75405ZM10.9702 8.46933C11.2631 8.17643 11.7379 8.17643 12.0308 8.46933L13.2505 9.689L13.9702 8.96933C14.2631 8.67643 14.7379 8.67643 15.0308 8.96933C15.3237 9.26222 15.3237 9.73709 15.0308 10.03L14.3112 10.7497L15.5308 11.9693C15.8237 12.2622 15.8237 12.7371 15.5308 13.03C15.2379 13.3229 14.7631 13.3229 14.4702 13.03L13.2505 11.8103L11.8112 13.2497L13.0308 14.4693C13.3237 14.7622 13.3237 15.2371 13.0308 15.53C12.7379 15.8229 12.2631 15.8229 11.9702 15.53L10.7505 14.3103L10.0308 15.03C9.73793 15.3229 9.26306 15.3229 8.97016 15.03C8.67727 14.7371 8.67727 14.2622 8.97016 13.9693L9.68983 13.2497L8.47016 12.03C8.17727 11.7371 8.17727 11.2622 8.47016 10.9693C8.76306 10.6764 9.23793 10.6764 9.53082 10.9693L10.7505 12.189L12.1898 10.7497L10.9702 9.52999C10.6773 9.23709 10.6773 8.76222 10.9702 8.46933Z" fill="#26272B"/>
</svg>
