<svg width="24" height="24" viewBox="0 0 24 24" fill="none" xmlns="http://www.w3.org/2000/svg">
<path fill-rule="evenodd" clip-rule="evenodd" d="M10.5459 6.0522C10.9941 5.49473 11.9588 5.32137 12.4975 6.06832C13.231 7.08535 14.5934 8.89856 17.1053 9.2574C18.9229 9.51706 20.4608 10.0491 21.5529 10.9956C22.6763 11.9693 23.2491 13.3127 23.2491 14.9999L23.2491 16.9999C23.249 17.6903 22.6894 18.2499 21.9991 18.2499H2.49903C1.8088 18.2499 1.24899 17.6904 1.24903 16.9999L1.2491 15.1031C0.290552 11.6294 1.15282 8.49904 3.16537 6.71308C3.68575 6.2513 4.39777 6.36559 4.81567 6.74632C5.29388 7.18199 6.09113 7.74986 7.49894 7.74986C8.79753 7.74986 9.90716 6.84649 10.5459 6.0522ZM2.74907 15.7499L2.74904 16.7499H21.7491L21.7491 15.7499H2.74907ZM21.6973 14.2499C21.5625 13.3298 21.1696 12.6483 20.5705 12.1291C19.7876 11.4506 18.5756 10.9827 16.8932 10.7423C16.3288 10.6617 15.8116 10.5228 15.3383 10.343L14.6234 11.4158C14.3937 11.7605 13.9281 11.8537 13.5834 11.624C13.2387 11.3943 13.1455 10.9286 13.3752 10.584L13.9896 9.66191C13.6862 9.46744 13.4081 9.25894 13.154 9.04501L12.0991 10.4501C11.8504 10.7814 11.3803 10.8483 11.049 10.5997C10.7178 10.351 10.6508 9.88084 10.8995 9.54959L12.0805 7.97642C11.8539 7.71313 11.6614 7.46391 11.4999 7.24611C10.7 8.14581 9.29892 9.24986 7.49894 9.24986C5.76289 9.24986 4.65873 8.58201 3.97799 8.00665C2.6703 9.3018 1.96632 11.5387 2.58082 14.2499H21.6973Z" fill="#26272B"/>
</svg>
