<svg width="24" height="24" viewBox="0 0 24 24" fill="none" xmlns="http://www.w3.org/2000/svg">
<path fill-rule="evenodd" clip-rule="evenodd" d="M8.49747 2.6057C8.63412 2.38459 8.87552 2.25 9.13546 2.25C12.7317 2.25 15.5518 4.59613 17.4248 7.11497C18.3703 8.38648 19.1031 9.73776 19.6016 10.9391C19.9913 11.8783 20.2576 12.7731 20.3498 13.4892L20.894 13.4075C21.9153 13.2543 22.6713 14.3356 22.1768 15.2423L20.0117 19.2115C20.2819 19.3229 20.5414 19.4694 20.7834 19.6509L22.45 20.9009C22.7814 21.1494 22.8486 21.6195 22.6 21.9509C22.3515 22.2822 21.8814 22.3494 21.55 22.1009L19.8834 20.8509C19.4118 20.4972 18.8246 20.3746 18.272 20.484C17.9808 20.5416 17.6996 20.6637 17.45 20.8509C16.1957 21.7916 14.471 21.7916 13.2167 20.8509C12.4957 20.3101 11.5044 20.3101 10.7834 20.8509C9.52906 21.7916 7.80437 21.7916 6.55004 20.8509C6.30049 20.6637 6.01931 20.5416 5.7281 20.484C5.1755 20.3746 4.58825 20.4972 4.11671 20.8509L2.45004 22.1009C2.11867 22.3494 1.64857 22.2822 1.40004 21.9509C1.15152 21.6195 1.21867 21.1494 1.55004 20.9009L3.21671 19.6509C3.36062 19.5429 3.51072 19.4474 3.66559 19.3642L2.37586 18.2895C1.54705 17.5988 1.92373 16.2531 2.99067 16.093L3.57103 16.006C3.59537 15.9782 3.62208 15.9519 3.65111 15.9274C5.84882 14.0685 8.35952 10.3114 9.72214 7.39593C9.47497 5.96901 9.0778 4.56173 8.46464 3.33541C8.34839 3.10292 8.36081 2.82681 8.49747 2.6057ZM10.0268 10.0641C8.93259 11.9978 7.52701 14.0434 6.0939 15.6275L9.93155 15.0519C9.94027 14.967 9.94995 14.8676 9.96008 14.7549C9.99784 14.3347 10.0418 13.7305 10.0655 13.0011C10.0931 12.1547 10.0934 11.1458 10.0268 10.0641ZM11.46 14.8226C11.4984 14.3827 11.5411 13.7747 11.5647 13.0499C11.6143 11.5295 11.5806 9.47769 11.2404 7.37995C11.0496 6.20322 10.7602 4.99832 10.3273 3.8581C12.7067 4.29229 14.7145 5.98394 16.2211 8.01003C17.0881 9.17602 17.7616 10.4185 18.2162 11.514C18.5987 12.4359 18.8054 13.2034 18.8662 13.7117L11.46 14.8226ZM5.50968 18.9497C5.68058 18.9583 5.85095 18.9792 6.01937 19.0125C6.52675 19.113 7.01684 19.326 7.45004 19.6509C8.17103 20.1916 9.16239 20.1916 9.88338 19.6509C11.1377 18.7101 12.8624 18.7101 14.1167 19.6509C14.8377 20.1916 15.8291 20.1916 16.55 19.6509C16.9833 19.326 17.4733 19.113 17.9807 19.0125C18.134 18.9822 18.289 18.9621 18.4445 18.9523L20.6191 14.9655L3.76412 17.4938L5.48018 18.9238C5.49029 18.9323 5.50013 18.9409 5.50968 18.9497Z" fill="#26272B"/>
</svg>
