<svg width="24" height="24" viewBox="0 0 24 24" fill="none" xmlns="http://www.w3.org/2000/svg">
<path fill-rule="evenodd" clip-rule="evenodd" d="M9.74473 1.29483C10.0416 1.18734 10.3741 1.27732 10.5762 1.5199L20.3513 13.25H22C22.2773 13.25 22.532 13.403 22.6622 13.6478C22.7924 13.8926 22.7769 14.1893 22.622 14.4192L19.5041 19.0451C19.9571 19.1557 20.393 19.3573 20.7834 19.65L22.45 20.9C22.7814 21.1486 22.8486 21.6187 22.6 21.95C22.3515 22.2814 21.8814 22.3486 21.55 22.1L19.8834 20.85C19.4118 20.4964 18.8246 20.3738 18.272 20.4832C17.9808 20.5408 17.6996 20.6629 17.45 20.85C16.1957 21.7908 14.471 21.7908 13.2167 20.85C12.4957 20.3093 11.5044 20.3093 10.7834 20.85C9.52906 21.7908 7.80437 21.7908 6.55004 20.85C6.30049 20.6629 6.01931 20.5408 5.7281 20.4832C5.1755 20.3738 4.58825 20.4964 4.11671 20.85L2.45004 22.1C2.11867 22.3486 1.64857 22.2814 1.40004 21.95C1.15152 21.6187 1.21867 21.1486 1.55004 20.9L3.21671 19.65C3.60707 19.3573 4.04297 19.1557 4.49596 19.0451L1.37812 14.4192C1.22315 14.1893 1.20768 13.8926 1.3379 13.6478C1.46811 13.403 1.72277 13.25 2.00004 13.25H3.65509L9.25004 6.7226V2.00004C9.25004 1.68427 9.44782 1.40233 9.74473 1.29483ZM10.75 13.25H18.3988L10.75 4.07158V13.25ZM9.25004 13.25V9.02748L5.63071 13.25H9.25004ZM3.40999 14.75L6.33465 19.0894C6.72898 19.206 7.10731 19.393 7.45004 19.65C8.17103 20.1908 9.16239 20.1908 9.88338 19.65C11.1377 18.7093 12.8624 18.7093 14.1167 19.65C14.8377 20.1908 15.8291 20.1908 16.55 19.65C16.8928 19.393 17.2711 19.206 17.6654 19.0894L20.5901 14.75H3.40999Z" fill="#26272B"/>
</svg>
