<svg width="24" height="24" viewBox="0 0 24 24" fill="none" xmlns="http://www.w3.org/2000/svg">
<path fill-rule="evenodd" clip-rule="evenodd" d="M2.25 6C2.25 3.92893 3.92893 2.25 6 2.25H18C20.0711 2.25 21.75 3.92893 21.75 6V18C21.75 20.0711 20.0711 21.75 18 21.75H6C3.92893 21.75 2.25 20.0711 2.25 18V6ZM6 3.75C4.75736 3.75 3.75 4.75736 3.75 6V18C3.75 19.2426 4.75736 20.25 6 20.25H18C19.2426 20.25 20.25 19.2426 20.25 18V6C20.25 4.75736 19.2426 3.75 18 3.75H6ZM12 7.25C10.2896 7.25 8.97081 7.63172 8.10885 7.99007C7.58963 8.20593 7.25 8.77108 7.25 9.5V12C7.25 12.0828 7.30197 12.2157 7.49001 12.329C7.68032 12.4437 7.89388 12.4618 8.03682 12.411C8.75212 12.1567 9.65054 11.924 10.7144 11.815L9.85688 10.3859C9.64377 10.0307 9.75894 9.56999 10.1141 9.35688C10.4693 9.14377 10.93 9.25894 11.1431 9.61413L12.4289 11.7571C13.8734 11.8053 15.0632 12.091 15.9632 12.411C16.1061 12.4618 16.3197 12.4437 16.51 12.329C16.698 12.2157 16.75 12.0828 16.75 12V9.5C16.75 8.77108 16.4104 8.20594 15.8912 7.99007C15.0292 7.63172 13.7104 7.25 12 7.25ZM7.53302 6.605C8.54798 6.18304 10.0624 5.75 12 5.75C13.9376 5.75 15.452 6.18304 16.467 6.605C17.6916 7.11413 18.25 8.34038 18.25 9.5V12C18.25 12.7412 17.7962 13.3052 17.2843 13.6137C16.7747 13.9209 16.0942 14.0496 15.4607 13.8243C14.614 13.5233 13.4474 13.25 12 13.25C10.5526 13.25 9.386 13.5233 8.53931 13.8243C7.90581 14.0496 7.22534 13.9209 6.71572 13.6137C6.20385 13.3052 5.75 12.7412 5.75 12V9.5C5.75 8.34038 6.30839 7.11413 7.53302 6.605Z" fill="#26272B"/>
</svg>
