<svg width="24" height="24" viewBox="0 0 24 24" fill="none" xmlns="http://www.w3.org/2000/svg">
<path fill-rule="evenodd" clip-rule="evenodd" d="M13.75 3.5C13.75 3.08579 14.0858 2.75 14.5 2.75H15.909C17.1895 2.75 18.3006 3.63387 18.5886 4.88164L21.1124 15.8184C22.3364 16.0968 23.25 17.1917 23.25 18.5C23.25 20.0188 22.0188 21.25 20.5 21.25C18.9812 21.25 17.75 20.0188 17.75 18.5C17.75 17.2992 18.5197 16.2781 19.5926 15.9032L19.3666 14.9241C17.8497 15.4044 16.75 16.8242 16.75 18.5V20C16.75 20.4142 16.4142 20.75 16 20.75H5.08154C4.6342 21.065 4.0887 21.25 3.5 21.25C1.98122 21.25 0.75 20.0188 0.75 18.5C0.75 16.9812 1.98122 15.75 3.5 15.75C4.0887 15.75 4.6342 15.935 5.08154 16.25H15.7552C16.3922 14.909 17.5811 13.8811 19.0286 13.4592L17.127 5.21892C16.9961 4.65176 16.491 4.25 15.909 4.25H14.5C14.0858 4.25 13.75 3.91421 13.75 3.5ZM15.3032 17.75H6.14648C6.21392 17.9884 6.25 18.24 6.25 18.5C6.25 18.76 6.21392 19.0116 6.14648 19.25H15.25V18.5C15.25 18.2454 15.2681 17.9949 15.3032 17.75ZM3.5 17.25C2.80964 17.25 2.25 17.8096 2.25 18.5C2.25 19.1904 2.80964 19.75 3.5 19.75C4.19036 19.75 4.75 19.1904 4.75 18.5C4.75 17.8096 4.19036 17.25 3.5 17.25ZM20.5 17.25C19.8096 17.25 19.25 17.8096 19.25 18.5C19.25 19.1904 19.8096 19.75 20.5 19.75C21.1904 19.75 21.75 19.1904 21.75 18.5C21.75 17.8096 21.1904 17.25 20.5 17.25Z" fill="#26272B"/>
</svg>
