<svg width="24" height="24" viewBox="0 0 24 24" fill="none" xmlns="http://www.w3.org/2000/svg">
<path fill-rule="evenodd" clip-rule="evenodd" d="M14.4801 2.81181C16.3448 1.13092 19.2205 1.18832 21.0162 2.98402C22.8119 4.77971 22.8693 7.65544 21.1884 9.52018L21.3698 9.70153C22.0532 10.3849 22.0532 11.493 21.3698 12.1764L19.9556 13.5906C19.2721 14.274 18.1641 14.274 17.4807 13.5906L17.3039 13.4138L13.4148 17.3029L13.5916 17.4797C14.275 18.1631 14.275 19.2712 13.5916 19.9546L12.1774 21.3688C11.494 22.0522 10.3859 22.0522 9.70251 21.3688L9.52116 21.1874C7.65641 22.8683 4.78069 22.8109 2.98499 21.0152C1.1893 19.2195 1.1319 16.3438 2.81279 14.4791L2.63144 14.2977C1.94802 13.6143 1.94802 12.5063 2.63144 11.8229L4.04565 10.4086C4.72907 9.72522 5.83711 9.72522 6.52053 10.4086L6.6973 10.5854L10.5864 6.69633L10.4096 6.51955C9.7262 5.83613 9.7262 4.72809 10.4096 4.04468L11.8238 2.63046C12.5072 1.94705 13.6153 1.94705 14.2987 2.63046L14.4801 2.81181ZM15.4174 3.98802C15.6364 4.60446 15.4992 5.31909 15.0058 5.81244L14.829 5.98922L18.011 9.1712L18.1878 8.99442C18.6811 8.50107 19.3958 8.36387 20.0122 8.58281C21.2245 7.30967 21.2056 5.29471 19.9556 4.04468C18.7055 2.79465 16.6906 2.77576 15.4174 3.98802ZM18.5413 10.7622L17.8342 11.4693C17.7366 11.5669 17.7366 11.7252 17.8342 11.8229L18.5413 12.53C18.639 12.6276 18.7973 12.6276 18.8949 12.53L20.3091 11.1157C20.4067 11.0181 20.4067 10.8598 20.3091 10.7622L19.602 10.0551C19.5044 9.95745 19.3461 9.95745 19.2484 10.0551L18.5413 10.7622ZM16.9504 10.2319L13.7684 7.04988L13.5916 7.22666C13.098 7.72029 12.3828 7.85737 11.7661 7.6379L7.63888 11.7652C7.85835 12.3818 7.72126 13.097 7.22763 13.5906L7.05086 13.7674L10.2328 16.9494L10.4096 16.7726C10.9032 16.279 11.6184 16.1419 12.2351 16.3614L16.3623 12.2341C16.1429 11.6174 16.2799 10.9023 16.7736 10.4086L16.9504 10.2319ZM9.17218 18.01L5.9902 14.8281L5.81342 15.0048C5.32007 15.4982 4.60543 15.6354 3.989 15.4164C2.77674 16.6896 2.79562 18.7045 4.04565 19.9546C5.29568 21.2046 7.31064 21.2235 8.58378 20.0112C8.36484 19.3948 8.50205 18.6802 8.9954 18.1868L9.17218 18.01ZM6.16697 12.53C6.2646 12.4323 6.2646 12.274 6.16697 12.1764L5.45987 11.4693C5.36224 11.3717 5.20394 11.3717 5.10631 11.4693L3.6921 12.8835C3.59447 12.9811 3.59447 13.1394 3.6921 13.2371L4.39921 13.9442C4.49684 14.0418 4.65513 14.0418 4.75276 13.9442L6.16697 12.53ZM11.4703 17.8333C11.5679 17.7356 11.7262 17.7356 11.8238 17.8333L12.5309 18.5404C12.6286 18.638 12.6286 18.7963 12.5309 18.8939L11.1167 20.3081C11.0191 20.4058 10.8608 20.4058 10.7632 20.3081L10.0561 19.601C9.95843 19.5034 9.95843 19.3451 10.0561 19.2475L11.4703 17.8333ZM13.9451 4.75178C14.0428 4.65415 14.0428 4.49586 13.9451 4.39823L13.238 3.69112C13.1404 3.59349 12.9821 3.59349 12.8845 3.69112L11.4703 5.10534C11.3726 5.20297 11.3726 5.36126 11.4703 5.45889L12.1774 6.166C12.275 6.26363 12.4333 6.26363 12.5309 6.166L13.9451 4.75178Z" fill="#26272B"/>
</svg>
