<svg width="24" height="24" viewBox="0 0 24 24" fill="none" xmlns="http://www.w3.org/2000/svg">
<path fill-rule="evenodd" clip-rule="evenodd" d="M5.73981 5.31334C4.09628 6.89727 3.04926 9.01743 2.80459 11.0906C2.80034 11.1265 2.80959 11.1564 2.83871 11.1867C2.87154 11.2207 2.92786 11.25 3.00018 11.25H5.87519C6.11695 10.3972 6.25018 9.47073 6.25018 8.5C6.25018 7.36071 6.06667 6.28267 5.73981 5.31334ZM6.96914 4.31048C7.4702 5.57191 7.75018 6.99668 7.75018 8.5C7.75018 9.45583 7.637 10.3797 7.42587 11.25H16.5744C16.3633 10.3798 16.2502 9.45594 16.2502 8.50018C16.2502 6.9968 16.5302 5.57199 17.0313 4.31051C15.6251 3.34804 13.9206 2.75 12.0002 2.75C10.0798 2.75 8.3753 3.34803 6.96914 4.31048ZM18.2606 5.31339C17.9337 6.28274 17.7502 7.36084 17.7502 8.50018C17.7502 9.47084 17.8834 10.3973 18.1251 11.25H21.0002C21.0725 11.25 21.1288 11.2207 21.1616 11.1867C21.1908 11.1564 21.2 11.1265 21.1958 11.0906C20.9511 9.01745 19.9041 6.89731 18.2606 5.31339ZM17.5988 12.75C17.5829 12.7505 17.567 12.7505 17.5512 12.75H6.4428C6.4312 12.7503 6.41957 12.7503 6.40792 12.75H3.00018C2.06026 12.75 1.19061 11.9681 1.31493 10.9147C1.86852 6.22417 5.97699 1.25 12.0002 1.25C18.0234 1.25 22.1318 6.22418 22.6854 10.9147C22.8097 11.9681 21.9401 12.75 21.0002 12.75H17.5988ZM5.15954 16.3763C4.48971 16.7759 4.25018 17.2025 4.25018 17.5C4.25018 17.7975 4.48971 18.2241 5.15954 18.6237C5.79851 19.0048 6.66516 19.25 7.50018 19.25C8.32281 19.25 8.88259 19.0135 9.22646 18.7075C9.56592 18.4054 9.75018 17.9886 9.75018 17.5C9.75018 17.0114 9.56592 16.5946 9.22646 16.2925C8.88259 15.9865 8.32281 15.75 7.50018 15.75C6.66516 15.75 5.79851 15.9952 5.15954 16.3763ZM4.39107 15.0881C5.26885 14.5645 6.4022 14.25 7.50018 14.25C8.61054 14.25 9.55076 14.5731 10.2236 15.172C10.3578 15.2914 10.4791 15.4198 10.5874 15.5559C10.9263 15.3942 11.3993 15.25 12.0002 15.25C12.6011 15.25 13.074 15.3942 13.413 15.5559C13.5213 15.4198 13.6425 15.2914 13.7767 15.172C14.4496 14.5731 15.3898 14.25 16.5002 14.25C17.5982 14.25 18.7315 14.5645 19.6093 15.0881C20.1997 15.4404 20.7644 15.9472 21.0523 16.5889L22.3183 16.2724C22.7201 16.1719 23.1273 16.4163 23.2278 16.8181C23.3282 17.2199 23.0839 17.6271 22.6821 17.7276L21.1641 18.1071C20.9366 18.8941 20.2901 19.5058 19.6093 19.9119C18.7315 20.4355 17.5982 20.75 16.5002 20.75C15.3898 20.75 14.4496 20.4268 13.7767 19.828C13.0994 19.2253 12.7502 18.3921 12.7502 17.5C12.7502 17.3052 12.7668 17.1133 12.7999 16.9259C12.7966 16.9242 12.7932 16.9225 12.7898 16.9208C12.6315 16.8417 12.3706 16.75 12.0002 16.75C11.6298 16.75 11.3689 16.8417 11.2106 16.9208C11.2072 16.9225 11.2038 16.9242 11.2005 16.9259C11.2335 17.1133 11.2502 17.3052 11.2502 17.5C11.2502 18.3921 10.9009 19.2253 10.2236 19.828C9.55076 20.4268 8.61054 20.75 7.50018 20.75C6.4022 20.75 5.26885 20.4355 4.39107 19.9119C3.7103 19.5058 3.06375 18.8941 2.83626 18.1071L1.31828 17.7276C0.916429 17.6271 0.672109 17.2199 0.772571 16.8181C0.873032 16.4163 1.28023 16.1719 1.68208 16.2724L2.94808 16.5889C3.23597 15.9472 3.80065 15.4404 4.39107 15.0881ZM14.7739 16.2925C14.4344 16.5946 14.2502 17.0114 14.2502 17.5C14.2502 17.9886 14.4344 18.4054 14.7739 18.7075C15.1178 19.0135 15.6775 19.25 16.5002 19.25C17.3352 19.25 18.2018 19.0048 18.8408 18.6237C19.5106 18.2241 19.7502 17.7975 19.7502 17.5C19.7502 17.2025 19.5106 16.7759 18.8408 16.3763C18.2018 15.9952 17.3352 15.75 16.5002 15.75C15.6775 15.75 15.1178 15.9865 14.7739 16.2925Z" fill="#26272B"/>
</svg>
