<svg width="24" height="24" viewBox="0 0 24 24" fill="none" xmlns="http://www.w3.org/2000/svg">
<path fill-rule="evenodd" clip-rule="evenodd" d="M10.1964 1.72166C10.3502 2.10624 10.1632 2.54272 9.77859 2.69656C8.55342 3.18663 7.75004 4.37323 7.75004 5.69278V6.2502H16.25V5.69278C16.25 3.75988 17.4268 2.0217 19.2215 1.30384C19.6061 1.15001 20.0426 1.33707 20.1964 1.72166C20.3502 2.10624 20.1632 2.54272 19.7786 2.69656C18.5534 3.18663 17.75 4.37323 17.75 5.69278V15.5656C18.7746 15.2902 19.8966 15.4851 20.7834 16.1502L22.45 17.4002C22.7814 17.6487 22.8486 18.1188 22.6 18.4502C22.3515 18.7816 21.8814 18.8487 21.55 18.6002L19.8834 17.3502C19.1624 16.8095 18.171 16.8095 17.45 17.3502C16.1957 18.2909 14.471 18.2909 13.2167 17.3502C12.4957 16.8095 11.5044 16.8095 10.7834 17.3502C9.52906 18.2909 7.80437 18.2909 6.55004 17.3502C5.82906 16.8095 4.8377 16.8095 4.11671 17.3502L2.45004 18.6002C2.11867 18.8487 1.64857 18.7816 1.40004 18.4502C1.15152 18.1188 1.21867 17.6487 1.55004 17.4002L3.21671 16.1502C4.10352 15.4851 5.22546 15.2902 6.25004 15.5656V5.69278C6.25004 3.75988 7.42684 2.0217 9.2215 1.30384C9.60609 1.15001 10.0426 1.33707 10.1964 1.72166ZM7.75004 7.7502V11.2502H16.25V7.7502H7.75004ZM16.25 12.7502H7.75004V16.3369C8.42934 16.6814 9.25805 16.6192 9.88338 16.1502C11.1377 15.2095 12.8624 15.2095 14.1167 16.1502C14.742 16.6192 15.5707 16.6814 16.25 16.3369V12.7502ZM6.55004 20.8502C5.82906 20.3095 4.8377 20.3095 4.11671 20.8502L2.45004 22.1002C2.11867 22.3487 1.64857 22.2816 1.40004 21.9502C1.15152 21.6188 1.21867 21.1487 1.55004 20.9002L3.21671 19.6502C4.47103 18.7095 6.19572 18.7095 7.45004 19.6502C8.17103 20.1909 9.16239 20.1909 9.88338 19.6502C11.1377 18.7095 12.8624 18.7095 14.1167 19.6502C14.8377 20.1909 15.8291 20.1909 16.55 19.6502C17.8044 18.7095 19.5291 18.7095 20.7834 19.6502L22.45 20.9002C22.7814 21.1487 22.8486 21.6188 22.6 21.9502C22.3515 22.2816 21.8814 22.3487 21.55 22.1002L19.8834 20.8502C19.1624 20.3095 18.171 20.3095 17.45 20.8502C16.1957 21.7909 14.471 21.7909 13.2167 20.8502C12.4957 20.3095 11.5044 20.3095 10.7834 20.8502C9.52906 21.7909 7.80437 21.7909 6.55004 20.8502Z" fill="#26272B"/>
</svg>
