<svg width="24" height="24" viewBox="0 0 24 24" fill="none" xmlns="http://www.w3.org/2000/svg">
<path fill-rule="evenodd" clip-rule="evenodd" d="M7.50843 3.91077L9.46089 6.83946C11.0574 6.0538 12.9426 6.05381 14.5391 6.83948L16.4917 3.91082C13.7077 2.36308 10.2924 2.36306 7.50843 3.91077ZM17.7388 4.74425L15.7865 7.67267C15.8818 7.75622 15.975 7.84345 16.0659 7.93436C16.1568 8.02526 16.244 8.11845 16.3275 8.21375L19.256 6.26147C19.0359 5.98399 18.7975 5.71606 18.5407 5.45926C18.284 5.20255 18.0162 4.96424 17.7388 4.74425ZM20.0894 7.50865L17.1607 9.46106C17.9464 11.0576 17.9464 12.9428 17.1608 14.5393L20.0892 16.4916C21.6369 13.7077 21.6369 10.2926 20.0894 7.50865ZM19.2558 17.7388L16.3276 15.7866C16.244 15.8819 16.1568 15.9752 16.0659 16.0661C15.9749 16.157 15.8817 16.2442 15.7864 16.3278L17.7386 19.256C18.016 19.0359 18.2839 18.7975 18.5407 18.5407C18.7975 18.284 19.0358 18.0162 19.2558 17.7388ZM16.4914 20.0893L14.5391 17.161C12.9426 17.9466 11.0574 17.9466 9.46092 17.161L7.50872 20.0894C10.2926 21.6369 13.7075 21.6369 16.4914 20.0893ZM6.26152 19.256L8.21359 16.3278C8.11828 16.2443 8.02506 16.157 7.93414 16.0661C7.84321 15.9752 7.75596 15.8819 7.67239 15.7866L4.7442 17.7388C4.96421 18.0162 5.20254 18.284 5.45926 18.5407C5.71607 18.7976 5.98403 19.036 6.26152 19.256ZM3.91078 16.4916L6.83922 14.5393C6.05358 12.9428 6.05359 11.0576 6.83926 9.46107L3.91064 7.50866C2.36307 10.2926 2.36312 13.7077 3.91078 16.4916ZM4.74402 6.26147L7.67245 8.21376C7.756 8.11846 7.84323 8.02527 7.93414 7.93436C8.02506 7.84344 8.11826 7.7562 8.21357 7.67264L6.26127 4.74418C5.98387 4.96419 5.716 5.20253 5.45926 5.45926C5.20247 5.71606 4.96407 5.984 4.74402 6.26147ZM6.03514 3.05437C9.63547 0.64852 14.3647 0.648542 17.965 3.05444C18.5432 3.44086 19.0918 3.88902 19.6014 4.3986C20.1111 4.90828 20.5593 5.45699 20.9458 6.03537C23.3515 9.63565 23.3514 14.3647 20.9456 17.9649C20.5592 18.5432 20.111 19.0918 19.6014 19.6014C19.0917 20.1111 18.543 20.5593 17.9647 20.9458C14.3645 23.3514 9.63563 23.3514 6.03544 20.9458C5.45704 20.5594 4.9083 20.1111 4.3986 19.6014C3.889 19.0918 3.44082 18.5432 3.05439 17.9649C0.648594 14.3647 0.648536 9.63565 3.05422 6.03537C3.44068 5.45699 3.88892 4.90828 4.3986 4.3986C4.90821 3.88899 5.45685 3.4408 6.03514 3.05437ZM15.0052 8.99502C13.3455 7.33529 10.6545 7.33529 8.9948 8.99502C7.33507 10.6547 7.33507 13.3457 8.9948 15.0054C10.6545 16.6652 13.3455 16.6652 15.0052 15.0054C16.6649 13.3457 16.6649 10.6547 15.0052 8.99502Z" fill="#26272B"/>
</svg>
