<svg width="24" height="24" viewBox="0 0 24 24" fill="none" xmlns="http://www.w3.org/2000/svg">
<path fill-rule="evenodd" clip-rule="evenodd" d="M15.0813 3.2723C11.7787 1.36555 7.59296 2.34247 5.31241 6.29249C4.61831 7.49471 4.25096 8.71207 4.16888 9.87774L14.817 16.0254C15.7855 15.3715 16.6561 14.4447 17.3502 13.2425C19.6307 9.29247 18.3839 5.17906 15.0813 3.2723ZM13.215 16.8326L4.27087 11.6687C4.57204 13.2568 5.4297 14.6613 6.71643 15.677L8.41976 16.6776C9.97083 17.3232 11.6552 17.3777 13.215 16.8326ZM8.49318 18.3036L6.57496 22.7949C6.49069 22.9922 6.32596 23.144 6.12242 23.2118C5.91888 23.2797 5.69603 23.2571 5.51023 23.1499L2.65235 21.4999C2.46899 21.394 2.33892 21.2156 2.29424 21.0086C2.24956 20.8017 2.29443 20.5855 2.41778 20.4134L5.27917 16.4217C2.44882 13.8055 1.71893 9.51658 4.01337 5.54249C6.68283 0.918859 11.7682 -0.372561 15.8313 1.97326C19.8944 4.31909 21.3187 9.36886 18.6492 13.9925C16.3337 18.0031 12.2003 19.5066 8.49318 18.3036ZM6.46678 17.3395L4.1191 20.6146L5.52772 21.4279L7.11247 17.7174C7.01823 17.6674 6.92449 17.6155 6.83129 17.5617C6.70732 17.4901 6.5858 17.4161 6.46678 17.3395ZM18.9997 18.7503C18.3093 18.7503 17.7497 19.31 17.7497 20.0003C17.7497 20.6907 18.3093 21.2503 18.9997 21.2503C19.69 21.2503 20.2497 20.6907 20.2497 20.0003C20.2497 19.31 19.69 18.7503 18.9997 18.7503ZM16.2497 20.0003C16.2497 18.4816 17.4809 17.2503 18.9997 17.2503C20.5185 17.2503 21.7497 18.4816 21.7497 20.0003C21.7497 21.5191 20.5185 22.7503 18.9997 22.7503C17.4809 22.7503 16.2497 21.5191 16.2497 20.0003Z" fill="#26272B"/>
</svg>
