<svg width="24" height="24" viewBox="0 0 24 24" fill="none" xmlns="http://www.w3.org/2000/svg">
<g clip-path="url(#clip0_20067_1598)">
<path fill-rule="evenodd" clip-rule="evenodd" d="M12 0.75C12.4142 0.75 12.75 1.08579 12.75 1.5V2.77997C17.2605 3.14188 20.8581 6.7395 21.22 11.25H22.5C22.9142 11.25 23.25 11.5858 23.25 12C23.25 12.4142 22.9142 12.75 22.5 12.75H21.22C20.8581 17.2605 17.2605 20.8581 12.75 21.22V22.5C12.75 22.9142 12.4142 23.25 12 23.25C11.5858 23.25 11.25 22.9142 11.25 22.5V21.22C6.7395 20.8581 3.14188 17.2605 2.77997 12.75H1.5C1.08579 12.75 0.75 12.4142 0.75 12C0.75 11.5858 1.08579 11.25 1.5 11.25H2.77997C3.14188 6.7395 6.7395 3.14188 11.25 2.77997V1.5C11.25 1.08579 11.5858 0.75 12 0.75ZM11.25 4.28582C7.5685 4.63935 4.63935 7.5685 4.28582 11.25L7.30888 11.25C7.62971 9.22731 9.22731 7.62971 11.25 7.30888V4.28582ZM12.75 7.30888C14.7727 7.62971 16.3703 9.22731 16.6911 11.25L19.7142 11.25C19.3606 7.5685 16.4315 4.63935 12.75 4.28582V7.30888ZM19.7142 12.75L16.6911 12.75C16.3703 14.7727 14.7727 16.3703 12.75 16.6911V19.7142C16.4315 19.3607 19.3607 16.4315 19.7142 12.75ZM11.25 19.7142V16.6911C9.22731 16.3703 7.62971 14.7727 7.30888 12.75L4.28582 12.75C4.63935 16.4315 7.5685 19.3607 11.25 19.7142ZM12 8.75C10.2051 8.75 8.75 10.2051 8.75 12C8.75 13.7949 10.2051 15.25 12 15.25C13.7949 15.25 15.25 13.7949 15.25 12C15.25 10.2051 13.7949 8.75 12 8.75Z" fill="#26272B"/>
</g>
<defs>
<clipPath id="clip0_20067_1598">
<rect width="24" height="24" fill="white"/>
</clipPath>
</defs>
</svg>
