<svg width="24" height="24" viewBox="0 0 24 24" fill="none" xmlns="http://www.w3.org/2000/svg">
<g clip-path="url(#clip0_20067_1654)">
<path fill-rule="evenodd" clip-rule="evenodd" d="M14.1621 3.28352C13.8244 3.51654 13.498 3.78728 13.1889 4.09634C12.8865 4.39882 12.6207 4.71786 12.3911 5.04797L13.9049 6.56178L15.6726 4.79401L14.1621 3.28352ZM15.5536 2.55368L16.7333 3.73335L18.2317 2.23493C17.3788 2.11321 16.4547 2.21628 15.5536 2.55368ZM19.8071 2.7707C19.7864 2.79814 19.7635 2.82448 19.7385 2.84949L17.794 4.79401L19.2082 6.20823L21.1527 4.26371C21.1778 4.23864 21.2042 4.21572 21.2317 4.19495C21.0619 3.90199 20.8556 3.63128 20.6136 3.38924C20.3713 3.14698 20.1004 2.94059 19.8071 2.7707ZM21.7677 5.77001L20.2688 7.26889L21.4491 8.44918C21.7867 7.5477 21.8897 6.62327 21.7677 5.77001ZM20.7193 9.84065L19.2082 8.32955L17.4404 10.0973L18.9548 11.6117C19.2849 11.3821 19.604 11.1163 19.9065 10.8139C20.2155 10.5048 20.4863 10.1784 20.7193 9.84065ZM17.5683 12.3465L16.3798 11.158L14.8626 12.6751C15.0364 12.6999 15.213 12.7155 15.3919 12.7216C15.4641 12.7123 15.5353 12.7136 15.6038 12.7244C16.2472 12.7197 16.9141 12.595 17.5683 12.3465ZM15.4629 14.2272C17.3924 14.247 19.4229 13.4188 20.9671 11.8745C23.7119 9.12972 24.1946 4.84894 21.6742 2.32858C19.1539 -0.191792 14.8731 0.290881 12.1283 3.03568C10.5837 4.58028 9.75544 6.61128 9.77558 8.54126C9.59656 9.71113 9.20963 11.2534 8.80344 12.5839C8.59342 13.2717 8.38243 13.8892 8.19849 14.357C8.10618 14.5917 8.02455 14.7789 7.9569 14.9144C7.90024 15.028 7.8705 15.0697 7.87024 15.0721L6.82484 16.116C6.80797 16.1328 6.79208 16.1503 6.77715 16.1683C6.51936 16.0753 6.23401 16.0417 5.93781 16.084L5.44284 16.1547C4.8538 16.2389 4.30794 16.5118 3.8872 16.9325L1.17663 19.6431C0.493208 20.3265 0.493208 21.4346 1.17663 22.118L1.88373 22.8251C2.56715 23.5085 3.67519 23.5085 4.35861 22.8251L7.06918 20.1145C7.48992 19.6938 7.76285 19.1479 7.847 18.5589L7.91771 18.0639C7.96004 17.7676 7.92635 17.4821 7.83334 17.2242C7.85102 17.2096 7.86817 17.1939 7.88475 17.1774L8.93088 16.1327C8.9327 16.1329 8.97422 16.1032 9.08858 16.0461C9.2241 15.9784 9.41125 15.8968 9.64601 15.8045C10.1138 15.6206 10.7313 15.4096 11.4191 15.1996C12.75 14.7932 14.2929 14.4062 15.4629 14.2272ZM13.291 12.1411C13.3155 12.1062 13.3434 12.073 13.3745 12.0419L15.3191 10.0973L13.9049 8.6831L11.9603 10.6277C11.9292 10.6588 11.8961 10.6866 11.8613 10.7111C12.0316 11.0056 12.2386 11.2778 12.4818 11.521C12.7248 11.764 12.9967 11.9709 13.291 12.1411ZM11.3275 9.13912L12.8442 7.62244L11.6563 6.43451C11.408 7.08842 11.2832 7.75492 11.2784 8.39801C11.2894 8.46728 11.2908 8.53923 11.2813 8.6122C11.2874 8.79024 11.3029 8.96614 11.3275 9.13912ZM10.6422 11.6038C10.8594 11.9513 11.1187 12.2791 11.4212 12.5816C11.7238 12.8842 12.0517 13.1435 12.3993 13.3608C11.9134 13.4896 11.4334 13.6268 10.9811 13.7649C10.5939 13.8831 10.223 14.0032 9.88218 14.1208C9.99975 13.78 10.1198 13.4091 10.2381 13.0219C10.3761 12.5696 10.5133 12.0896 10.6422 11.6038ZM14.9655 7.62244L16.3798 9.03666L18.1475 7.26889L16.7333 5.85467L14.9655 7.62244ZM6.14994 17.5689L5.65497 17.6396C5.38722 17.6779 5.13911 17.8019 4.94786 17.9932L2.23729 20.7038C2.13965 20.8014 2.13965 20.9597 2.23729 21.0573L2.94439 21.7644C3.04202 21.8621 3.20031 21.8621 3.29795 21.7644L6.00852 19.0538C6.19977 18.8626 6.32383 18.6145 6.36208 18.3467L6.43279 17.8518C6.45636 17.6868 6.31493 17.5454 6.14994 17.5689Z" fill="#26272B"/>
</g>
<defs>
<clipPath id="clip0_20067_1654">
<rect width="24" height="24" fill="white"/>
</clipPath>
</defs>
</svg>
