<svg width="24" height="24" viewBox="0 0 24 24" fill="none" xmlns="http://www.w3.org/2000/svg">
<path fill-rule="evenodd" clip-rule="evenodd" d="M3.05749 9.62521C4.00722 10.5276 5.10203 11.1659 6.26301 11.7239C6.79175 11.978 7.32332 12.2106 7.86202 12.4462C7.97842 12.4972 8.09515 12.5482 8.21225 12.5997C8.86402 12.8861 9.52295 13.1829 10.1521 13.5186C11.4144 14.1922 12.6028 15.0456 13.4658 16.3725C14.2083 17.514 14.6749 18.9511 14.7956 20.8202C18.1432 19.7603 20.6667 16.8462 21.1615 13.285C19.7916 13.16 18.7044 12.7587 17.8225 12.1253C16.7823 11.3783 16.0958 10.3568 15.5551 9.26591C15.1746 8.49835 14.8438 7.64472 14.5176 6.80287C14.3892 6.47146 14.2615 6.14187 14.1317 5.82008C13.7024 4.75547 13.2312 3.71922 12.5904 2.76851C12.3953 2.75624 12.1984 2.75 12 2.75C7.71297 2.75 4.10561 5.6671 3.05749 9.62521ZM14.5363 3.10189C14.9213 3.82201 15.2377 4.55202 15.5229 5.2591C15.6712 5.62695 15.8092 5.98327 15.9431 6.32876C16.2584 7.14268 16.5505 7.89655 16.899 8.59976C17.385 9.58033 17.9363 10.3603 18.6975 10.9069C19.3191 11.3534 20.1273 11.6773 21.2476 11.7866C21.1539 7.65141 18.3462 4.18569 14.5363 3.10189ZM13.3121 21.1577C13.2297 19.3623 12.8099 18.1151 12.2084 17.1904C11.5372 16.1584 10.5918 15.4534 9.44601 14.842C8.87119 14.5353 8.25752 14.258 7.60876 13.9729C7.49663 13.9237 7.38327 13.8741 7.26896 13.8241C6.72938 13.588 6.16842 13.3427 5.61325 13.0758C4.6549 12.6152 3.6817 12.0764 2.77183 11.3591C2.75736 11.5708 2.75 11.7845 2.75 12C2.75 17.1086 6.89137 21.25 12 21.25C12.4458 21.25 12.8838 21.2185 13.3121 21.1577ZM1.4969 9.69941C2.55063 4.86799 6.85192 1.25 12 1.25C12.3634 1.25 12.7228 1.26806 13.0773 1.30337C18.5089 1.8443 22.75 6.42641 22.75 12C22.75 12.2076 22.7441 12.4138 22.7325 12.6186C22.4544 17.5143 18.9024 21.5313 14.2319 22.5179C13.5112 22.6701 12.7645 22.75 12 22.75C6.06294 22.75 1.25 17.9371 1.25 12C1.25 11.2111 1.3351 10.4413 1.4969 9.69941Z" fill="#26272B"/>
</svg>
