<svg width="24" height="24" viewBox="0 0 24 24" fill="none" xmlns="http://www.w3.org/2000/svg">
<path fill-rule="evenodd" clip-rule="evenodd" d="M12.6646 2.77351C12.7209 3.17455 12.75 3.58405 12.75 4C12.75 8.83249 8.83249 12.75 4 12.75C3.58405 12.75 3.17455 12.7209 2.77351 12.6646C3.0986 17.2435 6.75647 20.9014 11.3354 21.2265C11.2791 20.8255 11.25 20.416 11.25 20C11.25 15.1675 15.1675 11.25 20 11.25C20.416 11.25 20.8255 11.2791 21.2265 11.3354C20.9014 6.75647 17.2435 3.0986 12.6646 2.77351ZM22.7482 12.1975C22.7517 12.2451 22.7506 12.2935 22.7447 12.3421C22.5676 18.0072 18.0072 22.5676 12.3421 22.7447C12.2935 22.7506 12.2451 22.7517 12.1975 22.7482C12.1318 22.7494 12.066 22.75 12 22.75C6.06294 22.75 1.25 17.9371 1.25 12C1.25 11.9098 1.25111 11.8199 1.25332 11.7303C1.39445 6.00729 6.0073 1.39445 11.7303 1.25332C11.8199 1.25111 11.9098 1.25 12 1.25C17.9371 1.25 22.75 6.06294 22.75 12C22.75 12.066 22.7494 12.1318 22.7482 12.1975ZM21.2114 12.8506C20.8179 12.7845 20.4132 12.75 20 12.75C15.9959 12.75 12.75 15.9959 12.75 20C12.75 20.4132 12.7845 20.8179 12.8506 21.2114C17.2804 20.8075 20.8075 17.2804 21.2114 12.8506ZM2.78857 11.1494C3.18212 11.2155 3.5868 11.25 4 11.25C8.00406 11.25 11.25 8.00406 11.25 4C11.25 3.5868 11.2155 3.18212 11.1494 2.78857C6.71973 3.19233 3.19233 6.71973 2.78857 11.1494Z" fill="#26272B"/>
</svg>
