<svg width="24" height="24" viewBox="0 0 24 24" fill="none" xmlns="http://www.w3.org/2000/svg">
<path fill-rule="evenodd" clip-rule="evenodd" d="M19.555 2.4955C19.8336 2.80199 19.811 3.27633 19.5045 3.55496L16.7962 6.01702L19.5541 14.2907C21.3624 14.5585 22.75 16.1172 22.75 18C22.75 20.0711 21.0711 21.75 19 21.75H4.11724C2.53371 21.75 1.25 20.4663 1.25 18.8828C1.25 17.4288 2.33825 16.205 3.78223 16.0352L17.997 14.3628L15.5828 7.12014L14.1475 8.42493C13.9174 8.6341 13.6177 8.75001 13.3067 8.75001H9.5C9.08579 8.75001 8.75 8.41422 8.75 8.00001C8.75 7.58579 9.08579 7.25001 9.5 7.25001H13.21L18.4955 2.44505C18.802 2.16642 19.2763 2.18901 19.555 2.4955ZM15.7441 16.1382L3.95749 17.5249C3.26893 17.6059 2.75 18.1895 2.75 18.8828C2.75 19.6379 3.36214 20.25 4.11724 20.25H15.9997C15.529 19.6233 15.25 18.8442 15.25 18C15.25 17.3224 15.4297 16.6868 15.7441 16.1382ZM19 20.25C20.2426 20.25 21.25 19.2426 21.25 18C21.25 16.771 20.2647 15.7722 19.0409 15.7504L18.4342 15.8217C17.4654 16.0727 16.75 16.9528 16.75 18C16.75 19.2426 17.7574 20.25 19 20.25ZM17.75 18C17.75 17.3096 18.3096 16.75 19 16.75C19.6904 16.75 20.25 17.3096 20.25 18C20.25 18.6904 19.6904 19.25 19 19.25C18.3096 19.25 17.75 18.6904 17.75 18Z" fill="#26272B"/>
</svg>
