<svg width="24" height="24" viewBox="0 0 24 24" fill="none" xmlns="http://www.w3.org/2000/svg">
<g clip-path="url(#clip0_20067_1666)">
<path fill-rule="evenodd" clip-rule="evenodd" d="M6.78305 3.76155C5.9883 7.16364 6.43502 10.8614 8.31934 14.1251C8.41326 14.2878 8.50988 14.4479 8.60912 14.6054C9.59114 13.926 10.455 13.0458 11.1339 11.9817C10.3136 10.4155 9.91698 8.72981 9.90867 7.06304C9.90043 5.41268 10.2728 3.78134 10.9903 2.3016C9.45343 2.45959 8.02342 2.97431 6.78305 3.76155ZM12.706 2.27515C12.687 2.30715 12.6682 2.33925 12.6497 2.37146C11.9628 3.56289 11.5499 4.89396 11.4389 6.25996C11.6252 6.25344 11.8122 6.25015 12 6.25015C15.5166 6.25015 18.765 7.40336 21.386 9.35131C20.2934 5.47161 16.8593 2.57222 12.706 2.27515ZM21.742 11.6003C19.1932 9.21166 15.768 7.75015 12 7.75015C11.8121 7.75015 11.6252 7.75378 11.4392 7.76097C11.5365 8.9511 11.8668 10.1394 12.4489 11.2594C14.2155 11.332 15.8737 11.8314 17.3214 12.6577C18.7551 13.476 19.9821 14.6146 20.9051 15.9766C21.448 14.7627 21.75 13.4173 21.75 12C21.75 11.8661 21.7473 11.7328 21.742 11.6003ZM20.0693 17.4745C19.3767 16.2425 18.4099 15.1848 17.2517 14.3845C17.1642 14.5491 17.0735 14.7127 16.9796 14.8754C16.7426 15.286 16.4897 15.682 16.2222 16.0631C14.5068 18.5072 12.1943 20.332 9.60174 21.453C10.3686 21.6469 11.1719 21.75 12 21.75C15.3545 21.75 18.314 20.0564 20.0693 17.4745ZM7.47313 20.6378C10.4363 19.7404 13.1127 17.8826 14.9945 15.2014C15.2366 14.8564 15.4657 14.4977 15.6806 14.1254C15.7745 13.9627 15.8649 13.7989 15.9517 13.6342C14.8723 13.1233 13.678 12.8152 12.417 12.7594C11.4708 14.2529 10.2093 15.4392 8.76998 16.2798C7.34509 17.112 5.74629 17.6053 4.10612 17.724C4.98635 18.9356 6.13877 19.9369 7.47313 20.6378ZM3.22304 16.2514C4.63677 16.2678 6.03674 15.9593 7.30934 15.3561C7.21057 15.1981 7.11419 15.0378 7.0203 14.8751C5.26272 11.8309 4.63704 8.44275 5.01248 5.2001C3.30222 6.95712 2.25 9.35576 2.25 12C2.25 13.5254 2.59977 14.9672 3.22304 16.2514ZM5.70445 2.67518C7.50134 1.45981 9.66891 0.75 12 0.75C12.1085 0.75 12.2167 0.751539 12.3245 0.754596C18.1246 0.919075 22.8249 5.47234 23.2227 11.2113C23.2408 11.4719 23.25 11.735 23.25 12C23.25 14.1649 22.6378 16.1891 21.5766 17.9062C19.5959 21.1115 16.048 23.25 12 23.25C10.2331 23.25 8.55934 22.8421 7.06964 22.1147C4.95494 21.0821 3.21282 19.4065 2.09699 17.3421C1.23757 15.7521 0.75 13.9319 0.75 12C0.75 8.11824 2.71664 4.69606 5.70445 2.67518Z" fill="#26272B"/>
</g>
<defs>
<clipPath id="clip0_20067_1666">
<rect width="24" height="24" fill="white"/>
</clipPath>
</defs>
</svg>
