<svg width="24" height="24" viewBox="0 0 24 24" fill="none" xmlns="http://www.w3.org/2000/svg">
<path fill-rule="evenodd" clip-rule="evenodd" d="M7.57423 4.37543C6.45376 8.00062 6.8542 11.8739 8.55051 15.145C9.57065 14.4508 10.4659 13.5416 11.1624 12.4361C10.5449 10.8573 10.3255 9.18688 10.4991 7.4787C10.6462 6.03126 11.0909 4.59134 11.8558 3.24932C10.3604 3.27412 8.8882 3.66143 7.57423 4.37543ZM13.542 3.37645C13.4173 3.56063 13.2982 3.75068 13.1851 3.94652C12.6742 4.83158 12.3264 5.7649 12.1319 6.71236C14.8648 6.52497 17.6739 7.04743 20.2709 8.35597C19.4885 6.79029 18.2539 5.42961 16.6247 4.48899C15.6411 3.92108 14.5979 3.55479 13.542 3.37645ZM21.0374 10.5289C20.8045 10.3757 20.5656 10.2283 20.3209 10.0871C17.6847 8.56506 14.7662 7.98124 11.949 8.2313C11.9019 9.42683 12.0813 10.5887 12.4872 11.6991C14.1673 11.5819 15.868 11.8626 17.4917 12.5726C17.8574 12.7325 18.2176 12.9142 18.5709 13.1182C19.4567 13.6296 20.2429 14.2487 20.9219 14.9496C21.3249 13.4861 21.352 11.9692 21.0374 10.5289ZM20.3257 16.5306C19.6433 15.7054 18.8045 14.9851 17.8209 14.4172C17.7343 14.3672 17.6474 14.3188 17.56 14.272C17.3823 14.644 17.1889 15.0119 16.9794 15.3747C16.635 15.9712 16.2573 16.5368 15.8499 17.0707C15.2921 17.8017 14.6788 18.4726 14.0196 19.0809C14.0521 19.1036 14.0843 19.1269 14.1162 19.1509C14.8372 19.6916 15.8285 19.6916 16.5495 19.1509C16.9827 18.826 17.4728 18.613 17.9802 18.5125C18.3389 18.4415 18.7063 18.4268 19.0687 18.4683C19.4155 18.0565 19.7313 17.6082 20.0105 17.1247C20.1235 16.9289 20.2286 16.7307 20.3257 16.5306ZM20.5638 18.9991C20.6383 19.0466 20.7113 19.0972 20.7829 19.1509L22.4495 20.4009C22.7809 20.6494 22.848 21.1195 22.5995 21.4509C22.351 21.7822 21.8809 21.8494 21.5495 21.6009L19.8829 20.3509C19.6636 20.1865 19.4202 20.0724 19.1671 20.008C18.874 19.9334 18.5675 19.9254 18.2715 19.984C17.9803 20.0416 17.6991 20.1637 17.4495 20.3509C16.1952 21.2916 14.4705 21.2916 13.2162 20.3509C12.9882 20.1799 12.7339 20.0633 12.4698 20.0004C11.8957 19.8639 11.2759 19.9811 10.7829 20.3509C9.52853 21.2916 7.80384 21.2916 6.54952 20.3509C6.29996 20.1637 6.01879 20.0416 5.72758 19.984C5.43146 19.9254 5.12495 19.9334 4.83182 20.008C4.57874 20.0724 4.33534 20.1865 4.11619 20.3509L2.44952 21.6009C2.11815 21.8494 1.64805 21.7822 1.39952 21.4509C1.15099 21.1195 1.21815 20.6494 1.54952 20.4009L3.21619 19.1509C3.28738 19.0975 3.36011 19.0471 3.43422 18.9997C3.16111 18.6396 2.91236 18.264 2.68867 17.8758C0.836469 14.6615 0.69997 10.5715 2.68995 7.12472C3.65761 5.44868 5.01009 4.1303 6.57163 3.21881C8.58679 2.04254 10.9499 1.54394 13.2859 1.82435C14.6871 1.99256 16.0774 2.44096 17.3747 3.18995C20.0005 4.70596 21.7453 7.16386 22.4278 9.88858C22.9835 12.1069 22.8362 14.5058 21.8871 16.7214C21.7196 17.1125 21.5272 17.4976 21.3095 17.8747C21.0816 18.2694 20.8323 18.6445 20.5638 18.9991ZM4.92953 18.4684C5.29217 18.4268 5.65983 18.4415 6.01885 18.5125C6.52622 18.613 7.01631 18.826 7.44952 19.1509C8.17051 19.6916 9.16187 19.6916 9.88285 19.1509C10.6335 18.5879 11.5524 18.3621 12.4375 18.4726C13.2504 17.7988 13.9968 17.0265 14.6575 16.1607C15.0261 15.6777 15.3681 15.1655 15.6803 14.6247C15.8617 14.3106 16.0297 13.9925 16.1845 13.6712C14.9581 13.2484 13.6967 13.1001 12.4498 13.2065C11.4732 14.7676 10.1535 15.9968 8.64587 16.8506C7.42181 17.5438 6.07405 17.9895 4.68486 18.1657C4.76411 18.2682 4.84567 18.3691 4.92953 18.4684ZM3.77777 16.7405C4.97783 16.6824 6.15702 16.3912 7.24505 15.8857C5.6278 12.7942 5.06009 9.20945 5.70174 5.72129C5.04288 6.3339 4.46281 7.05403 3.98899 7.87472C2.3562 10.7028 2.38578 14.0353 3.77777 16.7405Z" fill="#26272B"/>
</svg>
