<svg width="24" height="24" viewBox="0 0 24 24" fill="none" xmlns="http://www.w3.org/2000/svg">
<path fill-rule="evenodd" clip-rule="evenodd" d="M15.0917 6.56616C16.3609 7.83536 16.3609 9.89315 15.0917 11.1624L13.8422 12.4119C13.8419 12.4122 13.8417 12.4124 13.8415 12.4126L11.1773 15.0768C11.1404 13.9121 10.6774 12.7584 9.78844 11.8695C8.89946 10.9805 7.74577 10.5175 6.58109 10.4806L10.4956 6.56616C11.7648 5.29696 13.8225 5.29696 15.0917 6.56616ZM16.1825 12.1926C18.0073 10.3353 17.9973 7.35039 16.1524 5.5055C14.2974 3.65051 11.2899 3.65051 9.43489 5.5055L3.07093 11.8695C1.21594 13.7245 1.21594 16.732 3.07093 18.587C4.00824 19.5243 5.23981 19.988 6.46826 19.9781L15.4683 19.9404C16.4574 19.9363 17.4048 19.5415 18.1042 18.8421L21.7663 15.18C22.8687 14.0776 22.0879 12.1926 20.5288 12.1926H16.1825ZM14.6828 13.6926H20.5288C20.7516 13.6926 20.8631 13.9619 20.7056 14.1194L17.0436 17.7814C16.6239 18.2011 16.0555 18.4379 15.462 18.4404L9.91178 18.4636L14.6828 13.6926ZM6.4587 18.4781L6.42804 18.4782C5.59685 18.4778 4.76578 18.1605 4.13159 17.5263C2.86239 16.2571 2.86239 14.1993 4.13159 12.9301C5.40079 11.6609 7.45858 11.6609 8.72778 12.9301C9.99699 14.1993 9.99699 16.2571 8.72778 17.5263C8.10056 18.1535 7.28075 18.4708 6.4587 18.4781Z" fill="#26272B"/>
</svg>
