<svg width="24" height="24" viewBox="0 0 24 24" fill="none" xmlns="http://www.w3.org/2000/svg">
<path fill-rule="evenodd" clip-rule="evenodd" d="M4.8784 2.37512C5.08551 2.0164 5.5442 1.8935 5.90292 2.10061L10.4922 4.75025C12.1104 4.45709 13.893 4.4864 14.5523 4.49725C14.6385 4.49867 14.7056 4.49977 14.7505 4.49979C15.1646 4.49999 15.5001 4.83572 15.5001 5.24979C15.5001 6.19884 15.6064 7.09068 15.8718 7.85623L20.6251 10.6006C20.9191 10.7703 21.0624 11.1164 20.9746 11.4442C20.8867 11.7721 20.5896 12.0001 20.2501 12.0001C17.8162 12.0001 16.1884 11.1764 15.2046 9.81401C15.0182 9.55592 14.8586 9.28335 14.7224 9.00013C14.2162 9.00018 13.2715 9.00278 12.2753 9.11999C11.6223 9.19681 10.9972 9.31792 10.4754 9.49471C10.5533 9.54481 10.6324 9.59511 10.7125 9.64564C10.8878 9.75614 11.0697 9.86854 11.2531 9.98188C11.7859 10.3112 12.3315 10.6484 12.7664 10.97C13.0626 11.1891 13.3503 11.4309 13.5696 11.6943C13.783 11.9506 14.0001 12.3091 14.0001 12.7492C14.0001 13.2017 13.7723 13.558 13.5335 13.8069C13.2941 14.0564 12.9849 14.2619 12.67 14.4326C12.037 14.7756 11.2266 15.0589 10.4602 15.2825C10.0236 15.4099 9.58848 15.5215 9.1892 15.616L9.65887 15.9213C10.0062 16.147 10.1047 16.6116 9.87896 16.9589C9.76078 17.1407 9.57716 17.2543 9.37917 17.2889L16.4145 21.3508C16.7733 21.5579 17.232 21.435 17.4391 21.0763C17.6462 20.7176 18.1049 20.5947 18.4636 20.8018C18.8223 21.0089 18.9452 21.4676 18.7381 21.8263C18.1168 22.9025 16.7407 23.2712 15.6645 22.6499L1.37513 14.3999C1.01641 14.1927 0.893499 13.7341 1.10061 13.3753C1.30771 13.0166 1.76641 12.8937 2.12513 13.1008L6.66887 15.7241C6.52846 15.5519 6.46893 15.3223 6.51592 15.097C6.57907 14.7942 6.82163 14.5612 7.12672 14.5103C7.12675 14.5103 7.12679 14.5103 7.12683 14.5103L7.12721 14.5103L7.12975 14.5098L7.14114 14.5079L7.18822 14.4998C7.23005 14.4924 7.29222 14.4814 7.37183 14.4667C7.53113 14.4373 7.75981 14.3935 8.03464 14.3362C8.58597 14.2213 9.3154 14.0539 10.0401 13.8425C10.7737 13.6285 11.4632 13.3804 11.9553 13.1138C12.2028 12.9796 12.3624 12.8608 12.4511 12.7683C12.4623 12.7567 12.4715 12.7464 12.479 12.7375C12.4659 12.7169 12.4462 12.6893 12.4169 12.6541C12.3101 12.5258 12.1329 12.3672 11.8745 12.1761C11.4939 11.8946 11.0296 11.6076 10.516 11.2901C10.3214 11.1697 10.1196 11.045 9.91267 10.9146C9.19506 10.4622 8.42272 9.94476 7.86204 9.37082C7.31241 8.80818 6.8091 8.0264 7.01799 7.08649C7.18265 6.3456 7.69731 5.83768 8.26779 5.49881C8.35442 5.44736 8.44395 5.39876 8.53591 5.35284L5.15291 3.39964C4.79419 3.19253 4.67129 2.73384 4.8784 2.37512ZM12.5092 12.6946C12.5093 12.6946 12.5089 12.6955 12.5079 12.6974C12.5086 12.6955 12.5091 12.6946 12.5092 12.6946ZM9.08775 8.47087C9.96943 7.97513 11.116 7.74603 12.1 7.63026C12.9024 7.53586 13.6674 7.50994 14.2192 7.50282C14.111 7.00477 14.0496 6.49575 14.0207 5.992C13.1488 5.98824 11.7448 6.01726 10.5131 6.27416C9.90818 6.40034 9.39851 6.57184 9.03384 6.78846C8.67307 7.00276 8.52596 7.21531 8.48226 7.41192C8.44113 7.597 8.5003 7.87761 8.93504 8.32264C8.98328 8.37202 9.03424 8.42142 9.08775 8.47087ZM17.0001 6.2501C17.0001 4.7313 18.2313 3.50009 19.7501 3.50013C21.2689 3.50016 22.5001 4.73138 22.5001 6.25015C22.5002 7.76894 21.269 9.00016 19.7502 9.00013C18.2314 9.00009 17.0002 7.76887 17.0001 6.2501ZM19.7501 5.00013C19.0597 5.00011 18.5001 5.55973 18.5001 6.25007C18.5001 6.94043 19.0598 7.50011 19.7502 7.50013C20.4405 7.50014 21.0001 6.94053 21.0001 6.25018C21.0001 5.55981 20.4404 5.00014 19.7501 5.00013Z" fill="#26272B"/>
</svg>
