<svg width="24" height="24" viewBox="0 0 24 24" fill="none" xmlns="http://www.w3.org/2000/svg">
<path fill-rule="evenodd" clip-rule="evenodd" d="M11.9993 2.75C11.309 2.75001 10.7493 3.30969 10.7493 4.00006C10.7493 4.6904 11.3089 5.25001 11.9992 5.25C12.6896 5.24999 13.2493 4.69031 13.2493 3.99994C13.2493 3.3096 12.6897 2.74999 11.9993 2.75ZM9.24929 4.00002C9.24932 2.48125 10.4805 1.25003 11.9993 1.25C13.5181 1.24997 14.7493 2.48118 14.7493 3.99997C14.7493 5.51874 13.518 6.74997 11.9993 6.75C10.4805 6.75003 9.24926 5.51882 9.24929 4.00002ZM16.3218 1.89205C16.4996 1.51791 16.947 1.35869 17.3211 1.53642C19.712 2.6722 21.4308 4.99782 21.7095 7.75H21.9993C22.4135 7.75 22.7493 8.08579 22.7493 8.5C22.7493 8.91421 22.4135 9.25 21.9993 9.25H21.7172C21.4641 12.0373 19.7353 14.3972 17.3211 15.544C16.947 15.7218 16.4996 15.5626 16.3218 15.1884C16.1441 14.8143 16.3033 14.3669 16.6775 14.1892C18.5873 13.2819 19.9623 11.4363 20.2094 9.25H14.7496C14.754 12.5931 14.8137 17.3341 15.6196 21.75H16.9993C17.4135 21.75 17.7493 22.0858 17.7493 22.5C17.7493 22.9142 17.4135 23.25 16.9993 23.25H14.9993C14.6417 23.25 14.3339 22.9976 14.2638 22.6469C13.3173 17.9087 13.2538 12.7483 13.2496 9.25H10.749C10.7447 12.7483 10.6813 17.9087 9.73476 22.6469C9.66471 22.9976 9.35686 23.25 8.99929 23.25H6.99929C6.58507 23.25 6.24929 22.9142 6.24929 22.5C6.24929 22.0858 6.58507 21.75 6.99929 21.75H8.37902C9.1849 17.3341 9.24453 12.5931 9.24894 9.25H5.94868C4.77044 9.25 3.80232 9.00337 3.30176 8.31688C2.75951 7.57322 3.02073 6.70696 3.36407 6.12089C3.72663 5.50202 4.31766 4.92418 4.95233 4.50099C5.57717 4.08436 6.34644 3.75 7.08877 3.75C7.50298 3.75 7.83877 4.08579 7.83877 4.5C7.83877 4.91421 7.50298 5.25 7.08877 5.25C6.76104 5.25 6.28444 5.41564 5.78447 5.74901C5.29433 6.07582 4.88161 6.49798 4.65833 6.87911C4.41584 7.29304 4.50915 7.42678 4.51377 7.43312C4.56008 7.49663 4.85362 7.75 5.94868 7.75H20.1998C19.9284 5.59894 18.5638 3.78741 16.6775 2.89131C16.3033 2.71358 16.1441 2.26619 16.3218 1.89205Z" fill="#26272B"/>
</svg>
