<svg width="24" height="24" viewBox="0 0 24 24" fill="none" xmlns="http://www.w3.org/2000/svg">
<path fill-rule="evenodd" clip-rule="evenodd" d="M12.2841 1.28183C12.6808 1.1628 13.0989 1.38794 13.218 1.78469C14.0495 4.55637 13.2533 6.61764 12.076 8.06074C11.9762 8.18306 11.8735 8.30104 11.7688 8.41475C12.3049 8.21281 12.8544 7.97215 13.3906 7.68945C15.2701 6.69847 16.8377 5.27332 17.2679 3.3375C17.3577 2.93315 17.7583 2.6782 18.1627 2.76806C18.567 2.85791 18.822 3.25855 18.7321 3.6629C18.243 5.86383 16.6792 7.43675 14.9537 8.51961C16.8649 9.18289 18.2777 10.1876 19.1687 11.9418C20.2071 13.9861 20.4699 16.9393 20.2866 21.2502H21.5C21.9142 21.2502 22.25 21.586 22.25 22.0002C22.25 22.4144 21.9142 22.7502 21.5 22.7502H19.5C19.2942 22.7502 19.0975 22.6657 18.9559 22.5164C18.8143 22.3671 18.7402 22.1662 18.751 21.9608C19.0014 17.2041 18.7307 14.3919 17.8313 12.6211C17.001 10.9865 15.569 10.1288 13.0234 9.52555C12.5753 9.71886 12.1286 9.88744 11.6947 10.0329C12.0882 10.172 12.4906 10.3497 12.8826 10.5787C14.0838 11.2805 15.1608 12.4504 15.6069 14.3682C16.0022 16.0678 15.8897 18.301 15.0212 21.2502H15.9996C16.4138 21.2502 16.7496 21.586 16.7496 22.0002C16.7496 22.4144 16.4138 22.7502 15.9996 22.7502H13.9994C13.7583 22.7502 13.5319 22.6343 13.3909 22.4387C13.25 22.2431 13.2116 21.9917 13.2879 21.763C14.3898 18.4576 14.4973 16.2191 14.1459 14.708C13.8022 13.2304 13.0066 12.3884 12.1259 11.8738C11.2176 11.3432 10.1938 11.1479 9.40737 11.0451C9.29216 11.03 9.1696 11.0157 9.04935 11.0017C8.81201 10.9741 8.58369 10.9475 8.43874 10.9179C8.37543 10.9049 8.28657 10.8841 8.19648 10.8479C8.13832 10.8245 7.91717 10.7349 7.77555 10.4965C7.69076 10.3538 7.64943 10.1815 7.67043 10.0028C7.68978 9.83808 7.75633 9.71452 7.80893 9.63825C7.9046 9.49951 8.02576 9.41455 8.08337 9.37615C8.18977 9.30522 8.31249 9.22766 8.44755 9.14232C9.12754 8.71263 10.12 8.08551 10.9137 7.11253C11.8229 5.998 12.4497 4.44402 11.7812 2.21571C11.6622 1.81896 11.8873 1.40085 12.2841 1.28183ZM6 5.2502C5.30964 5.2502 4.75 5.80984 4.75 6.5002C4.75 7.19055 5.30964 7.7502 6 7.7502C6.69036 7.7502 7.25 7.19055 7.25 6.5002C7.25 5.80984 6.69036 5.2502 6 5.2502ZM3.25 6.5002C3.25 4.98142 4.48122 3.7502 6 3.7502C7.51878 3.7502 8.75 4.98141 8.75 6.5002C8.75 8.01898 7.51878 9.2502 6 9.2502C4.48122 9.2502 3.25 8.01898 3.25 6.5002Z" fill="#26272B"/>
</svg>
