<svg width="24" height="24" viewBox="0 0 24 24" fill="none" xmlns="http://www.w3.org/2000/svg">
<path fill-rule="evenodd" clip-rule="evenodd" d="M12.0001 2.75C11.3097 2.75001 10.75 3.30969 10.75 4.00006C10.75 4.6904 11.3096 5.25001 11.9999 5.25C12.6903 5.24999 13.25 4.69031 13.25 3.99994C13.25 3.3096 12.6904 2.74999 12.0001 2.75ZM9.25 4.00002C9.25003 2.48125 10.4813 1.25003 12 1.25C13.5188 1.24997 14.75 2.48118 14.75 3.99997C14.75 5.51874 13.5187 6.74997 12 6.75C10.4812 6.75003 9.24997 5.51882 9.25 4.00002ZM6.75159 8.82721C8.21027 7.78538 10.1187 7.25015 11.9999 7.25C13.8812 7.24985 15.7897 7.78514 17.2484 8.82708C18.5359 9.7467 19.4828 11.074 19.7018 12.75H20.75V11.75C20.75 11.3358 21.0858 11 21.5 11C21.9142 11 22.25 11.3358 22.25 11.75V15.25C22.25 15.6642 21.9142 16 21.5 16C21.0858 16 20.75 15.6642 20.75 15.25V14.25H14.3604C14.4696 16.4841 14.6871 18.8895 15.1199 21.2503H16.5C16.9142 21.2503 17.25 21.586 17.25 22.0003C17.25 22.4145 16.9142 22.7503 16.5 22.7503H14.5C14.1425 22.7503 13.8347 22.4979 13.7646 22.1473C13.2317 19.4829 12.9787 16.7492 12.8586 14.25H11.1414C11.0213 16.7492 10.7683 19.4829 10.2354 22.1473C10.1653 22.4979 9.85751 22.7503 9.5 22.7503H7.5C7.08579 22.7503 6.75 22.4145 6.75 22.0003C6.75 21.586 7.08579 21.2503 7.5 21.2503H8.88007C9.31287 18.8895 9.53035 16.4841 9.63963 14.25H3.25V15.25C3.25 15.6642 2.91421 16 2.5 16C2.08579 16 1.75 15.6642 1.75 15.25V11.75C1.75 11.3358 2.08579 11 2.5 11C2.91421 11 3.25 11.3358 3.25 11.75V12.75H4.29815C4.51712 11.0739 5.46413 9.74676 6.75159 8.82721ZM5.8162 12.75H9.69881C9.73954 11.4159 9.74787 10.1671 9.74956 9.05566C8.96228 9.27605 8.23448 9.61139 7.6234 10.0478C6.67594 10.7245 6.019 11.6321 5.8162 12.75ZM11.2499 8.78326C11.2491 9.9501 11.2434 11.2952 11.1997 12.75H12.8003C12.7565 11.2951 12.7509 9.95001 12.7501 8.78315C12.5017 8.76115 12.2512 8.74998 12.0001 8.75C11.7488 8.75002 11.4983 8.76123 11.2499 8.78326ZM14.2504 9.05545C14.2521 10.1669 14.2605 11.4158 14.3012 12.75H18.1838C17.981 11.6321 17.324 10.7244 16.3766 10.0477C15.7655 9.61118 15.0377 9.27582 14.2504 9.05545Z" fill="#26272B"/>
</svg>
