<svg width="24" height="24" viewBox="0 0 24 24" fill="none" xmlns="http://www.w3.org/2000/svg">
<path fill-rule="evenodd" clip-rule="evenodd" d="M1.90705 0.755871C2.31807 0.704494 2.69291 0.996038 2.74429 1.40705L2.90426 2.6868C2.92841 2.68377 2.9534 2.68068 2.97924 2.67751C3.37264 2.62934 3.96122 2.56579 4.75277 2.50247C6.33588 2.37582 8.73085 2.25008 12.0001 2.25008C15.2693 2.25008 17.6643 2.37582 19.2474 2.50247C20.0389 2.56579 20.6275 2.62934 21.0209 2.67751C21.0468 2.68068 21.0717 2.68377 21.0959 2.6868L21.2559 1.40705C21.3072 0.996038 21.6821 0.704494 22.0931 0.755871C22.5041 0.807247 22.7957 1.18209 22.7443 1.59311L22.2443 5.59311C22.1929 6.00412 21.8181 6.29566 21.4071 6.24429C20.996 6.19291 20.7045 5.81807 20.7559 5.40705L20.9098 4.17522C20.887 4.17235 20.8632 4.16941 20.8386 4.16639C20.5748 4.13409 20.2128 4.09382 19.7499 4.05114C19.7357 5.97589 18.9207 8.22982 17.6027 10.009C16.7304 11.1867 15.5902 12.2164 14.2501 12.7839V15.5072C14.6468 15.2472 15.0419 15.024 15.4192 14.8551C15.8036 14.6831 16.2031 14.552 16.5874 14.512C16.9695 14.4722 17.4133 14.5161 17.7914 14.7901C18.1827 15.0735 18.3691 15.5045 18.4256 15.9568C18.4806 16.3975 18.4221 16.9119 18.2796 17.4869C18.0458 18.4302 17.5521 19.6661 16.7445 21.2501H17.5001C17.9143 21.2501 18.2501 21.5859 18.2501 22.0001C18.2501 22.4143 17.9143 22.7501 17.5001 22.7501H15.5001C15.2354 22.7501 14.9903 22.6105 14.8552 22.3829C14.72 22.1553 14.7149 21.8733 14.8416 21.641C15.9823 19.5496 16.5841 18.0923 16.8236 17.126C16.9438 16.6413 16.9603 16.328 16.9371 16.1426C16.9278 16.068 16.9142 16.0266 16.9049 16.0059C16.8819 16.0008 16.8323 15.9946 16.7428 16.0039C16.5737 16.0215 16.3354 16.0885 16.032 16.2243C15.428 16.4946 14.699 16.9772 13.9802 17.5762C13.7567 17.7625 13.4455 17.8027 13.182 17.6793C12.9184 17.5558 12.7501 17.2911 12.7501 17.0001V13.1995C12.5048 13.2327 12.2547 13.2501 12.0001 13.2501C11.7454 13.2501 11.4953 13.2327 11.2501 13.1995V17.0001C11.2501 17.2911 11.0817 17.5558 10.8182 17.6793C10.5547 17.8027 10.2435 17.7625 10.0199 17.5762C9.30113 16.9772 8.57212 16.4946 7.96817 16.2243C7.6648 16.0885 7.42649 16.0215 7.2574 16.0039C7.16788 15.9946 7.11823 16.0008 7.09521 16.0059C7.08595 16.0266 7.07234 16.068 7.06302 16.1426C7.03987 16.328 7.05637 16.6413 7.17652 17.126C7.41604 18.0923 8.01784 19.5496 9.15851 21.641C9.28526 21.8733 9.28012 22.1553 9.145 22.3829C9.00988 22.6105 8.76478 22.7501 8.50008 22.7501H6.50008C6.08587 22.7501 5.75008 22.4143 5.75008 22.0001C5.75008 21.5859 6.08587 21.2501 6.50008 21.2501H7.25564C6.44806 19.6661 5.95439 18.4302 5.72058 17.4869C5.57806 16.9119 5.51953 16.3975 5.57458 15.9568C5.63105 15.5045 5.81743 15.0735 6.20871 14.7901C6.58689 14.5161 7.03069 14.4722 7.41272 14.512C7.79705 14.552 8.19655 14.6831 8.58097 14.8551C8.95824 15.024 9.3534 15.2472 9.75008 15.5072V12.7839C8.40997 12.2164 7.26975 11.1867 6.39741 10.009C5.0795 8.22982 4.26448 5.97589 4.25027 4.05114C3.78733 4.09382 3.42535 4.13409 3.16155 4.16639C3.13695 4.16941 3.1132 4.17235 3.09031 4.17522L3.24429 5.40705C3.29566 5.81807 3.00412 6.19291 2.5931 6.24429C2.18209 6.29566 1.80725 6.00412 1.75587 5.59311L1.25587 1.59311C1.20449 1.18209 1.49604 0.807247 1.90705 0.755871ZM5.74722 3.93415C5.74911 3.95588 5.75008 3.97787 5.75008 4.00008C5.75008 5.56423 6.43233 7.53609 7.60275 9.11616C8.77549 10.6994 10.3281 11.7501 12.0001 11.7501C13.672 11.7501 15.2247 10.6994 16.3974 9.11616C17.5678 7.53609 18.2501 5.56423 18.2501 4.00008C18.2501 3.97787 18.251 3.95588 18.2529 3.93416C16.7437 3.83502 14.6712 3.75008 12.0001 3.75008C9.32898 3.75008 7.25648 3.83502 5.74722 3.93415ZM7.10538 15.9886C7.10553 15.9888 7.10432 15.9908 7.10129 15.994C7.10371 15.99 7.10523 15.9883 7.10538 15.9886ZM7.07979 16.0104C7.07927 16.0107 7.079 16.0108 7.07899 16.0108ZM16.9212 16.0108C16.9212 16.0108 16.9209 16.0107 16.9204 16.0104ZM16.8989 15.994C16.8958 15.9908 16.8946 15.9888 16.8948 15.9886C16.8949 15.9883 16.8964 15.9899 16.8989 15.994ZM11.9533 6.69051C11.2629 6.69052 10.7032 7.2502 10.7032 7.94056C10.7032 8.63091 11.2628 9.19052 11.9531 9.19051C12.6435 9.19049 13.2032 8.63082 13.2032 7.94045C13.2032 7.25011 12.6436 6.69049 11.9533 6.69051ZM9.2032 7.94053C9.20324 6.42176 10.4345 5.19054 11.9532 5.19051C13.472 5.19048 14.7032 6.42169 14.7032 7.94048C14.7032 9.45925 13.472 10.6905 11.9532 10.6905C10.4344 10.6905 9.20317 9.45933 9.2032 7.94053Z" fill="#26272B"/>
</svg>
