<svg width="24" height="24" viewBox="0 0 24 24" fill="none" xmlns="http://www.w3.org/2000/svg">
<path fill-rule="evenodd" clip-rule="evenodd" d="M17 5.25C16.3096 5.25 15.75 5.80964 15.75 6.5C15.75 7.19036 16.3096 7.75 17 7.75C17.6904 7.75 18.25 7.19036 18.25 6.5C18.25 5.80964 17.6904 5.25 17 5.25ZM14.25 6.5C14.25 4.98122 15.4812 3.75 17 3.75C18.5188 3.75 19.75 4.98122 19.75 6.5C19.75 8.01878 18.5188 9.25 17 9.25C15.4812 9.25 14.25 8.01878 14.25 6.5ZM13.0165 7.00376C13.2116 7.11972 13.3436 7.31774 13.3757 7.54236C13.5114 8.49223 14.2937 9.54772 15.4546 10.397C16.6049 11.2386 17.9561 11.75 19 11.75C21.3472 11.75 23.25 13.6528 23.25 16C23.25 18.3472 21.3472 20.25 19 20.25C16.6528 20.25 14.75 18.3472 14.75 16C14.75 14.6389 15.3899 13.4272 16.3852 12.6494C15.7466 12.3735 15.1277 12.0164 14.5689 11.6076C14.2225 11.3542 13.8872 11.0719 13.5773 10.7655C12.5485 11.1175 11.811 11.4637 11.139 11.989C11.3834 12.12 11.6133 12.2515 11.8211 12.3857C12.3766 12.7446 12.9042 13.202 13.1438 13.8727C13.389 14.5593 13.2748 15.3002 12.9303 16.0951C12.5878 16.8855 11.9793 17.8196 11.092 18.9605C10.8377 19.2874 10.3665 19.3463 10.0395 19.092C9.71258 18.8377 9.65368 18.3665 9.90799 18.0395C10.7707 16.9304 11.2872 16.1145 11.554 15.4987C11.8189 14.8873 11.7985 14.5657 11.7312 14.3773C11.6582 14.173 11.4671 13.9429 11.007 13.6456C10.6146 13.392 10.1219 13.1471 9.50775 12.8418C9.39732 12.7869 9.28296 12.73 9.16455 12.6708C8.37835 12.2777 7.73799 11.789 7.50528 11.1256C7.23943 10.3677 7.59553 9.70888 8.03883 9.2484C8.47919 8.79098 9.12859 8.3844 9.84985 8.01869C10.5838 7.64657 11.4505 7.2882 12.3718 6.9455C12.5844 6.86639 12.8215 6.88781 13.0165 7.00376ZM9.69198 11.255C10.5624 10.4436 11.4543 9.95418 12.5743 9.53178C12.3955 9.24747 12.2439 8.9517 12.1265 8.64686C11.5351 8.88271 10.9955 9.11959 10.5282 9.35655C9.8526 9.6991 9.38326 10.0147 9.11946 10.2887C8.99091 10.4222 8.94106 10.5156 8.92392 10.5652C8.91181 10.6003 8.91472 10.612 8.92072 10.6291C8.94743 10.7052 9.09797 10.9362 9.69198 11.255ZM19 13.25C17.4812 13.25 16.25 14.4812 16.25 16C16.25 17.5188 17.4812 18.75 19 18.75C20.5188 18.75 21.75 17.5188 21.75 16C21.75 14.4812 20.5188 13.25 19 13.25ZM5 13.25C3.48122 13.25 2.25 14.4812 2.25 16C2.25 17.5188 3.48122 18.75 5 18.75C6.51878 18.75 7.75 17.5188 7.75 16C7.75 14.4812 6.51878 13.25 5 13.25ZM0.75 16C0.75 13.6528 2.65279 11.75 5 11.75C7.34721 11.75 9.25 13.6528 9.25 16C9.25 18.3472 7.34721 20.25 5 20.25C2.65279 20.25 0.75 18.3472 0.75 16Z" fill="#26272B"/>
</svg>
