<svg width="24" height="24" viewBox="0 0 24 24" fill="none" xmlns="http://www.w3.org/2000/svg">
<path fill-rule="evenodd" clip-rule="evenodd" d="M13.9995 2.75C13.3092 2.75 12.7495 3.30964 12.7495 4C12.7495 4.69036 13.3092 5.25 13.9995 5.25C14.6899 5.25 15.2495 4.69036 15.2495 4C15.2495 3.30964 14.6899 2.75 13.9995 2.75ZM11.2495 4C11.2495 2.48122 12.4807 1.25 13.9995 1.25C15.5183 1.25 16.7495 2.48122 16.7495 4C16.7495 5.51878 15.5183 6.75 13.9995 6.75C12.4807 6.75 11.2495 5.51878 11.2495 4ZM9.29363 7.08952C9.21915 7.0757 9.16294 7.08956 9.11979 7.11723C8.54625 7.48509 7.98133 7.8801 7.51058 8.27516C7.02832 8.67989 6.69695 9.04211 6.53438 9.33509C6.38788 9.59911 6.4398 9.6727 6.45959 9.70075C6.46036 9.70185 6.46109 9.70288 6.46175 9.70385C6.53608 9.81239 6.81139 10.0464 7.61777 10.2562C8.22042 9.51602 9.06966 8.93454 9.74632 8.53993C10.0253 8.37721 10.2875 8.23919 10.5107 8.12841C10.1697 7.86212 9.84079 7.56242 9.53007 7.2251C9.46031 7.14938 9.37258 7.10416 9.29363 7.08952ZM11.7774 9.19701L11.7745 9.19823L11.7578 9.20509C11.7422 9.21154 11.718 9.22168 11.6861 9.23539C11.6224 9.26284 11.5281 9.30449 11.411 9.35934C11.1762 9.46937 10.8532 9.63087 10.502 9.83568C10.0925 10.0745 9.67524 10.3549 9.31717 10.662C9.60441 10.7314 9.86662 10.7986 10.0967 10.8673C10.7336 11.0576 11.3385 11.3137 11.7671 11.8376C12.1984 12.3646 12.3544 13.0417 12.3966 13.8434C12.4389 14.6463 12.3708 15.6965 12.2462 17.0679C12.2087 17.4804 11.8439 17.7844 11.4314 17.7469C11.0188 17.7094 10.7148 17.3446 10.7523 16.9321C10.8777 15.5535 10.9346 14.6037 10.8987 13.9222C10.8628 13.2395 10.7375 12.9479 10.6062 12.7874C10.4723 12.6238 10.2335 12.4737 9.66734 12.3046C9.32148 12.2013 8.9313 12.1105 8.45173 11.999C8.12104 11.922 7.74783 11.8352 7.31735 11.7276C6.37624 11.4923 5.62393 11.1352 5.22413 10.5514C4.76568 9.8819 4.91564 9.16081 5.22276 8.6073C5.51955 8.07243 6.01895 7.56875 6.54632 7.12617C7.0852 6.67393 7.70875 6.24023 8.30997 5.85462C9.11407 5.33888 10.0839 5.61241 10.6333 6.20883C12.9484 8.72208 16.5789 8.75 17.9995 8.75C20.3467 8.75 22.2495 10.6528 22.2495 13C22.2495 14.1811 21.7678 15.2496 20.99 16.0198L21.784 15.7816C22.1807 15.6626 22.5989 15.8877 22.7179 16.2845C22.8369 16.6812 22.6118 17.0993 22.215 17.2184L2.21502 23.2184C1.81828 23.3374 1.40017 23.1123 1.28114 22.7155C1.16212 22.3188 1.38726 21.9007 1.784 21.7816L4.74749 20.8926C2.64845 20.6335 1.02344 18.8439 1.02344 16.6748C1.02344 14.3276 2.92623 12.4248 5.27344 12.4248C7.62065 12.4248 9.52344 14.3276 9.52344 16.6748C9.52344 17.9686 8.94535 19.1273 8.03338 19.9068L17.1635 17.1678C15.2166 16.7794 13.7495 15.061 13.7495 13C13.7495 11.8385 14.2154 10.7859 14.9705 10.0188C14.0342 9.85092 13.0012 9.56123 11.9974 9.06136C11.9344 9.11737 11.8608 9.16363 11.778 9.1968C11.7779 9.19684 11.7778 9.19688 11.7777 9.19692L11.7774 9.19701ZM17.9989 10.25C16.4804 10.2503 15.2495 11.4814 15.2495 13C15.2495 14.5188 16.4807 15.75 17.9995 15.75C19.5183 15.75 20.7495 14.5188 20.7495 13C20.7495 11.4812 19.5183 10.25 17.9995 10.25C17.9993 10.25 17.9991 10.25 17.9989 10.25ZM5.27344 13.9248C3.75465 13.9248 2.52344 15.156 2.52344 16.6748C2.52344 18.1936 3.75465 19.4248 5.27344 19.4248C6.79222 19.4248 8.02344 18.1936 8.02344 16.6748C8.02344 15.156 6.79222 13.9248 5.27344 13.9248ZM22.7179 20.2845C22.8369 20.6812 22.6118 21.0993 22.215 21.2184L16.965 22.7934C16.5683 22.9124 16.1502 22.6873 16.0311 22.2905C15.9121 21.8938 16.1373 21.4757 16.534 21.3566L21.784 19.7816C22.1807 19.6626 22.5989 19.8877 22.7179 20.2845Z" fill="#26272B"/>
</svg>
