<svg width="24" height="24" viewBox="0 0 24 24" fill="none" xmlns="http://www.w3.org/2000/svg">
<path fill-rule="evenodd" clip-rule="evenodd" d="M10.0001 2.75C9.30969 2.75001 8.75002 3.30969 8.75 4.00006C8.74999 4.6904 9.3096 5.25001 9.99995 5.25C10.6903 5.24999 11.25 4.69031 11.25 3.99994C11.25 3.3096 10.6904 2.74999 10.0001 2.75ZM7.25 4.00002C7.25003 2.48125 8.48126 1.25003 10 1.25C11.5188 1.24997 12.75 2.48118 12.75 3.99997C12.75 5.51874 11.5188 6.74997 9.99998 6.75C8.48118 6.75003 7.24997 5.51882 7.25 4.00002ZM16.75 4.5C16.75 3.25736 17.7574 2.25 19 2.25C20.2426 2.25 21.25 3.25736 21.25 4.5V15.5C21.25 16.4797 20.6239 17.3131 19.75 17.622V19.25H20.5C21.7426 19.25 22.75 20.2574 22.75 21.5V22C22.75 22.4142 22.4142 22.75 22 22.75H16C15.5858 22.75 15.25 22.4142 15.25 22V21.5C15.25 20.2574 16.2574 19.25 17.5 19.25H18.25V17.622C17.3761 17.3131 16.75 16.4797 16.75 15.5V4.5ZM17.5 20.75C17.1734 20.75 16.8956 20.9587 16.7927 21.25H21.2073C21.1044 20.9587 20.8266 20.75 20.5 20.75H17.5ZM19 3.75C18.5858 3.75 18.25 4.08579 18.25 4.5V15.5C18.25 15.9142 18.5858 16.25 19 16.25C19.4142 16.25 19.75 15.9142 19.75 15.5V4.5C19.75 4.08579 19.4142 3.75 19 3.75ZM6.89337 6.80884C7.12717 6.4874 7.57113 6.40418 7.90547 6.61912C9.46929 7.62446 11.2878 7.80887 12.7673 7.7201C13.5009 7.67608 14.1328 7.56586 14.5798 7.46694C14.8028 7.41759 14.9784 7.37136 15.096 7.3382C15.1547 7.32164 15.1989 7.30837 15.2271 7.29966L15.2573 7.29018L15.2625 7.28849C15.6553 7.15779 16.0802 7.37001 16.2112 7.76282C16.3422 8.15578 16.1298 8.58052 15.7369 8.71151L15.4997 8C15.7369 8.71151 15.7371 8.71142 15.7369 8.71151L15.7357 8.7119L15.7341 8.71242L15.7297 8.71386L15.7161 8.71829C15.7048 8.72192 15.6892 8.72685 15.6695 8.73293C15.6301 8.74509 15.5742 8.76186 15.503 8.78191C15.3608 8.822 15.1575 8.87538 14.904 8.9315C14.3978 9.04351 13.6861 9.16767 12.8572 9.2174C11.8895 9.27546 10.7365 9.23346 9.55704 8.93586C9.68543 9.09135 9.80812 9.235 9.92651 9.36753C9.94047 9.38316 9.95433 9.39858 9.9681 9.41381C10.0279 9.46145 10.079 9.51721 10.1206 9.57865C10.5251 10.005 10.8426 10.2489 11.1297 10.3829C11.7275 10.6618 12.4237 10.5739 14.2046 9.81064C14.5853 9.64747 15.0262 9.82384 15.1894 10.2046C15.3525 10.5853 15.1762 11.0262 14.7954 11.1894C13.0763 11.9261 11.7725 12.3382 10.4953 11.7421C10.2241 11.6155 9.96718 11.4495 9.7171 11.2497C9.39715 11.894 9.00609 12.6735 8.52871 13.576C9.53782 14.3616 10.227 15.3754 10.6198 16.58C11.0665 17.9499 11.1187 19.5295 10.8824 21.25H12.0005C12.4147 21.25 12.7505 21.5858 12.7505 22C12.7505 22.4142 12.4147 22.75 12.0005 22.75H10.0005C9.77738 22.75 9.56585 22.6507 9.42336 22.479C9.28087 22.3073 9.22222 22.0811 9.26334 21.8618C9.62591 19.928 9.60868 18.3175 9.19372 17.045C8.92102 16.2088 8.47022 15.497 7.80204 14.9193C6.82109 16.6926 5.55482 18.8243 3.92208 21.25H4.5C4.91422 21.25 5.25 21.5858 5.25 22C5.25 22.4142 4.91422 22.75 4.5 22.75H2.5C2.22074 22.75 1.9646 22.5948 1.83528 22.3473C1.70595 22.0998 1.72485 21.8009 1.88432 21.5717C3.90833 18.6622 5.41481 16.142 6.53777 14.1058C5.78018 13.7084 5.21189 13.2352 4.87869 12.647C4.51414 12.0036 4.48697 11.323 4.64593 10.6671C4.7995 10.0335 5.13161 9.39732 5.52075 8.77716C5.89368 8.1828 6.35235 7.55242 6.82232 6.9065C6.84598 6.87398 6.86966 6.84143 6.89337 6.80884ZM7.24984 12.7854C7.79101 11.7592 8.21875 10.8955 8.55749 10.2116C8.5715 10.1833 8.58537 10.1553 8.59908 10.1276C8.24115 9.70854 7.85401 9.21232 7.42066 8.64112C7.18936 8.96768 6.97776 9.2773 6.79133 9.57441C6.43045 10.1496 6.20009 10.6228 6.10373 11.0204C6.01276 11.3957 6.0482 11.6683 6.18379 11.9077C6.32595 12.1586 6.62908 12.4623 7.24984 12.7854Z" fill="#26272B"/>
</svg>
