<svg width="24" height="24" viewBox="0 0 24 24" fill="none" xmlns="http://www.w3.org/2000/svg">
<path fill-rule="evenodd" clip-rule="evenodd" d="M20.5 7.25C19.8097 7.25 19.25 7.80964 19.25 8.5C19.25 9.19036 19.8097 9.75 20.5 9.75C21.1904 9.75 21.75 9.19036 21.75 8.5C21.75 7.80964 21.1904 7.25 20.5 7.25ZM17.75 8.5C17.75 6.98122 18.9813 5.75 20.5 5.75C22.0188 5.75 23.25 6.98122 23.25 8.5C23.25 10.0188 22.0188 11.25 20.5 11.25C18.9813 11.25 17.75 10.0188 17.75 8.5ZM15.0497 6.72587C15.83 6.98593 16.3466 7.51595 16.6709 8.16455C16.7799 8.38262 16.8538 8.66758 16.9099 8.93924C16.9696 9.22877 17.0223 9.5726 17.0686 9.94701C17.1613 10.697 17.2329 11.6066 17.2803 12.5238C17.349 13.8518 17.3707 15.2624 17.3212 16.25H18.0001C18.4143 16.25 18.7501 16.5858 18.7501 17C18.7501 17.4142 18.4143 17.75 18.0001 17.75H16.5C16.2796 17.75 16.0703 17.653 15.9278 17.4848C15.7853 17.3166 15.724 17.0942 15.7603 16.8767C15.8698 16.2194 15.8766 14.424 15.7823 12.6013C15.7665 12.2958 15.748 11.993 15.7271 11.6988C15.6778 11.6794 15.6298 11.6546 15.584 11.624C14.4027 10.8364 12.4587 10.8178 11.2242 12.2935C11.248 12.5839 11.2774 12.8761 11.308 13.1674C11.3169 13.2524 11.326 13.3376 11.335 13.4227C11.3756 13.8036 11.416 14.1839 11.4434 14.5378C11.4768 14.9694 11.494 15.398 11.4636 15.7813C11.4343 16.1503 11.355 16.5696 11.1241 16.916C10.8697 17.2975 10.4875 17.5019 10.1207 17.6081C9.75662 17.7135 9.35346 17.7393 8.95943 17.7261C8.17058 17.6999 7.2617 17.5106 6.43006 17.2867C5.58944 17.0604 4.78623 16.7871 4.1961 16.5718C3.96782 16.4885 3.77026 16.4134 3.61335 16.3525L1.95004 17.6C1.61867 17.8485 1.14857 17.7814 0.900044 17.45C0.651516 17.1186 0.718673 16.6485 1.05004 16.4L3.05004 14.9C3.26246 14.7407 3.54328 14.7056 3.78839 14.8076C3.78843 14.8077 3.78835 14.8076 3.78839 14.8076L3.79136 14.8089L3.80271 14.8136L3.84985 14.8328C3.89181 14.8499 3.95436 14.875 4.03481 14.9067C4.19579 14.9702 4.42804 15.0597 4.71024 15.1626C5.27636 15.3692 6.03565 15.6271 6.82002 15.8383C7.61339 16.0519 8.39201 16.2064 9.00941 16.227C9.3185 16.2373 9.54815 16.2123 9.70361 16.1673C9.77846 16.1456 9.82371 16.1228 9.84871 16.1066C9.86079 16.0988 9.86767 16.0928 9.87115 16.0894C9.87448 16.0862 9.87567 16.0845 9.87601 16.084C9.89507 16.0554 9.94609 15.9421 9.9683 15.6625C9.98938 15.3972 9.97942 15.0611 9.94788 14.6535C9.92232 14.3233 9.88474 13.9699 9.84438 13.5902C9.8351 13.5029 9.82567 13.4142 9.8162 13.3241C9.7663 12.849 9.71644 12.343 9.68937 11.8368C9.63619 10.8426 9.66394 9.75892 10.0095 8.83642C10.3747 7.8614 11.0939 7.07853 12.3181 6.7724C13.3911 6.50409 14.2997 6.47587 15.0497 6.72587ZM11.2046 10.3292C12.5862 9.4486 14.2372 9.41687 15.5539 9.92991C15.5179 9.66345 15.4799 9.43194 15.4408 9.24233C15.3885 8.98858 15.3452 8.86727 15.3292 8.83531C15.1535 8.48381 14.9201 8.26381 14.5754 8.1489C14.2004 8.02392 13.609 7.99579 12.682 8.2276C11.9906 8.4005 11.6269 8.79465 11.4142 9.36257C11.3084 9.64492 11.2414 9.96968 11.2046 10.3292Z" fill="#26272B"/>
</svg>
