<svg width="24" height="24" viewBox="0 0 24 24" fill="none" xmlns="http://www.w3.org/2000/svg">
<path fill-rule="evenodd" clip-rule="evenodd" d="M20.5 6.25C19.8097 6.25 19.25 6.80964 19.25 7.5C19.25 8.19036 19.8097 8.75 20.5 8.75C21.1904 8.75 21.75 8.19036 21.75 7.5C21.75 6.80964 21.1904 6.25 20.5 6.25ZM17.75 7.5C17.75 5.98122 18.9813 4.75 20.5 4.75C22.0188 4.75 23.25 5.98122 23.25 7.5C23.25 9.01878 22.0188 10.25 20.5 10.25C18.9813 10.25 17.75 9.01878 17.75 7.5ZM17.8225 17.25H18.6272C19.0414 17.25 19.3772 17.5858 19.3772 18C19.3772 18.4142 19.0414 18.75 18.6272 18.75H17C16.7783 18.75 16.568 18.6519 16.4255 18.4821C16.283 18.3122 16.2229 18.088 16.2615 17.8697C16.3162 17.5596 16.3518 16.8539 16.3475 15.9277C16.3437 15.0935 16.3081 14.1289 16.2377 13.2115C14.9048 14.1883 13.319 14.5809 11.7065 14.3909C11.7074 14.924 11.7043 15.4832 11.6629 15.9949C11.61 16.6482 11.4873 17.3711 11.1241 17.916C10.8697 18.2975 10.4875 18.5019 10.1207 18.6081C9.75664 18.7135 9.35348 18.7393 8.95945 18.7262C8.1706 18.6999 7.26172 18.5107 6.43009 18.2868C5.58946 18.0605 4.78625 17.7872 4.19612 17.5719C3.96784 17.4886 3.77027 17.4136 3.61336 17.3527L1.95004 18.6002C1.61867 18.8487 1.14857 18.7816 0.900044 18.4502C0.651516 18.1188 0.718673 17.6487 1.05004 17.4002L3.05004 15.9002C3.26246 15.7409 3.54327 15.7058 3.78837 15.8078C3.78841 15.8079 3.78833 15.8078 3.78837 15.8078L3.79134 15.8091L3.80269 15.8138L3.84983 15.833C3.89179 15.85 3.95434 15.8752 4.03479 15.9069C4.19577 15.9704 4.42802 16.0598 4.71022 16.1628C5.27634 16.3693 6.03563 16.6272 6.82 16.8384C7.61337 17.052 8.39199 17.2064 9.00939 17.227C9.31848 17.2373 9.54813 17.2123 9.7036 17.1673C9.77844 17.1456 9.8237 17.1228 9.84871 17.1066C9.86078 17.0988 9.86767 17.0928 9.87114 17.0894C9.87448 17.0862 9.87567 17.0845 9.87601 17.084C10.0128 16.8789 10.1179 16.4902 10.1677 15.8739C10.2086 15.3688 10.2074 14.8094 10.206 14.2173C10.2058 14.1109 10.2056 14.0034 10.2056 13.895C10.2056 13.2118 10.215 12.48 10.324 11.8624C10.4264 11.2821 10.6562 10.5557 11.3082 10.1861C12.0411 9.77059 12.5807 9.75682 13.0167 9.74569C13.0959 9.74367 13.1717 9.74173 13.2447 9.73749C13.6596 9.71336 14.2644 9.62797 15.522 8.91813C15.7165 8.79283 15.9815 8.70863 16.2798 8.77828C16.57 8.84605 16.7611 9.03067 16.8716 9.16977C17.0834 9.43628 17.2134 9.8069 17.304 10.1383C17.4965 10.8425 17.6279 11.8338 17.7135 12.8511C17.8001 13.88 17.8432 14.9792 17.8475 15.9208C17.8497 16.4021 17.842 16.8585 17.8225 17.25ZM11.7244 12.8804C13.2893 13.112 14.7986 12.6408 15.9697 11.4697C15.9911 11.4483 16.0135 11.4285 16.0366 11.4102C15.9829 11.0717 15.9229 10.7746 15.8571 10.5339C15.8496 10.5063 15.8421 10.4799 15.8346 10.4548C14.667 11.0608 13.9411 11.1995 13.3318 11.235C13.2088 11.2421 13.1035 11.2456 13.0101 11.2488C12.6266 11.2616 12.4417 11.2678 12.0479 11.491C12.0219 11.5057 11.8905 11.6166 11.8012 12.123C11.7618 12.3463 11.7382 12.6002 11.7244 12.8804Z" fill="#26272B"/>
</svg>
