<svg width="24" height="24" viewBox="0 0 24 24" fill="none" xmlns="http://www.w3.org/2000/svg">
<path fill-rule="evenodd" clip-rule="evenodd" d="M9.00006 2.75C8.30969 2.75001 7.75002 3.30969 7.75 4.00006C7.74999 4.6904 8.3096 5.25001 8.99995 5.25C9.69031 5.24999 10.25 4.69031 10.25 3.99994C10.25 3.3096 9.6904 2.74999 9.00006 2.75ZM6.25 4.00003C6.25003 2.48125 7.48126 1.25003 9.00003 1.25C10.5188 1.24997 11.75 2.48118 11.75 3.99997C11.75 5.51874 10.5187 6.74997 8.99998 6.75C7.48118 6.75003 6.24997 5.51882 6.25 4.00003ZM14.5 3.75C14.9143 3.75 15.25 4.08579 15.25 4.5C15.25 5.17483 15.0022 5.8672 14.6512 6.48144C14.2954 7.10409 13.8036 7.69954 13.2439 8.18927C12.6099 8.74391 11.7843 9.2432 10.9165 9.40013C10.9569 9.65034 10.9744 9.91397 10.9766 10.1808C10.9802 10.6125 10.9436 11.0952 10.8742 11.6131C11.8419 10.7771 12.6526 10.1791 13.3146 9.84021C13.6849 9.65063 14.0688 9.51021 14.4444 9.49208C14.8537 9.47234 15.2602 9.60121 15.5606 9.93923C15.8303 10.2426 15.9391 10.632 15.9828 10.9876C16.0278 11.354 16.0145 11.7753 15.9643 12.2305C15.8878 12.9261 15.7167 13.7727 15.4721 14.75H16.5002C16.9144 14.75 17.2502 15.0858 17.2502 15.5C17.2502 15.9142 16.9144 16.25 16.5002 16.25H17.75V12C17.75 11.5858 18.0858 11.25 18.5 11.25H22.5C22.9143 11.25 23.25 11.5858 23.25 12C23.25 12.4142 22.9143 12.75 22.5 12.75H19.25V17C19.25 17.4142 18.9143 17.75 18.5 17.75H14.25V22C14.25 22.4142 13.9143 22.75 13.5 22.75C13.0858 22.75 12.75 22.4142 12.75 22V17C12.75 16.5858 13.0858 16.25 13.5 16.25H14.5002C14.2664 16.25 14.046 16.141 13.9041 15.9553C13.7623 15.7695 13.7151 15.5282 13.7766 15.3027C14.149 13.9372 14.3862 12.8579 14.4734 12.0664C14.517 11.67 14.5193 11.3764 14.494 11.1706C14.4842 11.0909 14.4715 11.035 14.4605 10.9974C14.3735 11.0133 14.2242 11.0597 13.9981 11.1754C13.4308 11.4658 12.6145 12.0685 11.4985 13.0605C11.1163 13.4003 10.7549 13.6939 10.4133 13.9388C9.81782 16.3183 8.81227 19.0611 7.73661 21.2499H8.50004C8.91426 21.2499 9.25004 21.5857 9.25004 21.9999C9.25004 22.4141 8.91426 22.7499 8.50004 22.7499H6.50004C6.2343 22.7499 5.9884 22.6093 5.85364 22.3802C5.71888 22.1512 5.71537 21.868 5.84443 21.6357C6.87776 19.7757 7.92059 17.1904 8.62355 14.801C8.62039 14.8015 8.61724 14.802 8.61408 14.8026C8.18145 14.8737 7.74727 14.8133 7.37948 14.5557C7.02595 14.308 6.83005 13.945 6.72182 13.5988C6.51267 12.9297 6.55149 12.07 6.67233 11.2638C6.74624 10.7708 6.8572 10.259 6.98944 9.76137C6.73251 9.88987 6.47047 10.037 6.20729 10.1999C4.96239 10.9705 3.7861 12.0349 3.10007 12.9497C2.85157 13.2811 2.38147 13.3483 2.05008 13.0998C1.7187 12.8513 1.65151 12.3812 1.90002 12.0498C2.71399 10.9643 4.0377 9.77879 5.4178 8.9245C6.11097 8.49542 6.84169 8.13525 7.55229 7.91592C8.2539 7.69937 8.99769 7.60107 9.68183 7.77199C9.80048 7.80163 9.90888 7.84391 10.0077 7.89628C10.5788 8.06435 11.4038 7.8061 12.2562 7.06036C12.6964 6.67518 13.0797 6.20822 13.3489 5.73719C13.6229 5.25775 13.75 4.82517 13.75 4.5C13.75 4.08579 14.0858 3.75 14.5 3.75ZM9.25364 9.21295C9.10291 9.18365 8.92606 9.1766 8.72379 9.19565C8.72003 9.2095 8.71587 9.22332 8.71127 9.23709C8.4718 9.95579 8.26511 10.7568 8.15576 11.4862C8.04238 12.2425 8.05006 12.8203 8.1535 13.1512C8.19229 13.2753 8.22993 13.3172 8.23893 13.3259C8.25349 13.33 8.29213 13.3354 8.37078 13.3224C8.53303 13.2958 8.76955 13.2064 9.09192 13.0145C9.34584 11.8946 9.48269 10.9199 9.47663 10.1933C9.47308 9.76673 9.42007 9.48483 9.35367 9.32241C9.3371 9.2819 9.32291 9.25549 9.31218 9.23877C9.29264 9.23043 9.27312 9.22183 9.25364 9.21295ZM8.23181 13.3229C8.232 13.3227 8.23417 13.3233 8.23776 13.3256C8.23343 13.3243 8.23163 13.3232 8.23181 13.3229Z" fill="#26272B"/>
</svg>
