<svg width="24" height="24" viewBox="0 0 24 24" fill="none" xmlns="http://www.w3.org/2000/svg">
<g clip-path="url(#clip0_20060_895)">
<path fill-rule="evenodd" clip-rule="evenodd" d="M13.25 3.49997C13.25 1.98117 14.4812 0.749968 16 0.75C17.5188 0.750032 18.75 1.98126 18.75 3.50003C18.75 5.01882 17.5188 6.25003 16 6.25C14.4813 6.24997 13.25 5.01875 13.25 3.49997ZM16 2.25C15.3096 2.24999 14.75 2.80961 14.75 3.49994C14.75 4.19031 15.3097 4.74999 16.0001 4.75C16.6904 4.75001 17.25 4.1904 17.25 3.50006C17.25 2.80968 16.6903 2.25001 16 2.25ZM1.0005 4.44055C1.30947 4.16467 1.78359 4.19151 2.05946 4.50049L7.01595 10.0518C8.80796 9.10006 10.843 8.28268 12.6064 7.77876C13.726 7.45885 14.7814 7.25194 15.617 7.23435C16.0309 7.22564 16.4455 7.2616 16.8019 7.38989C17.1684 7.52182 17.5524 7.78535 17.7115 8.2629C17.8902 8.79919 17.8742 9.40299 17.7972 9.94221C17.7182 10.4949 17.5633 11.057 17.399 11.5499C17.3157 11.7997 17.2285 12.0363 17.1446 12.2504C17.2262 12.2527 17.3055 12.2554 17.3826 12.2586C17.8693 12.2788 18.3098 12.318 18.68 12.3996C19.0376 12.4785 19.4272 12.6167 19.7178 12.9074C20.0468 13.2364 20.1499 13.6563 20.111 14.0713C20.0754 14.4499 19.9224 14.8444 19.7241 15.2369C19.4499 15.7795 19.0219 16.4442 18.4587 17.25H19C19.4142 17.25 19.75 17.5858 19.75 18C19.75 18.0877 19.7349 18.1719 19.7073 18.2502H21.0004C21.1991 18.2502 21.3192 18.2043 21.4161 18.1461C21.5352 18.0747 21.6415 17.9735 21.8201 17.7949C22.113 17.502 22.5878 17.502 22.8807 17.7949C23.1736 18.0878 23.1736 18.5626 22.8807 18.8555C22.8745 18.8618 22.8681 18.8681 22.8618 18.8745C22.516 19.2206 21.9869 19.7502 21.0004 19.7502H12.7129C12.2987 19.7502 11.9629 19.4144 11.9629 19.0002C11.9629 18.586 12.2987 18.2502 12.7129 18.2502H16.293C16.2112 18.0193 16.247 17.7603 16.3935 17.5589C17.4001 16.1748 18.0501 15.2236 18.3853 14.5603C18.5464 14.2416 18.603 14.0492 18.616 13.9455C18.5735 13.9252 18.4942 13.8947 18.3571 13.8645C18.116 13.8113 17.7792 13.7763 17.3206 13.7573C16.9712 13.7429 16.5769 13.7383 16.1324 13.7382C16.0464 13.7537 15.9572 13.7543 15.8691 13.7386C15.6063 13.7394 15.3272 13.7413 15.0306 13.7434C14.5877 13.7464 14.106 13.7497 13.5822 13.75C13.4297 14.0843 13.2564 14.4264 13.0592 14.7753C11.9877 16.671 10.2332 18.7285 7.33846 20.8305C7.58264 20.9542 7.75001 21.2076 7.75001 21.5C7.75001 21.5879 7.73489 21.6722 7.70712 21.7506H10.2879C10.4866 21.7506 10.6067 21.7047 10.7036 21.6465C10.8227 21.575 10.929 21.4739 11.1076 21.2953C11.4005 21.0024 11.8753 21.0024 12.1682 21.2953C12.4611 21.5882 12.4611 22.063 12.1682 22.3559C12.162 22.3622 12.1556 22.3685 12.1493 22.3749C11.8035 22.721 11.2744 23.2506 10.2879 23.2506H2.0004C1.58619 23.2506 1.2504 22.9148 1.2504 22.5006C1.2504 22.0864 1.58619 21.7506 2.0004 21.7506H4.2931C4.288 21.7362 4.28332 21.7216 4.27907 21.7068C4.18683 21.3851 4.31878 21.0413 4.60251 20.864C8.51971 18.4157 10.6084 16.0629 11.7533 14.0372C12.8313 12.13 13.1025 10.4623 13.2314 9.16148C13.1611 9.18071 13.0902 9.20056 13.0186 9.22103C11.4553 9.66777 9.65778 10.3796 8.04643 11.2059L8.30946 11.5005C8.58533 11.8095 8.5585 12.2836 8.24952 12.5595C7.94054 12.8353 7.46643 12.8085 7.19055 12.4995L6.70056 11.9507C6.59799 12.0122 6.49693 12.0741 6.39751 12.1362C6.04626 12.3557 5.58354 12.2489 5.36401 11.8977C5.14448 11.5464 5.25125 11.0837 5.60251 10.8642C5.62982 10.8471 5.65725 10.8301 5.68478 10.8131L0.940554 5.49951C0.664681 5.19053 0.691518 4.71642 1.0005 4.44055ZM14.7299 8.8267C14.7482 8.90364 14.7545 8.9848 14.7469 9.0679C14.6682 9.93379 14.5392 11.0157 14.156 12.2484C14.4371 12.2472 14.7083 12.2454 14.9693 12.2436C15.1601 12.2423 15.3454 12.2411 15.5251 12.2401C15.5297 12.2296 15.5343 12.2189 15.5391 12.2081C15.6658 11.9175 15.8287 11.5172 15.976 11.0755C16.1242 10.6309 16.2506 10.1618 16.3122 9.73008C16.3693 9.3306 16.3622 9.0208 16.3087 8.8068C16.3042 8.80505 16.2993 8.80319 16.2938 8.80124C16.1834 8.7615 15.9769 8.72711 15.6486 8.73402C15.3839 8.73959 15.0752 8.77088 14.7299 8.8267Z" fill="#26272B"/>
</g>
<defs>
<clipPath id="clip0_20060_895">
<rect width="24" height="24" fill="white"/>
</clipPath>
</defs>
</svg>
