<svg width="24" height="24" viewBox="0 0 24 24" fill="none" xmlns="http://www.w3.org/2000/svg">
<path fill-rule="evenodd" clip-rule="evenodd" d="M14.5002 2.25C13.8099 2.25001 13.2502 2.80969 13.2502 3.50006C13.2502 4.1904 13.8098 4.75001 14.5001 4.75C15.1905 4.74999 15.7502 4.19031 15.7502 3.49994C15.7502 2.8096 15.1906 2.24999 14.5002 2.25ZM11.7502 3.50002C11.7502 1.98125 12.9814 0.750032 14.5002 0.75C16.019 0.749968 17.2502 1.98118 17.2502 3.49997C17.2501 5.01874 16.0189 6.24997 14.5001 6.25C12.9814 6.25003 11.7501 5.01882 11.7502 3.50002ZM3.36192 1.26285C3.76904 1.18651 4.16095 1.45466 4.23729 1.86178C4.6044 3.81973 5.07495 4.88955 5.55685 5.47787C5.99865 6.01724 6.49076 6.20186 7.1223 6.25239C7.45724 6.27918 7.823 6.26669 8.24544 6.24156C8.33861 6.23601 8.4352 6.2298 8.53449 6.22341C8.86959 6.20184 9.23541 6.17829 9.60429 6.17198C10.5817 6.15528 11.6856 6.2543 12.8354 6.82917C13.7246 7.27376 14.6137 7.85954 15.4245 8.39369C15.5708 8.49008 15.7145 8.5848 15.8553 8.6767C16.8183 9.30545 17.6133 9.78293 18.2645 9.96528C18.5761 10.0525 18.7958 10.0539 18.9536 10.0122C19.0956 9.97466 19.2515 9.88615 19.4172 9.65926C19.7875 9.15227 20.1266 8.06471 20.2507 5.95596C20.275 5.54246 20.6299 5.22697 21.0434 5.25129C21.4569 5.27562 21.7724 5.63054 21.7481 6.04404C21.6221 8.18529 21.2739 9.66023 20.6286 10.5439C20.2866 11.0123 19.8527 11.3261 19.3366 11.4624C18.8363 11.5946 18.3296 11.5412 17.86 11.4097C16.9489 11.1546 15.9628 10.5383 15.0352 9.93268C14.8837 9.83378 14.7327 9.73438 14.5821 9.63525C14.5211 9.59505 14.4601 9.5549 14.3991 9.51485C13.9317 10.6698 13.3841 12.0437 13.0388 13.3757C12.8285 14.1869 12.7044 14.9437 12.7113 15.5936C12.7182 16.2467 12.8562 16.7244 13.1004 17.05C14.2644 18.602 17.0284 21.4676 17.5306 21.9695C17.7453 22.1839 17.8095 22.5066 17.6935 22.7869C17.5774 23.0672 17.3039 23.25 17.0005 23.25H15.0004C14.5862 23.25 14.2501 22.9142 14.2501 22.5C14.2501 22.0858 14.5859 21.75 15.0001 21.75H15.2354C14.1633 20.6154 12.6987 19.0144 11.9004 17.95C11.3947 17.2756 11.2202 16.4408 11.2114 15.6095C11.2026 14.775 11.3596 13.8756 11.5868 12.9993C11.976 11.4978 12.6036 9.95027 13.0829 8.76851C13.0927 8.74419 13.1025 8.72002 13.1123 8.69602C12.7959 8.50614 12.4802 8.32865 12.1646 8.17083C11.9787 8.0779 11.7937 8.00107 11.609 7.93787C11.6061 7.94193 11.6032 7.94598 11.6001 7.95C10.1551 9.87667 9.18731 11.9308 8.58144 13.6273C7.96592 15.3507 7.75013 16.6292 7.75013 17C7.75013 17.1728 7.79917 17.5457 7.89464 18.0787C7.98624 18.5902 8.10922 19.19 8.23405 19.783C8.2762 19.9832 8.31871 20.1833 8.36018 20.3785C8.44036 20.756 8.51664 21.115 8.57884 21.4208C8.62617 21.6535 8.66704 21.8636 8.69634 22.0342C8.72181 22.1825 8.75013 22.3628 8.75013 22.5C8.75013 22.9142 8.41435 23.25 8.00013 23.25H6.00041C5.58619 23.25 5.25013 22.9142 5.25013 22.5C5.25013 22.0858 5.58592 21.75 6.00013 21.75H7.11506C7.11304 21.74 7.11099 21.7299 7.10893 21.7198C7.04797 21.4201 6.97411 21.0724 6.89492 20.6997C6.85313 20.503 6.80986 20.2993 6.76622 20.092C6.64105 19.4975 6.51403 18.8786 6.41813 18.3432C6.3261 17.8293 6.25013 17.3272 6.25013 17C6.25013 16.3708 6.53435 14.8993 7.16883 13.1227C7.74891 11.4985 8.64369 9.55617 9.95162 7.67166C9.84461 7.66974 9.7374 7.66993 9.62992 7.67177C9.2999 7.67741 8.98263 7.69779 8.65447 7.71887C8.5492 7.72563 8.44281 7.73247 8.33453 7.73891C7.90347 7.76456 7.44895 7.78331 7.00267 7.74761C6.07177 7.67314 5.15771 7.35776 4.39644 6.42838C3.67528 5.54795 3.14587 4.18027 2.76298 2.13822C2.68665 1.7311 2.9548 1.33918 3.36192 1.26285Z" fill="#26272B"/>
</svg>
