<svg width="24" height="24" viewBox="0 0 24 24" fill="none" xmlns="http://www.w3.org/2000/svg">
<path fill-rule="evenodd" clip-rule="evenodd" d="M18.5 2.75C17.8096 2.75001 17.25 3.30969 17.25 4.00006C17.2499 4.6904 17.8096 5.25001 18.4999 5.25C19.1903 5.24999 19.7499 4.69031 19.75 3.99994C19.75 3.3096 19.1904 2.74999 18.5 2.75ZM15.75 4.00003C15.75 2.48125 16.9812 1.25003 18.5 1.25C20.0188 1.24997 21.25 2.48118 21.25 3.99997C21.2499 5.51874 20.0187 6.74997 18.4999 6.75C16.9811 6.75003 15.7499 5.51882 15.75 4.00003ZM11.7391 11.027C10.9783 11.5392 10.4016 12.0464 10.1 12.4485C9.85152 12.7799 9.38142 12.8471 9.05004 12.5986C8.71865 12.3501 8.65146 11.88 8.89997 11.5486C9.3484 10.9506 10.0842 10.3329 10.9015 9.78269C11.7308 9.22446 12.6968 8.70055 13.6508 8.30592C14.5942 7.91574 15.5774 7.63032 16.4288 7.59386C16.8348 7.57647 17.2756 7.61636 17.6724 7.7699C17.7727 7.79352 17.8697 7.83829 17.9565 7.90495C18.1773 8.03193 18.3756 8.20426 18.5347 8.43388C19.3387 9.28238 19.6667 10.1841 19.9193 10.8785C19.9721 11.0235 20.0215 11.1594 20.0714 11.284C20.2438 11.7151 20.4076 12.0025 20.6609 12.2204C20.911 12.4355 21.324 12.6458 22.1061 12.7575C22.5161 12.8161 22.801 13.196 22.7425 13.6061C22.6839 14.0161 22.304 14.301 21.8939 14.2425C20.926 14.1042 20.214 13.8145 19.6828 13.3577C19.1549 12.9037 18.8812 12.3474 18.6786 11.841C18.6285 11.7156 18.5817 11.5924 18.5365 11.4712C18.2766 12.1634 17.8932 12.9157 17.4405 13.6966C18.3235 14.3419 18.8769 15.2958 19.167 16.5137C19.4671 17.7743 19.4956 19.3514 19.3286 21.25H20.5C20.9142 21.25 21.25 21.5858 21.25 22C21.25 22.4142 20.9142 22.75 20.5 22.75H18.5C18.2867 22.75 18.0834 22.6592 17.9412 22.5002C17.7989 22.3412 17.731 22.1292 17.7546 21.9172C18.0018 19.6918 17.9898 18.0456 17.7078 16.8612C17.4977 15.9791 17.1473 15.384 16.6535 14.9836C15.9447 16.0936 15.1226 17.2798 14.3041 18.4608C13.7951 19.1952 13.2875 19.9276 12.8095 20.6383C12.8159 20.6504 12.8229 20.6629 12.8306 20.6758C12.9179 20.8213 13.1415 21.0891 13.7372 21.2877C14.1301 21.4186 14.3425 21.8434 14.2115 22.2363C14.0805 22.6293 13.6558 22.8417 13.2628 22.7107C12.3585 22.4092 11.8321 21.927 11.5444 21.4475C11.4049 21.215 11.3312 20.9992 11.2926 20.8319C11.2734 20.7483 11.2627 20.6766 11.2569 20.6203C11.254 20.5921 11.2523 20.5677 11.2513 20.5474C11.2508 20.5372 11.2505 20.5281 11.2503 20.5201L11.2501 20.5088L11.25 20.5038L11.25 20.5014L11.25 20.5003C11.25 20.4997 11.25 20.4992 12 20.4992H11.25C11.25 20.3511 11.2938 20.2063 11.376 20.0831C11.9424 19.2334 12.5329 18.3819 13.1149 17.5426C13.9005 16.4098 14.6706 15.2991 15.3458 14.2449C15.1443 14.1311 14.952 14.0115 14.7791 13.8828C14.3594 13.5703 13.9852 13.1561 13.8355 12.5567C13.6908 11.9781 13.7859 11.3452 14.0377 10.6506C14.1562 10.3237 14.3154 9.96701 14.5165 9.57554C14.4201 9.61246 14.3226 9.65131 14.2242 9.69203C13.3657 10.0471 12.488 10.5229 11.7391 11.027ZM16.5164 9.09157C15.9733 9.97669 15.6348 10.6463 15.4479 11.1618C15.2466 11.7171 15.2479 12.0217 15.2907 12.1931C15.3283 12.3437 15.4228 12.492 15.6748 12.6795C15.8029 12.7749 15.9532 12.8672 16.1306 12.9653C16.6127 12.1353 16.9808 11.3942 17.1968 10.7642C17.455 10.0112 17.4392 9.57915 17.3388 9.35532C17.2746 9.29333 17.2065 9.23158 17.1339 9.17004C17.0129 9.11818 16.8214 9.08072 16.5164 9.09157ZM0.75 12C0.75 11.5858 1.08579 11.25 1.5 11.25H5.5C5.91421 11.25 6.25 11.5858 6.25 12V16.25H9.5C9.91421 16.25 10.25 16.5858 10.25 17V22C10.25 22.4142 9.91421 22.75 9.5 22.75C9.08579 22.75 8.75 22.4142 8.75 22V17.75H5.5C5.08579 17.75 4.75 17.4142 4.75 17V12.75H1.5C1.08579 12.75 0.75 12.4142 0.75 12Z" fill="#26272B"/>
</svg>
