<svg width="24" height="24" viewBox="0 0 24 24" fill="none" xmlns="http://www.w3.org/2000/svg">
<path fill-rule="evenodd" clip-rule="evenodd" d="M8.89281 9.11353C8.89239 9.11202 8.86356 9.05011 8.88493 8.87128C8.90764 8.68122 8.97973 8.42716 9.11279 8.1162C9.37809 7.4962 9.83608 6.76402 10.3828 6.06191C10.9282 5.36144 11.5341 4.72652 12.0727 4.29058C12.3431 4.0717 12.5767 3.91922 12.7611 3.83069C12.8853 3.77105 12.9541 3.7563 12.9785 3.75206C13.0091 3.76847 13.1091 3.83231 13.2615 4.0513C13.458 4.33356 13.6746 4.7801 13.8897 5.4179C13.8956 5.43533 13.9015 5.45289 13.9073 5.47056C12.7546 6.15735 11.3038 7.71574 10.3293 9.66477C10.3155 9.69237 10.3036 9.72042 10.2935 9.74877C9.99601 9.66931 9.73404 9.58315 9.5133 9.49202C9.0717 9.30972 8.92085 9.15814 8.89281 9.11353ZM14.3215 6.99819C14.5261 7.91236 14.7082 9.00345 14.8558 10.2694C13.813 10.2615 12.7594 10.1859 11.819 10.0505C12.5759 8.64487 13.5623 7.56851 14.3215 6.99819ZM16.3614 10.2318C16.1083 8.00338 15.745 6.22548 15.3111 4.93863C15.0726 4.23132 14.8015 3.63806 14.4926 3.1943C14.1963 2.76863 13.7835 2.36489 13.2275 2.26949C12.8175 2.19913 12.4192 2.33092 12.1119 2.47845C11.786 2.63494 11.452 2.86322 11.129 3.12465C10.4808 3.64931 9.79659 4.3732 9.19924 5.14037C8.60317 5.9059 8.06576 6.75018 7.73374 7.5261C7.56814 7.91312 7.4411 8.31188 7.39552 8.69334C7.35073 9.06823 7.37612 9.50316 7.60751 9.88685C7.89418 10.3622 8.43202 10.6684 8.9409 10.8785C9.48328 11.1024 10.1492 11.2789 10.869 11.4139C12.1074 11.646 13.5777 11.7683 15.0068 11.7701C15.1615 13.5721 15.2502 15.6523 15.2502 18C15.2502 18.4142 15.586 18.75 16.0002 18.75C16.4144 18.75 16.7502 18.4142 16.7502 18C16.7502 15.6518 16.6628 13.5565 16.5084 11.7256C17.6511 11.6541 18.7321 11.4937 19.5789 11.2231C19.9735 11.097 20.1911 10.6749 20.065 10.2804C19.9389 9.88583 19.5169 9.66819 19.1223 9.79428C18.4199 10.0187 17.4512 10.1665 16.3614 10.2318ZM7.50023 13.25C6.80987 13.25 6.25019 13.8097 6.25018 14.5001C6.25016 15.1904 6.80978 15.75 7.50012 15.75C8.19049 15.75 8.75016 15.1903 8.75018 14.5C8.75019 13.8096 8.19058 13.25 7.50023 13.25ZM4.75018 14.5001C4.75021 12.9813 5.98143 11.7501 7.5002 11.75C9.019 11.75 10.2502 12.9812 10.2502 14.5C10.2501 16.0188 9.01892 17.25 7.50015 17.25C5.98136 17.2501 4.75015 16.0189 4.75018 14.5001ZM7.36039 21.4521C5.74356 21.858 4.00652 21.9941 1.68166 20.9035C1.30666 20.7276 1.14526 20.281 1.32117 19.906C1.49708 19.531 1.94369 19.3696 2.31869 19.5455C4.25699 20.4547 5.62522 20.3411 6.99523 19.9973C7.32882 19.9135 7.67882 19.8092 8.04696 19.6995C9.177 19.3628 10.478 18.9751 12.0002 18.9751C13.5223 18.9751 14.8233 19.3627 15.9534 19.6994C16.3215 19.8091 16.6715 19.9134 17.0051 19.9971C18.3751 20.3409 19.7434 20.4545 21.6817 19.5455C22.0567 19.3696 22.5033 19.531 22.6792 19.906C22.8551 20.281 22.6937 20.7276 22.3186 20.9035C19.9938 21.9938 18.2568 21.8577 16.64 21.452C16.1923 21.3396 15.7741 21.2153 15.3662 21.094C14.2896 20.7738 13.2849 20.4751 12.0002 20.4751C10.7155 20.4751 9.71084 20.7739 8.63427 21.0941C8.22634 21.2154 7.8081 21.3398 7.36039 21.4521Z" fill="#26272B"/>
</svg>
