<svg width="24" height="24" viewBox="0 0 24 24" fill="none" xmlns="http://www.w3.org/2000/svg">
<path fill-rule="evenodd" clip-rule="evenodd" d="M7.79467 5.44175C8.15583 5.09835 8.64486 4.75 9.22222 4.75C9.75848 4.75 10.2701 5.04793 10.6838 5.35806C11.1279 5.691 11.6033 6.15058 12.0893 6.6794C13.0637 7.73977 14.1576 9.16387 15.2328 10.6402C16.0348 11.7413 16.8375 12.8872 17.5809 13.9484C17.8355 14.3119 18.0832 14.6654 18.3215 15.0038C19.1444 16.1724 19.8417 17.1402 20.3454 17.75H22C22.4142 17.75 22.75 18.0858 22.75 18.5C22.75 18.9142 22.4142 19.25 22 19.25H20C19.786 19.25 19.5823 19.1586 19.4399 18.9988C18.9575 18.4572 18.2991 17.5644 17.5553 16.5183C17.1506 17.533 16.159 18.25 15 18.25C13.4812 18.25 12.25 17.0188 12.25 15.5C12.25 14.0135 13.4295 12.8024 14.9036 12.7517C14.6676 12.4199 14.4298 12.088 14.1915 11.7591C13.6497 12.08 13.1382 12.3599 12.6442 12.5132C12.0465 12.6987 11.4541 12.707 10.8296 12.4394C10.2491 12.1906 9.69522 11.7254 9.09653 11.0943C8.56288 10.5318 7.95058 9.79007 7.21353 8.85151C6.74598 9.68676 6.2677 10.6477 5.80111 11.647C5.10127 13.1458 4.44036 14.7032 3.89431 16.0048C3.82005 16.1818 3.74755 16.355 3.67709 16.5233C3.48845 16.9739 3.31444 17.3896 3.16047 17.75H4C4.41421 17.75 4.75 18.0858 4.75 18.5C4.75 18.9142 4.41421 19.25 4 19.25H2C1.73871 19.25 1.49624 19.114 1.36001 18.891C1.22377 18.6681 1.2134 18.3903 1.33264 18.1578C1.51597 17.8003 1.84739 17.0089 2.29409 15.9423C2.36367 15.7762 2.43605 15.6034 2.5111 15.4245C3.05793 14.121 3.72861 12.5401 4.44197 11.0124C5.15258 9.49049 5.9183 7.99338 6.65852 6.86779C7.02713 6.30726 7.40886 5.8086 7.79467 5.44175ZM8.0485 7.48841C8.06361 7.50465 8.07814 7.5217 8.09201 7.53954C8.96623 8.66354 9.63419 9.48164 10.1847 10.0619C10.7423 10.6496 11.1259 10.9344 11.4204 11.0606C11.6709 11.168 11.891 11.1763 12.1996 11.0806C12.491 10.9901 12.8312 10.8162 13.2977 10.5444C12.4815 9.4554 11.6917 8.46355 10.9848 7.69437C10.5266 7.19575 10.1224 6.81189 9.78402 6.55825C9.61552 6.43193 9.47836 6.34935 9.37207 6.30046C9.28207 6.25905 9.23546 6.25162 9.22445 6.25029C9.22407 6.25047 9.22313 6.25074 9.22165 6.25119C9.20103 6.25734 9.07389 6.29526 8.82827 6.5288C8.59791 6.74783 8.3357 7.07 8.0485 7.48841ZM15 14.25C14.3096 14.25 13.75 14.8096 13.75 15.5C13.75 16.1904 14.3096 16.75 15 16.75C15.6904 16.75 16.25 16.1904 16.25 15.5C16.25 14.8096 15.6904 14.25 15 14.25Z" fill="#26272B"/>
</svg>
