<svg width="24" height="24" viewBox="0 0 24 24" fill="none" xmlns="http://www.w3.org/2000/svg">
<path fill-rule="evenodd" clip-rule="evenodd" d="M16 3.25C15.3096 3.25001 14.75 3.80969 14.75 4.50006C14.7499 5.1904 15.3096 5.75001 15.9999 5.75C16.6903 5.74999 17.2499 5.19031 17.25 4.49994C17.25 3.8096 16.6904 3.24999 16 3.25ZM13.25 4.50002C13.25 2.98125 14.4812 1.75003 16 1.75C17.5188 1.74997 18.75 2.98118 18.75 4.49997C18.7499 6.01874 17.5187 7.24997 15.9999 7.25C14.4811 7.25003 13.2499 6.01882 13.25 4.50002ZM11.9383 4.39167C12.1074 4.51355 12.2182 4.70028 12.244 4.9071C12.3531 5.78066 12.6463 6.42334 13.0524 6.91068C13.4622 7.40248 14.0202 7.77574 14.7157 8.05396C15.7042 8.44944 16.914 8.63214 18.2329 8.70646L20.9697 5.96971C21.2626 5.67682 21.7374 5.67682 22.0303 5.96971C22.3232 6.2626 22.3232 6.73748 22.0303 7.03037L20.2627 8.79799C20.5471 8.90458 20.7495 9.1789 20.7495 9.50051C20.7495 9.91472 20.4137 10.2505 19.9995 10.2505C19.7513 10.2505 19.5011 10.2487 19.25 10.2441L19.25 16.337C20.6834 16.6756 21.75 17.9632 21.75 19.5C21.75 21.2949 20.2949 22.75 18.5 22.75C17.2017 22.7501 16.0812 21.9889 15.5606 20.8884C14.6804 21.0723 13.6832 21.2786 12.667 21.485C11.1266 21.7978 9.53915 22.1115 8.24843 22.3472C7.60352 22.465 7.02811 22.5641 6.56764 22.6341C6.12746 22.701 5.73873 22.75 5.49997 22.75C3.70503 22.7501 2.24996 21.295 2.25 19.5001C2.25004 17.7052 3.70512 16.2501 5.50004 16.25C5.73881 16.25 6.12755 16.2991 6.56773 16.366C6.64996 16.3785 6.73585 16.3919 6.82516 16.4062C6.83965 16.1764 6.85695 15.9355 6.87759 15.6878C6.94131 14.9231 7.03774 14.0832 7.18472 13.2993C7.32952 12.5271 7.53231 11.7584 7.82918 11.1646C7.84396 11.1351 7.85901 11.1055 7.87433 11.0761C7.62414 10.987 7.38168 10.8837 7.16637 10.7595C6.80548 10.5513 6.40642 10.2178 6.27266 9.68226C5.92777 8.30154 6.64601 7.03847 7.61469 6.13854C8.59794 5.22508 9.97609 4.53994 11.3527 4.26465C11.5571 4.22377 11.7693 4.26979 11.9383 4.39167ZM9.35732 11.4942C9.2899 11.6083 9.22744 11.7222 9.17082 11.8355C8.96769 12.2417 8.79548 12.848 8.65903 13.5758C8.52476 14.2918 8.43369 15.077 8.37241 15.8123C8.3477 16.1088 8.32797 16.3956 8.31221 16.6645C9.59125 16.8988 11.1519 17.2073 12.6671 17.515C13.6833 17.7214 14.6805 17.9277 15.5607 18.1116C15.9779 17.23 16.78 16.5662 17.75 16.337L17.75 10.1785C16.4768 10.0841 15.2342 9.87702 14.1585 9.44664C13.4549 9.16513 12.8049 8.78159 12.2611 8.25847C12.2108 8.30123 12.1526 8.35135 12.0876 8.40822C11.8472 8.61861 11.5161 8.91963 11.1553 9.28037C10.8762 9.55949 10.5869 9.86699 10.311 10.1898C10.7145 10.2968 11.1326 10.4188 11.5213 10.5698C12.3641 10.8973 13.3838 11.4838 13.511 12.6762C13.5711 13.2392 13.4123 13.8301 13.0919 14.4426C12.7708 15.0561 12.2628 15.7388 11.5504 16.5096C11.2692 16.8138 10.7947 16.8324 10.4905 16.5513C10.1863 16.2701 10.1677 15.7956 10.4488 15.4914C11.1114 14.7746 11.5253 14.201 11.7628 13.7471C12.0009 13.2921 12.0375 13.0044 12.0195 12.8353C11.9905 12.5636 11.7602 12.2719 10.9781 11.968C10.6154 11.8271 10.198 11.7091 9.74819 11.5931C9.62156 11.5605 9.49032 11.5276 9.35732 11.4942ZM6.75897 17.9151C6.61048 17.8906 6.47128 17.8685 6.34239 17.8489C5.88287 17.7791 5.60648 17.75 5.50007 17.75C4.53356 17.7501 3.75002 18.5336 3.75 19.5001C3.74998 20.4666 4.53345 21.2501 5.49994 21.25C5.60636 21.25 5.88276 21.221 6.34228 21.1511C6.78153 21.0844 7.3404 20.9882 7.97896 20.8716C9.2552 20.6385 10.8314 20.3272 12.3685 20.015C13.2367 19.8387 14.0914 19.6623 14.8708 19.5C14.0914 19.3377 13.2368 19.1613 12.3685 18.985C10.94 18.6949 9.4776 18.4054 8.25367 18.1789C8.25294 18.2202 8.25235 18.2578 8.25188 18.2917C8.25093 18.3601 8.25046 18.413 8.25023 18.4483L8.25003 18.488L8.25 18.4976L8.25 18.4997C8.25 18.4997 8.25 18.4997 8.25 18.4997C8.24995 18.9139 7.91418 19.25 7.5 19.25C7.08579 19.25 6.75 18.9143 6.75 18.5H7.5C6.75 18.5 6.75 18.5002 6.75 18.5L6.75 18.4952L6.75003 18.4832L6.75026 18.4385C6.75052 18.3996 6.75102 18.3431 6.75203 18.2709C6.75333 18.1773 6.75546 18.0573 6.75897 17.9151ZM18.5 19.5C18.6578 20.2332 18.6577 20.2332 18.6576 20.2332L18.1545 20.3409C17.8916 20.397 17.5355 20.4728 17.1095 20.5628C17.4293 20.9806 17.9332 21.2501 18.4999 21.25C19.4664 21.25 20.25 20.4665 20.25 19.5C20.25 18.5335 19.4666 17.75 18.5001 17.75C17.9333 17.7501 17.4295 18.0195 17.1097 18.4372C17.5356 18.5272 17.8917 18.603 18.1545 18.6591L18.6572 18.7666C18.6573 18.7667 18.6578 18.7668 18.5 19.5ZM11.3552 7.06004C11.1712 6.71471 11.024 6.33812 10.9158 5.9291C10.0511 6.21375 9.23483 6.68082 8.63564 7.23748C7.85764 7.96026 7.57547 8.69466 7.72627 9.31196C7.73475 9.32577 7.77496 9.37886 7.91588 9.46014C8.10007 9.56639 8.36628 9.66817 8.71833 9.77329C9.16528 9.18932 9.65901 8.65537 10.0947 8.21971C10.4839 7.83045 10.8403 7.50647 11.0999 7.27936C11.2004 7.19135 11.2868 7.11765 11.3552 7.06004ZM18.6576 20.2332L18.5 19.5L18.6572 18.7666C19.0027 18.841 19.25 19.1466 19.25 19.5C19.25 19.8534 19.0031 20.1589 18.6576 20.2332Z" fill="#26272B"/>
</svg>
