<svg width="24" height="24" viewBox="0 0 24 24" fill="none" xmlns="http://www.w3.org/2000/svg">
<path fill-rule="evenodd" clip-rule="evenodd" d="M9.25 4.00002C9.25003 2.48125 10.4813 1.25003 12 1.25C13.5188 1.24997 14.75 2.48118 14.75 3.99997C14.75 5.51874 13.5187 6.74997 12 6.75C10.4812 6.75003 9.24997 5.51882 9.25 4.00002ZM12.0001 2.75C11.3097 2.75001 10.75 3.30969 10.75 4.00006C10.75 4.6904 11.3096 5.25001 11.9999 5.25C12.6903 5.24999 13.25 4.69031 13.25 3.99994C13.25 3.3096 12.6904 2.74999 12.0001 2.75ZM2.25 2.25C2.25 1.83578 1.91421 1.5 1.5 1.5C1.08579 1.5 0.75 1.83579 0.75 2.25V3.75C0.75 4.16421 1.08579 4.5 1.5 4.5C1.91421 4.5 2.25 4.16421 2.25 3.75L3.37069 3.74999C3.85641 6.34779 4.52751 7.9013 5.96583 8.65101C6.70692 9.0373 7.5743 9.16555 8.53315 9.21312C8.90605 9.23162 9.31256 9.23822 9.74965 9.23964C9.7453 12.5205 9.68606 16.8718 8.88029 21.2503H7.5C7.08579 21.2503 6.75 21.586 6.75 22.0003C6.75 22.4145 7.08579 22.7503 7.5 22.7503H9.5C9.85751 22.7503 10.1653 22.4979 10.2354 22.1473C11.1826 17.4117 11.2455 12.6747 11.2497 9.23465C11.4927 9.23368 11.7422 9.23318 11.9978 9.23393C12.2551 9.23468 12.506 9.23656 12.7503 9.23879C12.7545 12.6785 12.8178 17.4136 13.7646 22.1473C13.8347 22.4979 14.1425 22.7503 14.5 22.7503H16.5C16.9142 22.7503 17.25 22.4145 17.25 22.0003C17.25 21.586 16.9142 21.2503 16.5 21.2503H15.1197C14.3148 16.8765 14.2548 12.5298 14.2504 9.25021C14.6866 9.25025 15.0925 9.24464 15.4656 9.22674C16.426 9.18065 17.2942 9.0513 18.0359 8.66214C19.4729 7.90825 20.1437 6.34834 20.6293 3.75H21.75C21.75 4.16421 22.0858 4.5 22.5 4.5C22.9142 4.5 23.25 4.16421 23.25 3.75V2.25C23.25 1.83579 22.9142 1.5 22.5 1.5C22.0858 1.5 21.75 1.83579 21.75 2.25H18.25C18.25 1.83579 17.9142 1.5 17.5 1.5C17.0858 1.5 16.75 1.83579 16.75 2.25V3.75C16.75 4.16421 17.0858 4.5 17.5 4.5C17.9142 4.5 18.25 4.16421 18.25 3.75H19.1012C18.6318 6.10037 18.0798 6.94526 17.3391 7.33384C16.8933 7.56768 16.2927 7.68532 15.3937 7.72846C14.7644 7.75866 14.0502 7.75148 13.1999 7.74293C12.8281 7.73919 12.4303 7.73519 12.0022 7.73394C11.5413 7.73259 11.1158 7.73491 10.7202 7.73706C9.90588 7.7415 9.21784 7.74524 8.60747 7.71496C7.70694 7.67029 7.10557 7.55356 6.65916 7.32087C5.91979 6.93547 5.36816 6.09819 4.89887 3.74999L5.75 3.75C5.75 4.16421 6.08579 4.5 6.5 4.5C6.91421 4.5 7.25 4.16421 7.25 3.75V2.25C7.25 1.83579 6.91421 1.5 6.5 1.5C6.08579 1.5 5.75 1.83579 5.75 2.25L2.25 2.25Z" fill="#26272B"/>
</svg>
