<svg width="24" height="24" viewBox="0 0 24 24" fill="none" xmlns="http://www.w3.org/2000/svg">
<path fill-rule="evenodd" clip-rule="evenodd" d="M12.0003 2.75C11.3099 2.75001 10.7502 3.30969 10.7502 4.00006C10.7502 4.6904 11.3098 5.25001 12.0001 5.25C12.6905 5.24999 13.2502 4.69031 13.2502 3.99994C13.2502 3.3096 12.6906 2.74999 12.0003 2.75ZM9.2502 4.00003C9.25024 2.48125 10.4815 1.25003 12.0002 1.25C13.519 1.24997 14.7502 2.48118 14.7502 3.99997C14.7502 5.51874 13.519 6.74997 12.0002 6.75C10.4814 6.75003 9.25017 5.51882 9.2502 4.00003ZM1.2439 2.29515C1.63317 2.1536 2.06349 2.35442 2.20505 2.74369C2.66805 4.01693 3.21531 4.68683 3.76297 5.07628C4.32015 5.4725 4.95907 5.63869 5.73925 5.75872C5.93055 5.78815 6.13117 5.81406 6.33918 5.84091C7.06152 5.93418 7.8729 6.03895 8.69227 6.34285C8.72165 6.35195 8.75067 6.36293 8.77916 6.37582C9.56146 6.67947 10.3484 7.17049 11.0696 8.01191C11.1096 8.05847 11.1436 8.10974 11.171 8.16459C11.5213 8.86512 12.2478 9.28097 13.2486 9.44781C13.9069 9.55756 14.6284 9.54733 15.3101 9.46094C15.2513 9.40975 15.1983 9.37587 15.1548 9.35283C14.9912 9.2661 14.843 9.26953 14.7635 9.2775C14.3514 9.31885 13.9838 9.01825 13.9424 8.60611C13.9011 8.19396 14.2017 7.82634 14.6138 7.785C14.8459 7.76172 15.3299 7.74788 15.8574 8.02756C16.2424 8.23167 16.5985 8.56412 16.8887 9.06072L22.3511 7.07258C22.7403 6.93091 23.1707 7.1316 23.3124 7.52083C23.4541 7.91007 23.2534 8.34045 22.8641 8.48212L17.3954 10.4726C17.4866 11.0658 17.4009 11.5681 17.226 11.9728C16.9954 12.5061 16.6351 12.8125 16.4554 12.9253C16.1046 13.1455 15.6417 13.0395 15.4215 12.6887C15.2013 12.3378 15.3072 11.8749 15.6581 11.6548C15.6501 11.6598 15.6504 11.6595 15.6568 11.6537C15.6793 11.6332 15.7772 11.5439 15.8491 11.3776C15.8949 11.2717 15.9404 11.1117 15.9312 10.8849C15.0142 11.0407 13.9764 11.0898 13.0019 10.9274C12.1527 10.7858 11.2922 10.4705 10.6241 9.87478C10.5502 10.018 10.4741 10.1662 10.3957 10.3189C9.93646 11.2131 9.39716 12.2631 8.76312 13.3886C9.52646 13.9003 10.2281 14.5494 10.7483 15.4768C11.5006 16.818 11.8175 18.6355 11.585 21.25H12.7501C13.1643 21.25 13.5001 21.5858 13.5001 22C13.5001 22.4142 13.1643 22.75 12.7501 22.75H10.7501C10.535 22.75 10.3302 22.6576 10.1878 22.4963C10.0455 22.335 9.97921 22.1204 10.0059 21.9069C10.3719 18.9808 10.0468 17.2923 9.44008 16.2107C9.08035 15.5694 8.59743 15.0958 8.00578 14.6879C6.76946 16.7341 5.22692 18.9182 3.2998 20.811L4.33561 21.3289C4.7061 21.5142 4.85627 21.9647 4.67102 22.3351C4.48578 22.7056 4.03528 22.8558 3.66479 22.6706L1.66479 21.6706C1.4422 21.5593 1.28931 21.3448 1.25668 21.0981C1.22405 20.8513 1.31593 20.6045 1.50195 20.4392C3.67369 18.5089 5.36404 16.1616 6.70471 13.9408C6.69148 13.9341 6.67823 13.9275 6.66494 13.9208C5.90933 13.5431 5.38995 13.0089 5.20363 12.2968C5.02631 11.6191 5.19357 10.9331 5.45207 10.3286C5.71374 9.71671 6.11324 9.08728 6.53432 8.47889C6.74708 8.17148 6.97206 7.86007 7.19494 7.55222C7.20802 7.53416 7.22109 7.5161 7.23416 7.49806C6.899 7.434 6.55135 7.38677 6.18902 7.33754C5.96866 7.3076 5.74287 7.27693 5.51116 7.24128C4.66634 7.11131 3.74276 6.9025 2.89369 6.29872C2.0351 5.68817 1.33236 4.73307 0.795359 3.25631C0.653804 2.86703 0.854622 2.43671 1.2439 2.29515ZM8.7255 7.99527C8.63356 8.12305 8.54175 8.24984 8.45107 8.37507C8.43733 8.39404 8.42362 8.41298 8.40993 8.43188C8.18621 8.74089 7.97014 9.04006 7.76772 9.33254C7.35841 9.92392 7.03093 10.4515 6.83126 10.9184C6.62842 11.3928 6.59996 11.7076 6.65479 11.9171C6.70061 12.0923 6.84124 12.3319 7.33572 12.5792C7.37722 12.5999 7.41874 12.6208 7.46028 12.6419C8.05655 11.5803 8.57391 10.5758 9.0282 9.69375C9.22489 9.31186 9.40976 8.95292 9.58409 8.62224C9.30517 8.35747 9.01966 8.15431 8.7255 7.99527Z" fill="#26272B"/>
</svg>
