<svg width="24" height="24" viewBox="0 0 24 24" fill="none" xmlns="http://www.w3.org/2000/svg">
<path fill-rule="evenodd" clip-rule="evenodd" d="M7.61431 1.35699C7.96949 1.14388 8.43019 1.25906 8.6433 1.61424C10.1214 4.07782 11.7933 6.20049 13.946 7.48046C16.0649 8.74036 18.7283 9.22973 22.3069 8.27544C22.7072 8.16871 23.1181 8.40664 23.2249 8.80687C23.3316 9.20709 23.0937 9.61806 22.6934 9.72479C20.3508 10.3495 18.3061 10.4188 16.5051 10.0556C16.4647 10.0923 16.4195 10.125 16.37 10.153C15.1259 10.8562 13.9874 11.4749 12.9494 12.0091C13.4399 12.1383 13.8818 12.3061 14.2569 12.5219C14.977 12.9362 15.5122 13.5716 15.5615 14.4585C15.6072 15.2812 15.2193 16.145 14.5625 17.0264C14.0865 17.6651 13.432 18.3626 12.5898 19.1244L13.1821 19.2725C13.5839 19.373 13.8282 19.7802 13.7278 20.182C13.6273 20.5839 13.2201 20.8282 12.8183 20.7277L10.8183 20.2277C10.5431 20.1589 10.3303 19.9408 10.2683 19.6641C10.2063 19.3873 10.3057 19.0992 10.5252 18.9196C11.8768 17.8138 12.7939 16.8893 13.3598 16.1301C13.9373 15.3552 14.0806 14.844 14.0638 14.5417C14.0506 14.3036 13.9294 14.064 13.5089 13.8221C13.0646 13.5665 12.3666 13.3643 11.4069 13.2443C11.1451 13.2116 10.8942 13.1722 10.6556 13.1257C10.1966 13.3338 9.76377 13.519 9.35633 13.6812C8.44928 14.0424 7.64934 14.2977 6.95435 14.4367C6.26597 14.5743 5.63267 14.6079 5.08191 14.4808C4.50606 14.3479 4.03167 14.04 3.71705 13.5448C3.41775 13.0736 3.30641 12.5011 3.29747 11.9018C3.28229 10.8832 3.56298 9.57638 4.04104 8.03333L2.81832 7.72773C2.41647 7.6273 2.17212 7.22011 2.27256 6.81826C2.373 6.4164 2.78018 6.17206 3.18203 6.2725L5.18256 6.7725C5.38525 6.82315 5.55763 6.95606 5.65816 7.13921C5.7587 7.32235 5.77829 7.53913 5.71221 7.73733C5.08922 9.60592 4.78375 10.9699 4.79731 11.8795C4.80398 12.3271 4.88795 12.5905 4.98319 12.7405C5.06312 12.8663 5.18251 12.9646 5.4192 13.0192C5.68098 13.0797 6.07898 13.082 6.6602 12.9658C7.1986 12.8581 7.85407 12.657 8.64089 12.3509C8.1329 11.9711 7.77346 11.4142 7.88361 10.6985C7.99278 9.98919 8.54306 9.38159 9.22413 8.87492C9.80407 8.4435 10.5767 8.01293 11.5364 7.5908C9.86348 6.17188 8.52073 4.32544 7.35706 2.38599C7.14395 2.0308 7.25912 1.5701 7.61431 1.35699ZM12.9282 8.61591C12.8824 8.64771 12.8323 8.67487 12.7783 8.69646C11.5611 9.18339 10.6886 9.65499 10.1194 10.0784C9.5193 10.5249 9.38203 10.8235 9.36615 10.9267C9.3622 10.9524 9.36366 10.9659 9.38102 10.9944C9.40648 11.0363 9.47714 11.1202 9.64979 11.2233C9.84409 11.3392 10.1214 11.4521 10.4902 11.5502C11.6548 11.0041 13 10.3079 14.5426 9.45602C14.0697 9.259 13.6157 9.02923 13.1794 8.76977C13.0949 8.71953 13.0112 8.66824 12.9282 8.61591ZM17.0002 3.75011C16.3098 3.75011 15.7502 4.30976 15.7502 5.00011C15.7502 5.69047 16.3098 6.25011 17.0002 6.25011C17.6905 6.25011 18.2502 5.69047 18.2502 5.00011C18.2502 4.30976 17.6905 3.75011 17.0002 3.75011ZM14.2502 5.00011C14.2502 3.48133 15.4814 2.25011 17.0002 2.25011C18.519 2.25011 19.7502 3.48133 19.7502 5.00011C19.7502 6.5189 18.519 7.75011 17.0002 7.75011C15.4814 7.75011 14.2502 6.5189 14.2502 5.00011ZM2.76559 4.81879C2.86573 4.41687 3.27273 4.17222 3.67466 4.27236L5.6815 4.77236C6.08342 4.8725 6.32807 5.27951 6.22793 5.68143C6.12779 6.08336 5.72079 6.32801 5.31886 6.22787L3.31202 5.72787C2.9101 5.62773 2.66545 5.22072 2.76559 4.81879ZM9.77257 21.3182C9.87303 20.9164 10.2802 20.672 10.6821 20.7725L12.6821 21.2725C13.0839 21.373 13.3282 21.7802 13.2278 22.182C13.1273 22.5839 12.7201 22.8282 12.3183 22.7277L10.3183 22.2277C9.91643 22.1273 9.67211 21.7201 9.77257 21.3182Z" fill="#26272B"/>
</svg>
