<svg width="24" height="24" viewBox="0 0 24 24" fill="none" xmlns="http://www.w3.org/2000/svg">
<path fill-rule="evenodd" clip-rule="evenodd" d="M7.00024 3.75C6.30987 3.75001 5.75019 4.30969 5.75018 5.00006C5.75016 5.6904 6.30978 6.25001 7.00012 6.25C7.69049 6.24999 8.25016 5.69031 8.25018 4.99994C8.25019 4.3096 7.69058 3.74999 7.00024 3.75ZM4.25018 5.00002C4.25021 3.48125 5.48143 2.25003 7.0002 2.25C8.519 2.24997 9.75021 3.48118 9.75018 4.99997C9.75015 6.51874 8.51893 7.74997 7.00016 7.75C5.48136 7.75003 4.25015 6.51882 4.25018 5.00002ZM13.2539 10.0758C11.6628 10.7907 10.6188 10.7648 9.84074 10.5314C9.32166 10.3757 8.86331 10.1114 8.38056 9.79456C8.27723 9.72673 8.16958 9.6541 8.05842 9.5791C7.68075 9.32427 7.26264 9.04215 6.83595 8.82866C6.48827 8.6547 6.1064 8.56185 5.7163 8.62794C5.3178 8.69546 5.00731 8.91244 4.78188 9.17947C4.36476 9.67355 4.17844 10.4056 4.09274 11.0943C3.95431 12.2068 4.03768 13.5793 4.25703 14.7613C3.65893 14.8175 3.13595 15.0845 2.79141 15.5598C2.4131 16.0816 2.32972 16.7439 2.45052 17.3882C2.62298 18.308 3.21828 19.2917 4.22954 20.1689C3.64937 20.0703 3.02151 19.8751 2.31869 19.5455C1.94369 19.3695 1.49708 19.5309 1.32117 19.9059C1.14526 20.2809 1.30666 20.7275 1.68166 20.9035C4.00652 21.994 5.74356 21.8579 7.36039 21.4521C7.8081 21.3397 8.22634 21.2154 8.63427 21.094C9.71084 20.7738 10.7155 20.475 12.0002 20.475C13.2849 20.475 14.2896 20.7738 15.3662 21.0939C15.7741 21.2152 16.1923 21.3396 16.64 21.4519C18.2568 21.8577 19.9938 21.9938 22.3186 20.9035C22.6937 20.7276 22.8551 20.281 22.6792 19.906C22.5033 19.531 22.0567 19.3695 21.6817 19.5454C21.5347 19.6144 21.3909 19.6775 21.2502 19.735V3C21.2502 2.58579 20.9144 2.25 20.5002 2.25C17.6186 2.25 13.7926 4.53829 13.2539 9.92537C13.2488 9.97639 13.2489 10.0267 13.2539 10.0758ZM19.7502 20.1722C18.7391 20.3401 17.8725 20.2147 17.0051 19.9971C16.6715 19.9133 16.3215 19.8091 15.9534 19.6994C15.3491 19.5193 14.6959 19.3247 13.9862 19.1826L17.4985 16.0606C17.7312 15.8537 17.8119 15.5245 17.7012 15.2335C17.5906 14.9424 17.3116 14.75 17.0002 14.75H9.00367C8.85326 14.321 8.70666 13.7308 8.62033 13.0877C8.55182 12.5773 8.52722 12.0761 8.55526 11.6302C8.8198 11.7597 9.10365 11.8763 9.40973 11.9681C10.9288 12.4238 12.7754 12.2092 15.3861 10.6428C15.7413 10.4296 15.8565 9.96895 15.6434 9.61376C15.4771 9.3367 15.1602 9.20568 14.8603 9.2626C15.5035 5.73909 17.8425 4.14762 19.7502 3.81674V20.1722ZM11.9644 18.9751C10.4576 18.9811 9.16814 19.3654 8.04696 19.6995C7.67882 19.8092 7.32882 19.9135 6.99523 19.9972C6.87176 20.0282 6.7483 20.0574 6.62444 20.084C6.56187 19.99 6.47704 19.9087 6.37228 19.8488C4.74356 18.9181 4.059 17.8274 3.92483 17.1118C3.85814 16.7561 3.93101 16.5434 4.00582 16.4402C4.06844 16.3539 4.19871 16.25 4.50018 16.25H15.0275L12.0019 18.9394C11.9889 18.951 11.9764 18.9629 11.9644 18.9751ZM7.43261 14.75H5.78375C5.55154 13.6507 5.45399 12.3023 5.58126 11.2795C5.6589 10.6556 5.80429 10.2937 5.92805 10.1471C5.94891 10.1224 5.96273 10.1113 5.96972 10.1068C5.98496 10.1064 6.04493 10.1102 6.16476 10.1701C6.49466 10.3352 6.79842 10.5396 7.15375 10.779C6.99524 11.5799 7.02597 12.4849 7.13366 13.2872C7.20208 13.7969 7.30646 14.3001 7.43261 14.75ZM5.97511 10.1041C5.9751 10.1043 5.97375 10.1051 5.97108 10.1059C5.97378 10.1043 5.97511 10.1039 5.97511 10.1041Z" fill="#26272B"/>
</svg>
