<svg width="24" height="24" viewBox="0 0 24 24" fill="none" xmlns="http://www.w3.org/2000/svg">
<path fill-rule="evenodd" clip-rule="evenodd" d="M12.5002 2.75C11.8099 2.75001 11.2502 3.30969 11.2502 4.00006C11.2502 4.6904 11.8098 5.25001 12.5001 5.25C13.1905 5.24999 13.7502 4.69031 13.7502 3.99994C13.7502 3.3096 13.1906 2.74999 12.5002 2.75ZM9.75019 4.00002C9.75022 2.48125 10.9814 1.25003 12.5002 1.25C14.019 1.24997 15.2502 2.48118 15.2502 3.99997C15.2502 5.51874 14.0189 6.74997 12.5002 6.75C10.9814 6.75003 9.75015 5.51882 9.75019 4.00002ZM4.80693 3.77533C5.20715 3.66859 5.61812 3.90652 5.72486 4.30674C6.21413 6.14139 6.92232 7.60965 7.76221 8.37574C8.16573 8.7438 8.57047 8.92417 8.98367 8.94545C9.37635 8.96566 9.86461 8.84665 10.4621 8.45757C10.7153 8.12235 11.0697 7.92691 11.4375 7.8277C11.8482 7.71695 12.3038 7.71599 12.7513 7.76667C13.6475 7.86816 14.7099 8.20176 15.7588 8.61318C17.8706 9.44155 20.1295 10.6673 21.3106 11.3492C21.6693 11.5563 21.7922 12.015 21.5851 12.3738C21.378 12.7325 20.9193 12.8554 20.5606 12.6483C19.4034 11.9802 17.2197 10.7975 15.211 10.0096C14.9641 9.91273 14.7227 9.82302 14.4887 9.74161C14.5606 9.98514 14.6309 10.2164 14.6992 10.441C14.8039 10.7856 14.9038 11.1145 14.9976 11.4483C15.1994 12.166 15.3757 12.912 15.2774 13.53C15.223 13.872 15.0805 14.2121 14.7925 14.4838C14.5125 14.748 14.1587 14.8872 13.7896 14.9548C13.4665 15.014 13.0879 15.0258 12.6522 14.9971C13.4104 16.9598 14.5565 19.2323 16.1242 21.584C16.2777 21.8141 16.292 22.11 16.1614 22.3539C16.0309 22.5978 15.7768 22.75 15.5002 22.75H13.5002C13.086 22.75 12.7502 22.4142 12.7502 22C12.7502 21.5858 13.086 21.25 13.5002 21.25H14.1275C12.688 18.92 11.6421 16.6863 10.9653 14.7577C10.928 14.7504 10.8905 14.743 10.8526 14.7354C10.4748 14.6599 10.1327 14.5889 9.82198 14.5244C9.06909 14.3681 8.50037 14.2501 8.05346 14.1981C7.7702 14.1652 7.60299 14.1686 7.5096 14.1835C7.50349 14.2244 7.49792 14.2917 7.50136 14.395C7.5089 14.6213 7.55604 14.9398 7.65428 15.3854C7.82795 16.1732 8.13306 17.239 8.54909 18.6921C8.60454 18.8857 8.66195 19.0863 8.72129 19.294C8.78594 19.5203 8.74063 19.7638 8.5989 19.9516C8.45718 20.1395 8.23549 20.25 8.00014 20.25H6.00019C5.58597 20.25 5.25019 19.9142 5.25019 19.5C5.25019 19.0858 5.58597 18.75 6.00019 18.75H7.00538C6.64187 17.4795 6.35868 16.476 6.18945 15.7083C6.08446 15.2321 6.0143 14.8084 6.00219 14.4449C5.99042 14.0914 6.02914 13.7016 6.23144 13.3643C6.4563 12.9893 6.80766 12.7993 7.16805 12.7218C7.49913 12.6507 7.86694 12.6663 8.22671 12.7081C8.74434 12.7683 9.41418 12.9074 10.2048 13.0715C10.2882 13.0888 10.3729 13.1064 10.4589 13.1242C10.2363 12.2868 10.0958 11.5254 10.0393 10.8657C10.0233 10.6786 10.0134 10.4931 10.0113 10.3113C9.64122 10.4173 9.27247 10.4623 8.90654 10.4435C8.07139 10.4005 7.35004 10.03 6.75136 9.48397C5.58684 8.42177 4.78624 6.60836 4.27551 4.69326C4.16878 4.29303 4.4067 3.88206 4.80693 3.77533ZM12.1073 13.4311C12.7867 13.5268 13.2345 13.5315 13.5192 13.4794C13.7047 13.4454 13.7578 13.3978 13.7631 13.3927C13.766 13.39 13.7689 13.387 13.7732 13.378C13.7784 13.3673 13.7884 13.3422 13.796 13.2944C13.8349 13.0498 13.7673 12.6145 13.5536 11.8542C13.4804 11.5938 13.3867 11.284 13.2836 10.9433C13.1309 10.4385 12.9577 9.86603 12.8008 9.28706C12.7259 9.27514 12.6531 9.26514 12.5825 9.25714C12.2321 9.21746 11.9856 9.23347 11.8281 9.27595C11.6854 9.31444 11.6586 9.36045 11.6499 9.37552C11.5609 9.52964 11.4665 9.95042 11.5339 10.7378C11.5952 11.4547 11.7805 12.3673 12.1073 13.4311Z" fill="#26272B"/>
</svg>
