<svg width="24" height="24" viewBox="0 0 24 24" fill="none" xmlns="http://www.w3.org/2000/svg">
<path fill-rule="evenodd" clip-rule="evenodd" d="M6.87063 0.816931C7.0123 0.427698 7.44268 0.227007 7.83191 0.368677L22.3936 5.66869C23.5613 6.0937 24.1633 7.38484 23.7383 8.55254C23.5967 8.94178 23.1663 9.14247 22.7771 9.0008C22.3878 8.85913 22.1871 8.42874 22.3288 8.03951C22.4705 7.65028 22.2698 7.2199 21.8805 7.07823L18.2039 5.74004C18.2609 5.89439 18.2678 6.06847 18.2117 6.23672C18.0807 6.62968 17.656 6.84205 17.263 6.71107L15.4214 6.09718C15.3841 6.18914 15.3485 6.27883 15.3145 6.36638L18.8926 7.66869C20.0603 8.0937 20.6624 9.38484 20.2374 10.5525C20.0957 10.9418 19.6653 11.1425 19.2761 11.0008C18.8868 10.8591 18.6862 10.4287 18.8278 10.0395C18.9695 9.65028 18.7688 9.2199 18.3796 9.07823L14.8414 7.79045C14.6281 8.59241 14.564 9.21981 14.4969 9.93044C14.4933 9.96838 14.4897 10.0065 14.4861 10.0449C14.3694 11.287 14.2291 12.7812 13.4057 15.5926C15.821 16.4305 17.7585 18.2853 19.6242 21.0838C19.854 21.4284 19.7609 21.8941 19.4162 22.1239C19.0716 22.3536 18.6059 22.2605 18.3762 21.9158C16.4238 18.9873 14.558 17.4005 12.3153 16.8302C10.043 16.2524 7.22285 16.6743 3.26355 18.1591C2.87571 18.3045 2.4434 18.108 2.29796 17.7202C2.15252 17.3324 2.34902 16.9001 2.73686 16.7546C5.22385 15.822 7.38478 15.2525 9.31489 15.1143C9.99718 11.6545 8.45159 9.2131 7.02327 6.95691C6.79502 6.59637 6.56977 6.24056 6.35708 5.88608C6.19144 5.61001 6.22047 5.25903 6.42921 5.01393C6.50044 4.93028 6.58719 4.86533 6.68243 4.82082L3.81791 3.77822C3.42867 3.63655 3.22798 3.20616 3.36965 2.81693C3.51132 2.4277 3.9417 2.22701 4.33094 2.36868L13.9048 5.85329C14.0228 5.54787 14.1579 5.22023 14.3131 4.86561C14.3943 4.67991 14.5426 4.5426 14.7181 4.4713L7.31888 1.77822C6.92965 1.63655 6.72896 1.20616 6.87063 0.816931ZM13.427 7.27564L10.1147 6.07006C10.2546 6.27034 10.2941 6.53497 10.1966 6.77875C10.0427 7.16333 9.60625 7.3504 9.22166 7.19656L8.86175 7.0526C10.1214 9.10636 11.4055 11.7122 10.842 15.0986C11.2204 15.1198 11.5899 15.1606 11.9513 15.2217C12.7481 12.5135 12.8799 11.108 12.9913 9.91938C12.9954 9.87581 12.9995 9.83254 13.0035 9.78951C13.0805 8.97352 13.1607 8.23339 13.427 7.27564ZM10.5002 19.2502C9.80985 19.2502 9.2502 19.8098 9.2502 20.5002C9.2502 21.1906 9.80985 21.7502 10.5002 21.7502C11.1906 21.7502 11.7502 21.1906 11.7502 20.5002C11.7502 19.8098 11.1906 19.2502 10.5002 19.2502ZM7.7502 20.5002C7.7502 18.9814 8.98142 17.7502 10.5002 17.7502C12.019 17.7502 13.2502 18.9814 13.2502 20.5002C13.2502 22.019 12.019 23.2502 10.5002 23.2502C8.98142 23.2502 7.7502 22.019 7.7502 20.5002Z" fill="#26272B"/>
</svg>
