<svg width="24" height="24" viewBox="0 0 24 24" fill="none" xmlns="http://www.w3.org/2000/svg">
<path fill-rule="evenodd" clip-rule="evenodd" d="M6.09232 4.88198C6.73671 6.1754 7.61783 7.34623 8.60657 8.29198C9.26601 8.92276 9.99285 9.47128 10.7498 9.88914C8.1874 10.4696 6.33732 10.75 4.5 10.75C4.08579 10.75 3.75 11.0858 3.75 11.5C3.75 11.9142 4.08579 12.25 4.5 12.25C6.31562 12.25 8.12063 11.9956 10.4058 11.5019C10.9998 13.085 11.7984 14.4698 12.8137 15.7026C10.8375 17.2739 8.42665 18.5034 6.29956 19.2853C4.13861 17.592 2.75 14.9582 2.75 12C2.75 9.13751 4.05024 6.5787 6.09232 4.88198ZM5.49417 3.44143C2.91489 5.4051 1.25 8.50812 1.25 12C1.25 15.0916 2.55507 17.8784 4.64436 19.8395C4.34043 20.0028 4.1802 20.3607 4.27886 20.706C4.39265 21.1043 4.80776 21.3349 5.20604 21.2211C5.48077 21.1426 5.76478 21.0551 6.05623 20.9587C7.75874 22.0906 9.80236 22.75 12 22.75C14.5765 22.75 16.9413 21.8436 18.7929 20.3323C19.6975 20.8073 20.6698 21.2582 21.7115 21.6923C22.0939 21.8516 22.533 21.6708 22.6923 21.2885C22.8516 20.9061 22.6708 20.467 22.2885 20.3077C21.4568 19.9611 20.6771 19.6062 19.9471 19.2393C21.6883 17.329 22.75 14.7885 22.75 12C22.75 6.06294 17.9371 1.25 12 1.25C10.1138 1.25 8.3411 1.73577 6.80012 2.58903C6.77443 2.49897 6.75024 2.40864 6.72761 2.3181C6.62715 1.91625 6.21994 1.67193 5.8181 1.77239C5.41625 1.87285 5.17193 2.28006 5.27239 2.6819C5.3363 2.93753 5.41049 3.19092 5.49417 3.44143ZM7.33653 4.00986C8.70574 3.20899 10.2993 2.75 12 2.75C17.1086 2.75 21.25 6.89137 21.25 12C21.25 14.5353 20.2301 16.8323 18.5781 18.5032C17.1618 17.6863 15.963 16.8043 14.9589 15.8221C15.2666 15.5277 15.5596 15.2237 15.835 14.9103C16.2156 14.4774 16.2989 13.9426 16.2294 13.4808C16.161 13.0269 15.9428 12.5985 15.6464 12.2709C15.0992 11.6664 14.6375 10.763 14.4898 9.8767C14.4295 9.51506 14.1166 9.25 13.75 9.25C12.519 9.25 11.008 8.51327 9.6434 7.20802C8.71588 6.32082 7.90354 5.21433 7.33653 4.00986ZM17.3714 19.5315C15.8571 20.6134 14.0029 21.25 12 21.25C10.516 21.25 9.11367 20.9005 7.87074 20.2794C9.86268 19.4487 12.0059 18.2768 13.8269 16.8128C14.8364 17.8144 16.0152 18.7102 17.3714 19.5315ZM13.9453 14.716C13.0794 13.6572 12.3997 12.4857 11.8836 11.1664C12.2994 11.0681 12.7313 10.9633 13.1815 10.852C13.4596 11.7717 13.9541 12.6365 14.5342 13.2775C14.6501 13.4055 14.7254 13.5669 14.7461 13.7042C14.7656 13.8336 14.7335 13.8915 14.7083 13.9201C14.4689 14.1925 14.2137 14.4579 13.9453 14.716ZM10.75 5.99993C10.7499 4.48114 11.9811 3.24993 13.4999 3.24996C15.0187 3.24999 16.2499 4.48121 16.25 5.99998C16.25 7.51878 15.0188 8.74999 13.5 8.74996C11.9812 8.74993 10.75 7.5187 10.75 5.99993ZM13.4999 4.74996C12.8096 4.74995 12.2499 5.30956 12.25 5.9999C12.25 6.69027 12.8096 7.24995 13.5 7.24996C14.1904 7.24997 14.75 6.69036 14.75 6.00002C14.7499 5.30965 14.1903 4.74997 13.4999 4.74996Z" fill="#26272B"/>
</svg>
