<svg width="24" height="24" viewBox="0 0 24 24" fill="none" xmlns="http://www.w3.org/2000/svg">
<path fill-rule="evenodd" clip-rule="evenodd" d="M11.0003 2.25C10.3099 2.25001 9.75021 2.80969 9.7502 3.50006C9.75018 4.1904 10.3098 4.75001 11.0001 4.75C11.6905 4.74999 12.2502 4.19031 12.2502 3.49994C12.2502 2.8096 11.6906 2.24999 11.0003 2.25ZM8.2502 3.50003C8.25023 1.98125 9.48145 0.750032 11.0002 0.75C12.519 0.749968 13.7502 1.98118 13.7502 3.49997C13.7502 5.01874 12.5189 6.24997 11.0002 6.25C9.48138 6.25003 8.25017 5.01882 8.2502 3.50003ZM5.77874 5.80364C6.16333 5.95748 6.35039 6.39396 6.19656 6.77854L5.19655 9.27854C5.04272 9.66313 4.60624 9.85019 4.22165 9.69636C3.83707 9.54252 3.65 9.10604 3.80384 8.72146L4.80384 6.22146C4.95767 5.83687 5.39415 5.64981 5.77874 5.80364ZM8.31138 6.27417C8.53238 6.21666 8.76754 6.26298 8.95023 6.39999C10.7169 7.72497 12.9197 8.11387 15.6822 6.82073C15.8724 6.73172 16.0912 6.7265 16.2853 6.80632C16.4795 6.88614 16.6314 7.04371 16.704 7.24072L20.0431 16.3041L21.7847 15.7816C22.1814 15.6626 22.5995 15.8877 22.7186 16.2845C22.8376 16.6812 22.6125 17.0993 22.2157 17.2184L2.21571 23.2184C1.81896 23.3374 1.40085 23.1123 1.28183 22.7155C1.1628 22.3188 1.38794 21.9007 1.78469 21.7816L5.30743 20.7248C5.15148 20.6833 5.00972 20.5918 4.90688 20.4588C4.72475 20.2232 4.6992 19.9023 4.84178 19.6409C5.59698 18.2563 6.28886 17.0613 6.90636 15.9983C6.93782 15.9441 6.96907 15.8903 7.00011 15.8369C7.47287 15.0232 7.89772 14.2919 8.27566 13.607C8.04809 13.5449 7.83272 13.4596 7.63428 13.3456C7.06515 13.0187 6.70998 12.4985 6.57725 11.8345C6.45206 11.2084 6.52663 10.4736 6.73405 9.6523C6.94389 8.82139 7.30591 7.8407 7.81488 6.69542C7.90762 6.48674 8.09038 6.33168 8.31138 6.27417ZM9.90844 13.7424C9.88869 13.7796 9.86881 13.8168 9.84881 13.8542C9.39827 14.6952 8.87777 15.591 8.30239 16.5813C8.26958 16.6378 8.23658 16.6946 8.20341 16.7517C7.82529 17.4027 7.42228 18.0979 6.99544 18.8531L7.3183 18.7724C7.72014 18.6719 8.12734 18.9163 8.2278 19.3181C8.27658 19.5132 8.24407 19.7096 8.15171 19.8715L12.1608 18.6688C12.1089 18.6425 12.0597 18.6099 12.0145 18.5715C11.8301 18.4148 11.7327 18.1788 11.7528 17.9377C11.8771 16.4457 11.9036 15.4347 11.8465 14.7498C11.7873 14.0391 11.6479 13.8334 11.5948 13.7803C11.5672 13.7528 11.4898 13.6875 11.0939 13.6875C10.918 13.6875 10.7218 13.6991 10.4767 13.7136C10.4553 13.7149 10.4335 13.7162 10.4113 13.7175C10.2566 13.7266 10.0882 13.736 9.90844 13.7424ZM15.2057 17.7553L18.6036 16.7359L15.5689 8.4988C14.178 9.03346 12.8738 9.20532 11.6669 9.07192C11.4666 10.168 11.1254 11.1763 10.6682 12.2003C10.8129 12.1929 10.9569 12.1875 11.0939 12.1875C11.5729 12.1875 12.183 12.2472 12.6555 12.7197C13.1025 13.1666 13.2756 13.8359 13.3413 14.6252C13.3926 15.2401 13.3847 16.0251 13.3238 17.0211L14.3186 16.7724C14.7204 16.6719 15.1276 16.9163 15.2281 17.3181C15.2657 17.4686 15.255 17.6197 15.2057 17.7553ZM10.2012 8.74753C9.72794 8.58784 9.27272 8.37828 8.83628 8.12315C8.5354 8.86171 8.32225 9.48952 8.18839 10.0196C8.00516 10.7451 7.9859 11.2291 8.04814 11.5405C8.10283 11.814 8.21633 11.9501 8.38151 12.045C8.51683 12.1227 8.71611 12.1878 9.00134 12.2226C9.58982 11.0205 9.99108 9.93272 10.2012 8.74753ZM22.7186 20.2845C22.8376 20.6812 22.6125 21.0993 22.2157 21.2184L16.9657 22.7934C16.569 22.9124 16.1509 22.6873 16.0318 22.2905C15.9128 21.8938 16.1379 21.4757 16.5347 21.3566L21.7847 19.7816C22.1814 19.6626 22.5995 19.8877 22.7186 20.2845Z" fill="#26272B"/>
</svg>
