<svg width="24" height="24" viewBox="0 0 24 24" fill="none" xmlns="http://www.w3.org/2000/svg">
<path fill-rule="evenodd" clip-rule="evenodd" d="M11.0011 2.75C10.3108 2.75001 9.75108 3.30969 9.75107 4.00006C9.75105 4.6904 10.3107 5.25001 11.001 5.25C11.6914 5.24999 12.2511 4.69031 12.2511 3.99994C12.2511 3.3096 11.6915 2.74999 11.0011 2.75ZM8.25107 4.00002C8.2511 2.48125 9.48232 1.25003 11.0011 1.25C12.5199 1.24997 13.7511 2.48118 13.7511 3.99997C13.751 5.51874 12.5198 6.74997 11.001 6.75C9.48225 6.75003 8.25104 5.51882 8.25107 4.00002ZM12.7715 9.06507L12.865 11.5908C12.4006 11.7055 11.9279 11.8272 11.4492 11.9554C11.3224 11.9894 11.1962 12.0236 11.0706 12.0579C11.0707 11.2329 10.9998 10.5878 10.9199 10.123C10.8728 9.84862 10.8225 9.6375 10.7821 9.48968C10.7781 9.47496 10.7742 9.46086 10.7704 9.4474C11.0505 9.36795 11.3429 9.29705 11.648 9.23599C12.0392 9.15768 12.4136 9.10166 12.7715 9.06507ZM14.2709 9.02206C15.7272 9.09419 16.8333 9.50287 17.6328 9.95351C17.9445 10.1292 18.2125 10.313 18.4386 10.489C17.2596 10.6474 15.8683 10.9017 14.3531 11.2405L14.2709 9.02206ZM20.4106 10.306C20.3196 10.1976 20.1989 10.0625 20.0471 9.91068C19.679 9.54252 19.1256 9.07309 18.3693 8.64681C16.8433 7.7866 14.5359 7.12824 11.3536 7.76516C8.16107 8.40413 6.14211 10.0098 4.92469 11.4707C4.31892 12.1976 3.9137 12.8856 3.6583 13.3964C3.53044 13.6521 3.43961 13.8645 3.3796 14.0165C3.34957 14.0926 3.32721 14.1537 3.31175 14.1977C3.30401 14.2198 3.298 14.2375 3.2936 14.2508L3.28822 14.2673L3.28642 14.2729L3.28574 14.275L3.28545 14.276C3.28533 14.2764 3.28521 14.2767 3.95007 14.4845L3.2852 14.2768C3.23114 14.4498 3.24293 14.6276 3.30642 14.7833C2.83889 15.0109 2.43741 15.2328 2.11948 15.4446C1.86212 15.616 1.61979 15.8064 1.44325 16.0162C1.28815 16.2006 1.03993 16.5743 1.16485 17.0405C1.28977 17.5067 1.69158 17.7062 1.91806 17.7883C2.17585 17.8817 2.48095 17.9255 2.78953 17.9452C3.41706 17.9854 4.25448 17.9363 5.22411 17.8195C6.24375 17.6967 7.44496 17.4944 8.76265 17.2212C8.45083 18.3139 8.02776 19.5275 7.45944 20.8623L5.81917 21.2724C5.41732 21.3729 5.173 21.7801 5.27346 22.1819C5.37392 22.5837 5.78112 22.8281 6.18297 22.7276L8.18297 22.2276C8.40844 22.1712 8.59503 22.0135 8.68819 21.8006C9.49825 19.949 10.0487 18.3005 10.4145 16.8555C11.1271 16.6881 11.8631 16.5032 12.6139 16.3021C12.7551 16.2642 12.8956 16.2262 13.0353 16.1879L13.2516 22.0278C13.2665 22.4309 13.5977 22.75 14.0011 22.75H16.0011C16.4153 22.75 16.7511 22.4142 16.7511 22C16.7511 21.5858 16.4153 21.25 16.0011 21.25H14.7238L14.5206 15.7639C16.5686 15.1554 18.3834 14.5146 19.7723 13.9213C20.6704 13.5377 21.4202 13.1615 21.9436 12.8129C22.2009 12.6415 22.4432 12.4511 22.6198 12.2413C22.7749 12.0569 23.0231 11.6832 22.8982 11.217C22.7733 10.7508 22.3715 10.5513 22.145 10.4692C21.8872 10.3758 21.5821 10.332 21.2735 10.3123C21.0187 10.296 20.7294 10.2944 20.4106 10.306ZM14.4632 14.215L14.4096 12.7655C16.1679 12.3645 17.7513 12.0799 19.0183 11.9272C19.7014 11.8449 20.2755 11.8031 20.7271 11.7988C20.3338 12.0208 19.8157 12.2717 19.1831 12.5419C17.9397 13.073 16.3149 13.6534 14.4632 14.215ZM12.9218 13.1226L12.9782 14.6473C12.7302 14.7165 12.4793 14.7852 12.2256 14.8532C11.7315 14.9856 11.2447 15.1106 10.768 15.2278C10.8706 14.6571 10.9425 14.1267 10.9905 13.6366C11.2691 13.5584 11.5515 13.4809 11.8374 13.4043C12.2033 13.3063 12.5651 13.2123 12.9218 13.1226ZM9.16651 15.6011C7.6027 15.9449 6.19363 16.1919 5.04469 16.3303C4.36167 16.4126 3.78753 16.4544 3.33597 16.4587C3.72921 16.2367 4.24732 15.9858 4.87998 15.7156C6.08463 15.201 7.64744 14.6402 9.42766 14.095C9.36583 14.5593 9.28076 15.0613 9.16651 15.6011ZM2.40502 16.3678C2.40534 16.3677 2.40938 16.3694 2.41618 16.3731C2.4081 16.3698 2.4047 16.3679 2.40502 16.3678ZM2.58223 16.9928C2.57819 16.9994 2.57552 17.0028 2.57518 17.0029C2.57485 17.003 2.57687 16.9997 2.58223 16.9928ZM9.56359 12.4874C7.84628 12.997 6.29215 13.5295 5.01466 14.038C5.22894 13.6141 5.56966 13.0398 6.07701 12.431C6.79235 11.5726 7.84306 10.6396 9.35496 9.96059C9.38035 10.0616 9.41123 10.2004 9.44159 10.377C9.51911 10.8281 9.59359 11.5277 9.56393 12.4766C9.56382 12.4802 9.56371 12.4838 9.56359 12.4874ZM21.658 11.8897C21.6577 11.8898 21.6537 11.8881 21.6469 11.8844C21.6549 11.8877 21.6583 11.8896 21.658 11.8897ZM21.4808 11.2647C21.4848 11.2581 21.4875 11.2547 21.4878 11.2546C21.4882 11.2545 21.4862 11.2578 21.4808 11.2647Z" fill="#26272B"/>
</svg>
