<svg width="24" height="24" viewBox="0 0 24 24" fill="none" xmlns="http://www.w3.org/2000/svg">
<path fill-rule="evenodd" clip-rule="evenodd" d="M12.0001 2.25C11.3097 2.25001 10.7501 2.80969 10.75 3.50006C10.75 4.1904 11.3096 4.75001 12 4.75C12.6904 4.74999 13.25 4.19031 13.25 3.49994C13.2501 2.8096 12.6904 2.24999 12.0001 2.25ZM9.25004 3.50002C9.25007 1.98125 10.4813 0.750032 12.0001 0.75C13.5189 0.749968 14.7501 1.98118 14.75 3.49997C14.75 5.01874 13.5188 6.24997 12 6.25C10.4812 6.25003 9.25001 5.01882 9.25004 3.50002ZM4.75146 12.6782C4.78964 15.0037 5.576 16.7361 6.80143 17.8966C8.06457 19.0929 9.86684 19.75 12 19.75C12.2548 19.75 12.505 19.7406 12.75 19.7221V8.5C12.75 8.42449 12.7612 8.35158 12.7819 8.28284C12.5293 8.26127 12.2687 8.25 12 8.25C11.7313 8.25 11.4708 8.26126 11.2181 8.28284C11.2389 8.35152 11.25 8.42436 11.25 8.4998V15.25C11.25 15.5184 11.1848 15.8671 11.1147 16.1806C11.0401 16.5143 10.9422 16.8822 10.8466 17.2195C10.7506 17.5582 10.6549 17.8734 10.5833 18.1034C10.5475 18.2186 10.5176 18.3129 10.4965 18.3787L10.472 18.4551L10.4653 18.4755L10.4631 18.4825C10.3343 18.8762 9.91056 19.0916 9.51687 18.9628C9.12318 18.8341 8.90841 18.4106 9.03715 18.0169C9.03715 18.0169 9.03714 18.0169 9.03715 18.0169L9.03897 18.0113L9.04488 17.9931L9.06791 17.9215C9.08788 17.8591 9.11656 17.7687 9.15104 17.6579C9.22011 17.4358 9.3119 17.1335 9.40341 16.8105C9.49531 16.4863 9.5849 16.1483 9.6509 15.8532C9.7214 15.538 9.75 15.335 9.75 15.25V8.54072C7.09077 9.26572 5.52823 11.2016 4.75146 12.6782ZM14.25 8.54072V19.4788C15.4095 19.1811 16.4093 18.6441 17.1986 17.8966C18.424 16.7361 19.2104 15.0037 19.2485 12.6782C18.4718 11.2016 16.9092 9.26572 14.25 8.54072ZM14.25 21.0192C15.7801 20.6912 17.1449 20.0134 18.23 18.9857C19.8306 17.4699 20.75 15.2611 20.75 12.5C20.75 12.3836 20.7229 12.2687 20.6708 12.1646C19.601 10.0249 16.9641 6.75 12 6.75C7.03585 6.75 4.399 10.0249 3.32918 12.1646C3.27711 12.2687 3.25 12.3836 3.25 12.5C3.25 15.2611 4.16939 17.4699 5.76999 18.9857C7.364 20.4953 9.56173 21.25 12 21.25C12.2527 21.25 12.5029 21.2419 12.75 21.2257V22.5C12.75 22.9142 13.0858 23.25 13.5 23.25C13.9142 23.25 14.25 22.9142 14.25 22.5V21.0192Z" fill="#26272B"/>
</svg>
