<svg width="24" height="24" viewBox="0 0 24 24" fill="none" xmlns="http://www.w3.org/2000/svg">
<path fill-rule="evenodd" clip-rule="evenodd" d="M9.86933 0.786856C10.4251 0.59752 10.9828 0.700935 11.4585 0.97563C11.9343 1.25033 12.3027 1.6816 12.4166 2.25754C12.5271 2.81639 12.374 3.39005 12.0656 3.92419C11.7421 4.48447 11.1758 4.82285 10.7134 5.02437C11.8354 5.87222 12.9607 7.01019 13.7593 8.26527C14.3538 9.19942 14.8038 10.2644 14.8867 11.3493C15.7913 11.7472 16.6346 12.2699 17.3205 12.8485C18.0179 13.4368 18.6053 14.1275 18.8874 14.8533C19.1849 15.6183 19.1514 16.4835 18.4814 17.1661C17.8808 17.778 16.8813 18.1159 15.5753 18.2465C14.6318 18.3408 13.5108 18.4708 12.452 18.6192C14.2918 18.7007 16.9047 18.7494 20.5009 18.7495C20.9152 18.7495 21.2509 19.0853 21.2509 19.4995C21.2509 19.9137 20.9151 20.2495 20.5009 20.2495C15.4987 20.2494 12.3473 20.1558 10.5173 20.0047C9.62104 19.9307 8.97658 19.8385 8.58335 19.713C8.48008 19.6801 8.36601 19.6363 8.25891 19.5747C8.16408 19.5202 7.99657 19.408 7.88632 19.2036C7.74837 18.9477 7.75979 18.661 7.87739 18.4291C7.97191 18.2427 8.11403 18.1299 8.19577 18.0727C8.36629 17.9534 8.57869 17.8704 8.75988 17.8097C8.95726 17.7436 9.18924 17.6812 9.44073 17.6222C9.94468 17.504 10.5703 17.3894 11.2424 17.2827C12.5047 17.0824 13.97 16.9036 15.186 16.7783C15.1045 16.6145 14.9367 16.3936 14.6321 16.1271C14.1959 15.7454 13.6308 15.4035 13.1656 15.171C13.1599 15.1681 13.1542 15.1652 13.1485 15.1622C12.0021 16.0235 10.5084 16.2917 9.07297 16.2389C7.62247 16.1854 6.12301 15.8063 4.85124 15.2776C4.89713 15.767 4.87139 16.3849 4.56579 16.9142C4.25741 17.4484 3.83719 17.8678 3.29795 18.0515C2.74222 18.2409 2.18452 18.1375 1.70874 17.8628C1.23295 17.5881 0.864544 17.1568 0.750651 16.5809C0.640138 16.022 0.793304 15.4484 1.10169 14.9142C1.49119 14.2396 2.23269 13.8867 2.72107 13.707C2.9526 13.6219 3.16819 13.5612 3.33745 13.5198C3.34962 13.5046 3.3623 13.49 3.37545 13.4759L8.45475 4.67833C8.46832 4.63369 8.48627 4.58975 8.50873 4.54706C8.46072 4.38124 8.40686 4.16822 8.36573 3.9302C8.27711 3.41743 8.21199 2.59882 8.60149 1.92419C8.90987 1.39005 9.33009 0.970575 9.86933 0.786856ZM9.44745 5.95894L4.98086 13.6953C6.18087 14.2597 7.69724 14.6872 9.12818 14.7399C10.8598 14.8037 12.2659 14.323 12.9944 13.14C13.7043 11.9873 13.4404 10.558 12.4938 9.07056C11.7137 7.84458 10.5494 6.72329 9.44745 5.95894ZM3.30988 15.0895C3.28642 15.0976 3.26273 15.1061 3.23888 15.1148C2.81099 15.2722 2.51122 15.4728 2.40073 15.6642C2.20911 15.9961 2.20378 16.197 2.22216 16.2899C2.23715 16.3657 2.28501 16.4634 2.45874 16.5637C2.63247 16.664 2.74104 16.6566 2.8142 16.6317C2.90385 16.6011 3.07514 16.4961 3.26675 16.1642C3.37725 15.9728 3.40111 15.6129 3.32346 15.1637C3.31913 15.1386 3.31459 15.1139 3.30988 15.0895ZM9.85739 3.7489C9.88085 3.74079 9.90455 3.73235 9.9284 3.72358C10.3563 3.56619 10.6561 3.36558 10.7665 3.17419C10.9582 2.8423 10.9635 2.64144 10.9451 2.54853C10.9301 2.47271 10.8823 2.37497 10.7085 2.27467C10.5348 2.17436 10.4262 2.18179 10.3531 2.20671C10.2634 2.23726 10.0921 2.3423 9.90052 2.67419C9.79003 2.86558 9.76617 3.22549 9.84381 3.67474C9.84814 3.69978 9.85268 3.72452 9.85739 3.7489ZM14.2087 14.0259C14.6671 14.2807 15.1803 14.6136 15.6199 14.9982C16.0379 15.3639 16.5116 15.8818 16.6839 16.5104C17.0598 16.3867 17.2859 16.2427 17.4109 16.1154C17.569 15.9543 17.6294 15.757 17.4894 15.3968C17.3341 14.9975 16.9528 14.5006 16.3534 13.995C15.8925 13.6062 15.3334 13.2384 14.7226 12.93C14.6209 13.2666 14.4728 13.5999 14.2717 13.9265C14.251 13.9601 14.23 13.9932 14.2087 14.0259ZM10.0011 10.2501C9.31069 10.2501 8.75102 10.8098 8.751 11.5002C8.75099 12.1905 9.3106 12.7501 10.0009 12.7501C10.6913 12.7501 11.251 12.1904 11.251 11.5001C11.251 10.8097 10.6914 10.2501 10.0011 10.2501ZM7.251 11.5001C7.25104 9.98137 8.48225 8.75014 10.001 8.75011C11.5198 8.75008 12.751 9.98128 12.751 11.5001C12.751 13.0189 11.5197 14.2501 10.001 14.2501C8.48217 14.2501 7.25097 13.0189 7.251 11.5001ZM6.06799 19.3878C6.40045 19.1527 6.85838 19.2263 7.101 19.5501C7.10385 19.5535 7.1102 19.5608 7.12047 19.5717C7.1475 19.6004 7.20218 19.6544 7.29205 19.7259C7.47134 19.8687 7.79476 20.0847 8.32463 20.3099C9.38611 20.7609 11.2811 21.2501 14.501 21.2501C17.7209 21.2501 19.6159 20.7609 20.6774 20.3099C21.2073 20.0847 21.5307 19.8687 21.71 19.7259C21.7998 19.6544 21.8545 19.6004 21.8815 19.5717C21.8918 19.5608 21.8982 19.5535 21.901 19.5501C22.1436 19.2263 22.6016 19.1527 22.934 19.3878C23.2722 19.6269 23.3525 20.095 23.1134 20.4332L22.501 20.0001C23.1134 20.4332 23.1129 20.4338 23.1124 20.4345L23.1114 20.4359L23.1094 20.4388L23.1048 20.4451L23.0938 20.4598C23.0887 20.4666 23.0828 20.474 23.0763 20.4822C23.0726 20.4869 23.0686 20.4919 23.0644 20.4971C23.0413 20.5253 23.0112 20.5601 22.9732 20.6004C22.8972 20.6811 22.7899 20.7834 22.6443 20.8994C22.3526 21.1316 21.9109 21.4156 21.264 21.6904C19.9719 22.2394 17.8669 22.7501 14.501 22.7501C11.1351 22.7501 9.03011 22.2394 7.73805 21.6904C7.09114 21.4156 6.64939 21.1316 6.35771 20.8994C6.2121 20.7834 6.10483 20.6811 6.0288 20.6004C5.99081 20.5601 5.96074 20.5253 5.93765 20.4971C5.92612 20.483 5.91634 20.4705 5.9082 20.4598L5.89722 20.4451L5.89264 20.4388L5.89056 20.4359L5.88958 20.4345C5.8891 20.4338 5.88863 20.4332 6.501 20.0001L5.88863 20.4332C5.64949 20.095 5.72979 19.6269 6.06799 19.3878Z" fill="#26272B"/>
</svg>
