<svg width="24" height="24" viewBox="0 0 24 24" fill="none" xmlns="http://www.w3.org/2000/svg">
<path fill-rule="evenodd" clip-rule="evenodd" d="M11.2501 4.49997C11.2501 2.98117 12.4813 1.74997 14.0001 1.75C15.5189 1.75003 16.7501 2.98126 16.7501 4.50003C16.7502 6.01882 15.519 7.25003 14.0002 7.25C12.4814 7.24997 11.2502 6.01875 11.2501 4.49997ZM14.0001 3.25C13.3097 3.24999 12.7501 3.80961 12.7501 4.49994C12.7501 5.19031 13.3098 5.74999 14.0002 5.75C14.6905 5.75001 15.2501 5.1904 15.2501 4.50006C15.2501 3.80968 14.6904 3.25001 14.0001 3.25ZM3.46752 3.47195C3.75915 3.1778 4.23402 3.17576 4.52817 3.46739C8.76109 7.66407 14.593 9.71656 21.853 8.26456C22.2592 8.18333 22.6543 8.44674 22.7356 8.85291C22.8168 9.25908 22.5534 9.6542 22.1472 9.73544C19.6442 10.236 17.2875 10.3451 15.0889 10.1095C14.8332 10.8919 14.5416 11.8421 14.3063 12.8613C15.1916 13.2244 16.0435 13.5272 16.955 13.6735C18.3042 13.8902 19.8018 13.7604 21.6647 12.8288C22.0351 12.6435 22.4857 12.7937 22.6709 13.1641C22.8562 13.5346 22.7061 13.9851 22.3356 14.1704C20.1984 15.2392 18.3836 15.4221 16.7172 15.1546C15.7669 15.002 14.8707 14.7014 14.0171 14.3629C13.9487 14.8166 13.8986 15.2744 13.874 15.7283C13.7542 17.9443 14.2475 19.8331 15.8978 20.8643C16.2491 21.0838 16.3559 21.5465 16.1364 21.8978C15.9169 22.2491 15.4542 22.3559 15.1029 22.1364C12.7524 20.6676 12.2459 18.0564 12.3762 15.6473C12.4103 15.0169 12.4885 14.384 12.5942 13.7661C12.4858 13.7197 12.378 13.6738 12.2709 13.6286C11.7653 13.4151 11.2663 13.2136 10.7618 13.041C9.91985 16.0898 8.78078 18.6157 6.67094 22.8354C6.4857 23.2059 6.0352 23.3561 5.66471 23.1708C5.29423 22.9856 5.14406 22.5351 5.3293 22.1646C7.40645 18.0103 8.50657 15.5709 9.31518 12.6454C8.88486 12.5609 8.44324 12.5066 7.98371 12.4917C6.45172 12.4422 4.65137 12.8314 2.37586 14.1486C2.01738 14.3561 1.55855 14.2337 1.35103 13.8752C1.14352 13.5168 1.2659 13.0579 1.62439 12.8504C4.09888 11.418 6.17353 10.9325 8.03216 10.9925C8.60922 11.0112 9.15872 11.0824 9.68488 11.1899C9.84961 10.4843 10.0052 9.73628 10.1594 8.92081C7.63934 7.94261 5.40167 6.44568 3.47208 4.5326C3.17793 4.24097 3.17589 3.7661 3.46752 3.47195ZM11.5928 9.41158C11.4439 10.1862 11.2927 10.9034 11.1331 11.5829C11.7338 11.7831 12.3049 12.0147 12.8544 12.2467C12.8713 12.2539 12.8883 12.261 12.9052 12.2682C13.1181 11.3868 13.3631 10.5736 13.583 9.89018C12.903 9.76434 12.2395 9.60429 11.5928 9.41158Z" fill="#26272B"/>
</svg>
