<svg width="24" height="24" viewBox="0 0 24 24" fill="none" xmlns="http://www.w3.org/2000/svg">
<path fill-rule="evenodd" clip-rule="evenodd" d="M12 3.25C11.3096 3.25 10.75 3.80964 10.75 4.5C10.75 5.19036 11.3096 5.75 12 5.75C12.6904 5.75 13.25 5.19036 13.25 4.5C13.25 3.80964 12.6904 3.25 12 3.25ZM9.25 4.5C9.25 2.98122 10.4812 1.75 12 1.75C13.5188 1.75 14.75 2.98122 14.75 4.5C14.75 6.01878 13.5188 7.25 12 7.25C10.4812 7.25 9.25 6.01878 9.25 4.5ZM11.2408 9.88218C11.5036 9.79154 11.7561 9.75 12 9.75C12.2439 9.75 12.4964 9.79155 12.7592 9.88222C12.7531 9.92059 12.75 9.95993 12.75 10C12.75 10.3358 12.742 10.7566 12.7333 11.2227C12.7174 12.0631 12.6988 13.0509 12.7189 13.9542C12.7348 14.6693 12.7748 15.3766 12.8634 15.9801C12.9076 16.2814 12.969 16.598 13.0642 16.8908C12.8833 16.9289 12.7137 16.9669 12.5581 17.0042C12.1949 17.0915 11.8051 17.0915 11.4419 17.0042C11.2593 16.9604 11.0576 16.9157 10.8409 16.871C11.0369 15.9926 11.1343 14.8504 11.1867 13.7384C11.25 12.3926 11.25 11.0033 11.25 10.0059V10C11.25 9.95992 11.2469 9.92057 11.2408 9.88218ZM14.2326 11.2912C14.239 11.301 14.2454 11.3109 14.2518 11.3208C14.5775 11.8221 14.9782 12.4388 15.4724 13.0355C16.6106 14.4099 18.3036 15.75 21 15.75C21.4142 15.75 21.75 15.4142 21.75 15C21.75 14.5858 21.4142 14.25 21 14.25C18.8964 14.25 17.5894 13.2401 16.6276 12.0788C16.1925 11.5533 15.8401 11.0115 15.511 10.5055C15.4683 10.4399 15.4261 10.3749 15.3841 10.3106C15.2064 10.0388 15.0262 9.76897 14.8465 9.54055C14.6725 9.31943 14.4575 9.08207 14.1948 8.91941C13.4973 8.48767 12.7624 8.25001 12 8.25C11.2376 8.24999 10.5027 8.48762 9.80536 8.91915C9.54254 9.08178 9.32749 9.31915 9.15353 9.54025C8.97382 9.76867 8.79363 10.0385 8.61594 10.3104C8.57388 10.3747 8.53155 10.4398 8.48883 10.5055C8.15978 11.0114 7.80743 11.5532 7.37235 12.0786C6.41054 13.24 5.10353 14.25 3 14.25C2.58579 14.25 2.25 14.5858 2.25 15C2.25 15.4142 2.58579 15.75 3 15.75C5.69647 15.75 7.38946 14.4097 8.52765 13.0353C9.0208 12.4398 9.42084 11.8243 9.74621 11.3236C9.74039 12.063 9.72566 12.8747 9.68833 13.6679C9.63378 14.827 9.53298 15.8825 9.3632 16.6057C8.55111 16.4785 7.67879 16.3699 6.87682 16.3074C6.09104 16.2461 5.3315 16.2255 4.75027 16.2876C4.46814 16.3177 4.16453 16.3731 3.90992 16.4901C3.66915 16.6007 3.25 16.8826 3.25 17.4358C3.25 17.7743 3.44184 18.012 3.53328 18.1136C3.6468 18.2398 3.78614 18.3505 3.92082 18.4449C4.19436 18.6369 4.56276 18.8403 4.98138 19.0462C5.82605 19.4619 6.97733 19.9374 8.23773 20.4078C8.64514 20.5599 9.06615 20.7122 9.49436 20.8626C8.89571 21.0244 8.33766 21.1617 7.84435 21.2663C7.43915 21.3523 7.18037 21.7505 7.26633 22.1557C7.35229 22.5608 7.75046 22.8196 8.15565 22.7337C9.23613 22.5044 10.5912 22.1319 12 21.6931C13.4088 22.1319 14.7639 22.5044 15.8443 22.7337C16.2495 22.8196 16.6477 22.5608 16.7337 22.1557C16.8196 21.7505 16.5608 21.3523 16.1557 21.2663C15.6623 21.1617 15.1043 21.0244 14.5056 20.8626C14.9338 20.7122 15.3549 20.5599 15.7623 20.4078C17.0227 19.9374 18.1739 19.4619 19.0186 19.0462C19.4372 18.8403 19.8056 18.6369 20.0792 18.4449C20.2139 18.3505 20.3532 18.2398 20.4667 18.1136C20.5582 18.012 20.75 17.7743 20.75 17.4358C20.75 16.8826 20.3309 16.6007 20.0901 16.4901C19.8355 16.3731 19.5319 16.3177 19.2497 16.2876C18.6685 16.2255 17.909 16.2461 17.1232 16.3074C16.2976 16.3717 15.3974 16.485 14.5651 16.617C14.5015 16.4919 14.4154 16.2245 14.3475 15.7621C14.272 15.2484 14.2339 14.612 14.2185 13.9208C14.1989 13.0359 14.2163 12.1329 14.232 11.3213C14.2322 11.3113 14.2324 11.3012 14.2326 11.2912ZM12 20.1203C10.9092 19.7725 9.79418 19.3877 8.76227 19.0025C7.57739 18.5602 6.52123 18.1245 5.74881 17.7516C6.05307 17.7568 6.39389 17.7743 6.76021 17.8028C8.26825 17.9204 10.0458 18.2116 11.0917 18.4628C11.6851 18.6053 12.3149 18.6053 12.9083 18.4628C13.9542 18.2116 15.7317 17.9204 17.2398 17.8028C17.6061 17.7743 17.9469 17.7568 18.2512 17.7516C17.4788 18.1245 16.4226 18.5602 15.2377 19.0025C14.2058 19.3877 13.0908 19.7725 12 20.1203Z" fill="#26272B"/>
</svg>
