<svg width="24" height="24" viewBox="0 0 24 24" fill="none" xmlns="http://www.w3.org/2000/svg">
<path fill-rule="evenodd" clip-rule="evenodd" d="M20.0003 5.75C19.3099 5.75001 18.7502 6.30969 18.7502 7.00005C18.7502 7.6904 19.3098 8.25001 20.0001 8.25C20.6905 8.24998 21.2502 7.69031 21.2502 6.99994C21.2502 6.3096 20.6906 5.74999 20.0003 5.75ZM17.2502 7.00002C17.2502 5.48125 18.4815 4.25003 20.0002 4.25C21.519 4.24997 22.7502 5.48118 22.7502 6.99997C22.7502 8.51874 21.5189 9.74997 20.0002 9.75C18.4814 9.75003 17.2502 8.51882 17.2502 7.00002ZM14.947 8.20565C15.1927 8.19165 15.4947 8.19767 15.7625 8.29769C16.1088 8.42699 16.349 8.72368 16.4952 8.92647C16.6656 9.16283 16.8352 9.45917 17.0027 9.77702C17.1991 10.1496 17.4207 10.6075 17.6575 11.0968C17.8169 11.4262 17.9832 11.7699 18.1534 12.1115C19.0367 13.8841 20.1147 15.786 21.4804 16.9244C21.7986 17.1896 21.8415 17.6625 21.5763 17.9807C21.3111 18.2989 20.8382 18.3418 20.52 18.0766C18.8857 16.7144 17.6896 14.5439 16.8109 12.7805C16.62 12.3974 16.4471 12.0398 16.2871 11.7087C16.2853 11.705 16.2835 11.7014 16.2818 11.6978C15.3677 12.1558 14.3542 12.6881 13.2826 13.2571C13.7887 13.5021 14.2823 13.7507 14.6724 13.9887C14.9526 14.1597 15.2432 14.3624 15.4494 14.5958C15.642 14.814 15.9447 15.2885 15.6712 15.8354C15.4951 16.1875 15.1814 16.5659 14.8703 16.901C14.6052 17.1864 14.3057 17.4784 14.0133 17.7501C14.4214 17.7571 14.7501 18.09 14.7502 18.4998C14.7503 18.914 14.4146 19.2499 14.0004 19.25L12.0004 19.2505C11.6819 19.2506 11.398 19.0494 11.2925 18.7489C11.187 18.4483 11.2829 18.1139 11.5316 17.9149C11.5316 17.9149 11.5315 17.9149 11.5316 17.9149L11.5374 17.9102L11.557 17.8944C11.5744 17.8803 11.6005 17.8592 11.6341 17.8318C11.7012 17.7769 11.7983 17.6969 11.9167 17.5977C12.1537 17.3988 12.4739 17.1243 12.8082 16.8203C13.1439 16.5151 13.4863 16.187 13.7711 15.8803C13.9279 15.7115 14.0537 15.5632 14.1486 15.4391C14.0822 15.3907 13.9974 15.334 13.891 15.2691C13.4434 14.996 12.8166 14.6962 12.125 14.3654C12.0594 14.334 11.9932 14.3023 11.9265 14.2703C11.8315 14.2249 11.7355 14.1788 11.6391 14.1321C10.8882 14.5321 10.1205 14.9401 9.34834 15.3447C6.84928 16.6543 4.31328 17.9239 2.26645 18.7011C1.87922 18.8482 1.4461 18.6535 1.29905 18.2663C1.15201 17.879 1.34672 17.4459 1.73395 17.2989C3.68713 16.5572 6.15113 15.3267 8.65207 14.0161C9.11315 13.7745 9.57586 13.5299 10.0366 13.2854C9.95529 13.2355 9.87698 13.1855 9.80223 13.1355C9.51458 12.943 9.22149 12.7132 9.01694 12.4444C8.80836 12.1702 8.6031 11.7246 8.80418 11.2219C8.92437 10.9215 9.13757 10.6711 9.35048 10.4719C9.57054 10.266 9.83516 10.0736 10.1166 9.89709C10.6799 9.54391 11.3707 9.21734 12.0589 8.94946C12.7483 8.68108 13.4611 8.46153 14.0764 8.33147C14.3833 8.26659 14.6806 8.22083 14.947 8.20565ZM11.6142 12.4457C13.0484 11.6816 14.4198 10.953 15.6114 10.3559C15.4816 10.1158 15.3715 9.93285 15.2784 9.80359C15.2438 9.75568 15.2172 9.72317 15.1986 9.70199C15.1644 9.69994 15.1105 9.69877 15.0323 9.70322C14.8658 9.71271 14.6478 9.74384 14.3866 9.79904C13.8658 9.90913 13.232 10.1025 12.603 10.3473C11.9727 10.5926 11.3733 10.8796 10.9135 11.1679C10.6834 11.3122 10.5033 11.4475 10.3752 11.5673C10.3489 11.592 10.3257 11.615 10.3055 11.6364C10.3777 11.7027 10.4848 11.7874 10.6363 11.8888C10.9029 12.0671 11.238 12.253 11.6142 12.4457Z" fill="#26272B"/>
</svg>
