<svg width="24" height="24" viewBox="0 0 24 24" fill="none" xmlns="http://www.w3.org/2000/svg">
<path fill-rule="evenodd" clip-rule="evenodd" d="M3.5 1.25C3.91421 1.25 4.25 1.58579 4.25 2V3.37803C5.12389 3.68691 5.75 4.52034 5.75 5.5C5.75 6.0435 5.55729 6.542 5.23648 6.93088C9.75151 8.68971 14.2485 8.68971 18.7635 6.93088C18.4427 6.542 18.25 6.0435 18.25 5.5C18.25 4.52034 18.8761 3.68691 19.75 3.37803V2C19.75 1.58579 20.0858 1.25 20.5 1.25C20.9142 1.25 21.25 1.58579 21.25 2V3.37803C22.1239 3.68691 22.75 4.52034 22.75 5.5C22.75 6.68138 21.8395 7.6501 20.682 7.74275C18.7074 8.65739 16.7293 9.25945 14.75 9.54893L14.75 9.5844C14.7501 13.532 14.7503 18.7146 12.136 22.8975C11.9165 23.2488 11.4538 23.3555 11.1025 23.136C10.7512 22.9165 10.6445 22.4538 10.864 22.1025C13.1904 18.3802 13.2487 13.7054 13.25 9.70846C12.4166 9.76385 11.5831 9.76385 10.7497 9.70845C10.7408 13.3162 10.495 15.4562 9.59042 17.0565C8.722 18.593 7.28104 19.5512 5.28431 20.8789C5.16358 20.9592 5.04082 21.0408 4.91603 21.124C4.57138 21.3538 4.10573 21.2607 3.87596 20.916C3.6462 20.5714 3.73933 20.1057 4.08397 19.876C4.13904 19.8393 4.19346 19.803 4.24726 19.7671C6.4515 18.2981 7.59728 17.5345 8.28458 16.3185C8.98469 15.0798 9.24771 13.2815 9.24998 9.54893C7.27072 9.25945 5.29259 8.65739 3.31801 7.74275C2.16048 7.6501 1.25 6.68137 1.25 5.5C1.25 4.52034 1.87611 3.68691 2.75 3.37803V2C2.75 1.58579 3.08579 1.25 3.5 1.25ZM9.25 4.49997C9.24997 2.98117 10.4812 1.74997 12 1.75C13.5188 1.75003 14.75 2.98126 14.75 4.50003C14.75 6.01882 13.5188 7.25003 12 7.25C10.4813 7.24997 9.25003 6.01875 9.25 4.49997ZM12 3.25C11.3096 3.24999 10.75 3.80961 10.75 4.49994C10.75 5.19031 11.3097 5.74999 12.0001 5.75C12.6904 5.75001 13.25 5.1904 13.25 4.50006C13.25 3.80968 12.6903 3.25001 12 3.25ZM3.5 4.75C3.08579 4.75 2.75 5.08579 2.75 5.5C2.75 5.91421 3.08579 6.25 3.5 6.25C3.91421 6.25 4.25 5.91421 4.25 5.5C4.25 5.08579 3.91421 4.75 3.5 4.75ZM20.5 4.75C20.0858 4.75 19.75 5.08579 19.75 5.5C19.75 5.91421 20.0858 6.25 20.5 6.25C20.9142 6.25 21.25 5.91421 21.25 5.5C21.25 5.08579 20.9142 4.75 20.5 4.75Z" fill="#26272B"/>
</svg>
