<svg width="24" height="24" viewBox="0 0 24 24" fill="none" xmlns="http://www.w3.org/2000/svg">
<path fill-rule="evenodd" clip-rule="evenodd" d="M20.5 6.25C19.8096 6.25 19.25 6.80964 19.25 7.5C19.25 8.19036 19.8096 8.75 20.5 8.75C21.1904 8.75 21.75 8.19036 21.75 7.5C21.75 6.80964 21.1904 6.25 20.5 6.25ZM17.75 7.5C17.75 5.98122 18.9812 4.75 20.5 4.75C22.0188 4.75 23.25 5.98122 23.25 7.5C23.25 9.01878 22.0188 10.25 20.5 10.25C18.9812 10.25 17.75 9.01878 17.75 7.5ZM17.3235 17.2497H18.2591C18.6734 17.2497 19.0091 17.5854 19.0091 17.9997C19.0091 18.4139 18.6734 18.7497 18.2591 18.7497H16.5002C16.2922 18.7497 16.0935 18.6633 15.9516 18.5111C15.8098 18.359 15.7375 18.1548 15.752 17.9473C15.7852 17.4725 15.8576 16.8518 15.9364 16.1761C15.9765 15.833 16.0181 15.4758 16.0572 15.1163C16.1686 14.0904 16.2636 13.0085 16.2663 12.0292C14.4685 12.7813 13.2608 13.1047 12.4217 13.0936C11.9114 13.0868 11.4679 12.9563 11.1213 12.6591C11.0173 12.57 10.9309 12.4732 10.8584 12.3736L2.28315 15.9843C2.33936 16.3799 2.46087 16.6913 2.59963 16.9072C2.80159 17.2213 2.97251 17.2503 3 17.2503C3.41421 17.2503 3.75 17.586 3.75 18.0003C3.75 18.4145 3.41421 18.7503 3 18.7503C2.27749 18.7503 1.69841 18.2792 1.33787 17.7183C0.966563 17.1407 0.75 16.3695 0.75 15.5003C0.75 15.1985 0.930847 14.9261 1.20896 14.809L10.4242 10.9289C10.427 10.8414 10.4353 10.7519 10.4506 10.6605C10.5185 10.253 10.7125 9.86926 11.0378 9.51931C11.6576 8.85261 12.7742 8.28672 14.5535 7.7783C15.1054 7.6206 15.6447 7.61096 16.1336 7.81292C16.6235 8.01534 16.9633 8.38926 17.1933 8.80945C17.6313 9.60956 17.7543 10.7298 17.7655 11.8203C17.777 12.9425 17.6684 14.1731 17.5484 15.2783C17.5053 15.6755 17.4613 16.0518 17.4204 16.4024C17.385 16.7051 17.3519 16.9886 17.3235 17.2497ZM16.1584 10.4442C16.0937 10.0613 16 9.75337 15.8775 9.52963C15.765 9.32408 15.6544 9.23795 15.5608 9.19925C15.466 9.1601 15.2886 9.12828 14.9656 9.22058C13.2453 9.71213 12.4652 10.187 12.1364 10.5406C11.9875 10.7008 11.9443 10.8222 11.9302 10.907C11.9147 11.0001 11.9238 11.1148 11.9737 11.2711C12.0308 11.45 12.0758 11.5016 12.0976 11.5204L12.0979 11.5206C12.108 11.5293 12.1788 11.5902 12.4415 11.5937C13.0091 11.6012 14.0981 11.3405 16.1584 10.4442Z" fill="#26272B"/>
</svg>
