<svg width="24" height="24" viewBox="0 0 24 24" fill="none" xmlns="http://www.w3.org/2000/svg">
<path fill-rule="evenodd" clip-rule="evenodd" d="M17.8699 0.847431C18.0668 0.958976 18.2028 1.15347 18.24 1.3767C18.5082 2.98624 18.3942 4.96776 17.2317 6.56613C16.6556 7.3583 15.8532 8.01453 14.7897 8.47979C15.3127 10.0063 15.3698 11.5272 15.0551 13.109C15.3301 13.3126 15.5822 13.5551 15.8097 13.8183C16.4067 14.5088 16.8998 15.4139 17.2654 16.3944C17.8762 18.0324 18.1759 20.0057 17.9237 21.7503H19.0002C19.4144 21.7503 19.7502 22.0861 19.7502 22.5003C19.7502 22.9145 19.4144 23.2503 19.0002 23.2503H17.0002C16.7648 23.2503 16.5432 23.1399 16.4014 22.952C16.2597 22.7641 16.2144 22.5206 16.279 22.2943C16.7228 20.7411 16.5094 18.6601 15.86 16.9185C15.5381 16.0552 15.1249 15.3197 14.675 14.7993C14.6547 14.7758 14.6345 14.7529 14.6143 14.7306C14.5833 14.8217 14.5512 14.9131 14.5181 15.0048C13.7835 17.0391 12.5212 19.2412 10.8921 21.75H11.5002C11.9144 21.75 12.2502 22.0858 12.2502 22.5C12.2502 22.9142 11.9144 23.25 11.5002 23.25H9.50019C9.22359 23.25 8.96945 23.0978 8.83893 22.8539C8.70842 22.61 8.72272 22.3141 8.87615 22.084C10.8752 19.0854 12.3286 16.6516 13.1073 14.4953C13.17 14.3216 13.2282 14.15 13.2819 13.9804C12.6396 13.8991 12.1133 13.7099 11.7134 13.3399C11.2904 12.9484 11.1128 12.4465 10.9947 12.0077C10.9446 11.8216 10.901 11.6334 10.8565 11.441C10.6847 10.6991 10.4983 9.89404 9.86744 8.90266C9.74038 8.70299 9.71502 8.45506 9.79902 8.2338C9.88302 8.01254 10.0665 7.84391 10.2941 7.77888C11.8382 7.33757 12.6781 6.47756 13.1499 5.58645C13.467 4.98745 13.626 4.35669 13.6982 3.80184L11.7494 4.56859C11.713 6.0557 10.4961 7.25003 9.00021 7.25C8.22963 7.24998 7.5336 6.93277 7.03495 6.42343L3.21158 7.92771L3.70244 9.23666C3.84788 9.6245 3.65137 10.0568 3.26353 10.2022C2.87569 10.3477 2.44338 10.1512 2.29794 9.76334L1.54794 7.76334C1.40415 7.3799 1.59452 6.95201 1.9756 6.80208L6.31487 5.09482C6.27251 4.90303 6.2502 4.70393 6.25019 4.49997C6.25016 2.98118 7.48137 1.74997 9.00016 1.75C10.0105 1.75002 10.8926 2.29444 11.3707 3.10564L17.2256 0.802077C17.4362 0.719219 17.6729 0.735886 17.8699 0.847431ZM15.2478 3.19217C15.2271 4.00944 15.0673 5.1705 14.4755 6.28831C14.3015 6.61709 14.0914 6.93921 13.8399 7.24545C14.8829 6.8632 15.5706 6.29995 16.0186 5.68387C16.671 4.78691 16.8977 3.66741 16.8566 2.55918L15.2478 3.19217ZM11.723 9.20111C12.0635 9.97561 12.2183 10.655 12.3363 11.1726C12.3741 11.3383 12.4081 11.4875 12.4432 11.6178C12.5438 11.9916 12.6319 12.1461 12.7323 12.239C12.8264 12.3262 13.0326 12.4499 13.5747 12.504C13.5964 12.5062 13.6181 12.5087 13.6397 12.5114C13.8453 11.259 13.7615 10.0975 13.3644 8.94795C12.8606 9.06644 12.3142 9.15194 11.723 9.20111ZM9.00013 3.25C8.30979 3.24999 7.75018 3.8096 7.75019 4.49994C7.7502 4.73429 7.81398 4.95146 7.92469 5.13756C8.14381 5.5059 8.54392 5.74999 9.00024 5.75C9.69059 5.75002 10.2502 5.1904 10.2502 4.50006C10.2502 4.40791 10.2403 4.31891 10.2219 4.23376C10.1002 3.67115 9.59846 3.25001 9.00013 3.25Z" fill="#26272B"/>
</svg>
