<svg width="24" height="24" viewBox="0 0 24 24" fill="none" xmlns="http://www.w3.org/2000/svg">
<path fill-rule="evenodd" clip-rule="evenodd" d="M10.0002 2.25C9.30985 2.25001 8.75018 2.80969 8.75016 3.50006C8.75015 4.1904 9.30976 4.75001 10.0001 4.75C10.6905 4.74999 11.2501 4.19031 11.2502 3.49994C11.2502 2.8096 10.6906 2.24999 10.0002 2.25ZM7.25016 3.50003C7.25019 1.98125 8.48142 0.750032 10.0002 0.75C11.519 0.749968 12.7502 1.98118 12.7502 3.49997C12.7501 5.01874 11.5189 6.24997 10.0001 6.25C8.48134 6.25003 7.25013 5.01882 7.25016 3.50003ZM21.0328 7.94885L21.8355 7.76825C22.2396 7.67733 22.6409 7.93121 22.7319 8.33532C22.8228 8.73943 22.5689 9.14074 22.1648 9.23166L17.0941 10.3726C17.1517 11.0498 16.9091 11.6213 16.5198 12.126C16.3401 12.359 16.1211 12.588 15.8739 12.8177C17.3508 15.0206 18.854 17.8046 20.6787 21.6805C20.7881 21.9128 20.771 22.1849 20.6335 22.4018C20.4959 22.6186 20.257 22.7499 20.0002 22.75L17.9689 22.75C17.5547 22.7501 17.2189 22.4143 17.2189 22.0001C17.2189 21.5859 17.5547 21.2501 17.9689 21.25L18.8129 21.25C17.274 18.0503 15.9769 15.6863 14.7229 13.7952C13.8236 14.6133 13.386 15.6221 13.1484 16.8992C12.9599 17.913 12.906 19.0249 12.8438 20.3077C12.8173 20.8552 12.7892 21.4339 12.7485 22.0494C12.7225 22.4436 12.3952 22.7499 12.0002 22.75L9.96894 22.75C9.55473 22.7501 9.21893 22.4143 9.21891 22.0001C9.2189 21.5859 9.55467 21.2501 9.96888 21.25L11.2936 21.25C11.31 20.9465 11.3247 20.6452 11.3391 20.347C11.4038 19.0141 11.4655 17.7444 11.6737 16.6249C11.9626 15.0718 12.5485 13.6793 13.8592 12.557C13.5379 12.1202 13.2165 11.7094 12.8914 11.3182L2.1648 13.7317C1.76069 13.8226 1.35938 13.5687 1.26846 13.1646C1.17753 12.7605 1.43142 12.3592 1.83553 12.2682L4.28246 11.7177C4.16471 11.3303 4.37651 10.9173 4.76299 10.7884C7.63508 9.83108 9.24426 8.64455 10.5275 7.66717C13.3452 5.23904 15.5877 4.5615 17.4321 5.02283C19.1615 5.45537 20.2787 6.83756 21.0328 7.94885ZM8.63023 10.7394L11.7508 10.0373C11.4878 9.76157 11.2202 9.4934 10.9464 9.22985C10.3051 9.70633 9.55938 10.2254 8.63023 10.7394ZM12.1303 8.28845C12.5814 8.7287 13.016 9.18135 13.4403 9.65718L15.0165 9.30253C15.0068 9.28918 14.9969 9.27573 14.9869 9.26216C14.6186 8.76388 14.0858 8.16624 13.3556 7.42006C12.9726 7.65865 12.5647 7.94577 12.1303 8.28845ZM14.5227 10.9511C14.6826 11.1549 14.8418 11.3636 15.0006 11.5778C15.1326 11.4474 15.2425 11.326 15.3321 11.2098C15.4839 11.013 15.5595 10.8551 15.5882 10.7114L14.5227 10.9511ZM16.5829 8.95008L19.4458 8.30594C18.7973 7.44323 18.0441 6.72211 17.0682 6.47801C16.4725 6.32903 15.7163 6.34224 14.755 6.70919C15.3514 7.33306 15.8305 7.87991 16.1931 8.37057C16.3375 8.56581 16.4683 8.75864 16.5829 8.95008Z" fill="#26272B"/>
</svg>
