<svg width="24" height="24" viewBox="0 0 24 24" fill="none" xmlns="http://www.w3.org/2000/svg">
<path fill-rule="evenodd" clip-rule="evenodd" d="M11.5004 2.75C10.81 2.75001 10.2503 3.30969 10.2503 4.00006C10.2503 4.6904 10.8099 5.25002 11.5002 5.25C12.1906 5.24999 12.7503 4.69031 12.7503 3.99994C12.7503 3.3096 12.1907 2.74999 11.5004 2.75ZM8.75031 4.00003C8.75034 2.48126 9.98156 1.25003 11.5003 1.25C13.0191 1.24997 14.2503 2.48118 14.2503 3.99997C14.2503 5.51874 13.0191 6.74997 11.5003 6.75C9.98148 6.75003 8.75028 5.51882 8.75031 4.00003ZM4.26423 3.12372C4.00561 2.9744 3.69002 2.94423 3.36504 3.0313C3.04013 3.11837 2.78187 3.30232 2.63253 3.56102C2.48724 3.81268 2.39159 4.22811 2.56742 4.88433C2.74562 5.54937 3.10149 6.07468 3.48176 6.39723C3.88033 6.73531 4.20128 6.77579 4.35711 6.73404C4.51294 6.69229 4.77066 6.49673 4.94681 6.00465C5.11487 5.53516 5.16042 4.90226 4.98221 4.23717C4.80635 3.58087 4.51582 3.26897 4.26423 3.12372ZM5.01424 1.82469C5.6812 2.20976 6.17559 2.89537 6.4311 3.84894C6.68425 4.79373 6.63506 5.73913 6.35906 6.51018C6.17578 7.02219 5.86719 7.51491 5.43115 7.84461L6.0986 10.3353C7.83055 10.5741 8.94825 10.3327 9.79182 9.92601C10.5478 9.56158 11.109 9.06398 11.7517 8.49412C11.9346 8.33197 12.124 8.16398 12.3264 7.99153C13.2161 7.23363 14.2664 6.49161 15.865 6.25046C17.437 6.01332 19.4474 6.27345 22.2566 7.29495C22.6459 7.4365 22.8467 7.86682 22.7052 8.25609C22.5636 8.64537 22.1333 8.84619 21.744 8.70464C19.0532 7.72621 17.3137 7.54889 16.0887 7.73368C16.0873 7.7339 16.0858 7.73413 16.0843 7.73435C17.1325 9.23981 18.0131 10.6964 18.5364 12.6151C19.0925 14.6542 19.2317 17.1587 18.843 20.75H20.0003C20.4145 20.75 20.7503 21.0857 20.7503 21.5C20.7503 21.9142 20.4145 22.25 20.0003 22.25H18.0003C17.7852 22.25 17.5804 22.1576 17.438 21.9963C17.2957 21.835 17.2294 21.6204 17.2561 21.4069C17.75 17.4555 17.6156 14.9398 17.0892 13.0098C16.5934 11.1919 15.7363 9.83556 14.5925 8.22045C14.1246 8.46687 13.7125 8.78129 13.2992 9.13338C13.2745 9.15436 13.2498 9.17559 13.225 9.19705C14.7338 11.0391 15.2852 12.9863 14.6581 15.1466C14.1447 16.9147 12.8609 18.7484 10.8728 20.75H11.0003C11.4145 20.75 11.7503 21.0857 11.7503 21.5C11.7503 21.9142 11.4145 22.25 11.0003 22.25H9.00031C8.69046 22.25 8.4125 22.0594 8.30077 21.7704C8.18904 21.4814 8.26653 21.1534 8.49581 20.945C11.2226 18.4661 12.7154 16.458 13.2175 14.7283C13.6749 13.1531 13.3354 11.7136 12.0942 10.1838C11.6109 10.583 11.0706 10.9748 10.4432 11.2772C9.18853 11.882 7.61735 12.1353 5.36999 11.7388C5.08299 11.6881 4.85131 11.4758 4.77587 11.1943L3.98227 8.23285C3.43979 8.16534 2.92619 7.89292 2.51147 7.54114C1.88694 7.01141 1.37167 6.21729 1.11853 5.27256C0.86303 4.319 0.948411 3.47805 1.33346 2.81106C1.71446 2.15111 2.33585 1.75416 2.97682 1.58242C3.61772 1.41068 4.35431 1.44367 5.01424 1.82469Z" fill="#26272B"/>
</svg>
