<svg width="24" height="24" viewBox="0 0 24 24" fill="none" xmlns="http://www.w3.org/2000/svg">
<path fill-rule="evenodd" clip-rule="evenodd" d="M15.0001 2.75C14.3097 2.75001 13.75 3.30969 13.75 4.00006C13.75 4.6904 14.3096 5.25001 15 5.25C15.6903 5.24999 16.25 4.69031 16.25 3.99994C16.25 3.3096 15.6904 2.74999 15.0001 2.75ZM12.25 4.00003C12.25 2.48125 13.4813 1.25003 15 1.25C16.5188 1.24997 17.75 2.48118 17.75 3.99997C17.75 5.51874 16.5188 6.74997 15 6.75C13.4812 6.75003 12.25 5.51882 12.25 4.00003ZM10.0896 7.98331C8.22866 7.87428 5.88003 8.45141 4.06055 10.4982C3.78535 10.8078 3.31129 10.8356 3.00172 10.5604C2.69214 10.2852 2.66427 9.81117 2.93947 9.50159C5.11999 7.04868 7.94933 6.35535 10.1773 6.48588C11.285 6.55077 12.2833 6.82085 13.0078 7.2138C13.3673 7.40882 13.6984 7.65526 13.9315 7.95883C14.1501 8.24357 14.3129 8.62556 14.2518 9.0554C14.2753 9.43721 14.5327 10.0911 15.144 10.677C15.7336 11.2422 16.6214 11.7089 17.8365 11.7475C17.8411 11.7394 17.8458 11.7313 17.8505 11.7232C18.3103 10.9268 18.9051 10.266 19.5279 9.85483C20.1088 9.47128 20.9368 9.17489 21.674 9.60052C22.4114 10.0262 22.5687 10.8914 22.527 11.5862C22.4822 12.3312 22.2074 13.1767 21.7476 13.9731C21.2878 14.7695 20.693 15.4302 20.0702 15.8414C19.4893 16.225 18.6613 16.5213 17.924 16.0957C17.1867 15.6701 17.0294 14.8049 17.0711 14.11C17.0885 13.8202 17.1407 13.5153 17.2251 13.2039C15.8972 13.0424 14.8509 12.4739 14.106 11.7599C13.8764 11.5398 13.6726 11.3027 13.4972 11.0566C13.1651 11.7255 12.7114 12.5129 12.1064 13.3827C12.672 13.8146 13.1393 14.2257 13.468 14.6503C13.9609 15.2869 14.1617 15.9795 13.9822 16.7877C13.8209 17.5138 13.3616 18.2781 12.7318 19.1443C12.2956 19.7441 11.7429 20.4375 11.0819 21.25H11.5004C11.9146 21.25 12.2504 21.5858 12.2504 22C12.2504 22.4143 11.9146 22.75 11.5004 22.75H9.50044C9.21065 22.75 8.9468 22.5831 8.82269 22.3212C8.69859 22.0594 8.73646 21.7494 8.91995 21.5251C8.98985 21.4397 9.05869 21.3556 9.1265 21.2727C10.157 20.0134 10.9471 19.0479 11.5186 18.2621C12.1386 17.4094 12.4293 16.8613 12.5179 16.4624C12.5883 16.1456 12.5391 15.9007 12.2819 15.5686C12.0644 15.2876 11.7203 14.9767 11.2095 14.5856C9.74202 16.429 7.63707 18.5293 4.66962 20.609L5.53034 21.4697C5.82323 21.7626 5.82323 22.2375 5.53034 22.5304C5.23744 22.8233 4.76257 22.8233 4.46968 22.5304L2.96968 21.0304C2.81079 20.8715 2.73152 20.6497 2.75366 20.4261C2.7758 20.2025 2.89703 20.0006 3.08398 19.876C6.30971 17.7255 8.51951 15.5486 10.0056 13.6896C9.40604 13.2089 8.97521 12.751 8.72683 12.279C8.36602 11.5932 8.42616 10.9538 8.69431 10.3731C8.89817 9.93165 9.24405 9.48598 9.56752 9.0692C9.61324 9.01029 9.65851 8.95195 9.70287 8.89429C9.91603 8.61722 10.1347 8.32506 10.3455 8.00288C10.2617 7.99495 10.1763 7.98839 10.0896 7.98331ZM11.8935 8.34976C11.5581 8.92787 11.2019 9.40579 10.8918 9.80892C10.8452 9.86945 10.8005 9.92736 10.7576 9.98292C10.4108 10.4322 10.183 10.7273 10.0561 11.002C9.94907 11.2338 9.9465 11.3756 10.0543 11.5805C10.1677 11.796 10.414 12.0887 10.9029 12.4859C12.0999 10.7555 12.6142 9.4356 12.7547 8.89003C12.7511 8.8849 12.7468 8.87898 12.7417 8.87224C12.6796 8.79142 12.5414 8.66727 12.2926 8.53234C12.1751 8.46861 12.0415 8.40715 11.8935 8.34976ZM12.7702 8.91602C12.7702 8.91602 12.7699 8.91547 12.7695 8.91441ZM20.3544 11.1066C19.9641 11.3643 19.5181 11.8347 19.1495 12.4732C18.7809 13.1116 18.5965 13.733 18.5684 14.1999C18.5544 14.433 18.5812 14.5967 18.617 14.6964C18.6342 14.7441 18.651 14.7705 18.6607 14.7831C18.6656 14.7894 18.669 14.7927 18.6707 14.7942C18.6723 14.7956 18.6733 14.7962 18.674 14.7966C18.6743 14.7968 18.6748 14.7971 18.6754 14.7974C18.676 14.7976 18.6768 14.7979 18.6778 14.7983C18.6799 14.799 18.6845 14.8003 18.6923 14.8014C18.7082 14.8035 18.7395 14.8048 18.7894 14.7958C18.8936 14.777 19.0488 14.7183 19.2437 14.5896C19.634 14.3319 20.08 13.8615 20.4486 13.2231C20.8172 12.5846 21.0016 11.9632 21.0297 11.4964C21.0436 11.2632 21.0169 11.0995 20.9811 10.9998C20.9639 10.9522 20.9471 10.9257 20.9373 10.9131C20.9341 10.9089 20.9315 10.906 20.9296 10.9041C20.9287 10.9032 20.9279 10.9025 20.9274 10.902C20.9258 10.9006 20.9248 10.9 20.9241 10.8996C20.9234 10.8992 20.9224 10.8987 20.9203 10.898C20.9182 10.8972 20.9136 10.8959 20.9058 10.8949C20.8899 10.8927 20.8586 10.8914 20.8087 10.9004C20.7045 10.9192 20.5493 10.9779 20.3544 11.1066Z" fill="#26272B"/>
</svg>
