<svg width="24" height="24" viewBox="0 0 24 24" fill="none" xmlns="http://www.w3.org/2000/svg">
<path fill-rule="evenodd" clip-rule="evenodd" d="M14.5002 3.25C13.8098 3.25001 13.2501 3.80969 13.2501 4.50006C13.2501 5.1904 13.8097 5.75001 14.5001 5.75C15.1904 5.74999 15.7501 5.19031 15.7501 4.49994C15.7501 3.8096 15.1905 3.24999 14.5002 3.25ZM11.7501 4.50003C11.7501 2.98125 12.9814 1.75003 14.5001 1.75C16.0189 1.74997 17.2501 2.98118 17.2501 4.49997C17.2501 6.01874 16.0189 7.24997 14.5001 7.25C12.9813 7.25003 11.7501 6.01882 11.7501 4.50003ZM20.2323 6.71117C19.9516 6.78639 19.5902 7.01251 19.2505 7.60086C18.9062 8.19711 18.7864 8.8202 18.8272 9.31717C18.87 9.83806 19.0683 10.0936 19.208 10.1743C19.3478 10.255 19.6683 10.2989 20.1408 10.0755C20.5916 9.86238 21.0713 9.44706 21.4156 8.85076C21.7553 8.26234 21.7704 7.83635 21.6953 7.55574C21.618 7.26729 21.4161 7.0228 21.1248 6.85458C20.8335 6.68639 20.5208 6.63385 20.2323 6.71117ZM19.844 5.2623C20.58 5.06504 21.3001 5.22375 21.8748 5.55554C22.4494 5.8873 22.9469 6.43147 23.1441 7.16753C23.3435 7.91143 23.2083 8.74581 22.7146 9.60076C22.2256 10.4478 21.5223 11.0816 20.7819 11.4316C20.2903 11.664 19.7237 11.7942 19.1822 11.7191L17.6493 14.3743C17.4754 14.6754 17.1173 14.8176 16.7842 14.7176C14.7477 14.1066 13.465 12.6894 12.5814 11.34C12.1202 12.0834 11.6041 12.8322 11.0535 13.5723C11.3822 13.678 11.6783 13.7632 11.9562 13.8432C12.1805 13.9078 12.3929 13.969 12.6009 14.0347C13.2033 14.2249 13.8425 14.4739 14.2491 15.0839C14.6397 15.6699 14.7189 16.444 14.687 17.3998C14.6594 18.2257 14.5402 19.3128 14.3547 20.7494H15.4994C15.9136 20.7494 16.2494 21.0852 16.2494 21.4994C16.2494 21.9136 15.9136 22.2494 15.4994 22.2494H13.4996C13.2833 22.2494 13.0777 22.1561 12.9352 21.9934C12.7928 21.8308 12.7275 21.6145 12.7561 21.4002C13.0073 19.5177 13.1579 18.2432 13.1878 17.3497C13.2185 16.4308 13.1103 16.0799 13.001 15.9159C12.9076 15.7759 12.7343 15.6498 12.1491 15.465C11.9961 15.4167 11.8156 15.3646 11.6116 15.3057C11.1895 15.1839 10.6671 15.0332 10.0816 14.8272C8.23932 17.1185 6.16947 19.2416 4.5175 20.7502C4.92368 20.7594 5.25012 21.0916 5.25012 21.5C5.25012 21.9142 4.91433 22.25 4.50012 22.25H2.50012C2.1816 22.25 1.89783 22.0488 1.7924 21.7482C1.68696 21.4477 1.78288 21.1133 2.0316 20.9143C3.64219 19.6258 6.31383 17.0617 8.64916 14.2121C8.13533 13.9298 7.73002 13.6114 7.44139 13.244C6.93503 12.5994 6.84936 11.8847 7.02253 11.1923C7.18376 10.5477 7.56763 9.92062 7.98599 9.34134C7.99508 9.32875 8.00421 9.31615 8.0134 9.30353C7.67185 9.3941 7.31875 9.47613 6.9597 9.54794C5.34213 9.87145 3.4953 10.0095 1.87682 9.7398C1.46824 9.6717 1.19223 9.28528 1.26032 8.8767C1.32842 8.46812 1.71484 8.19211 2.12342 8.2602C3.50493 8.49046 5.1581 8.37855 6.66553 8.07706C8.18686 7.7728 9.45193 7.2974 10.0841 6.87596C10.2085 6.79305 10.3486 6.75218 10.4877 6.75001C10.4939 6.74853 10.5001 6.74709 10.5064 6.7457C11.0306 6.6286 11.4546 6.85656 11.74 7.11718C12.0075 7.36148 12.2301 7.69853 12.4211 8.02231C12.5729 8.27957 12.732 8.57724 12.8944 8.8809C12.9411 8.96823 12.988 9.05607 13.0351 9.14357C13.8367 10.6322 14.8432 12.3033 16.6638 13.0813L17.8832 10.9691C17.5473 10.5377 17.3768 9.98194 17.3323 9.43994C17.2652 8.62376 17.4624 7.69788 17.9515 6.85086C18.445 5.99592 19.1001 5.46165 19.844 5.2623ZM10.7703 8.26639C10.7268 8.30549 10.6653 8.36827 10.5858 8.4676C10.4421 8.64732 10.3016 8.82053 10.1654 8.98861C9.81115 9.42547 9.48503 9.82769 9.20202 10.2196C8.80786 10.7653 8.56661 11.2008 8.47771 11.5563C8.40075 11.864 8.43993 12.0869 8.62099 12.3174C8.78088 12.521 9.07709 12.7604 9.59676 13.0139C10.3941 11.9666 11.1228 10.9002 11.7176 9.86068C11.7166 9.85869 11.7155 9.8567 11.7144 9.85471C11.6609 9.75539 11.6099 9.65992 11.5608 9.56811C11.4019 9.27092 11.2634 9.01195 11.1292 8.78455C10.975 8.52316 10.8583 8.36038 10.7703 8.26639Z" fill="#26272B"/>
</svg>
