<svg width="24" height="24" viewBox="0 0 24 24" fill="none" xmlns="http://www.w3.org/2000/svg">
<path fill-rule="evenodd" clip-rule="evenodd" d="M12.4999 2.75C11.8095 2.75001 11.2498 3.30969 11.2498 4.00006C11.2498 4.6904 11.8094 5.25001 12.4998 5.25C13.1901 5.24999 13.7498 4.69031 13.7498 3.99994C13.7498 3.3096 13.1902 2.74999 12.4999 2.75ZM9.74981 4.00003C9.74984 2.48125 10.9811 1.25003 12.4998 1.25C14.0186 1.24997 15.2498 2.48118 15.2498 3.99997C15.2498 5.51874 14.0186 6.74997 12.4998 6.75C10.981 6.75003 9.74978 5.51882 9.74981 4.00003ZM3.33217 4.13584C3.23885 3.96444 3.02263 3.9036 2.85361 4.00118C2.68459 4.09876 2.62917 4.31643 2.73095 4.48296L6.89175 11.2909C6.94046 11.3706 7.04385 11.3969 7.12475 11.3502C7.18213 11.3171 7.20262 11.2442 7.17094 11.186L3.33217 4.13584ZM2.10361 2.70214C3.00278 2.183 4.15305 2.50668 4.64955 3.41854L8.48832 10.4687C8.54148 10.5664 8.58358 10.6671 8.61503 10.7695C11.0415 9.72222 13.4443 8.08388 15.5313 6.41425C15.7025 6.27731 15.925 6.22212 16.1403 6.26318C16.3556 6.30425 16.5422 6.43747 16.651 6.6278C17.1474 7.49652 17.5699 8.24277 17.8743 8.89274C18.1775 9.54016 18.3952 10.1556 18.4357 10.7625C18.5138 11.9351 17.9249 12.824 16.8986 13.7258C18.4652 16.5065 20.2728 19.5574 21.6239 21.584C21.7773 21.8141 21.7916 22.11 21.6611 22.3539C21.5306 22.5978 21.2764 22.75 20.9998 22.75H18.9998C18.5856 22.75 18.2498 22.4142 18.2498 22C18.2498 21.5858 18.5856 21.25 18.9998 21.25H19.6184C18.4167 19.3584 17.0055 16.9635 15.7351 14.7162C13.8332 16.4809 12.6691 18.6921 12.244 22.0927C12.1971 22.468 11.8781 22.7496 11.4998 22.7496H9.49981C9.0856 22.7496 8.74981 22.4138 8.74981 21.9996C8.74981 21.5854 9.0856 21.2496 9.49981 21.2496H10.8484C11.4063 17.7244 12.7842 15.3117 14.9833 13.374C14.2796 12.1058 13.6488 10.9339 13.1618 9.98992C11.4601 11.0969 9.63763 12.0694 7.79926 12.6903C7.02582 13.0861 6.06995 12.8226 5.61186 12.0731L1.45106 5.26519C0.909614 4.37928 1.20444 3.22128 2.10361 2.70214ZM14.4113 9.13974C14.8687 10.0323 15.4702 11.1548 16.1475 12.3801C16.8251 11.73 16.9681 11.2997 16.939 10.8623C16.9169 10.5317 16.7908 10.1159 16.5159 9.52895C16.3257 9.12284 16.0794 8.66513 15.7778 8.12792C15.336 8.46836 14.8797 8.80734 14.4113 9.13974Z" fill="#26272B"/>
</svg>
