<svg width="24" height="24" viewBox="0 0 24 24" fill="none" xmlns="http://www.w3.org/2000/svg">
<path fill-rule="evenodd" clip-rule="evenodd" d="M18.5001 3.25C17.8097 3.25001 17.2501 3.80968 17.25 4.50006C17.25 5.1904 17.8096 5.75001 18.5 5.75C19.1904 5.74999 19.75 5.19031 19.75 4.49994C19.7501 3.80961 19.1904 3.24999 18.5001 3.25ZM15.75 4.50003C15.7501 2.98126 16.9813 1.75003 18.5001 1.75C20.0189 1.74997 21.2501 2.98117 21.25 4.49997C21.25 6.01875 20.0188 7.24997 18.5 7.25C16.9812 7.25003 15.75 6.01882 15.75 4.50003ZM15.54 7.46568C16.3514 9.02078 16.9925 11.3774 17.2475 14.4377C17.255 14.5284 17.2461 14.6167 17.2232 14.6996L20.5685 20.1737C20.6453 20.2993 20.8132 20.3317 20.9312 20.2439L21.1239 20.1004C21.4562 19.853 21.926 19.9218 22.1734 20.254C22.4208 20.5862 22.352 21.0561 22.0198 21.3035L21.827 21.447C21.0012 22.0619 19.8255 21.8345 19.2886 20.9559L14.3601 12.8911C14.1441 12.5376 14.2556 12.076 14.609 11.86C14.8573 11.7083 15.159 11.7182 15.3914 11.86C15.1602 10.6493 14.8607 9.64376 14.5295 8.84678C12.7712 9.86562 11.645 10.7623 10.8575 11.5703C10.8364 11.592 10.8155 11.6137 10.7948 11.6353C10.8249 11.664 10.8547 11.6927 10.8841 11.7215C11.3161 12.1449 11.7162 12.6299 11.9571 13.3123C12.3746 14.4951 12.2501 16.1002 11.5035 18.7493L12.4999 18.7491C12.9142 18.749 13.25 19.0848 13.2501 19.499C13.2502 19.9132 12.9144 20.249 12.5002 20.2491L10.5 20.2495C10.262 20.2496 10.0381 20.1366 9.89663 19.9451C9.7552 19.7537 9.71305 19.5064 9.78306 19.2789C10.7863 16.0186 10.8265 14.6158 10.5426 13.8115C10.409 13.433 10.1855 13.1378 9.83896 12.7975C9.55474 13.2021 9.31844 13.599 9.08722 13.9998C9.04348 14.0756 8.9997 14.152 8.95561 14.229C8.53898 14.956 8.09468 15.7314 7.39567 16.5149C6.79344 17.1899 6.01634 17.8579 4.91899 18.5446L5.4161 18.876C5.76075 19.1057 5.85388 19.5714 5.62412 19.916C5.39435 20.2607 4.9287 20.3538 4.58405 20.124L3.08405 19.124C2.86498 18.978 2.73853 18.7277 2.75091 18.4647C2.76329 18.2017 2.91268 17.9645 3.1445 17.8396C4.70957 16.9969 5.63513 16.2351 6.27637 15.5163C6.86628 14.8551 7.23582 14.2115 7.6591 13.4742C7.70142 13.4005 7.74427 13.3259 7.78794 13.2502C8.05685 12.7841 8.34902 12.2935 8.72424 11.7777C8.64075 11.6986 8.55564 11.6161 8.46946 11.5299C7.79753 10.8581 7.58386 10.0683 7.76028 9.28105C7.92265 8.55646 8.3957 7.91859 8.90752 7.40691C9.93397 6.38072 11.412 5.57215 12.2633 5.28846C12.9375 5.06379 13.5976 5.26841 14.1377 5.67359C14.6664 6.07014 15.1363 6.69186 15.54 7.46568ZM9.68717 10.6232C9.71874 10.59 9.75078 10.5568 9.78328 10.5234C10.6948 9.58817 11.9515 8.60238 13.8272 7.52015C13.6166 7.21781 13.4156 7.00699 13.2376 6.87351C12.9654 6.66929 12.8131 6.68634 12.7375 6.71152C12.0893 6.92754 10.817 7.61894 9.96804 8.46771C9.54214 8.8935 9.29618 9.28684 9.22398 9.60906C9.16582 9.8686 9.20199 10.1412 9.53003 10.4692C9.58266 10.5218 9.63503 10.573 9.68717 10.6232ZM1.87604 19.784C2.10581 19.4393 2.57146 19.3462 2.9161 19.576L4.4161 20.576C4.76075 20.8057 4.85388 21.2714 4.62412 21.616C4.39435 21.9607 3.9287 22.0538 3.58405 21.824L2.08405 20.824C1.73941 20.5943 1.64628 20.1286 1.87604 19.784ZM9.75008 21.5C9.75008 21.0858 10.0859 20.75 10.5001 20.75H12.5001C12.9143 20.75 13.2501 21.0858 13.2501 21.5C13.2501 21.9142 12.9143 22.25 12.5001 22.25H10.5001C10.0859 22.25 9.75008 21.9142 9.75008 21.5Z" fill="#26272B"/>
</svg>
