<svg width="24" height="24" viewBox="0 0 24 24" fill="none" xmlns="http://www.w3.org/2000/svg">
<path fill-rule="evenodd" clip-rule="evenodd" d="M12.5002 6.25C11.8099 6.25001 11.2502 6.80969 11.2502 7.50006C11.2502 8.1904 11.8098 8.75001 12.5001 8.75C13.1905 8.74999 13.7502 8.19031 13.7502 7.49994C13.7502 6.8096 13.1906 6.24999 12.5002 6.25ZM9.75018 7.50003C9.75021 5.98125 10.9814 4.75003 12.5002 4.75C14.019 4.74997 15.2502 5.98118 15.2502 7.49997C15.2501 9.01874 14.0189 10.25 12.5002 10.25C10.9814 10.25 9.75015 9.01882 9.75018 7.50003ZM5.84479 9.58611C6.66889 9.2521 7.25016 8.44393 7.25018 7.50002C7.2502 6.25736 6.24284 5.25001 5.00019 5.25003C3.75756 5.25006 2.7502 6.25742 2.75018 7.50005C2.75017 8.04513 2.94399 8.54495 3.26648 8.93432C3.86672 9.96298 4.8879 10.8668 6.07123 11.5294C7.40724 12.2776 9.04207 12.7743 10.7477 12.8121C10.7401 13.3382 10.7085 13.7562 10.6126 14.1585C10.5016 14.6242 10.2952 15.1039 9.88252 15.7031C9.81665 15.7987 9.77601 15.9042 9.75915 16.0118C9.14716 16.147 8.57818 16.3166 8.04696 16.4749C7.67882 16.5846 7.32882 16.6889 6.99523 16.7726C5.62522 17.1165 4.25699 17.2301 2.31869 16.3208C1.94369 16.1449 1.49708 16.3063 1.32117 16.6813C1.14526 17.0563 1.30666 17.5029 1.68166 17.6789C4.00652 18.7694 5.74356 18.6333 7.36039 18.2275C7.8081 18.1151 8.22635 17.9907 8.63427 17.8694C9.71084 17.5492 10.7155 17.2504 12.0002 17.2504C13.2849 17.2504 14.2896 17.5492 15.3662 17.8693C15.7741 17.9906 16.1923 18.115 16.64 18.2273C18.2568 18.6331 19.9938 18.7692 22.3186 17.6789C22.6937 17.503 22.8551 17.0564 22.6792 16.6814C22.5033 16.3064 22.0567 16.1449 21.6817 16.3208C19.7434 17.2299 18.3751 17.1163 17.0051 16.7724C16.6715 16.6887 16.3215 16.5845 15.9534 16.4748C15.6235 16.3765 15.2791 16.2739 14.9189 16.1778C15.3028 15.0224 15.4247 13.8793 15.2715 12.6114C15.6173 12.6472 15.9359 12.706 16.2468 12.7878C17.3206 13.0704 18.3567 13.6389 20.1281 14.6512C20.4877 14.8567 20.9459 14.7317 21.1514 14.3721C21.3569 14.0125 21.2319 13.5543 20.8723 13.3488C19.1437 12.3611 17.9298 11.6796 16.6285 11.3372C15.3017 10.988 13.938 11.0019 11.9072 11.2558C10.0848 11.4836 8.24453 11.0273 6.80413 10.2206C6.45144 10.0231 6.1309 9.80964 5.84479 9.58611ZM13.7553 12.5877C13.7561 12.5941 13.7569 12.6005 13.7578 12.6069C13.927 13.7815 13.8205 14.7979 13.4414 15.862C12.984 15.7929 12.5042 15.7504 12.0002 15.7504C11.865 15.7504 11.7316 15.7535 11.5999 15.7593C11.8204 15.335 11.9718 14.9257 12.0718 14.5062C12.2121 13.9172 12.2437 13.3362 12.2489 12.7251C12.815 12.6568 13.3108 12.611 13.7553 12.5877ZM4.49341 8.05297C4.38229 7.84259 4.30169 7.63446 4.25317 7.43266C4.28727 7.05002 4.60872 6.75004 5.00022 6.75003C5.41443 6.75002 5.75019 7.08579 5.75018 7.49998C5.75017 7.91421 5.41436 8.25002 5.00013 8.25003C4.80478 8.25004 4.62687 8.17535 4.49341 8.05297Z" fill="#26272B"/>
</svg>
