<svg width="24" height="24" viewBox="0 0 24 24" fill="none" xmlns="http://www.w3.org/2000/svg">
<path fill-rule="evenodd" clip-rule="evenodd" d="M1.75 4.5C1.75 4.08578 2.08579 3.75 2.5 3.75C3.94172 3.75 6.11843 4.00912 8.29524 4.41924C10.4098 4.81762 12.591 5.37091 14.154 6.00243C14.7896 6.02298 15.4138 6.17896 15.7973 6.66764C16.2278 7.21621 16.1319 7.88924 15.9691 8.38453C15.7974 8.90698 15.4747 9.47558 15.1021 10.0392C14.9701 10.2387 14.8283 10.443 14.6792 10.6504C15.196 10.692 15.6628 10.7745 16.0689 10.9177C16.9025 11.2116 17.4947 11.7686 17.739 12.6556C17.961 13.4612 17.8743 14.4692 17.6106 15.6623C17.3921 16.6507 17.0348 17.8369 16.5542 19.2504H17.5C17.9143 19.2504 18.25 19.5862 18.25 20.0004C18.25 20.4146 17.9143 20.7504 17.5 20.7504H15.5003C15.2569 20.7504 15.0286 20.6323 14.888 20.4336C14.7475 20.2349 14.712 19.9804 14.793 19.7509C15.4465 17.8989 15.8983 16.4587 16.1459 15.3386C16.3979 14.1986 16.4134 13.4915 16.2929 13.054C16.1948 12.6979 15.9999 12.4839 15.5702 12.3324C15.1312 12.1776 14.4872 12.1083 13.565 12.1161C13.359 12.3776 13.1517 12.6376 12.9465 12.8952C12.4229 13.5524 11.9123 14.1933 11.4676 14.7986C12.4858 15.0139 13.25 15.9177 13.25 17C13.25 18.2426 12.2426 19.25 11 19.25C9.75736 19.25 8.75 18.2426 8.75 17C8.75 16.659 8.82586 16.3357 8.96161 16.0461C9.02552 15.8869 9.09953 15.7311 9.17726 15.5817C9.41758 15.1195 9.7469 14.6195 10.113 14.1109C10.5458 13.5097 11.0588 12.8583 11.5749 12.2094C11.4071 12.2213 11.2346 12.2342 11.0575 12.2478C10.785 12.2688 10.5271 12.2805 10.2836 12.283C8.35501 13.8461 6.42924 16.0614 4.36035 19.252H5C5.41421 19.252 5.75 19.5877 5.75 20.002C5.75 20.4162 5.41421 20.752 5 20.752H3C2.72831 20.752 2.47786 20.605 2.34531 20.3678C2.21276 20.1307 2.21884 19.8404 2.3612 19.609C4.41377 16.2725 6.3543 13.8183 8.31743 12.0034C8.00312 11.8815 7.72679 11.712 7.51081 11.481C7.13789 11.0822 7.02351 10.5845 7.09946 10.1005C7.1706 9.64726 7.40256 9.22207 7.68856 8.85305C8.26358 8.11115 9.2048 7.40539 10.2896 6.88603C10.5276 6.77208 10.7754 6.66573 11.031 6.56907C10.0804 6.31698 9.04993 6.08781 8.01752 5.8933C5.8817 5.49091 3.80828 5.25 2.5 5.25C2.08578 5.25 1.75 4.91421 1.75 4.5ZM12.7176 10.6393C12.773 10.6088 12.8286 10.5788 12.8841 10.5492C12.8623 10.5777 12.8402 10.6063 12.8181 10.6351C12.7848 10.6364 12.7513 10.6378 12.7176 10.6393ZM14.406 8.25574C14.4641 8.13242 14.5102 8.01911 14.5441 7.91613C14.6062 7.7273 14.6095 7.63083 14.6061 7.59095C14.5582 7.56504 14.4009 7.5 14.0003 7.5C12.9455 7.5 11.8684 7.79321 10.9373 8.23897C9.99868 8.68836 9.26796 9.26385 8.87416 9.77195C8.67576 10.0279 8.59908 10.2199 8.58132 10.3331C8.56838 10.4155 8.58483 10.4334 8.60642 10.4565C8.65481 10.5082 8.81189 10.6241 9.21367 10.7038C9.37303 10.7353 9.56029 10.759 9.77805 10.7721C11.2176 9.67281 12.6866 8.87901 14.2367 8.29775C14.2925 8.27681 14.3493 8.26295 14.406 8.25574ZM14.602 7.56798C14.602 7.56794 14.6024 7.56884 14.6029 7.57078C14.6022 7.56899 14.6019 7.56802 14.602 7.56798ZM10.25 17C10.25 17.4142 10.5858 17.75 11 17.75C11.4142 17.75 11.75 17.4142 11.75 17C11.75 16.5858 11.4142 16.25 11 16.25C10.7114 16.25 10.4608 16.413 10.3354 16.652C10.2714 16.8209 10.25 16.9344 10.25 17ZM19.5 5.75C18.8096 5.75 18.25 6.30964 18.25 7C18.25 7.69036 18.8096 8.25 19.5 8.25C20.1904 8.25 20.75 7.69036 20.75 7C20.75 6.30964 20.1904 5.75 19.5 5.75ZM16.75 7C16.75 5.48122 17.9812 4.25 19.5 4.25C21.0188 4.25 22.25 5.48122 22.25 7C22.25 8.51878 21.0188 9.75 19.5 9.75C17.9812 9.75 16.75 8.51878 16.75 7Z" fill="#26272B"/>
</svg>
