<svg width="24" height="24" viewBox="0 0 24 24" fill="none" xmlns="http://www.w3.org/2000/svg">
<path fill-rule="evenodd" clip-rule="evenodd" d="M18.5 3.25C17.8097 3.25001 17.25 3.80968 17.25 4.50006C17.25 5.1904 17.8096 5.75001 18.4999 5.75C19.1903 5.74999 19.75 5.19031 19.75 4.49994C19.75 3.80961 19.1904 3.24999 18.5 3.25ZM15.75 4.50003C15.75 2.98126 16.9812 1.75003 18.5 1.75C20.0188 1.74997 21.25 2.98117 21.25 4.49997C21.2499 6.01875 20.0187 7.24997 18.4999 7.25C16.9811 7.25003 15.7499 6.01882 15.75 4.50003ZM15.54 7.46568C16.3513 9.02078 16.9924 11.3774 17.2474 14.4377C17.255 14.5284 17.2461 14.6167 17.2232 14.6996L20.5685 20.1737C20.6452 20.2993 20.8131 20.3317 20.9311 20.2439L21.1238 20.1004C21.4561 19.853 21.9259 19.9218 22.1733 20.254C22.4207 20.5862 22.3519 21.0561 22.0197 21.3035L21.827 21.447C21.0011 22.0619 19.8255 21.8345 19.2885 20.9559L14.36 12.8911C14.144 12.5376 14.2555 12.076 14.6089 11.86C14.8572 11.7083 15.1589 11.7182 15.3913 11.86C15.1601 10.6496 14.8608 9.64429 14.5297 8.84742C12.7824 9.86806 11.6323 10.8471 10.8025 11.7798C10.7861 11.7982 10.7699 11.8166 10.7537 11.835C11.2848 12.5365 11.7304 13.3507 11.9791 14.3868C12.3569 15.9607 12.2616 17.9591 11.4991 20.7493L12.4999 20.7491C12.9141 20.749 13.2499 21.0848 13.25 21.499C13.2501 21.9132 12.9144 22.249 12.5002 22.2491L10.5 22.2495C10.2619 22.2496 10.038 22.1366 9.89655 21.9451C9.75512 21.7537 9.71297 21.5064 9.78298 21.2789C10.7656 18.0856 10.8504 16.1114 10.5205 14.737C10.3679 14.1014 10.1218 13.5708 9.80196 13.0853C9.44158 13.6312 9.14273 14.1756 8.84984 14.7269C8.79955 14.8215 8.74925 14.9168 8.69868 15.0126C8.22707 15.9059 7.73169 16.8443 6.99734 17.7527C6.3557 18.5465 5.5417 19.3081 4.41055 20.039L4.91603 20.376C5.26067 20.6057 5.3538 21.0714 5.12404 21.416C4.89428 21.7607 4.42862 21.8538 4.08398 21.624L2.58398 20.624C2.3649 20.478 2.23845 20.2277 2.25083 19.9647C2.26321 19.7017 2.4126 19.4645 2.64443 19.3396C4.18941 18.5077 5.14084 17.6633 5.83079 16.8098C6.4686 16.0207 6.89713 15.2104 7.37716 14.3026C7.42588 14.2105 7.47512 14.1173 7.52517 14.0231C7.88721 13.3416 8.28309 12.6216 8.81079 11.8782C8.70052 11.7629 8.58661 11.6471 8.46938 11.5299C7.79746 10.8581 7.58379 10.0683 7.7602 9.28105C7.92258 8.55646 8.39563 7.91859 8.90744 7.40691C9.93389 6.38072 11.4119 5.57215 12.2632 5.28846C12.9374 5.06379 13.5975 5.26841 14.1377 5.67359C14.6663 6.07014 15.1362 6.69186 15.54 7.46568ZM9.75717 10.6988C10.7074 9.64967 11.9829 8.59177 13.8274 7.52056C13.6167 7.218 13.4156 7.00705 13.2376 6.87351C12.9653 6.66929 12.813 6.68634 12.7375 6.71152C12.0892 6.92754 10.8169 7.61894 9.96796 8.46771C9.54206 8.8935 9.29611 9.28684 9.2239 9.60906C9.16574 9.8686 9.20191 10.1412 9.52995 10.4692C9.60588 10.5451 9.68169 10.6216 9.75717 10.6988Z" fill="#26272B"/>
</svg>
