<svg width="24" height="24" viewBox="0 0 24 24" fill="none" xmlns="http://www.w3.org/2000/svg">
<path fill-rule="evenodd" clip-rule="evenodd" d="M5.50019 2.75C6.19053 2.74999 6.75015 3.3096 6.75013 3.99994C6.75012 4.69031 6.19044 5.24999 5.50008 5.25C4.80973 5.25001 4.25012 4.6904 4.25013 4.00006C4.25015 3.30969 4.80982 2.75001 5.50019 2.75ZM6.13273 6.67687C7.34656 6.39108 8.25011 5.30103 8.25013 3.99997C8.25016 2.48118 7.01895 1.24997 5.50016 1.25C3.98139 1.25003 2.75016 2.48125 2.75013 4.00003C2.75009 5.92132 4.18914 7.36726 6.02095 8.34856C7.41328 9.09443 9.14969 9.64232 11.0086 9.97852C10.989 11.9115 10.845 13.3529 9.98657 14.7925C9.02484 16.4055 7.10294 18.1128 3.13244 20.3462C2.77142 20.5493 2.64338 21.0066 2.84645 21.3676C3.04952 21.7286 3.50681 21.8567 3.86783 21.6536C7.89733 19.387 10.106 17.5211 11.2749 15.5607C11.4811 15.215 11.6529 14.8693 11.7962 14.5223C12.0056 14.5472 12.2821 14.5936 12.5682 14.6651C12.793 14.7213 13.0024 14.788 13.1735 14.8613C13.3555 14.9393 13.4428 15.0033 13.4699 15.0304C13.5239 15.0843 13.584 15.1283 13.648 15.1623C13.1819 16.9799 12.1197 19.0905 9.90013 22.0499C9.65161 22.3813 9.71876 22.8514 10.0501 23.0999C10.3815 23.3484 10.8516 23.2813 11.1001 22.9499C13.3796 19.9106 14.5674 17.6179 15.1017 15.5321C15.547 13.7935 15.5253 12.2449 15.3607 10.6145C16.6076 10.8817 17.6151 11.2471 18.4436 11.7153C19.7357 12.4457 20.6377 13.4521 21.3293 14.8353C21.5146 15.2058 21.9651 15.356 22.3355 15.1707C22.706 14.9855 22.8562 14.535 22.671 14.1645C21.8626 12.5478 20.7645 11.3042 19.1817 10.4095C17.9519 9.7144 16.4585 9.24641 14.635 8.95404C14.6242 8.95206 14.6133 8.95033 14.6024 8.94883C14.1169 8.87172 13.6081 8.80697 13.0748 8.75364C10.6384 8.51 8.36671 7.90351 6.72927 7.02633C6.51651 6.91236 6.3177 6.79578 6.13273 6.67687ZM13.8236 10.3508C13.9534 11.4953 14.0181 12.5192 13.9247 13.5558C13.8705 13.5294 13.8167 13.505 13.7644 13.4826C13.498 13.3684 13.2074 13.2788 12.9322 13.2099C12.6997 13.1518 12.4626 13.1047 12.2416 13.07C12.4379 12.1446 12.4921 11.1966 12.5065 10.2007C12.6458 10.217 12.7855 10.2322 12.9255 10.2462C13.2358 10.2772 13.535 10.3121 13.8236 10.3508ZM13.0002 3.74996C12.3098 3.74997 11.7501 4.30965 11.7501 5.00001C11.7501 5.69036 12.3097 6.24997 13.0001 6.24996C13.6904 6.24994 14.2501 5.69027 14.2501 4.9999C14.2501 4.30956 13.6905 3.74994 13.0002 3.74996ZM10.2501 4.99998C10.2502 3.48121 11.4814 2.24999 13.0002 2.24996C14.519 2.24993 15.7502 3.48114 15.7501 4.99993C15.7501 6.5187 14.5189 7.74993 13.0001 7.74996C11.4813 7.74999 10.2501 6.51878 10.2501 4.99998Z" fill="#26272B"/>
</svg>
