<svg width="24" height="24" viewBox="0 0 24 24" fill="none" xmlns="http://www.w3.org/2000/svg">
<path fill-rule="evenodd" clip-rule="evenodd" d="M17.2502 2.5C16.5599 2.50001 16.0002 3.05969 16.0002 3.75006C16.0001 4.4404 16.5598 5.00001 17.2501 5C17.9405 4.99999 18.5001 4.44031 18.5002 3.74994C18.5002 3.0596 17.9406 2.49999 17.2502 2.5ZM14.5002 3.75003C14.5002 2.23125 15.7314 1.00003 17.2502 1C18.769 0.999968 20.0002 2.23118 20.0002 3.74997C20.0001 5.26874 18.7689 6.49997 17.2501 6.5C15.7313 6.50003 14.5001 5.26882 14.5002 3.75003ZM3.00016 5.25C3.00016 4.83579 3.33595 4.5 3.75016 4.5C5.17857 4.5 8.23063 4.7557 10.9368 5.32877C12.286 5.61449 13.5988 5.98907 14.5915 6.47475C15.0868 6.7171 15.5438 7.00673 15.886 7.35996C16.0877 7.56813 16.2618 7.81225 16.3727 8.09059C16.7489 8.89839 17.7795 9.39562 18.8196 9.3304C19.3233 9.29881 19.7489 9.13531 20.0356 8.88364C20.3052 8.64711 20.5002 8.29326 20.5002 7.75C20.5002 7.33579 20.836 7 21.2502 7C21.6644 7 22.0002 7.33579 22.0002 7.75C22.0002 8.70674 21.6326 9.47789 21.025 10.0111C20.4346 10.5292 19.6684 10.7801 18.9135 10.8275C17.9696 10.8866 16.9115 10.6276 16.0899 10.0241C15.9033 10.3548 15.6616 10.703 15.39 11.0537C15.0074 11.5478 14.5454 12.0727 14.0499 12.5953C14.3989 12.8039 14.7102 13.0263 14.9586 13.2801C15.4813 13.8143 15.7062 14.4604 15.6213 15.2661C15.5439 16.0003 15.2098 16.8672 14.6897 17.931C14.2805 18.7678 13.7309 19.7753 13.0393 21H13.7502C14.1644 21 14.5002 21.3358 14.5002 21.75C14.5002 22.1642 14.1644 22.5 13.7502 22.5H11.7502C11.4828 22.5 11.2357 22.3577 11.1015 22.1264C10.9673 21.8952 10.9664 21.61 11.099 21.3779C12.1003 19.6256 12.8386 18.3019 13.3421 17.2721C13.8533 16.2265 14.0818 15.5622 14.1296 15.1089C14.1698 14.7271 14.0824 14.5294 13.8865 14.3292C13.6964 14.135 13.403 13.9413 12.9542 13.6992C12.1889 14.4391 11.4084 15.1361 10.7474 15.6898C10.3888 15.9902 10.0613 16.2517 9.78764 16.4567C9.52809 16.6511 9.27715 16.825 9.08557 16.9208C8.60945 17.1589 8.11476 17.1288 7.67192 16.9884C7.24453 16.8528 6.81217 16.5993 6.38576 16.3041C5.82151 15.9135 5.15943 15.3696 4.41953 14.7619C4.28342 14.6501 4.14468 14.5361 4.00343 14.4205L3.42098 15.5854C3.23574 15.9559 2.78524 16.1061 2.41475 15.9208C2.04427 15.7356 1.8941 15.2851 2.07934 14.9146L3.07934 12.9146C3.18064 12.712 3.36805 12.566 3.58927 12.5175C3.81049 12.4689 4.04182 12.5229 4.21869 12.6643C4.66508 13.0215 5.06982 13.3541 5.44077 13.659C6.1439 14.2369 6.72564 14.7151 7.23957 15.0709C7.62566 15.3382 7.91205 15.4909 8.12528 15.5585C8.32307 15.6212 8.39088 15.5911 8.41475 15.5792C8.47318 15.55 8.62849 15.4508 8.88847 15.2561C9.1343 15.072 9.43968 14.8285 9.78419 14.5399C10.3226 14.0889 10.9468 13.536 11.575 12.9425C11.1726 12.6772 10.8396 12.3892 10.5943 12.0667C10.1622 11.4983 10.0293 10.8559 10.1979 10.1813C10.353 9.56067 10.7505 8.96261 11.2547 8.37911C11.5674 8.01721 11.9429 7.63677 12.3714 7.23463C11.8349 7.07382 11.2457 6.92745 10.626 6.79623C8.0197 6.2443 5.07176 6 3.75016 6C3.33595 6 3.00016 5.66421 3.00016 5.25ZM13.9452 7.82849C13.2945 8.40932 12.7756 8.91319 12.3896 9.35988C11.9378 9.88279 11.7229 10.2659 11.6531 10.545C11.5969 10.7702 11.6267 10.9462 11.7884 11.1588C11.9412 11.3598 12.217 11.5946 12.6764 11.8597C13.2573 11.2634 13.7895 10.6708 14.204 10.1353C14.4789 9.7804 14.6894 9.46673 14.8279 9.20576C14.9762 8.92651 15.0002 8.78424 15.0002 8.75C15.0002 8.68946 14.9772 8.57767 14.8087 8.40371C14.6361 8.22562 14.3531 8.02924 13.9452 7.82849ZM19.2502 18.5C18.5599 18.5 18.0002 19.0597 18.0002 19.7501C18.0001 20.4404 18.5598 21 19.2501 21C19.9405 21 20.5002 20.4403 20.5002 19.7499C20.5002 19.0596 19.9406 18.5 19.2502 18.5ZM16.5002 19.75C16.5002 18.2313 17.7314 17 19.2502 17C20.769 17 22.0002 18.2312 22.0002 19.75C22.0001 21.2687 20.7689 22.5 19.2501 22.5C17.7313 22.5 16.5001 21.2688 16.5002 19.75Z" fill="#26272B"/>
</svg>
