<svg width="24" height="24" viewBox="0 0 24 24" fill="none" xmlns="http://www.w3.org/2000/svg">
<path fill-rule="evenodd" clip-rule="evenodd" d="M19.0008 2.25C18.3104 2.25001 17.7507 2.80969 17.7507 3.50006C17.7507 4.1904 18.3103 4.75001 19.0006 4.75C19.691 4.74999 20.2507 4.19031 20.2507 3.49994C20.2507 2.8096 19.6911 2.24999 19.0008 2.25ZM16.2507 3.50003C16.2507 1.98125 17.482 0.750032 19.0007 0.75C20.5195 0.749968 21.7507 1.98118 21.7507 3.49997C21.7507 5.01874 20.5194 6.24997 19.0007 6.25C17.4819 6.25003 16.2507 5.01882 16.2507 3.50003ZM11.0008 3.24992C10.3104 3.24993 9.75071 3.80961 9.7507 4.49997C9.75068 5.19032 10.3103 5.74993 11.0006 5.74992C11.691 5.7499 12.2507 5.19023 12.2507 4.49986C12.2507 3.80952 11.6911 3.2499 11.0008 3.24992ZM8.2507 4.49994C8.25073 2.98117 9.48195 1.74995 11.0007 1.74992C12.5195 1.74989 13.7507 2.9811 13.7507 4.49989C13.7507 6.01866 12.5194 7.24989 11.0007 7.24992C9.48188 7.24995 8.25067 6.01874 8.2507 4.49994ZM5.337 4.32914C5.70748 4.51438 5.85765 4.96488 5.67241 5.33537C5.04394 6.59231 4.64263 7.49391 4.47775 8.1327C4.39592 8.44975 4.39015 8.63862 4.40637 8.74129C4.4176 8.81232 4.43385 8.82439 4.44948 8.836C4.45015 8.8365 4.45081 8.83699 4.45148 8.83749C4.49315 8.86875 4.61367 8.93199 4.89908 8.96766C5.17893 9.00265 5.5595 9.00429 6.06579 8.96334C7.07964 8.88133 8.47812 8.6397 10.3539 8.26452C14.1381 7.50767 16.8033 7.25214 18.5359 7.18797C19.4023 7.15589 20.0358 7.17164 20.4595 7.19656C20.6714 7.20902 20.8309 7.22378 20.9408 7.23599C20.9958 7.24209 21.0383 7.24756 21.0689 7.25179L21.1057 7.25713L21.1175 7.25896L21.1217 7.25964L21.1234 7.25992L21.1242 7.26004C21.1245 7.2601 21.1248 7.26016 21.0016 7.99996L21.1248 7.26016C21.5334 7.32823 21.8095 7.71464 21.7414 8.12322C21.6735 8.53092 21.2886 8.80664 20.881 8.7402C20.8805 8.74011 20.88 8.74003 20.8795 8.73995C20.8793 8.73992 20.8791 8.73989 20.8789 8.73986L20.8632 8.73762C20.8461 8.73526 20.8169 8.73145 20.7752 8.72682C20.6917 8.71754 20.5581 8.70495 20.3715 8.69398C19.9982 8.67202 19.4127 8.65653 18.5914 8.68694C17.585 8.72421 16.225 8.8304 14.468 9.07795C14.4996 9.1784 14.5309 9.2777 14.5618 9.37586C15.0257 10.8499 15.4089 12.0677 15.6728 13.1039C16.0009 14.3924 16.1665 15.4777 16.0592 16.5146C15.8423 18.6113 14.5251 20.2881 12.0557 23.0045C11.777 23.311 11.3027 23.3335 10.9962 23.0549C10.6897 22.7763 10.6671 22.3019 10.9457 21.9955C13.4763 19.2118 14.4091 17.8886 14.5672 16.3603C14.6474 15.5847 14.5317 14.7013 14.2192 13.4741C14.2042 13.415 14.1887 13.3553 14.1729 13.295C14.1329 13.3024 14.0895 13.3108 14.0426 13.3205C13.7993 13.3706 13.5083 13.4432 13.2162 13.5308C12.9225 13.6189 12.6413 13.7182 12.4128 13.819C12.2988 13.8693 12.2062 13.9163 12.1358 13.9582C12.1011 13.9788 12.075 13.9963 12.0563 14.0101C12.0382 14.0234 12.0309 14.0304 12.0309 14.0304L12.031 14.0303C11.9903 14.071 11.9461 14.106 11.8993 14.1354C11.799 15.2567 11.4821 16.2052 10.9387 17.0356C10.3262 17.9718 9.46298 18.6974 8.43445 19.3393C7.41103 19.9781 6.18203 20.5589 4.81132 21.1826C4.43431 21.3542 3.9896 21.1876 3.81805 20.8106C3.64649 20.4336 3.81305 19.9889 4.19007 19.8173C5.56643 19.191 6.71101 18.6468 7.64023 18.0668C8.56434 17.4901 9.23283 16.9032 9.68358 16.2143C10.5092 14.9525 10.7347 13.138 9.94909 9.87327C8.40274 10.1735 7.15577 10.3801 6.18673 10.4585C5.63059 10.5034 5.13622 10.509 4.71301 10.4561C4.29535 10.4039 3.88467 10.2874 3.5514 10.0374C2.78389 9.46172 2.82322 8.54099 3.02535 7.75784C3.23553 6.9435 3.70924 5.9076 4.33077 4.66455C4.51601 4.29406 4.96652 4.1439 5.337 4.32914ZM11.4224 9.58455C11.6694 10.6214 11.8283 11.5575 11.8963 12.4082C12.1765 12.2901 12.4859 12.1839 12.7852 12.0941C13.1181 11.9942 13.452 11.9106 13.7401 11.8513C13.7465 11.85 13.7529 11.8487 13.7593 11.8474C13.5777 11.2461 13.3696 10.5847 13.1374 9.8467C13.0823 9.67183 13.026 9.49266 12.9683 9.30896C12.4784 9.39055 11.9633 9.48204 11.4224 9.58455Z" fill="#26272B"/>
</svg>
