<svg width="24" height="24" viewBox="0 0 24 24" fill="none" xmlns="http://www.w3.org/2000/svg">
<path fill-rule="evenodd" clip-rule="evenodd" d="M16.0001 3.75C15.3098 3.75001 14.7501 4.30968 14.7501 5.00006C14.7501 5.6904 15.3097 6.25001 16 6.25C16.6904 6.24999 17.2501 5.69031 17.2501 4.99994C17.2501 4.30961 16.6905 3.74999 16.0001 3.75ZM13.2501 5.00003C13.2501 3.48126 14.4813 2.25003 16.0001 2.25C17.5189 2.24997 18.7501 3.48117 18.7501 4.99997C18.75 6.51875 17.5188 7.74997 16 7.75C14.4812 7.75003 13.25 6.51882 13.2501 5.00003ZM11.6647 6.82874C11.9264 6.69797 12.2402 6.73124 12.4686 6.91398C13.1052 7.42334 13.6165 7.90119 14.0833 8.33743L14.1136 8.36577C14.5925 8.81334 15.0203 9.21088 15.5181 9.59157C16.4931 10.3372 17.7814 11.0514 20.2156 11.7817C20.6123 11.9007 20.8375 12.3188 20.7185 12.7155C20.5994 13.1123 20.1813 13.3374 19.7846 13.2184C17.2188 12.4487 15.757 11.6626 14.6069 10.7831C14.5674 10.7528 14.5283 10.7225 14.4896 10.6922C14.097 11.452 13.6804 12.1778 13.2366 12.8713C13.9419 12.9864 14.5185 13.188 14.9555 13.4958C15.3554 13.7774 15.638 14.1481 15.7765 14.5969C15.9111 15.0333 15.8918 15.4858 15.7941 15.9158C15.6035 16.7546 15.0765 17.6675 14.432 18.5746C14.0493 19.1132 13.6062 19.6754 13.129 20.2496H13.5003C13.9145 20.2496 14.2503 20.5854 14.2503 20.9996C14.2503 21.4138 13.9145 21.7496 13.5003 21.7496H11.5003C11.206 21.7496 10.9389 21.5775 10.8173 21.3095C10.6957 21.0415 10.742 20.7272 10.9358 20.5057C11.8078 19.5092 12.5994 18.564 13.2092 17.7058C13.8303 16.8317 14.2095 16.1196 14.3314 15.5834C14.3899 15.326 14.3784 15.1534 14.3432 15.0391C14.3117 14.937 14.2467 14.8312 14.0919 14.7222C13.8049 14.5201 13.2486 14.3359 12.2693 14.2727C10.3872 16.8008 8.05706 18.8555 5.08527 20.5309C5.18838 20.6593 5.25007 20.8225 5.25007 21C5.25007 21.4142 4.91429 21.75 4.50007 21.75H2.50007C2.14705 21.75 1.84181 21.5038 1.76707 21.1588C1.69234 20.8137 1.86834 20.4633 2.18972 20.3172C5.68593 18.728 8.33895 16.7327 10.4344 14.1845C9.42576 14.0486 8.66437 13.6899 8.26253 13.0169C7.73259 12.1293 8.06762 11.0927 8.4602 10.3402C8.88094 9.53366 9.52742 8.74095 10.1153 8.12859C10.4126 7.81885 10.7049 7.54494 10.961 7.32829C11.202 7.12442 11.4546 6.93378 11.6647 6.82874ZM11.5164 12.7496C12.175 11.7973 12.7729 10.7757 13.3222 9.67873C13.2442 9.60636 13.1668 9.53399 13.0894 9.46171L13.0698 9.4434C12.719 9.11556 12.3662 8.78581 11.9652 8.44375C11.9536 8.45341 11.9418 8.46334 11.9297 8.47357C11.7171 8.65338 11.4625 8.89117 11.1974 9.16737C10.6603 9.72687 10.1193 10.4029 9.79011 11.0339C9.43276 11.7189 9.45535 12.0887 9.55045 12.2479C9.64215 12.4015 10.0379 12.7496 11.5003 12.7496C11.5057 12.7496 11.511 12.7496 11.5164 12.7496ZM17.2501 17C17.2501 16.5858 17.5859 16.25 18.0001 16.25H21.0001C21.4143 16.25 21.7501 16.5858 21.7501 17V18.4184C22.3413 18.6993 22.7501 19.3019 22.7501 20C22.7501 20.9665 21.9666 21.75 21.0001 21.75H18.0001C17.0336 21.75 16.2501 20.9665 16.2501 20C16.2501 19.0335 17.0336 18.25 18.0001 18.25H20.2501V17.75H18.0001C17.5859 17.75 17.2501 17.4142 17.2501 17ZM18.0001 19.75C17.862 19.75 17.7501 19.8619 17.7501 20C17.7501 20.1381 17.862 20.25 18.0001 20.25H21.0001C21.1381 20.25 21.2501 20.1381 21.2501 20C21.2501 19.8619 21.1381 19.75 21.0001 19.75H18.0001Z" fill="#26272B"/>
</svg>
