<svg width="24" height="24" viewBox="0 0 24 24" fill="none" xmlns="http://www.w3.org/2000/svg">
<path fill-rule="evenodd" clip-rule="evenodd" d="M11.3569 1.11424C11.57 0.759056 12.0307 0.643883 12.3859 0.856994L18.3323 4.42483C19.522 5.13868 20.25 6.42443 20.25 7.81192V22.5001C20.25 22.9143 19.9142 23.2501 19.5 23.2501C19.0858 23.2501 18.75 22.9143 18.75 22.5001V15.5835L18.1001 16.4501C17.9238 16.6852 17.6263 16.7957 17.3392 16.7327C17.0522 16.6696 16.8284 16.4447 16.7668 16.1573C16.3927 14.412 16.0627 13.2639 15.733 12.5484C15.3939 11.8125 15.1586 11.7529 15.0884 11.7435C14.9271 11.722 14.5962 11.8061 13.9082 12.2648C13.4735 12.5546 12.9911 12.9244 12.4151 13.3661C12.1256 13.588 11.8125 13.8281 11.4699 14.0852C11.7484 15.1367 11.9051 16.0153 11.898 16.7586C11.8894 17.6544 11.6418 18.3883 11.079 18.9877C10.5506 19.5506 9.80054 19.9308 8.93575 20.2694C8.27643 20.5275 7.4808 20.7862 6.57291 21.0813C6.56573 21.0836 6.55855 21.086 6.55136 21.0883L7.14969 22.1246C7.3568 22.4834 7.23389 22.942 6.87517 23.1492C6.51645 23.3563 6.05776 23.2334 5.85065 22.8746L4.78999 21.0375C4.67713 20.842 4.65831 20.6061 4.73876 20.3952C4.8192 20.1843 4.99035 20.0209 5.20473 19.9502C5.53646 19.8409 5.84951 19.7391 6.14523 19.6429C7.03893 19.3523 7.77438 19.1132 8.38888 18.8726C9.21071 18.5508 9.69633 18.269 9.9855 17.961C10.2403 17.6896 10.3923 17.3439 10.398 16.7443C10.4024 16.2834 10.3195 15.6988 10.137 14.9338C9.51878 15.2442 8.93608 15.4034 8.38989 15.374C7.51176 15.3269 6.90985 14.8093 6.53404 14.1374C6.17655 13.4982 5.98991 12.6729 5.88539 11.8181C5.77922 10.9496 5.75 9.97691 5.75 9.00011C5.75 8.6614 5.97702 8.36473 6.30395 8.27619C7.68995 7.90084 8.72001 7.59787 9.50628 7.28702C10.2899 6.97723 10.7756 6.68031 11.1078 6.34625C11.7532 5.69728 11.9917 4.7485 12.2431 2.52063L11.6141 2.14323C11.2589 1.93012 11.1438 1.46943 11.3569 1.11424ZM13.6535 3.36685C13.4281 5.15238 13.1225 6.44757 12.1714 7.40397C12.0906 7.48521 12.0062 7.56305 11.9181 7.63787C12.546 7.43887 13.049 7.1957 13.4594 6.91493C14.3386 6.31346 14.8705 5.4856 15.2644 4.3334L13.6535 3.36685ZM16.5755 5.12005C16.1152 6.33991 15.441 7.37668 14.3064 8.15293C13.2532 8.87348 11.8647 9.32676 10.0207 9.55937C10.4113 10.6853 10.746 11.6743 11.0193 12.5449C11.1651 12.4338 11.3081 12.3242 11.448 12.217C12.0524 11.7538 12.6002 11.334 13.0762 11.0167C13.7475 10.5691 14.5104 10.1532 15.2866 10.2567C16.1539 10.3723 16.6999 11.0627 17.0953 11.9206C17.3669 12.5102 17.6173 13.2851 17.8664 14.2617L18.4 13.5501C18.4923 13.4271 18.6151 13.3405 18.75 13.2929V7.81192C18.75 6.95133 18.2985 6.15384 17.5605 5.71106L16.5755 5.12005ZM9.7288 13.4499C9.41629 12.4174 8.99893 11.1853 8.48054 9.69728C8.09115 9.71971 7.68354 9.73495 7.25675 9.74309C7.26994 10.4226 7.30422 11.0628 7.37431 11.636C7.47113 12.4279 7.62879 13.0218 7.84317 13.4051C8.03925 13.7557 8.23678 13.8637 8.47028 13.8762C8.72085 13.8896 9.12475 13.7986 9.7288 13.4499ZM7 2.75011C6.30964 2.75011 5.75 3.30976 5.75 4.00011C5.75 4.69047 6.30964 5.25011 7 5.25011C7.69036 5.25011 8.25 4.69047 8.25 4.00011C8.25 3.30976 7.69036 2.75011 7 2.75011ZM4.25 4.00011C4.25 2.48133 5.48122 1.25011 7 1.25011C8.51878 1.25011 9.75 2.48133 9.75 4.00011C9.75 5.5189 8.51878 6.75011 7 6.75011C5.48122 6.75011 4.25 5.5189 4.25 4.00011Z" fill="#26272B"/>
</svg>
