<svg width="24" height="24" viewBox="0 0 24 24" fill="none" xmlns="http://www.w3.org/2000/svg">
<path fill-rule="evenodd" clip-rule="evenodd" d="M4.24995 6.00006C4.24996 5.30969 4.80964 4.75001 5.5 4.75C6.19035 4.74999 6.74996 5.3096 6.74995 5.99994C6.74993 6.69031 6.19026 7.24999 5.49989 7.25C4.80955 7.25001 4.24993 6.6904 4.24995 6.00006ZM5.49997 3.25C3.9812 3.25003 2.74998 4.48125 2.74995 6.00002C2.74992 7.51882 3.98113 8.75003 5.49993 8.75C7.0187 8.74997 8.24992 7.51874 8.24995 5.99997C8.24998 4.48118 7.01877 3.24997 5.49997 3.25ZM4.36259 9.84378C4.1783 9.74179 3.95962 9.722 3.76002 9.78924C3.56041 9.85648 3.39828 10.0046 3.31326 10.1973C2.75984 11.4516 2.63843 13.1 2.8325 14.6015C3.02466 16.0882 3.55012 17.6109 4.46949 18.5307C4.60474 18.666 4.7861 18.7441 4.9761 18.7501H2.5C2.08579 18.7501 1.75 19.0859 1.75 19.5001C1.75 19.9143 2.08579 20.2501 2.5 20.2501H18.2639C19.3056 20.2501 20.2578 19.6616 20.7236 18.7299L22.6708 14.8355C22.8561 14.465 22.7059 14.0145 22.3354 13.8293C21.9649 13.644 21.5144 13.7942 21.3292 14.1647L20.7039 15.4152L12.9074 10.3704C12.8362 10.3243 12.76 10.2918 12.6819 10.2723C12.5583 10.2412 12.425 10.2412 12.2936 10.2788C10.5542 10.7759 9.2834 11.042 8.0991 11.0058C6.93863 10.9704 5.80487 10.6419 4.36259 9.84378ZM12.377 11.8138C10.7615 12.2636 9.39469 12.546 8.05337 12.5051C7.75047 12.4959 7.45142 12.4703 7.15335 12.4276C6.95187 13.1575 7.04548 13.7238 7.27181 14.3033C7.73447 13.9186 8.24976 13.6243 8.86579 13.5123C9.79844 13.3428 10.7946 13.6198 11.9633 14.2454C13.0932 14.8501 14.4805 15.8338 16.2624 17.2505H17.9999C18.4142 17.2505 18.7499 17.5863 18.7499 18.0005C18.7499 18.4066 18.4271 18.7374 18.0239 18.7501H18.2639C18.7374 18.7501 19.1702 18.4826 19.382 18.0591L20.029 16.7651L12.377 11.8138ZM15.9762 18.7501C15.8143 18.745 15.6582 18.6875 15.5314 18.5861C13.663 17.0913 12.3011 16.1275 11.2554 15.5678C10.2053 15.0058 9.57646 14.9077 9.13405 14.9881C8.69296 15.0683 8.27032 15.3544 7.69008 15.9793C7.40351 16.2879 7.10139 16.653 6.74945 17.0817L6.67792 17.1688L6.67789 17.1689C6.34827 17.5705 5.9807 18.0184 5.56441 18.4943C5.42771 18.6505 5.23235 18.7432 5.02485 18.7501C5.02446 18.7501 5.02408 18.7501 5.0237 18.7501H15.9762ZM5.6936 12.0801C5.31474 13.515 5.71994 14.583 6.14472 15.463C5.96384 15.6753 5.77944 15.8993 5.59012 16.1299L5.5206 16.2146C5.36613 16.4028 5.20681 16.5969 5.0402 16.7969C4.69875 16.1797 4.44101 15.3444 4.32013 14.4092C4.1912 13.4117 4.23148 12.4012 4.43263 11.5674C4.86457 11.7734 5.28249 11.9437 5.6936 12.0801Z" fill="#26272B"/>
</svg>
