<svg width="24" height="24" viewBox="0 0 24 24" fill="none" xmlns="http://www.w3.org/2000/svg">
<path fill-rule="evenodd" clip-rule="evenodd" d="M17.0002 2.75C16.3099 2.75001 15.7502 3.30969 15.7502 4.00006C15.7501 4.6904 16.3098 5.25001 17.0001 5.25C17.6905 5.24999 18.2501 4.69031 18.2502 3.99994C18.2502 3.3096 17.6906 2.74999 17.0002 2.75ZM14.2502 4.00003C14.2502 2.48125 15.4814 1.25003 17.0002 1.25C18.519 1.24997 19.7502 2.48118 19.7502 3.99997C19.7501 5.51874 18.5189 6.74997 17.0001 6.75C15.4813 6.75003 14.2501 5.51882 14.2502 4.00003ZM2.75016 5.5C2.75016 5.08579 3.08595 4.75 3.50016 4.75C4.92857 4.75 7.98063 5.0057 10.6868 5.57877C12.036 5.86449 13.3488 6.23907 14.3415 6.72475C14.8368 6.9671 15.2938 7.25673 15.636 7.60996C15.8033 7.78264 15.9517 7.98007 16.0606 8.20124C16.1785 8.33373 16.2502 8.50831 16.2502 8.69961C16.2502 9.10735 16.4292 9.36636 16.7368 9.54535C17.0789 9.74443 17.5951 9.84195 18.1689 9.77937C19.3802 9.64727 20.2502 8.93293 20.2502 8C20.2502 7.58579 20.586 7.25 21.0002 7.25C21.4144 7.25 21.7502 7.58579 21.7502 8C21.7502 10.0671 19.8701 11.1027 18.3315 11.2705C17.5303 11.3579 16.6715 11.2428 15.9823 10.8418C15.8614 10.7715 15.7465 10.6925 15.639 10.6052C15.4913 10.8339 15.3224 11.0682 15.14 11.3037C14.7722 11.7787 14.331 12.2822 13.8572 12.7848C13.8873 12.7972 13.9175 12.8096 13.9478 12.8221C14.2207 12.9345 14.4983 13.0489 14.746 13.1709C15.3252 13.4561 15.9069 13.861 16.1538 14.6514C16.3779 15.3687 16.2772 16.2671 15.9663 17.4148C15.7024 18.3892 15.2591 19.6357 14.6141 21.25H15.5002C15.9144 21.25 16.2502 21.5858 16.2502 22C16.2502 22.4142 15.9144 22.75 15.5002 22.75H13.5002C13.25 22.75 13.0162 22.6252 12.877 22.4173C12.7378 22.2094 12.7114 21.9458 12.8067 21.7144C13.6798 19.594 14.2269 18.0993 14.5185 17.0227C14.8171 15.9204 14.8103 15.3813 14.722 15.0986C14.6565 14.889 14.5197 14.7314 14.0834 14.5166C13.8839 14.4184 13.6569 14.3248 13.3764 14.2091C13.3392 14.1937 13.3011 14.178 13.262 14.1619C13.0939 14.0924 12.913 14.0167 12.7219 13.9321C11.9509 14.6784 11.1635 15.3818 10.4974 15.9398C10.1388 16.2402 9.81135 16.5017 9.53764 16.7067C9.27809 16.9011 9.02715 17.075 8.83557 17.1708C8.35945 17.4089 7.86476 17.3788 7.42192 17.2384C6.99453 17.1028 6.56217 16.8493 6.13576 16.5541C5.57151 16.1635 4.90943 15.6196 4.16953 15.0119C4.03342 14.9001 3.89468 14.7861 3.75343 14.6705L3.17098 15.8354C2.98574 16.2059 2.53524 16.3561 2.16475 16.1708C1.79427 15.9856 1.6441 15.5351 1.82934 15.1646L2.82934 13.1646C2.93064 12.962 3.11805 12.816 3.33927 12.7675C3.56049 12.7189 3.79182 12.7729 3.96869 12.9143C4.41508 13.2715 4.81982 13.6041 5.19077 13.909C5.8939 14.4869 6.47564 14.9651 6.98957 15.3209C7.37566 15.5882 7.66205 15.7409 7.87528 15.8085C8.07307 15.8712 8.14088 15.8411 8.16475 15.8292C8.22318 15.8 8.37849 15.7008 8.63847 15.5061C8.8843 15.322 9.18968 15.0785 9.53419 14.7899C10.0726 14.3389 10.6968 13.786 11.325 13.1925C10.9226 12.9272 10.5896 12.6392 10.3443 12.3167C9.91216 11.7483 9.77932 11.1059 9.94789 10.4313C10.103 9.81067 10.5005 9.21261 11.0047 8.62911C11.3174 8.26721 11.6929 7.88677 12.1214 7.48463C11.5849 7.32382 10.9957 7.17745 10.376 7.04623C7.7697 6.4943 4.82176 6.25 3.50016 6.25C3.08595 6.25 2.75016 5.91421 2.75016 5.5ZM13.6952 8.07849C13.0445 8.65932 12.5256 9.16319 12.1396 9.60988C11.6878 10.1328 11.4729 10.5159 11.4031 10.795C11.3469 11.0202 11.3767 11.1962 11.5384 11.4088C11.6912 11.6098 11.967 11.8446 12.4264 12.1097C13.0073 11.5134 13.5395 10.9208 13.954 10.3853C14.2289 10.0304 14.4394 9.71673 14.5779 9.45576C14.7262 9.17651 14.7502 9.03424 14.7502 9C14.7502 8.93946 14.7272 8.82767 14.5587 8.65371C14.3861 8.47562 14.1031 8.27924 13.6952 8.07849Z" fill="#26272B"/>
</svg>
