<svg width="24" height="24" viewBox="0 0 24 24" fill="none" xmlns="http://www.w3.org/2000/svg">
<path fill-rule="evenodd" clip-rule="evenodd" d="M20.2369 1.28869C20.6298 1.41968 20.8422 1.84442 20.7112 2.23737C20.1517 3.91586 18.9175 5.39544 17.5045 6.68014C16.3023 7.77308 14.9239 8.7661 13.6179 9.6526C13.8791 9.92505 14.1817 10.2059 14.5143 10.4877C14.7731 10.4234 15.0331 10.3537 15.2941 10.2791C15.6924 10.1653 16.1075 10.3958 16.2213 10.7941C16.3078 11.0967 16.1955 11.409 15.9619 11.5915C16.1295 11.7076 16.2999 11.8222 16.4722 11.9345C17.8858 12.8565 19.3027 13.5529 20.1816 13.7726C20.5835 13.8731 20.8278 14.2803 20.7273 14.6821C20.6269 15.084 20.2197 15.3283 19.8178 15.2278C18.6967 14.9475 17.1138 14.1439 15.6527 13.1909C15.1386 12.8556 14.6247 12.4921 14.1384 12.1137C12.3024 12.5044 10.4579 12.6417 8.67281 12.3608C8.39534 13.2958 8.59692 13.9611 8.94996 14.7133C9.43814 14.3313 9.97551 14.04 10.6031 13.9145C11.5814 13.7189 12.6337 13.9534 13.8655 14.566C15.0383 15.1493 16.4462 16.1118 18.2119 17.5101L19.8891 17.2589C20.2988 17.1976 20.6806 17.4799 20.7419 17.8896C20.7876 18.1942 20.6431 18.4835 20.3975 18.637C21.173 18.4876 21.592 18.3557 21.7217 18.3038C22.1062 18.15 22.5427 18.3371 22.6966 18.7217C22.8504 19.1062 22.6633 19.5427 22.2787 19.6966C21.6484 19.9487 18.7036 20.7502 12.0002 20.7502C5.29678 20.7502 2.352 19.9487 1.72166 19.6966C1.33707 19.5427 1.15001 19.1062 1.30384 18.7217C1.45768 18.3371 1.89415 18.15 2.27874 18.3038C2.50346 18.3937 3.59745 18.7241 5.91022 18.9693C5.01531 18.0261 4.5164 16.3979 4.33181 14.8437C4.14059 13.2338 4.25729 11.4582 4.81351 10.1975C4.89853 10.0048 5.06066 9.85669 5.26026 9.78945C5.45987 9.72221 5.67854 9.742 5.86283 9.84398C7.93167 10.9888 10.2436 11.2113 12.6929 10.8515C12.3911 10.5494 12.1228 10.247 11.9002 9.9502C11.7765 9.7853 11.7262 9.57675 11.761 9.37358C11.7958 9.1704 11.9127 8.99051 12.0842 8.87617C13.5822 7.8775 15.1658 6.77916 16.4954 5.57027C17.8321 4.35496 18.8477 3.08455 19.2882 1.76303C19.4192 1.37008 19.8439 1.15771 20.2369 1.28869ZM6.98886 19.0692C8.32654 19.1762 9.98237 19.2502 12.0002 19.2502C14.4029 19.2502 16.2923 19.1453 17.7426 19.0046C17.6671 18.9769 17.5957 18.9371 17.5317 18.8858C15.6685 17.3953 14.2809 16.4479 13.1975 15.9091C12.1168 15.3716 11.419 15.2811 10.8972 15.3854C10.3705 15.4907 9.87678 15.8224 9.25663 16.4603C8.86996 16.858 8.48854 17.3132 8.04532 17.8422C7.75199 18.1922 7.43159 18.5746 7.06468 18.994C7.04108 19.021 7.01572 19.0461 6.98886 19.0692ZM7.81508 15.8075L7.81375 15.8048C7.33689 14.8509 6.75235 13.6817 7.20782 12.0285C6.78027 11.9001 6.35742 11.7439 5.94024 11.5575C5.73357 12.4339 5.68888 13.5516 5.82134 14.6668C5.94526 15.7102 6.20982 16.6324 6.55198 17.2868C6.64846 17.1724 6.74374 17.0589 6.83782 16.9469C7.17924 16.5402 7.50486 16.1523 7.81508 15.8075ZM7.00025 4.7502C6.30988 4.75022 5.75021 5.30989 5.75019 6.00026C5.75018 6.6906 6.30979 7.25022 7.00014 7.2502C7.69051 7.25019 8.25018 6.69052 8.25019 6.00015C8.25021 5.3098 7.69059 4.75019 7.00025 4.7502ZM4.25019 6.00023C4.25022 4.48146 5.48145 3.25024 7.00022 3.2502C8.51901 3.25017 9.75022 4.48138 9.75019 6.00018C9.75016 7.51894 8.51894 8.75017 7.00017 8.7502C5.48138 8.75024 4.25016 7.51902 4.25019 6.00023Z" fill="#26272B"/>
</svg>
