<svg width="24" height="24" viewBox="0 0 24 24" fill="none" xmlns="http://www.w3.org/2000/svg">
<path fill-rule="evenodd" clip-rule="evenodd" d="M14.0002 2.25C13.3098 2.25001 12.7502 2.80969 12.7501 3.50006C12.7501 4.1904 13.3097 4.75001 14.0001 4.75C14.6904 4.74999 15.2501 4.19031 15.2501 3.49994C15.2502 2.8096 14.6905 2.24999 14.0002 2.25ZM11.2501 3.50003C11.2502 1.98125 12.4814 0.750032 14.0002 0.75C15.519 0.749968 16.7502 1.98118 16.7501 3.49997C16.7501 5.01874 15.5189 6.24997 14.0001 6.25C12.4813 6.25003 11.2501 5.01882 11.2501 3.50003ZM22.2356 6.35291C22.3168 6.75908 22.0534 7.1542 21.6473 7.23544L20.0906 7.54677C19.9589 7.57311 19.8715 7.6988 19.8927 7.83142L19.9599 8.25088C20.272 8.23408 20.5739 8.4151 20.6964 8.72146C20.8503 9.10604 20.6632 9.54252 20.2786 9.69636C20.2511 9.70738 20.2237 9.71835 20.1964 9.72924L21.6552 18.8468C22.5784 19.1273 23.2502 19.9852 23.2502 21C23.2502 22.2426 22.2428 23.25 21.0002 23.25C20.0205 23.25 19.1871 22.6239 18.8782 21.75H8.62215C8.31327 22.6239 7.47984 23.25 6.50018 23.25C5.25754 23.25 4.25018 22.2426 4.25018 21C4.25018 19.7574 5.25754 18.75 6.50018 18.75C7.47984 18.75 8.31327 19.3761 8.62215 20.25H13.0904C12.8719 20.25 12.6642 20.1547 12.5217 19.989C12.3792 19.8233 12.3161 19.6036 12.3489 19.3876C12.3734 19.2258 12.3972 19.069 12.4203 18.917C12.6128 17.6504 12.7543 16.7194 12.8316 16.0052C12.9199 15.1901 12.9109 14.7585 12.8454 14.4907C12.7958 14.2881 12.7111 14.1585 12.4758 13.9787C12.2732 13.8239 12.0237 13.678 11.6646 13.4681C11.5048 13.3746 11.3232 13.2684 11.1143 13.1431C10.9566 13.0485 10.7912 12.9526 10.6238 12.8564C10.4164 13.2263 10.2223 13.5689 10.0396 13.884C9.65338 14.5501 9.30605 15.1137 8.97648 15.5682C8.64961 16.019 8.31366 16.4001 7.9393 16.6705C7.54831 16.9529 7.11711 17.1127 6.63343 17.1143C6.16997 17.1157 5.7214 16.9714 5.28523 16.7622C4.63987 16.4527 3.87954 15.9266 2.95818 15.2603L2.72778 16.1819C2.62732 16.5837 2.22012 16.8281 1.81828 16.7276C1.41643 16.6271 1.17211 16.2199 1.27257 15.8181L1.77257 13.8181C1.83304 13.5762 2.00973 13.3802 2.24405 13.2951C2.47837 13.21 2.73968 13.2468 2.94131 13.3934C3.0167 13.4483 3.09062 13.5021 3.16313 13.5548C4.44573 14.4881 5.28364 15.0978 5.93388 15.4097C6.26333 15.5677 6.47882 15.6147 6.62865 15.6143C6.75825 15.6138 6.88954 15.5784 7.06106 15.4545C7.24919 15.3186 7.47575 15.0826 7.76216 14.6876C8.04586 14.2964 8.3626 13.7858 8.742 13.1316C8.92671 12.8131 9.12347 12.4654 9.33598 12.0862C8.84064 11.7537 8.3395 11.3372 8.06929 10.7518C7.76942 10.1021 7.81509 9.39027 8.13682 8.62378C8.44895 7.88019 9.04241 7.02716 9.93585 6.00611C10.1914 5.71406 10.6276 5.66519 10.9414 5.89346C11.7003 6.44541 12.3418 6.93534 12.8883 7.35826C12.9392 7.38899 12.9851 7.42484 13.0258 7.46478C13.1429 7.55559 13.2554 7.64311 13.3637 7.72729C13.6172 7.92442 13.8471 8.10325 14.0566 8.26309C14.8222 8.84715 15.2823 9.14982 15.6872 9.29276C16.0423 9.41809 16.4016 9.4354 16.9998 9.28754C17.4076 9.18674 17.8928 9.01816 18.5247 8.77566L18.4116 8.0684C18.2631 7.14008 18.8745 6.26028 19.7964 6.0759L21.3531 5.76456C21.7593 5.68333 22.1544 5.94674 22.2356 6.35291ZM18.7667 10.2881C18.2329 10.4873 17.7709 10.6421 17.3598 10.7437C16.5673 10.9396 15.8954 10.9569 15.188 10.7072C14.5305 10.4752 13.8968 10.0279 13.1468 9.45566C13.0096 9.35095 12.8671 9.24093 12.718 9.12526C12.2153 10.004 11.7709 10.7986 11.3722 11.5144C11.3664 11.5248 11.3605 11.5353 11.3548 11.5457C11.5211 11.6412 11.6974 11.7436 11.8861 11.8569C12.0372 11.9475 12.1865 12.0348 12.3315 12.1196C12.7354 12.3557 13.1057 12.5721 13.3867 12.7869C13.826 13.1227 14.1532 13.5244 14.3024 14.1343C14.4357 14.679 14.4123 15.3411 14.3229 16.1667C14.2503 16.8366 14.1251 17.681 13.9629 18.75H15C15.4142 18.75 15.75 19.0858 15.75 19.5C15.75 19.9142 15.4142 20.25 15 20.25H18.8782C19.0919 19.6453 19.5568 19.1593 20.1474 18.9172L18.7667 10.2881ZM10.0696 10.7703C10.4946 10.0076 10.9735 9.15145 11.5204 8.19807C11.2435 7.98606 10.9451 7.76015 10.6207 7.51927C10.0402 8.23363 9.69774 8.78071 9.51991 9.20434C9.3104 9.70348 9.35608 9.96039 9.43122 10.1232C9.51694 10.3089 9.70522 10.5135 10.0696 10.7703ZM6.50018 20.25C6.08596 20.25 5.75018 20.5858 5.75018 21C5.75018 21.4142 6.08596 21.75 6.50018 21.75C6.91439 21.75 7.25018 21.4142 7.25018 21C7.25018 20.5858 6.91439 20.25 6.50018 20.25ZM21.0002 20.25C20.586 20.25 20.2502 20.5858 20.2502 21C20.2502 21.4142 20.586 21.75 21.0002 21.75C21.4144 21.75 21.7502 21.4142 21.7502 21C21.7502 20.5858 21.4144 20.25 21.0002 20.25Z" fill="#26272B"/>
</svg>
