<svg width="24" height="24" viewBox="0 0 24 24" fill="none" xmlns="http://www.w3.org/2000/svg">
<path fill-rule="evenodd" clip-rule="evenodd" d="M7.36039 4.45169C5.74356 4.85749 4.00652 4.99361 1.68166 3.90303C1.30666 3.72712 1.14526 3.28051 1.32117 2.90551C1.49708 2.53051 1.94369 2.36911 2.31869 2.54502C4.25699 3.45426 5.62522 3.34067 6.99523 2.99681C7.32882 2.91308 7.67882 2.80878 8.04696 2.69907C9.177 2.36232 10.478 1.97461 12.0002 1.97461C13.5223 1.97461 14.8233 2.36225 15.9534 2.69895C16.3215 2.80864 16.6715 2.91292 17.0051 2.99663C18.3751 3.34044 19.7434 3.45403 21.6817 2.54499C22.0567 2.36912 22.5033 2.53055 22.6792 2.90557C22.8551 3.28059 22.6937 3.72718 22.3186 3.90306C19.9938 4.99337 18.2568 4.85725 16.64 4.45152C16.1923 4.33917 15.7741 4.21481 15.3662 4.09351C14.2896 3.77337 13.2849 3.47461 12.0002 3.47461C10.7155 3.47461 9.71084 3.77341 8.63427 4.0936C8.22634 4.21492 7.8081 4.33932 7.36039 4.45169ZM1.81828 5.27196C2.22012 5.1715 2.62732 5.41582 2.72778 5.81767C3.70154 9.71269 5.25445 12.1524 7.24861 13.5768C9.18502 14.9599 11.6477 15.4646 14.6705 15.271C14.6531 14.77 14.6247 14.3317 14.5964 13.9821C14.5886 13.8866 14.5809 13.7978 14.5734 13.7162C14.5439 13.7148 14.5145 13.7133 14.4851 13.7119C13.6436 13.6709 12.8282 13.6312 12.0905 13.54C11.1359 13.422 10.2188 13.2095 9.43127 12.7405C7.76847 11.7501 7.00018 9.83061 7.00018 6.49957C7.00018 6.08536 7.33596 5.74957 7.75018 5.74957C8.16439 5.74957 8.50018 6.08536 8.50018 6.49957C8.50018 9.66853 9.23505 10.8777 10.1988 11.4517C10.7246 11.7649 11.4016 11.9434 12.2745 12.0513C12.9515 12.135 13.6907 12.1711 14.5203 12.2117C14.7687 12.2238 15.0252 12.2363 15.2906 12.2507C15.4952 12.2617 15.6863 12.3559 15.8196 12.5115C16.6578 13.4893 17.3826 14.9651 17.9574 16.5937C18.5374 18.2368 18.9861 20.0977 19.2426 21.8935C19.3012 22.3036 19.0163 22.6835 18.6062 22.742C18.1962 22.8006 17.8163 22.5157 17.7577 22.1056C17.5143 20.4015 17.088 18.6373 16.5429 17.0929C16.4285 16.7688 16.3098 16.4569 16.1875 16.1593C16.1876 16.1893 16.1877 16.2194 16.1877 16.2496C16.1877 18.1571 15.9993 20.6379 15.2024 22.7629C15.057 23.1508 14.6247 23.3473 14.2368 23.2018C13.849 23.0564 13.6525 22.6241 13.7979 22.2362C14.4358 20.5353 14.6486 18.51 14.6826 16.7731C11.4851 16.9656 8.66835 16.4342 6.37675 14.7974C3.9959 13.0968 2.29882 10.2865 1.27257 6.18147C1.17211 5.77963 1.41643 5.37243 1.81828 5.27196ZM20.0002 11.2496C19.3099 11.2496 18.7502 11.8093 18.7502 12.4997C18.7502 13.19 19.3098 13.7496 20.0001 13.7496C20.6905 13.7496 21.2502 13.1899 21.2502 12.4996C21.2502 11.8092 20.6906 11.2496 20.0002 11.2496ZM17.2502 12.4996C17.2502 10.9809 18.4814 9.74965 20.0002 9.74961C21.519 9.74958 22.7502 10.9808 22.7502 12.4996C22.7501 14.0184 21.5189 15.2496 20.0002 15.2496C18.4814 15.2496 17.2501 14.0184 17.2502 12.4996Z" fill="#26272B"/>
</svg>
