<svg width="24" height="24" viewBox="0 0 24 24" fill="none" xmlns="http://www.w3.org/2000/svg">
<path fill-rule="evenodd" clip-rule="evenodd" d="M14.25 3.99997C14.25 2.48118 15.4812 1.24997 17 1.25C18.5188 1.25003 19.75 2.48125 19.75 4.00002C19.7501 5.51882 18.5189 6.75003 17.0001 6.75C15.4813 6.74997 14.2501 5.51874 14.25 3.99997ZM17 2.75C16.3096 2.74999 15.75 3.3096 15.75 3.99994C15.75 4.69031 16.3097 5.24999 17.0001 5.25C17.6904 5.25001 18.25 4.6904 18.25 4.00006C18.25 3.30969 17.6903 2.75001 17 2.75ZM0.825472 2.73161C0.895824 2.32341 1.28376 2.04954 1.69196 2.11989L8.58038 3.3071C8.59745 3.30895 8.61458 3.31139 8.63174 3.31445C9.03954 3.38704 9.31128 3.77648 9.23869 4.18428L9.23853 4.18519C9.18898 4.46476 9.36831 4.71449 9.63205 4.76155C9.9293 4.81459 10.2179 4.59847 10.262 4.35159C10.3344 3.94555 10.7211 3.6742 11.1276 3.74419L12.6276 4.00248C13.0358 4.07277 13.3097 4.46067 13.2394 4.86887C13.194 5.1327 13.0159 5.34044 12.7854 5.43541C13.7945 7.1104 16.0819 8.05374 18.794 7.27886C19.1675 7.17214 19.5607 7.36827 19.7001 7.73085C20.3006 9.29288 20.7286 10.5359 20.7695 11.5346C20.7911 12.0604 20.709 12.5571 20.4681 13.0146C20.2286 13.4693 19.8635 13.8257 19.4161 14.124C19.2515 14.2337 19.0641 14.3394 18.8734 14.4403C19.9705 16.6644 21.2734 19.1477 22.6556 21.6355C22.7847 21.8678 22.7812 22.1511 22.6465 22.3801C22.5117 22.6091 22.2658 22.7498 22.0001 22.7498L20.0001 22.75C19.5859 22.75 19.2501 22.4143 19.25 22.0001C19.25 21.5859 19.5857 21.25 20 21.25L20.7305 21.2499C19.5799 19.1447 18.4958 17.0632 17.5555 15.1593C17.2817 15.3399 17.0025 15.5582 16.7179 15.8428C15.7858 16.775 14.7076 18.5083 13.7252 22.1932C13.6377 22.5215 13.3403 22.75 13.0005 22.75H10.9991C10.5848 22.75 10.2491 22.4142 10.2491 22C10.2491 21.5858 10.5848 21.25 10.9991 21.25H12.4289C13.4097 17.7928 14.5239 15.9156 15.6572 14.7822C16.0841 14.3553 16.5024 14.0454 16.8949 13.8013C16.3057 12.5704 15.792 11.4392 15.378 10.4561C14.2879 10.5595 13.1513 10.4286 12.0346 10.0936C9.34509 9.28691 6.704 7.2894 4.86729 4.40314C4.82084 4.33015 4.78858 4.25218 4.76981 4.17246L1.43719 3.59809C1.029 3.52774 0.75512 3.1398 0.825472 2.73161ZM6.7728 4.51768C8.37226 6.62428 10.4375 8.04857 12.4655 8.65686C13.5423 8.97985 14.5938 9.07115 15.5625 8.92316C13.5925 8.5531 11.9742 7.37976 11.2026 5.64636C10.7353 6.1205 10.0423 6.35846 9.36854 6.23822C8.53951 6.09028 7.93472 5.45722 7.77319 4.69009L6.7728 4.51768ZM18.6694 9.25834C18.1117 9.65381 17.5096 9.94922 16.8783 10.1515C17.2536 11.0282 17.7058 12.0193 18.2181 13.0913C18.3454 13.0239 18.4637 12.9562 18.584 12.876C18.8866 12.6743 19.049 12.49 19.1409 12.3156C19.2312 12.1441 19.2842 11.9234 19.2708 11.596C19.2482 11.0456 19.0485 10.3143 18.6694 9.25834Z" fill="#26272B"/>
</svg>
