<svg width="24" height="24" viewBox="0 0 24 24" fill="none" xmlns="http://www.w3.org/2000/svg">
<path fill-rule="evenodd" clip-rule="evenodd" d="M6.00023 5.75C5.30987 5.75001 4.7502 6.30968 4.75019 7.00006C4.75017 7.6904 5.30978 8.25001 6.00012 8.25C6.69049 8.24999 7.25017 7.69031 7.25019 6.99994C7.2502 6.30961 6.69058 5.74999 6.00023 5.75ZM3.25019 7.00003C3.25022 5.48126 4.48143 4.25003 6.0002 4.25C7.51899 4.24997 8.75022 5.48117 8.75019 6.99997C8.75016 8.51875 7.51891 9.74997 6.00015 9.75C4.48136 9.75003 3.25016 8.51882 3.25019 7.00003ZM2.00053 5.75C2.41474 5.75001 2.75052 6.0858 2.75051 6.50002C2.75049 7.53682 2.78619 9.05425 4.33603 9.82918C5.21466 10.2685 5.93322 10.3573 6.57375 10.2587C7.23195 10.1574 7.87582 9.84814 8.58426 9.37593C9.65207 8.66418 10.9 8.9011 11.8809 9.30699C12.6698 9.63342 13.4191 10.1212 14.016 10.5648C14.3888 9.93509 14.8482 9.2834 15.4166 8.84418C15.8606 8.50111 16.4074 8.25681 17.052 8.27284C17.6894 8.28869 18.3204 8.5566 18.9441 9.04019C20.1639 9.98591 21.5382 11.899 23.171 15.1644C23.3563 15.5348 23.2061 15.9853 22.8356 16.1706C22.4651 16.3558 22.0146 16.2057 21.8294 15.8352C20.2122 12.6009 18.9615 10.9517 18.025 10.2256C17.9982 10.2049 17.9719 10.185 17.9459 10.166L23.268 19.8926C23.4668 20.256 23.3334 20.7117 22.97 20.9106C22.6067 21.1094 22.1509 20.976 21.9521 20.6126L18.1898 13.7367L2.05586 20.9375C1.67761 21.1063 1.23412 20.9365 1.0653 20.5583C0.896485 20.18 1.06626 19.7366 1.44451 19.5677L17.4675 12.4165L16.3422 10.36C16.2957 10.275 16.2674 10.185 16.2559 10.0943C15.7519 10.5237 15.3125 11.2857 14.8654 12.1259C14.8358 12.1816 14.806 12.2378 14.7761 12.2943C14.5868 12.6516 14.3929 13.0175 14.205 13.3124C14.0946 13.4856 13.9698 13.6612 13.8296 13.8106C13.6954 13.9536 13.4998 14.1242 13.2375 14.2117C12.172 14.5672 11.1123 14.1777 10.1692 13.6575C9.517 13.2977 8.80246 12.8041 8.06895 12.2973C7.76686 12.0886 7.46155 11.8777 7.15605 11.673C7.03963 11.7 6.9216 11.7229 6.80187 11.7413C5.81765 11.8927 4.78652 11.7315 3.66519 11.1708C1.24874 9.96257 1.24999 7.53109 1.2505 6.5405C1.2505 6.52671 1.25051 6.5132 1.25051 6.49998C1.25052 6.08577 1.58631 5.74999 2.00053 5.75ZM8.82178 10.9934C8.8827 11.0355 8.94295 11.0771 9.00259 11.1184C9.69793 11.5991 10.3088 12.0214 10.8937 12.344C11.7332 12.8071 12.2891 12.9257 12.7175 12.8029C12.7225 12.798 12.7286 12.7919 12.7357 12.7843C12.7854 12.7313 12.853 12.6427 12.9399 12.5063C13.0491 12.335 13.1626 12.1308 13.289 11.8955C12.7175 11.4573 12.0119 10.9846 11.3074 10.693C10.4758 10.3489 9.84866 10.3358 9.41621 10.6241C9.22215 10.7534 9.02424 10.8775 8.82178 10.9934ZM12.6994 12.8189C12.6994 12.8188 12.6999 12.8185 12.7007 12.8179Z" fill="#26272B"/>
</svg>
