<svg width="24" height="24" viewBox="0 0 24 24" fill="none" xmlns="http://www.w3.org/2000/svg">
<path fill-rule="evenodd" clip-rule="evenodd" d="M16 2.75C15.3097 2.75001 14.75 3.30969 14.75 4.00006C14.7499 4.6904 15.3096 5.25001 15.9999 5.25C16.6903 5.24999 17.2499 4.69031 17.25 3.99994C17.25 3.3096 16.6904 2.74999 16 2.75ZM13.25 4.00003C13.25 2.48125 14.4812 1.25003 16 1.25C17.5188 1.24997 18.75 2.48118 18.75 3.99997C18.7499 5.51874 17.5187 6.74997 15.9999 6.75C14.4811 6.75003 13.2499 5.51882 13.25 4.00003ZM3.25 5.5C3.25 5.08579 3.58579 4.75 4 4.75C5.43246 4.75 8.11975 5.00661 10.4032 5.5855C11.538 5.87318 12.6377 6.25604 13.4382 6.76584C13.9448 7.08847 14.4376 7.53767 14.6565 8.1171C15.4607 9.05555 16.6141 9.3234 17.5681 9.08489C18.5386 8.84227 19.25 8.1028 19.25 7C19.25 6.58579 19.5858 6.25 20 6.25C20.4142 6.25 20.75 6.58579 20.75 7C20.75 8.8972 19.4614 10.1577 17.9319 10.5401C16.8119 10.8201 15.5347 10.6436 14.4625 9.93206C14.3758 10.1144 14.2751 10.2967 14.1655 10.4767C13.8942 10.9227 13.5422 11.3976 13.1375 11.8847C13.786 11.976 14.338 12.0819 14.7734 12.225C15.4037 12.4322 16.1136 12.8312 16.185 13.6877C16.2154 14.0527 16.1127 14.4056 15.9699 14.7223C15.8249 15.044 15.6118 15.3862 15.352 15.7491C15.0417 16.1825 14.6393 16.6799 14.1525 17.25H14.5C14.9142 17.25 15.25 17.5858 15.25 18C15.25 18.4084 14.9235 18.7406 14.5173 18.7498H20.5859C20.6522 18.7498 20.7158 18.7235 20.7627 18.6766L21.4698 17.9696C21.7627 17.6768 22.2376 17.6768 22.5305 17.9697C22.8233 18.2626 22.8233 18.7375 22.5304 19.0304L21.8233 19.7374C21.4951 20.0655 21.05 20.2498 20.5859 20.2498H20.1219C20.2049 20.4844 20.25 20.7369 20.25 21C20.25 22.2426 19.2426 23.25 18 23.25C16.7574 23.25 15.75 22.2426 15.75 21C15.75 20.7369 15.7951 20.4844 15.8781 20.2498H13.1219C13.2049 20.4844 13.25 20.7369 13.25 21C13.25 22.2426 12.2426 23.25 11 23.25C9.75736 23.25 8.75 22.2426 8.75 21C8.75 20.7369 8.79515 20.4844 8.8781 20.2498H8C7.58579 20.2498 7.25 19.914 7.25 19.4998C7.25 19.0856 7.58579 18.7498 8 18.7498H12.4829C12.1943 18.7432 11.9345 18.5714 11.8158 18.3072C11.6948 18.0378 11.7432 17.7225 11.9394 17.5017C12.9422 16.3737 13.6665 15.5266 14.1324 14.8759C14.3648 14.5513 14.515 14.2998 14.6025 14.1058C14.6714 13.953 14.6867 13.8676 14.6897 13.8317C14.6475 13.7954 14.5398 13.7272 14.3049 13.65C13.8197 13.4905 13.0518 13.3715 11.9171 13.2454C11.9149 13.2452 11.9126 13.2449 11.9104 13.2447C11.3529 13.8218 10.742 14.4108 10.1065 14.9913C8.11396 16.8112 5.82633 18.5954 4.09372 19.7082L5.10012 21.05C5.34866 21.3813 5.28153 21.8514 4.95017 22.1C4.61881 22.3485 4.1487 22.2814 3.90016 21.95L2.40002 19.95C2.27158 19.7788 2.22243 19.5608 2.26495 19.351C2.30748 19.1412 2.43764 18.9596 2.62263 18.8519C4.27861 17.8877 6.86013 15.9249 9.09487 13.8837C9.45979 13.5504 9.81358 13.2167 10.151 12.8867C9.82112 12.7728 9.53879 12.6339 9.30747 12.4649C9.00153 12.2413 8.76375 11.9494 8.64812 11.5832C8.53409 11.2221 8.56253 10.8637 8.65388 10.5439C8.82687 9.93838 9.26685 9.33299 9.74298 8.77745C10.1345 8.32067 10.6052 7.837 11.0935 7.34614C10.7648 7.23706 10.4098 7.13462 10.0346 7.0395C7.8804 6.49339 5.31755 6.25 4 6.25C3.58579 6.25 3.25 5.91421 3.25 5.5ZM12.5672 7.99041C12.5554 8.00404 12.543 8.01735 12.53 8.03031C11.8992 8.6612 11.328 9.23308 10.8819 9.75359C10.4206 10.2918 10.1732 10.6864 10.0962 10.9559C10.0625 11.0737 10.0754 11.1216 10.0785 11.1315C10.0804 11.1378 10.0941 11.1819 10.1926 11.2538C10.3712 11.3844 10.7242 11.5315 11.3525 11.6485C11.5754 11.4045 11.7843 11.1659 11.9768 10.9344C12.3553 10.4794 12.6615 10.0629 12.884 9.69709C13.1117 9.32292 13.2269 9.04208 13.2647 8.85287C13.295 8.70138 13.2562 8.42827 12.6325 8.03104C12.6111 8.01744 12.5893 8.0039 12.5672 7.99041ZM11 20.25C10.5858 20.25 10.25 20.5858 10.25 21C10.25 21.4142 10.5858 21.75 11 21.75C11.4142 21.75 11.75 21.4142 11.75 21C11.75 20.5858 11.4142 20.25 11 20.25ZM18 20.25C17.5858 20.25 17.25 20.5858 17.25 21C17.25 21.4142 17.5858 21.75 18 21.75C18.4142 21.75 18.75 21.4142 18.75 21C18.75 20.5858 18.4142 20.25 18 20.25Z" fill="#26272B"/>
</svg>
