<svg width="24" height="24" viewBox="0 0 24 24" fill="none" xmlns="http://www.w3.org/2000/svg">
<path fill-rule="evenodd" clip-rule="evenodd" d="M4.99902 5.75C5.41324 5.75 5.74903 6.08579 5.74902 6.5C5.74902 8.06109 6.26266 9.04708 6.98585 9.71267C7.73653 10.4036 8.78378 10.8137 9.94591 11.0617C11.0296 11.2931 12.1384 11.3695 13.098 11.4357C13.1652 11.4404 13.2316 11.4449 13.2973 11.4495C13.784 11.4835 14.2513 11.519 14.624 11.5818C14.811 11.6133 15.0045 11.6564 15.18 11.7223C15.3428 11.7835 15.5751 11.8952 15.7474 12.1153C15.8067 12.191 16.0554 12.3831 16.57 12.5665C17.0514 12.7382 17.6736 12.8688 18.3604 12.897C19.738 12.9536 21.2857 12.5976 22.4814 11.4572C22.7812 11.1714 23.2559 11.1826 23.5418 11.4824C23.8276 11.7821 23.8164 12.2569 23.5166 12.5428C21.9471 14.0396 19.9585 14.4639 18.2989 14.3958C17.6576 14.3694 17.052 14.2695 16.52 14.1224C16.9787 14.5802 17.6126 14.9964 18.3421 15.3342C19.128 15.6981 19.9903 15.9549 20.7936 16.0765C21.6083 16.1998 22.3043 16.1754 22.7835 16.0316C23.1803 15.9126 23.5984 16.1377 23.7174 16.5345C23.8364 16.9312 23.6113 17.3493 23.2145 17.4684C22.4438 17.6996 21.5032 17.701 20.5691 17.5596C19.6237 17.4165 18.6249 17.1182 17.7118 16.6954C16.9048 16.3216 16.1371 15.8378 15.5299 15.2524C12.6635 15.6239 10.2984 15.7821 8.3682 15.7262C6.42943 15.6702 4.88344 15.3974 3.69642 14.8737C2.48785 14.3405 1.65116 13.5455 1.17468 12.4877C0.708968 11.4538 0.621075 10.2433 0.752868 8.92537C0.794084 8.51321 1.16162 8.21251 1.57377 8.25372C1.98593 8.29494 2.28664 8.66247 2.24542 9.07463C2.12721 10.2567 2.2268 11.1712 2.54233 11.8717C2.84709 12.5482 3.38541 13.097 4.30187 13.5013C5.23989 13.9151 6.56897 14.1736 8.41157 14.2269C10.0564 14.2745 12.074 14.1579 14.528 13.8655C14.4133 13.6062 14.3294 13.3329 14.2848 13.0468C14.0068 13.0061 13.644 12.9774 13.1928 12.9459C13.1235 12.941 13.0526 12.9362 12.9801 12.9312C12.0341 12.8662 10.8251 12.7832 9.63277 12.5287C8.35163 12.2552 7.00373 11.7677 5.97006 10.8164C4.90892 9.83975 4.24903 8.43891 4.24903 6.5C4.24903 6.08579 4.58481 5.75 4.99902 5.75ZM17.999 8.25C17.3087 8.25 16.749 8.80964 16.749 9.5C16.749 10.1904 17.3087 10.75 17.999 10.75C18.6894 10.75 19.249 10.1904 19.249 9.5C19.249 8.80964 18.6894 8.25 17.999 8.25ZM15.249 9.5C15.249 7.98122 16.4802 6.75 17.999 6.75C19.5178 6.75 20.749 7.98122 20.749 9.5C20.749 11.0188 19.5178 12.25 17.999 12.25C16.4802 12.25 15.249 11.0188 15.249 9.5ZM9.25656 9.39393C9.31514 8.98388 9.69504 8.69896 10.1051 8.75754L13.6051 9.25754C14.0151 9.31612 14.3001 9.69602 14.2415 10.1061C14.1829 10.5161 13.803 10.801 13.393 10.7425L9.89296 10.2425C9.48291 10.1839 9.19798 9.80398 9.25656 9.39393Z" fill="#26272B"/>
</svg>
