<svg width="24" height="24" viewBox="0 0 24 24" fill="none" xmlns="http://www.w3.org/2000/svg">
<path fill-rule="evenodd" clip-rule="evenodd" d="M17.0001 2.25C16.3097 2.25001 15.7501 2.80969 15.75 3.50006C15.75 4.1904 16.3096 4.75001 17 4.75C17.6904 4.74999 18.25 4.19031 18.25 3.49994C18.2501 2.8096 17.6904 2.24999 17.0001 2.25ZM14.25 3.50003C14.2501 1.98125 15.4813 0.750032 17.0001 0.75C18.5189 0.749968 19.7501 1.98118 19.75 3.49997C19.75 5.01874 18.5188 6.24997 17 6.25C15.4812 6.25003 14.25 5.01882 14.25 3.50003ZM4.75004 5.99996C4.75004 5.58574 5.08583 5.24996 5.50004 5.24996H5.51583C6.86145 5.24995 9.28045 5.24994 11.4354 5.57063C12.5131 5.731 13.5777 5.97858 14.4246 6.37555C15.2349 6.75538 16.0039 7.34995 16.2209 8.28528C16.2631 8.3723 16.4123 8.5484 16.8046 8.7174C17.206 8.89032 17.7436 8.99996 18.3125 8.99996C19.5 8.99996 20.4726 8.54906 20.8037 7.72141C20.9575 7.33683 21.394 7.14977 21.7786 7.3036C22.1632 7.45744 22.3502 7.89391 22.1964 8.2785C21.5275 9.95085 19.7501 10.5 18.3125 10.5C17.569 10.5 16.8253 10.3596 16.2111 10.095C16.1701 10.0773 16.1289 10.0588 16.0877 10.0393C15.9774 10.391 15.8288 10.7383 15.6631 11.0697C15.3924 11.611 15.0493 12.1623 14.671 12.6984C14.7636 12.7634 14.8567 12.8305 14.9494 12.9C15.1674 13.0636 15.3797 13.2085 15.5934 13.3545C15.6091 13.3652 15.6248 13.3759 15.6404 13.3866C15.8633 13.5389 16.0964 13.6991 16.3072 13.8687C16.7356 14.2133 17.1519 14.6583 17.3074 15.3311C17.4572 15.9793 17.3339 16.7082 17.0075 17.5641C16.775 18.1737 16.4223 18.8912 15.9337 19.75H16.9993C17.4135 19.75 17.7493 20.0857 17.7493 20.5C17.7493 20.9142 17.4135 21.25 16.9993 21.25H14.6162C14.3445 21.25 14.094 21.103 13.9615 20.8658C13.8289 20.6287 13.835 20.3384 13.9774 20.1069C14.8151 18.7454 15.327 17.761 15.6059 17.0296C15.8873 16.2918 15.8983 15.8956 15.8459 15.6688C15.7992 15.4666 15.6768 15.2867 15.367 15.0375C15.2087 14.9101 15.0229 14.7814 14.7942 14.6251C14.7775 14.6137 14.7606 14.6021 14.7435 14.5905C14.5335 14.4471 14.2952 14.2844 14.0493 14.0999C13.9541 14.0285 13.857 13.9591 13.758 13.8904C13.121 14.6637 12.4518 15.3735 11.8713 15.9313C11.56 16.2305 11.2695 16.4905 11.0191 16.6955C10.7823 16.8893 10.5403 17.0683 10.3355 17.1708C9.95112 17.3629 9.55416 17.292 9.29007 17.2071C9.00861 17.1167 8.72644 16.9619 8.4663 16.7929C7.9417 16.4519 7.37235 15.963 6.86209 15.4846C6.36634 15.0198 5.90304 14.5428 5.55681 14.1743L4.60004 15.45C4.35152 15.7813 3.88142 15.8485 3.55004 15.6C3.21867 15.3514 3.15152 14.8813 3.40004 14.55L4.90004 12.55C5.03573 12.369 5.24581 12.259 5.4718 12.2505C5.69776 12.242 5.9155 12.3359 6.06442 12.506L6.06444 12.506L6.06448 12.5061L6.06472 12.5064L6.06622 12.5081L6.07292 12.5157L6.10067 12.5471C6.12536 12.5749 6.16216 12.6162 6.20961 12.6689C6.30456 12.7742 6.44192 12.925 6.61006 13.1046C6.9473 13.4648 7.40398 13.9365 7.888 14.3903C8.37774 14.8494 8.87089 15.2668 9.28379 15.5352C9.49122 15.67 9.64597 15.7457 9.74736 15.7785C9.81717 15.7318 9.92389 15.6536 10.0689 15.5348C10.2813 15.361 10.5416 15.1288 10.8319 14.8498C11.3459 14.3559 11.939 13.7295 12.5089 13.0468C12.048 12.7098 11.5631 12.2843 11.287 11.6917C10.9795 11.0318 10.983 10.2867 11.2949 9.44299C11.5258 8.81857 11.9327 8.11757 12.5362 7.30997C12.1299 7.20906 11.6855 7.12435 11.2147 7.05429C9.17809 6.75123 6.85763 6.74996 5.50004 6.74996C5.08583 6.74996 4.75004 6.41417 4.75004 5.99996ZM14.0143 7.84869C13.2934 8.75991 12.8936 9.44436 12.7018 9.96318C12.4938 10.5257 12.5464 10.8431 12.6466 11.0582C12.7633 11.3086 13.0055 11.5548 13.4269 11.8596C13.7783 11.3639 14.0865 10.8688 14.3214 10.3989C14.717 9.60777 14.8387 9.01771 14.7646 8.64704C14.7162 8.40496 14.5165 8.12594 14.0143 7.84869ZM9.81007 15.7941C9.81016 15.7942 9.80793 15.7941 9.80314 15.7933C9.80759 15.7935 9.80999 15.7939 9.81007 15.7941ZM4.45004 10.9C4.78141 11.1485 4.84857 11.6186 4.60004 11.95L3.10004 13.95C2.85152 14.2813 2.38142 14.3485 2.05004 14.1C1.71867 13.8514 1.65152 13.3813 1.90004 13.05L3.40004 11.05C3.64857 10.7186 4.11867 10.6514 4.45004 10.9ZM13.8662 22.5C13.8662 22.0857 14.202 21.75 14.6162 21.75H16.9993C17.4135 21.75 17.7493 22.0857 17.7493 22.5C17.7493 22.9142 17.4135 23.25 16.9993 23.25H14.6162C14.202 23.25 13.8662 22.9142 13.8662 22.5Z" fill="#26272B"/>
</svg>
