<svg width="24" height="24" viewBox="0 0 24 24" fill="none" xmlns="http://www.w3.org/2000/svg">
<path fill-rule="evenodd" clip-rule="evenodd" d="M10.8419 2.27832C10.1515 2.27833 9.59184 2.83801 9.59183 3.52838C9.59181 4.21872 10.1514 4.77833 10.8418 4.77832C11.5321 4.77831 12.0918 4.21863 12.0918 3.52826C12.0918 2.83792 11.5322 2.27831 10.8419 2.27832ZM8.09183 3.52835C8.09186 2.00958 9.32308 0.778352 10.8419 0.77832C12.3606 0.778289 13.5919 2.0095 13.5918 3.52829C13.5918 5.04706 12.3606 6.27829 10.8418 6.27832C9.32301 6.27835 8.0918 5.04714 8.09183 3.52835ZM18.8418 1.7773C19.256 1.7773 19.5918 2.11309 19.5918 2.5273C19.5918 5.55483 17.0029 7.34663 13.9672 8.42177C13.911 8.44169 13.8545 8.46141 13.7977 8.48093C15.2518 12.3482 17.5749 14.5923 20.7594 16.412C21.0233 16.5628 21.1701 16.858 21.1311 17.1594C21.1195 17.249 21.0922 17.3339 21.0518 17.411L22.5135 17.0193C22.9136 16.9121 23.3248 17.1496 23.432 17.5497C23.5392 17.9498 23.3018 18.361 22.9017 18.4682L5.99801 22.9975C4.79771 23.3192 3.56395 22.6069 3.24233 21.4066C3.13513 21.0065 3.37256 20.5952 3.77266 20.488C4.17276 20.3808 4.58402 20.6182 4.69122 21.0183C4.79843 21.4184 5.20968 21.6559 5.60978 21.5487L7.42908 21.0612C7.27586 20.964 7.15728 20.8112 7.10663 20.6221C6.99945 20.222 7.23692 19.8107 7.63702 19.7036L8.74836 19.4059C8.23762 18.1216 7.89647 17.0981 7.75248 16.2663C7.57572 15.2454 7.67557 14.3888 8.23919 13.6813C8.75285 13.0364 9.57373 12.63 10.4864 12.2514C10.5224 12.2364 10.5588 12.2214 10.5956 12.2064C10.3423 11.6572 10.107 10.939 9.93596 10.3688C9.83968 10.0479 9.75959 9.75953 9.70355 9.55138C9.70049 9.54001 9.6975 9.52888 9.69459 9.51799C7.61466 9.89948 5.43052 10.13 3.39526 10.2754C2.9821 10.3049 2.62325 9.9939 2.59373 9.58074C2.56422 9.16758 2.87523 8.80872 3.28839 8.77921C6.77396 8.53024 10.5656 8.03521 13.4664 7.00783C16.4307 5.95798 18.0918 4.49978 18.0918 2.5273C18.0918 2.11309 18.4276 1.7773 18.8418 1.7773ZM11.167 9.21714C11.2192 9.40948 11.2897 9.66126 11.3727 9.93777C11.5551 10.5457 11.7826 11.2213 11.9962 11.6595C12.0259 11.6481 12.0558 11.6366 12.0858 11.625C12.4787 11.4737 12.8985 11.3105 13.3463 11.1291C12.984 10.4485 12.6552 9.71493 12.3607 8.92043C11.9708 9.02643 11.5723 9.12515 11.167 9.21714ZM14.1223 12.4326C13.5809 12.6546 13.0812 12.8491 12.6248 13.0248C12.5203 13.065 12.4185 13.1042 12.3192 13.1423C11.8465 13.3238 11.4314 13.4833 11.0613 13.6368C10.1357 14.0208 9.65875 14.3067 9.41245 14.6159C9.21611 14.8623 9.0939 15.2215 9.23049 16.0105C9.3714 16.8243 9.76499 17.9572 10.4561 19.623C10.5389 19.8226 10.5316 20.0482 10.4361 20.242C10.4335 20.2472 10.4309 20.2524 10.4282 20.2576L18.0539 18.2143C17.9005 18.1171 17.7817 17.9642 17.731 17.7749C17.6238 17.3748 17.8612 16.9636 18.2613 16.8564L18.5208 16.7868C16.7888 15.6142 15.3148 14.2287 14.1223 12.4326Z" fill="#26272B"/>
</svg>
