<svg width="24" height="24" viewBox="0 0 24 24" fill="none" xmlns="http://www.w3.org/2000/svg">
<path fill-rule="evenodd" clip-rule="evenodd" d="M9.59526 1.16403C9.70163 0.763705 10.1124 0.525411 10.5127 0.631783C11.7641 0.964303 13.0978 1.36845 14.2612 1.86868C15.4018 2.35909 16.4838 2.98472 17.1273 3.81203C17.4603 4.2401 17.6912 4.74196 17.7293 5.31328C17.7675 5.88495 17.6078 6.45515 17.2805 7.01143C16.8184 7.79664 15.995 8.60092 14.7795 9.44379C15.5 11.4081 15.8773 13.0861 15.8127 15.0254C15.7539 16.7878 15.3312 18.7255 14.533 21.2504H15.5006C15.9148 21.2504 16.2506 21.5862 16.2506 22.0004C16.2506 22.4146 15.9148 22.7504 15.5006 22.7504H13.5006C13.2595 22.7504 13.0331 22.6345 12.8921 22.4389C12.7512 22.2433 12.7128 21.9919 12.7891 21.7632C13.6408 19.208 14.1092 17.3425 14.2627 15.7504H13.2215C12.9746 17.6035 12.1449 19.6642 10.6913 22.3567C10.5604 22.5992 10.307 22.7504 10.0313 22.7504H8.00058C7.58636 22.7504 7.25058 22.4146 7.25058 22.0004C7.25058 21.5862 7.58636 21.2504 8.00058 21.2504H9.58176C10.9133 18.7316 11.5757 16.9404 11.7518 15.4144C11.9079 14.0617 11.6873 12.8664 11.1195 11.4915C10.0069 11.9677 9.06479 12.2023 8.27191 12.2066C7.62615 12.21 7.05291 12.0607 6.5778 11.7397C6.10325 11.419 5.78524 10.9667 5.58181 10.4637C5.18845 9.491 5.18774 8.2407 5.33288 7.00929C5.4809 5.7534 5.79645 4.40115 6.13171 3.16059C6.23978 2.76072 6.65154 2.52417 7.05141 2.63223C7.45128 2.7403 7.68783 3.15206 7.57976 3.55193C7.25144 4.76681 6.95787 6.03689 6.82257 7.18486C6.68438 8.35731 6.72615 9.29241 6.9724 9.90133C7.08878 10.1891 7.23986 10.3767 7.41759 10.4968C7.59477 10.6165 7.85702 10.7088 8.26386 10.7066C9.11483 10.702 10.4609 10.2847 12.489 9.11373C14.5174 7.94266 15.5551 6.9858 15.9877 6.25069C16.1946 5.89906 16.2468 5.62583 16.2327 5.41313C16.2184 5.20007 16.1328 4.97661 15.9433 4.73301C15.5419 4.21696 14.7551 3.71382 13.6687 3.2467C12.6051 2.7894 11.3536 2.40728 10.1275 2.08148C9.72718 1.97511 9.48889 1.56435 9.59526 1.16403ZM12.4723 10.8384C12.9545 11.9871 13.247 13.0827 13.2939 14.2504H14.3142C14.272 12.9449 13.9925 11.7164 13.4828 10.2704C13.4027 10.3177 13.3215 10.3652 13.239 10.4128C12.9763 10.5645 12.7208 10.7063 12.4723 10.8384ZM10.5006 4.75039C9.81022 4.75039 9.25058 5.31003 9.25058 6.00039C9.25058 6.69075 9.81022 7.25039 10.5006 7.25039C11.1909 7.25039 11.7506 6.69075 11.7506 6.00039C11.7506 5.31003 11.1909 4.75039 10.5006 4.75039ZM7.75058 6.00039C7.75058 4.48161 8.98179 3.25039 10.5006 3.25039C12.0194 3.25039 13.2506 4.48161 13.2506 6.00039C13.2506 7.51917 12.0194 8.75039 10.5006 8.75039C8.98179 8.75039 7.75058 7.51917 7.75058 6.00039Z" fill="#26272B"/>
</svg>
