<svg width="24" height="24" viewBox="0 0 24 24" fill="none" xmlns="http://www.w3.org/2000/svg">
<path fill-rule="evenodd" clip-rule="evenodd" d="M14 3.75C13.3097 3.75 12.75 4.30964 12.75 5C12.75 5.69036 13.3097 6.25 14 6.25C14.6904 6.25 15.25 5.69036 15.25 5C15.25 4.30964 14.6904 3.75 14 3.75ZM11.25 5C11.25 3.48122 12.4812 2.25 14 2.25C15.5188 2.25 16.75 3.48122 16.75 5C16.75 6.51878 15.5188 7.75 14 7.75C12.4812 7.75 11.25 6.51878 11.25 5ZM18.3833 14.7132C19.2527 15.6413 20.0971 16.4058 20.8722 16.8487C21.2318 17.0542 21.3567 17.5124 21.1512 17.872C20.9457 18.2316 20.4875 18.3566 20.1279 18.151C19.1529 17.5939 18.1848 16.6954 17.2886 15.7387C16.4737 14.8687 15.6798 13.9079 14.9629 13.0401C14.8859 12.947 14.8098 12.8549 14.7347 12.7641C14.7174 12.7432 14.7001 12.7223 14.6829 12.7016C14.6654 12.8964 14.644 13.0883 14.6178 13.2755C14.5189 13.9842 14.3457 14.6879 14.0262 15.2471C13.9406 15.397 13.8418 15.5402 13.7291 15.6715C14.5504 15.999 15.4664 16.3893 16.3186 16.8013C16.9221 17.093 17.5039 17.4006 18.0017 17.7093C18.4878 18.0107 18.9418 18.3421 19.2499 18.6913C19.5249 19.0029 19.9082 19.6016 19.5666 20.2575C19.4175 20.5438 19.1729 20.7339 18.9333 20.8624C18.6909 20.9925 18.4012 21.088 18.0805 21.161C16.8276 21.4461 14.5697 21.498 10.9484 21.2482C10.5352 21.2197 10.2233 20.8616 10.2518 20.4484C10.2803 20.0352 10.6384 19.7233 11.0516 19.7518C14.6803 20.002 16.735 19.9289 17.7477 19.6984C17.8757 19.6693 17.9774 19.6396 18.057 19.6117C17.885 19.4404 17.6036 19.2274 17.2112 18.9841C16.7735 18.7127 16.2421 18.4304 15.6658 18.1518C14.5138 17.5949 13.2242 17.0726 12.2367 16.7022C12.0676 16.6388 11.9349 16.5209 11.851 16.376C11.4502 16.3224 11.0358 16.1713 10.6104 15.9422C9.49293 18.4407 7.64118 21.1001 4.26926 22.397C3.99838 22.5012 3.6917 22.4398 3.48187 22.2393C3.27205 22.0388 3.19673 21.7352 3.28851 21.4599C3.53683 20.7149 4.14606 18.8855 4.51081 16.7579C4.65401 15.9225 4.75616 15.0592 4.78783 14.2096C4.5312 14.236 4.26859 14.25 4.00002 14.25C3.58581 14.25 3.25002 13.9142 3.25002 13.5C3.25002 13.0858 3.58581 12.75 4.00002 12.75C4.25976 12.75 4.51378 12.7337 4.76226 12.703C4.70028 11.9057 4.55454 11.1454 4.29779 10.4609C4.15233 10.073 4.34882 9.6407 4.73665 9.49525C5.12449 9.34979 5.55681 9.54628 5.70226 9.93411C5.9872 10.6939 6.15487 11.5104 6.23644 12.3456C7.09033 12.038 7.87071 11.5851 8.58728 11.0939C9.06724 10.7649 9.49873 10.4334 9.90871 10.1185C10.0591 10.003 10.2065 9.88969 10.3524 9.77956C10.8347 9.41552 11.3528 9.04237 11.8446 8.86164C11.8888 8.83989 11.9353 8.82066 11.9842 8.80434C12.2498 8.71561 12.5057 8.7394 12.7132 8.79819C13.0968 8.90685 13.4549 9.17509 13.755 9.44076C14.3782 9.99247 15.1211 10.8783 15.8903 11.8078C15.9654 11.8986 16.0411 11.9901 16.1171 12.0821C16.8387 12.9554 17.6024 13.8795 18.3833 14.7132ZM10.5612 11.5085C10.216 11.7721 9.83669 12.0561 9.43538 12.3311C8.55344 12.9357 7.50655 13.5406 6.2964 13.9052C6.28012 14.9738 6.15663 16.0349 5.98924 17.0113C5.78023 18.2305 5.49602 19.3535 5.23953 20.2464C7.29113 18.966 8.53592 16.9966 9.37228 15.0288C9.88412 13.8245 10.2329 12.6444 10.5217 11.6452C10.535 11.5994 10.5481 11.5538 10.5612 11.5085ZM12.5026 10.3557C12.4576 10.4628 12.406 10.6015 12.3475 10.7776C12.2416 11.0959 12.1311 11.4788 12.0013 11.9282C11.9886 11.9721 11.9758 12.0166 11.9627 12.0617C11.7546 12.7818 11.5046 13.6347 11.1757 14.5392C11.714 14.8563 12.0512 14.913 12.2379 14.8943C12.3978 14.8784 12.5561 14.7964 12.7238 14.5029C12.9043 14.1871 13.0436 13.7033 13.1322 13.0682C13.2175 12.4571 13.2488 11.7614 13.25 11.0437C13.0748 10.8586 12.9115 10.6974 12.7607 10.5639C12.6565 10.4716 12.5708 10.4043 12.5026 10.3557ZM18.2135 19.8038C18.2127 19.8036 18.2095 19.7982 18.2059 19.7882C18.2124 19.799 18.2142 19.804 18.2135 19.8038ZM18.2758 19.5084C18.2765 19.5078 18.2769 19.5074 18.2769 19.5074Z" fill="#26272B"/>
</svg>
