<svg width="24" height="24" viewBox="0 0 24 24" fill="none" xmlns="http://www.w3.org/2000/svg">
<path fill-rule="evenodd" clip-rule="evenodd" d="M9.23874 2.80523C9.34642 2.40526 9.75794 2.1683 10.1579 2.27597C12.0234 2.77814 13.4297 3.57737 14.3717 4.65124C15.3226 5.7353 15.75 7.04243 15.75 8.45234C15.75 9.13654 15.574 9.90523 15.207 10.6914C15.7591 11.8494 15.875 13.3707 15.875 14.5235C15.875 15.0721 15.8483 15.5659 15.8191 15.9423C16.5883 16.0521 17.3275 16.1958 18.0153 16.3652C19.6333 16.7637 21.0546 17.3257 21.8997 17.9872C22.309 18.3075 22.72 18.7574 22.7905 19.3415C22.8703 20.003 22.4897 20.5169 22.0044 20.8613C21.5283 21.1992 20.8419 21.4652 19.9732 21.6791C19.0917 21.8961 17.9659 22.0726 16.5679 22.1997C16.1554 22.2372 15.7906 21.9332 15.7531 21.5207C15.7156 21.1082 16.0196 20.7434 16.4321 20.7059C17.7841 20.583 18.8301 20.4157 19.6147 20.2226C20.412 20.0263 20.8858 19.8158 21.1363 19.638C21.2267 19.5739 21.2709 19.528 21.2914 19.5008C21.2684 19.4553 21.1954 19.3407 20.9753 19.1684C20.3829 18.7049 19.2105 18.2044 17.6566 17.8217C16.8148 17.6143 15.8865 17.4477 14.9198 17.3399C14.9181 17.3397 14.9164 17.3395 14.9148 17.3393C14.1962 17.2593 13.4564 17.2117 12.7151 17.2039C12.5604 17.748 12.3177 18.2946 11.9532 18.8186C10.5676 20.8102 7.6247 22.2028 2 22.2028C1.58579 22.2028 1.25 21.867 1.25 21.4528C1.25 21.0386 1.58579 20.7028 2 20.7028C7.45223 20.7028 9.75933 19.3454 10.7218 17.962C11.449 16.9168 11.5238 15.7033 11.4071 14.6434C9.5872 15.7157 7.15726 16.5062 4.04674 16.7004C3.63333 16.7262 3.27727 16.412 3.25146 15.9986C3.22564 15.5852 3.53985 15.2291 3.95326 15.2033C11.714 14.7187 14.25 10.4169 14.25 8.45234C14.25 7.36224 13.9274 6.41937 13.2441 5.6404C12.5518 4.85123 11.4396 4.17438 9.76801 3.72441C9.36803 3.61673 9.13107 3.20521 9.23874 2.80523ZM12.7818 13.6932C12.8857 14.2569 12.9755 14.9543 12.9462 15.7073C13.4093 15.7166 13.871 15.7402 14.3274 15.7766C14.3527 15.4367 14.375 15.0017 14.375 14.5235C14.375 13.7882 14.3216 13.0051 14.1726 12.3181C13.7847 12.7921 13.3223 13.2555 12.7818 13.6932ZM21.3074 19.471C21.3084 19.471 21.3075 19.4759 21.3017 19.4857C21.3035 19.4759 21.3064 19.471 21.3074 19.471ZM10 7.2028C9.30964 7.2028 8.75 7.76244 8.75 8.4528C8.75 9.14316 9.30964 9.7028 10 9.7028C10.6904 9.7028 11.25 9.14316 11.25 8.4528C11.25 7.76245 10.6904 7.2028 10 7.2028ZM7.25 8.4528C7.25 6.93402 8.48122 5.7028 10 5.7028C11.5188 5.7028 12.75 6.93402 12.75 8.4528C12.75 9.97158 11.5188 11.2028 10 11.2028C8.48122 11.2028 7.25 9.97158 7.25 8.4528Z" fill="#26272B"/>
</svg>
