<svg width="24" height="24" viewBox="0 0 24 24" fill="none" xmlns="http://www.w3.org/2000/svg">
<path fill-rule="evenodd" clip-rule="evenodd" d="M6.25018 9.51101C6.25706 9.73015 6.45772 10.0289 6.92535 10.3504C6.99812 10.4005 7.07151 10.4469 7.14319 10.4895C7.85809 9.07122 8.67017 8.19231 9.53462 7.67035C10.5374 7.06487 11.5146 6.99987 12.2502 6.99986C12.4031 6.99986 12.5322 7.00209 12.6469 7.00407C12.833 7.00728 12.981 7.00984 13.1302 7.00112C13.262 6.99343 13.3293 6.97794 13.359 6.96895C13.367 6.94519 13.3774 6.90221 13.3847 6.8306C13.4029 6.65019 13.3908 6.36621 13.3171 5.93023C11.8822 5.4213 10.22 5.94963 8.75852 6.91807C7.987 7.42932 7.32803 8.02916 6.86958 8.56257C6.63994 8.82976 6.47166 9.06748 6.36519 9.25695C6.26663 9.43234 6.25226 9.51141 6.25028 9.5111C6.25024 9.5111 6.25021 9.51107 6.25018 9.51101ZM14.89 6.78947C14.8876 6.85551 14.8833 6.91953 14.8771 6.98155C14.8309 7.43821 14.6654 7.86729 14.2828 8.15887C13.9342 8.42449 13.5219 8.4808 13.2177 8.49857C13.0154 8.51039 12.7691 8.50655 12.5418 8.50301C12.4387 8.5014 12.3396 8.49986 12.2503 8.49986C11.611 8.49987 10.9634 8.55989 10.31 8.95442C9.6551 9.34984 8.8987 10.1413 8.18985 11.7953C8.12559 11.9453 8.01421 12.0702 7.87259 12.1511C6.3653 13.0124 5.57365 14.502 5.16315 16.0653C4.85566 17.2364 4.77702 18.3931 4.7569 19.2498H6C6.41421 19.2498 6.75 19.5856 6.75 19.9998C6.75 20.414 6.41421 20.7498 6 20.7498H4C3.58579 20.7498 3.25 20.414 3.25 19.9998L3.25 19.9876C3.24999 19.149 3.24997 17.4453 3.71233 15.6844C4.08711 14.2571 4.78302 12.7277 6.08337 11.5919C6.08075 11.5901 6.07813 11.5883 6.0755 11.5865C5.55123 11.226 4.7504 10.5295 4.75 9.50012C4.74986 9.1457 4.90334 8.79646 5.05751 8.52211C5.22546 8.22324 5.45764 7.90409 5.73201 7.58486C6.28158 6.94542 7.04486 6.25418 7.92996 5.66768C9.66018 4.52116 12.0924 3.63165 14.3319 4.733C16.3378 5.71943 17.7623 7.14525 18.7034 8.41699C19.6272 9.66535 20.1313 10.8299 20.2359 11.3528C20.2887 11.6166 20.321 12.1414 20.3301 12.7624C20.3396 13.4078 20.3246 14.2201 20.2654 15.0924C20.1754 16.4209 19.9796 17.9522 19.5824 19.2499H20.5005C20.9147 19.2499 21.2505 19.5857 21.2505 19.9999C21.2505 20.4141 20.9147 20.7499 20.5005 20.7499H18.5005C18.2443 20.7499 18.0058 20.6191 17.8681 20.4031C17.7304 20.1871 17.7124 19.9158 17.8205 19.6835C18.3726 18.4971 18.6546 16.6774 18.7689 14.991C18.8251 14.162 18.8392 13.3909 18.8303 12.7845C18.821 12.1537 18.7873 11.7583 18.765 11.647C18.7196 11.4198 18.3487 10.4593 17.4977 9.30927C16.873 8.46513 16.0145 7.55399 14.89 6.78947ZM13.3477 6.9939C13.3475 6.9936 13.3488 6.99084 13.3522 6.9865C13.3496 6.99203 13.3479 6.99419 13.3477 6.9939ZM11 13.2498C10.3096 13.2498 9.75 13.8095 9.75 14.4998C9.75 15.1902 10.3096 15.7498 11 15.7498C11.6904 15.7498 12.25 15.1902 12.25 14.4998C12.25 13.8095 11.6904 13.2498 11 13.2498ZM8.25 14.4998C8.25 12.981 9.48122 11.7498 11 11.7498C12.5188 11.7498 13.75 12.981 13.75 14.4998C13.75 16.0186 12.5188 17.2498 11 17.2498C9.48122 17.2498 8.25 16.0186 8.25 14.4998Z" fill="#26272B"/>
</svg>
