<svg width="24" height="24" viewBox="0 0 24 24" fill="none" xmlns="http://www.w3.org/2000/svg">
<path fill-rule="evenodd" clip-rule="evenodd" d="M5.76282 1.78869C6.15578 1.65771 6.58052 1.87008 6.71151 2.26303C6.90342 2.83878 7.12757 3.38343 7.38311 3.89706C7.94182 3.3208 8.45802 2.71108 8.87596 2.08418C9.10572 1.73953 9.57137 1.6464 9.91602 1.87617C10.2607 2.10593 10.3538 2.57158 10.124 2.91623C9.57323 3.74242 8.88652 4.52472 8.16778 5.23645C9.12328 6.63205 10.3648 7.73831 11.8681 8.55718C14.3311 9.89876 17.5484 10.4957 21.4532 10.2517C21.8666 10.2258 22.2227 10.54 22.2485 10.9534C22.2744 11.3668 21.9602 11.7229 21.5468 11.7487C19.2261 11.8938 17.0902 11.759 15.1688 11.3393C15.1136 11.4483 15.0311 11.5453 14.9231 11.6192C12.4785 13.2918 10.4141 14.0486 8.67696 14.1702C8.20081 14.2036 7.75304 14.1888 7.33302 14.1338C7.33098 14.2908 7.33056 14.4553 7.33181 14.6276C7.34254 16.1174 7.47397 18.0965 7.69052 20.7502H8.99985C9.41406 20.7502 9.74985 21.086 9.74985 21.5002C9.74985 21.9144 9.41406 22.2502 8.99985 22.2502H6.99985C6.60978 22.2502 6.28482 21.9512 6.25244 21.5625C6.00277 18.5657 5.84396 16.3196 5.83184 14.6384C5.82956 14.3213 5.83233 14.0201 5.84113 13.7341C5.3544 13.5298 4.92001 13.2665 4.53627 12.9649C3.53601 12.179 2.90457 11.1549 2.55535 10.2992C2.38051 9.87083 2.26792 9.46413 2.21859 9.12609C2.19428 8.9595 2.18184 8.78634 2.19444 8.62405C2.20074 8.54283 2.2147 8.44521 2.24666 8.34399C2.27661 8.24914 2.33777 8.10158 2.46952 7.96985C2.57461 7.86477 2.73396 7.74058 2.88778 7.62405C3.02352 7.52123 3.18929 7.39907 3.37351 7.26331C3.41477 7.2329 3.45697 7.2018 3.49996 7.17009C3.97473 6.81986 4.57295 6.37494 5.21553 5.85476C5.55606 5.57911 5.90579 5.28487 6.25336 4.97536C5.87604 4.27963 5.55377 3.53324 5.28848 2.73737C5.15749 2.34442 5.36986 1.91968 5.76282 1.78869ZM7.0575 6.26629C6.75177 6.5334 6.44978 6.78552 6.15932 7.02064C5.48937 7.56297 4.86879 8.0243 4.39041 8.37719C4.34538 8.41041 4.30183 8.4425 4.25977 8.4735C4.07604 8.6089 3.92059 8.72347 3.79354 8.81971C3.7595 8.8455 3.72845 8.86926 3.70028 8.89108C3.70109 8.89703 3.70195 8.90316 3.70287 8.90948C3.73163 9.10659 3.80652 9.39521 3.94414 9.73243C4.21986 10.408 4.71334 11.1964 5.46302 11.7855C5.62337 11.9115 5.7966 12.0293 5.98369 12.1357C6.06514 11.6545 6.1832 11.2369 6.34722 10.8768C6.78815 9.90876 7.52158 9.4301 8.44857 9.17544C8.81701 9.07421 9.235 9.00399 9.69257 8.94714C8.67475 8.19582 7.79353 7.30046 7.0575 6.26629ZM11.8699 10.2385C11.85 10.2421 11.8297 10.2448 11.8092 10.2468C11.5688 10.2698 11.3425 10.2904 11.1289 10.3099C10.1302 10.401 9.41089 10.4666 8.84593 10.6218C8.23727 10.7891 7.92611 11.0292 7.71229 11.4986C7.58755 11.7725 7.49064 12.1371 7.42575 12.6319C7.77623 12.6858 8.15752 12.7029 8.57221 12.6739C9.81581 12.5869 11.3987 12.0815 13.3731 10.8426C12.8526 10.6658 12.3513 10.4645 11.8699 10.2385ZM16 5.2502C15.3096 5.2502 14.75 5.80985 14.75 6.5002C14.75 7.19056 15.3096 7.7502 16 7.7502C16.6903 7.7502 17.25 7.19056 17.25 6.5002C17.25 5.80985 16.6903 5.2502 16 5.2502ZM13.25 6.5002C13.25 4.98142 14.4812 3.7502 16 3.7502C17.5188 3.7502 18.75 4.98142 18.75 6.5002C18.75 8.01899 17.5188 9.2502 16 9.2502C14.4812 9.2502 13.25 8.01899 13.25 6.5002Z" fill="#26272B"/>
</svg>
