<svg width="24" height="24" viewBox="0 0 24 24" fill="none" xmlns="http://www.w3.org/2000/svg">
<path fill-rule="evenodd" clip-rule="evenodd" d="M9.9274 0.868247C9.89334 0.844797 9.85689 0.823856 9.81817 0.8058C9.44276 0.630745 8.99653 0.793162 8.82147 1.16857L3.4411 12.7068C3.27397 12.7631 3.05877 12.8438 2.82901 12.9519C2.35815 13.1734 1.65023 13.5896 1.32101 14.2956C1.06035 14.8546 0.957766 15.4394 1.11657 15.9865C1.28022 16.5503 1.68482 16.9479 2.18273 17.18C2.68065 17.4122 3.24524 17.4666 3.78235 17.2296C4.30352 16.9996 4.68558 16.5451 4.94624 15.9861C5.27546 15.2801 5.13924 14.4703 5.00626 13.9672C4.94138 13.7217 4.8649 13.5049 4.80056 13.3407L5.13339 12.627C6.52738 13.3362 8.34948 13.9314 10.1552 13.9556C11.5808 13.9746 13.0266 13.633 14.2155 12.6942C14.2484 12.7077 14.2827 12.7189 14.3183 12.7278C14.9721 12.8913 15.3483 13.1085 15.634 13.3779C15.7709 13.507 15.8963 13.6563 16.024 13.8371C15.8626 13.8724 15.7064 13.9061 15.5555 13.9387C14.8268 14.0962 14.2234 14.2265 13.7619 14.37C13.1356 14.5647 12.5492 14.844 12.2167 15.4537C11.9143 16.0081 11.9083 16.6966 11.9546 17.4305C11.9821 17.8653 12.0371 18.4012 12.102 19.0341C12.1253 19.2606 12.1498 19.4994 12.1748 19.7506L11.0004 19.7502C10.5862 19.7501 10.2503 20.0858 10.2502 20.5C10.2501 20.8478 10.4868 21.1404 10.8079 21.2253C8.51638 21.1568 6.7445 20.9571 5.49213 20.7594C4.7195 20.6374 4.14439 20.5161 3.76676 20.4267C3.57793 20.3819 3.43846 20.3452 3.34835 20.3203C3.30329 20.3078 3.27056 20.2983 3.25017 20.2923L3.22884 20.2859L3.226 20.285C3.22613 20.2851 3.22588 20.285 3.226 20.285C2.83127 20.1609 2.40961 20.3797 2.28497 20.7744C2.16024 21.1694 2.37932 21.5907 2.77431 21.7154L3.00016 21.0002C2.77431 21.7154 2.77408 21.7153 2.77431 21.7154L2.77984 21.7171L2.79003 21.7203L2.82436 21.7306C2.85345 21.7392 2.89494 21.7512 2.94884 21.7661C3.05664 21.7959 3.21405 21.8373 3.42106 21.8863C3.83509 21.9843 4.44748 22.113 5.25818 22.241C6.87973 22.4971 9.29384 22.7502 12.5002 22.7502C15.7065 22.7502 18.1206 22.4971 19.7421 22.241C20.5528 22.113 21.1652 21.9843 21.5793 21.8863C21.7863 21.8373 21.9437 21.7959 22.0515 21.7661C22.1054 21.7512 22.1469 21.7392 22.176 21.7306L22.2103 21.7203L22.2205 21.7171L22.2251 21.7157C22.2253 21.7156 22.226 21.7154 22.0002 21.0002L22.2251 21.7157C22.62 21.591 22.8401 21.1694 22.7153 20.7744C22.5906 20.3795 22.1696 20.1604 21.7747 20.2849L21.7715 20.2859L21.7501 20.2923C21.7298 20.2983 21.697 20.3078 21.652 20.3203C21.6108 20.3317 21.5594 20.3455 21.4977 20.3614C21.5994 20.2713 21.6764 20.1537 21.7174 20.0194C21.7943 19.7677 21.7337 19.4941 21.5576 19.2985C19.7987 17.3441 18.9114 15.8657 18.2734 14.7205C18.6914 14.5318 19.0407 14.3121 19.3148 14.0579C19.611 13.7832 19.8331 13.4549 19.9385 13.0746C20.0448 12.6915 20.0181 12.3078 19.8989 11.9504C19.6703 11.2647 19.1019 10.6654 18.4179 10.1672C17.8543 9.7567 17.1573 9.37486 16.3633 9.0374C16.5869 7.44006 15.9849 5.94008 15.0208 4.68517C13.7249 2.99851 11.724 1.66051 9.9274 0.868247ZM15.9321 10.4853C16.5749 10.7689 17.1145 11.0736 17.5347 11.3797C18.1165 11.8034 18.3919 12.1729 18.4759 12.4248C18.5131 12.5362 18.5098 12.6135 18.4931 12.6737C18.4756 12.7368 18.4282 12.8344 18.2948 12.9581C18.1406 13.1011 17.8956 13.2563 17.5332 13.4065C17.2819 12.9943 17.0087 12.6126 16.6632 12.2866C16.298 11.9422 15.8754 11.6804 15.3554 11.4818C15.4669 11.3234 15.5739 11.1562 15.6758 10.9796C15.7712 10.8144 15.8565 10.6496 15.9321 10.4853ZM16.8219 15.1959C17.3906 16.2277 18.1685 17.5999 19.6353 19.3684L18.8183 19.5726C18.4164 19.6731 18.1721 20.0803 18.2725 20.4821C18.3155 20.654 18.4146 20.797 18.5453 20.8966C17.164 21.0734 15.3391 21.2253 13.0706 21.2475C13.255 21.23 13.4274 21.1447 13.5535 21.0067C13.6957 20.8511 13.7658 20.6428 13.7467 20.433C13.6908 19.8173 13.6365 19.2904 13.5892 18.831C13.5276 18.2336 13.4778 17.7506 13.4516 17.3361C13.4043 16.5854 13.4609 16.3051 13.5335 16.1719C13.576 16.094 13.6772 15.9671 14.2071 15.8024C14.6001 15.6802 15.1072 15.5706 15.8046 15.4198C16.0632 15.3639 16.348 15.3023 16.6629 15.2324C16.7164 15.2205 16.7695 15.2083 16.8219 15.1959ZM5.76772 11.2667L9.85915 2.49256C11.3365 3.22681 12.8499 4.32161 13.8313 5.59904C14.9388 7.04046 15.3118 8.6101 14.3768 10.2296C13.4135 11.8981 11.8736 12.4784 10.1753 12.4557C8.63129 12.435 7.01242 11.9076 5.76772 11.2667ZM3.53608 14.2778C3.54289 14.3017 3.54957 14.3259 3.55607 14.3505C3.67257 14.7912 3.68018 15.1519 3.58678 15.3522C3.42482 15.6995 3.26334 15.8191 3.17669 15.8573C3.10598 15.8885 2.99848 15.9054 2.81666 15.8206C2.63485 15.7358 2.57865 15.6426 2.55711 15.5684C2.53071 15.4774 2.51851 15.2769 2.68047 14.9295C2.77387 14.7293 3.05501 14.5033 3.46755 14.3092C3.49054 14.2984 3.51341 14.2879 3.53608 14.2778ZM11.5002 7.25023C12.1905 7.25021 12.7501 7.80983 12.7501 8.50017C12.7501 9.19053 12.1904 9.75021 11.5001 9.75023C10.8097 9.75024 10.2501 9.19063 10.2501 8.50028C10.2501 7.80991 10.8098 7.25024 11.5002 7.25023ZM8.75012 8.50025C8.75009 10.019 9.98129 11.2503 11.5001 11.2502C13.0189 11.2502 14.2501 10.019 14.2501 8.5002C14.2502 6.9814 13.0189 5.7502 11.5001 5.75023C9.98137 5.75026 8.75016 6.98148 8.75012 8.50025Z" fill="#26272B"/>
</svg>
