<svg width="24" height="24" viewBox="0 0 24 24" fill="none" xmlns="http://www.w3.org/2000/svg">
<path fill-rule="evenodd" clip-rule="evenodd" d="M12.5002 2.75C11.8098 2.75001 11.2501 3.30969 11.2501 4.00006C11.2501 4.6904 11.8097 5.25001 12.5001 5.25C13.1904 5.24999 13.7501 4.69031 13.7501 3.99994C13.7501 3.3096 13.1905 2.74999 12.5002 2.75ZM9.75012 4.00003C9.75015 2.48125 10.9814 1.25003 12.5001 1.25C14.0189 1.24997 15.2501 2.48118 15.2501 3.99997C15.2501 5.51874 14.0189 6.74997 12.5001 6.75C10.9813 6.75003 9.75009 5.51882 9.75012 4.00003ZM21.3149 3.63526C21.715 3.74247 21.9525 4.15372 21.8452 4.55382C21.4562 6.00561 20.4485 7.06967 19.1381 7.82067C17.8925 8.5346 16.338 8.98879 14.6606 9.25213C14.9655 13.6711 16.6586 16.5707 19.3784 19.2664C19.5943 19.4803 19.6597 19.8034 19.544 20.0845C19.5195 20.144 19.488 20.199 19.4506 20.2489C20.2348 20.1298 20.8214 20.012 21.2105 19.9245C21.4101 19.8796 21.5578 19.8426 21.6534 19.8175C21.7013 19.8049 21.7361 19.7953 21.758 19.7892L21.781 19.7826L21.7846 19.7816C22.1812 19.6628 22.5995 19.8878 22.7185 20.2844C22.8375 20.6812 22.6124 21.0993 22.2156 21.2183L22.0001 20.5C22.2156 21.2183 22.2158 21.2183 22.2156 21.2183L22.2101 21.22L22.1997 21.223L22.1641 21.2332C22.1339 21.2417 22.0906 21.2536 22.0343 21.2684C21.9216 21.2979 21.7568 21.3391 21.5398 21.3879C21.1057 21.4856 20.4629 21.6139 19.6114 21.7417C17.9083 21.9971 15.3711 22.25 12.0001 22.25C8.62913 22.25 6.09194 21.9971 4.38886 21.7417C3.53738 21.6139 2.89458 21.4856 2.46048 21.3879C2.24344 21.3391 2.0786 21.2979 1.96594 21.2684C1.90962 21.2536 1.86634 21.2417 1.83612 21.2332L1.80057 21.223L1.79014 21.22L1.78553 21.2186C1.78531 21.2185 1.78461 21.2183 2.00012 20.5L1.78553 21.2186C1.38879 21.0996 1.16272 20.6812 1.28175 20.2844C1.4007 19.8879 1.81837 19.6628 2.2149 19.7814C2.21514 19.7814 2.21466 19.7813 2.2149 19.7814L2.21919 19.7826L2.24224 19.7892C2.2641 19.7953 2.29895 19.8049 2.34679 19.8175C2.44247 19.8426 2.59013 19.8796 2.78975 19.9245C3.18899 20.0143 3.79619 20.136 4.61137 20.2583C4.84234 20.2929 5.09002 20.3276 5.35442 20.3616C5.19898 20.2242 5.10098 20.0233 5.10099 19.7995C5.10102 19.3853 5.43683 19.0495 5.85105 19.0496L7.00157 19.0497C6.84062 17.677 6.776 16.6 6.85218 15.7594C6.94569 14.7274 7.26384 13.9259 7.99138 13.3883C8.65443 12.8984 9.55252 12.7183 10.5321 12.5888C10.5707 12.5837 10.6097 12.5786 10.6492 12.5736C10.5467 11.9776 10.5053 11.2231 10.4877 10.6282C10.4778 10.2933 10.475 9.99408 10.4748 9.77852C10.4747 9.68699 10.475 9.61029 10.4754 9.55207C8.00273 9.55216 5.45208 9.28111 3.19521 8.84592C2.78849 8.76749 2.52236 8.3742 2.60078 7.96748C2.67921 7.56076 3.0725 7.29463 3.47922 7.37306C6.86753 8.02642 10.9021 8.28631 14.2194 7.80187C15.8792 7.55948 17.3143 7.13708 18.3923 6.51926C19.4609 5.90678 20.1383 5.12862 20.3964 4.16559C20.5036 3.76549 20.9148 3.52805 21.3149 3.63526ZM11.9758 9.51726L11.9756 9.53569C11.9751 9.59198 11.9746 9.67428 11.9748 9.77672C11.975 9.98188 11.9776 10.2664 11.987 10.5837C12.0058 11.218 12.0507 11.9293 12.1436 12.4078C12.1753 12.4045 12.2071 12.4011 12.2391 12.3977C12.6579 12.3533 13.1056 12.3043 13.5853 12.2449C13.3828 11.37 13.2428 10.4373 13.1699 9.43515C12.7772 9.47093 12.3786 9.49814 11.9758 9.51726ZM13.9975 13.7048C13.417 13.7792 12.8838 13.8377 12.3975 13.8893C12.2861 13.9012 12.1777 13.9126 12.0719 13.9237C11.5683 13.9767 11.1261 14.0233 10.7288 14.0758C9.73539 14.2072 9.2007 14.3598 8.88277 14.5947C8.62933 14.782 8.41831 15.0973 8.34606 15.8947C8.27152 16.7173 8.35849 17.9135 8.59492 19.7014C8.62324 19.9156 8.55781 20.1316 8.4154 20.2941C8.27298 20.4566 8.0674 20.5497 7.85134 20.5497L7.1107 20.5497C8.46101 20.667 10.0908 20.75 12.0001 20.75C13.9127 20.75 15.5448 20.6667 16.8965 20.5491H16.8505C16.4362 20.5491 16.1005 20.2133 16.1005 19.7991C16.1005 19.3848 16.4362 19.0491 16.8505 19.0491H17.1191C15.7497 17.4681 14.6844 15.7483 13.9975 13.7048Z" fill="#26272B"/>
</svg>
