<svg width="24" height="24" viewBox="0 0 24 24" fill="none" xmlns="http://www.w3.org/2000/svg">
<path fill-rule="evenodd" clip-rule="evenodd" d="M17.5003 7.75C16.8099 7.75001 16.2503 8.30969 16.2503 9.00006C16.2502 9.6904 16.8099 10.25 17.5002 10.25C18.1906 10.25 18.7502 9.69031 18.7503 8.99994C18.7503 8.3096 18.1907 7.74999 17.5003 7.75ZM14.7503 9.00003C14.7503 7.48125 15.9815 6.25003 17.5003 6.25C19.0191 6.24997 20.2503 7.48118 20.2503 8.99997C20.2502 10.5187 19.019 11.75 17.5002 11.75C15.9814 11.75 14.7502 10.5188 14.7503 9.00003ZM8.60356 9.65787C6.72092 9.11128 4.99591 9.02432 4.18214 9.22784C3.7803 9.32833 3.37308 9.08405 3.27259 8.68221C3.17209 8.28037 3.41638 7.87315 3.81821 7.77265C5.00445 7.47599 7.02944 7.63891 9.02179 8.21736C11.0309 8.80066 13.1919 9.85874 14.5764 11.5203C16.9047 14.3147 20.1728 15.2504 22.5002 15.2504C22.9144 15.2504 23.2502 15.5862 23.2502 16.0004C23.2502 16.4146 22.9144 16.7504 22.5002 16.7504C20.4163 16.7504 17.6884 16.1039 15.3213 14.2991C15.0201 14.6553 14.6879 14.9916 14.3944 15.2701C14.9185 15.3929 15.4077 15.5387 15.8705 15.6767C15.9857 15.7111 16.0993 15.745 16.2114 15.7779C16.6089 15.8945 16.8365 16.3113 16.7198 16.7088C16.6031 17.1062 16.1864 17.3338 15.7889 17.2171C15.6763 17.1841 15.5647 17.151 15.4538 17.118C14.3371 16.7865 13.2881 16.4751 12.0002 16.4751C10.7155 16.4751 9.71084 16.7739 8.63427 17.0941C8.22635 17.2154 7.8081 17.3398 7.36039 17.4522C5.74356 17.858 4.00652 17.9941 1.68166 16.9035C1.30666 16.7276 1.14526 16.281 1.32117 15.906C1.49708 15.531 1.94369 15.3696 2.31869 15.5455C3.70202 16.1944 4.79498 16.3223 5.80546 16.2174C5.87167 16.0545 5.99512 15.914 6.16477 15.8292C7.07997 15.3716 8.27354 14.4832 9.38579 13.5255C10.4461 12.6124 11.3712 11.6897 11.8512 11.1093C10.8866 10.4748 9.75017 9.99077 8.60356 9.65787ZM13.0231 12.0458C12.4668 12.7224 11.4629 13.7163 10.3646 14.6621C10.1313 14.863 9.89092 15.0642 9.64682 15.2617C10.3681 15.0961 11.1496 14.9751 12.0002 14.9751C12.1541 14.9751 12.3052 14.9789 12.4538 14.9862C12.4777 14.9608 12.5036 14.9368 12.5316 14.9145L12.5317 14.9144L12.5317 14.9144L12.5334 14.9129L12.5422 14.9059L12.5791 14.8757C12.612 14.8487 12.6608 14.8082 12.722 14.7563C12.8446 14.6522 13.0162 14.503 13.2102 14.3239C13.5267 14.0318 13.8866 13.6749 14.1894 13.3146C13.9263 13.0543 13.6706 12.7765 13.424 12.4805C13.2991 12.3307 13.1652 12.1858 13.0231 12.0458Z" fill="#26272B"/>
</svg>
