<svg width="24" height="24" viewBox="0 0 24 24" fill="none" xmlns="http://www.w3.org/2000/svg">
<path fill-rule="evenodd" clip-rule="evenodd" d="M8.50006 2.75C7.80969 2.75001 7.25001 3.30969 7.25 4.00006C7.24999 4.6904 7.8096 5.25001 8.49994 5.25C9.19031 5.24999 9.74999 4.69031 9.75 3.99994C9.75001 3.3096 9.1904 2.74999 8.50006 2.75ZM5.75 4.00002C5.75003 2.48125 6.98125 1.25003 8.50003 1.25C10.0188 1.24997 11.25 2.48118 11.25 3.99997C11.25 5.51874 10.0187 6.74997 8.49997 6.75C6.98118 6.75003 5.74997 5.51882 5.75 4.00002ZM14.5 1.25C14.9142 1.25 15.25 1.58579 15.25 2C15.25 3.48227 14.5684 5.08816 13.1207 6.56221C13.1983 6.65363 13.2709 6.74852 13.3385 6.84455C13.6081 7.22727 13.8385 7.6851 14.0099 8.16739C14.0531 8.28919 14.0935 8.41507 14.1301 8.54409C14.748 7.71778 15.4113 6.99456 16.056 6.54195C16.5205 6.21586 17.1088 5.93526 17.7309 6.02884C18.4221 6.13282 18.8731 6.64464 19.1335 7.28239C19.3884 7.90665 19.5162 8.76378 19.5359 9.85366C19.5558 10.9563 19.4652 12.3543 19.2438 14.0943C19.1915 14.5052 18.816 14.7959 18.4051 14.7436C17.9942 14.6913 17.7035 14.3158 17.7558 13.9049C17.9718 12.2073 18.0543 10.8865 18.0361 9.88071C18.0178 8.86216 17.8966 8.22123 17.7448 7.8494C17.671 7.66867 17.6022 7.58233 17.5629 7.54512C17.5318 7.51574 17.5169 7.5135 17.5084 7.51224L17.5078 7.51215C17.4613 7.50517 17.2769 7.51756 16.9179 7.76962C16.2201 8.25949 15.3596 9.30327 14.5592 10.5685C14.3944 10.829 14.2348 11.0947 14.0822 11.3616C14.0781 11.3691 14.0739 11.3764 14.0696 11.3837C13.5253 12.3384 13.0711 13.308 12.7905 14.1126C12.8449 16.0947 12.6106 18.4945 11.9598 21.2497H12.9995C13.4137 21.2497 13.7495 21.5855 13.7495 21.9997C13.7495 22.4139 13.4137 22.7497 12.9995 22.7497H10.9995C10.7669 22.7497 10.5475 22.6418 10.4055 22.4576C10.2635 22.2734 10.215 22.0337 10.2742 21.8088C11.0917 18.7023 11.3566 16.0883 11.2876 14.0418C11.2869 14.0309 11.2866 14.02 11.2864 14.0091C11.2503 12.9934 11.1318 12.1185 10.9578 11.3935C10.6918 10.285 10.3155 9.60634 9.98373 9.2827C9.82463 9.12751 9.70573 9.08218 9.63903 9.07106C9.61831 9.06761 9.59491 9.06598 9.56787 9.06898C9.52128 9.09081 9.47351 9.10743 9.42525 9.11907C9.41615 9.12416 9.40678 9.12969 9.39714 9.13572C7.74995 10.1652 6.78813 12.279 7.72089 15.5437C7.83468 15.942 7.60406 16.3571 7.20579 16.4709C6.80751 16.5847 6.39239 16.354 6.2786 15.9558C5.21136 12.2204 6.24935 9.33423 8.60214 7.86373C8.73807 7.77877 8.88055 7.71062 9.02785 7.66119C10.0202 7.15116 10.8285 6.60527 11.4775 6.04854C11.498 6.0287 11.5195 6.01015 11.5418 5.99293C13.1455 4.59281 13.75 3.12959 13.75 2C13.75 1.58579 14.0858 1.25 14.5 1.25ZM11.9972 7.55687C11.7022 7.78557 11.3863 8.00918 11.0491 8.22659C11.6614 8.83417 12.1228 9.82012 12.4164 11.0434C12.4293 11.0974 12.442 11.1519 12.4543 11.2071C12.5474 11.0323 12.6435 10.8576 12.7421 10.6837C12.9188 10.1691 12.8614 9.41549 12.5964 8.66953C12.4646 8.29854 12.2934 7.9656 12.1122 7.70836C12.0726 7.65214 12.0341 7.60179 11.9972 7.55687Z" fill="#26272B"/>
</svg>
