<svg width="24" height="24" viewBox="0 0 24 24" fill="none" xmlns="http://www.w3.org/2000/svg">
<path fill-rule="evenodd" clip-rule="evenodd" d="M8.50006 2.75C7.80969 2.75001 7.25001 3.30969 7.25 4.00006C7.24999 4.6904 7.8096 5.25001 8.49994 5.25C9.19031 5.24999 9.74999 4.69031 9.75 3.99994C9.75001 3.3096 9.1904 2.74999 8.50006 2.75ZM5.75 4.00002C5.75003 2.48125 6.98125 1.25003 8.50003 1.25C10.0188 1.24997 11.25 2.48118 11.25 3.99997C11.25 5.51874 10.0187 6.74997 8.49997 6.75C6.98118 6.75003 5.74997 5.51882 5.75 4.00002ZM14.5 1.25C14.9142 1.25 15.25 1.58579 15.25 2C15.25 3.47355 14.5764 5.06926 13.1462 6.53617C13.5006 6.90643 13.8041 7.3635 14.0418 7.82507C14.2255 8.18193 14.3856 8.57147 14.5068 8.97288C14.5263 8.95075 14.546 8.92862 14.5658 8.9065C15.9484 7.35925 17.8349 5.87211 20.6409 4.34158C21.0045 4.14323 21.4601 4.27722 21.6584 4.64086C21.8568 5.0045 21.7228 5.46007 21.3591 5.65842C18.6651 7.12789 16.9266 8.51575 15.6842 9.906C14.443 11.2951 13.6672 12.719 12.931 14.3143C12.8965 14.389 12.8512 14.4554 12.7979 14.5124C12.8125 16.4146 12.5679 18.6774 11.9603 21.25H13C13.4142 21.25 13.75 21.5858 13.75 22C13.75 22.4142 13.4142 22.75 13 22.75H11C10.7674 22.75 10.548 22.6421 10.406 22.4579C10.264 22.2737 10.2155 22.0341 10.2747 21.8092C11.5035 17.1398 11.4837 13.5831 10.9583 11.3938C10.6922 10.2853 10.316 9.60667 9.98422 9.28303C9.82512 9.12784 9.70622 9.08251 9.63951 9.0714C9.61839 9.06788 9.59448 9.06626 9.56676 9.06949C9.52114 9.09078 9.47441 9.10708 9.42718 9.1186C9.41763 9.1239 9.40778 9.12971 9.39763 9.13606C7.75043 10.1656 6.78862 12.2794 7.72138 15.544C7.83517 15.9423 7.60455 16.3574 7.20627 16.4712C6.808 16.585 6.39288 16.3544 6.27909 15.9561C5.21184 12.2207 6.24983 9.33456 8.60262 7.86406C8.73754 7.77974 8.87891 7.71197 9.02504 7.66263C10.0187 7.15219 10.8279 6.60579 11.4775 6.04854C11.498 6.0287 11.5195 6.01015 11.5418 5.99293C13.1455 4.59281 13.75 3.12959 13.75 2C13.75 1.58579 14.0858 1.25 14.5 1.25ZM12.0252 7.53507C11.7223 7.77135 11.3971 8.00224 11.0492 8.22653C11.6617 8.83408 12.1232 9.82019 12.4169 11.0438C12.4692 11.2617 12.5168 11.4897 12.5592 11.7276C12.7744 11.3471 13.0047 10.9698 13.256 10.5952C13.252 10.564 13.25 10.5322 13.25 10.4999C13.25 9.89866 13.0437 9.16336 12.7082 8.51178C12.4897 8.0875 12.2473 7.75744 12.0252 7.53507Z" fill="#26272B"/>
</svg>
