<svg width="24" height="24" viewBox="0 0 24 24" fill="none" xmlns="http://www.w3.org/2000/svg">
<path fill-rule="evenodd" clip-rule="evenodd" d="M13.0001 2.75C12.3097 2.75001 11.7501 3.30969 11.75 4.00006C11.75 4.6904 12.3096 5.25001 13 5.25C13.6904 5.24999 14.25 4.69031 14.25 3.99994C14.2501 3.3096 13.6904 2.74999 13.0001 2.75ZM10.25 4.00002C10.2501 2.48125 11.4813 1.25003 13.0001 1.25C14.5189 1.24997 15.7501 2.48118 15.75 3.99997C15.75 5.51874 14.5188 6.74997 13 6.75C11.4812 6.75003 10.25 5.51882 10.25 4.00002ZM18.8859 5.35688C19.2411 5.56999 19.3562 6.03069 19.1431 6.38587C18.3021 7.78751 16.9234 8.88247 15.5549 9.49147C14.8674 9.79742 14.153 9.99406 13.4801 10.0324C13.2111 10.0477 12.9391 10.038 12.6738 9.99545C12.6189 10.1962 12.5466 10.3943 12.4641 10.5853C12.1649 11.2783 11.6581 12.0564 10.9734 12.8869C11.7479 13.2191 12.4072 13.5066 12.9013 13.8195C13.4643 14.1761 13.9038 14.6204 14.0963 15.2939C14.2731 15.9126 14.2087 16.6248 14.0487 17.4412C13.9358 18.017 13.7615 18.7046 13.5411 19.5269L14.853 19.2646C15.2591 19.1833 15.6542 19.4467 15.7355 19.8529C15.8167 20.2591 15.5533 20.6542 15.1471 20.7354L12.6471 21.2354C12.5997 21.2449 12.5521 21.2497 12.5047 21.25H21.1083L19.3464 11.1193L18.6233 11.2398C18.2147 11.3079 17.8283 11.0319 17.7602 10.6233C17.6921 10.2147 17.9681 9.8283 18.3767 9.76021L21.3767 9.26021C21.7853 9.19211 22.1717 9.46812 22.2398 9.8767C22.3079 10.2853 22.0319 10.6717 21.6233 10.7398L20.8261 10.8727L22.7389 21.8715C22.7768 22.0896 22.7165 22.3133 22.574 22.4828C22.4315 22.6522 22.2214 22.75 22 22.75H2C1.58579 22.75 1.25 22.4142 1.25 22C1.25 21.5858 1.58579 21.25 2 21.25H4.49129C4.33737 21.2483 4.18258 21.1994 4.05 21.1L2.05 19.6C1.85351 19.4526 1.74163 19.2184 1.75049 18.9729C1.75935 18.7275 1.88783 18.5019 2.09443 18.3691C4.87046 16.5845 7.03095 14.8352 8.56272 13.3027C8.38191 13.1732 8.21873 13.0393 8.07387 12.9C7.55502 12.4011 7.25 11.8098 7.25 11.125C7.25 10.4754 7.52602 9.85887 7.90714 9.28713C8.13949 8.93857 8.4288 8.58038 8.7617 8.21112C8.57571 8.18559 8.38329 8.16436 8.18553 8.14807C6.45643 8.00565 4.44902 8.25021 2.87211 9.15131C2.51247 9.35682 2.05433 9.23187 1.84882 8.87224C1.64331 8.5126 1.76826 8.05446 2.12789 7.84895C4.05098 6.75003 6.38972 6.49507 8.30867 6.65313C9.27397 6.73264 10.1654 6.919 10.8795 7.17673C11.2362 7.30548 11.5643 7.45765 11.8401 7.63383C12.1072 7.80442 12.3738 8.02822 12.546 8.32013C12.5674 8.3565 12.5872 8.39331 12.6055 8.43052C12.7961 8.50967 13.0564 8.55408 13.3949 8.53481C13.847 8.50906 14.3826 8.37133 14.9451 8.12103C16.0766 7.61753 17.1979 6.71249 17.8569 5.61413C18.07 5.25894 18.5307 5.14377 18.8859 5.35688ZM10.4454 8.61543C9.87436 9.19215 9.4438 9.68625 9.15526 10.1191C8.84896 10.5786 8.75 10.8996 8.75 11.125C8.75 11.3152 8.81994 11.5364 9.11356 11.8188C9.23794 11.9384 9.39712 12.0631 9.59691 12.1928C10.3498 11.3179 10.8365 10.571 11.087 9.99071C11.3577 9.36376 11.2765 9.12048 11.2539 9.08205C11.2539 9.08209 11.242 9.0625 11.2037 9.02673C11.1661 8.99152 11.1106 8.9477 11.0327 8.89796C10.8896 8.80655 10.6937 8.70947 10.4454 8.61543ZM9.9186 14.063C8.44088 15.5926 6.3931 17.3024 3.80414 19.0406L4.95 19.9C5.28137 20.1485 5.34853 20.6186 5.1 20.95C4.95441 21.1441 4.73279 21.2476 4.50756 21.25H12.4952C12.2912 21.2487 12.0939 21.1641 11.9517 21.0117C11.7743 20.8217 11.708 20.5534 11.7764 20.3026C12.1547 18.9162 12.4269 17.9162 12.5767 17.1526C12.7291 16.3752 12.7273 15.9624 12.654 15.7061C12.5964 15.5046 12.4733 15.3239 12.0987 15.0868C11.6927 14.8296 11.1028 14.5744 10.2045 14.1894C10.107 14.1476 10.0117 14.1055 9.9186 14.063Z" fill="#26272B"/>
</svg>
