<svg width="24" height="24" viewBox="0 0 24 24" fill="none" xmlns="http://www.w3.org/2000/svg">
<path fill-rule="evenodd" clip-rule="evenodd" d="M13.5111 0.750104C13.9252 0.756928 14.2554 1.0982 14.2486 1.51236L14.2305 2.60891C14.9569 3.12177 15.7896 3.80843 16.5331 4.56977C17.3819 5.43909 18.1855 6.47738 18.5223 7.51931C18.6944 8.05157 18.759 8.62932 18.6003 9.19772C18.4383 9.77842 18.0655 10.2687 17.5089 10.65C16.7786 11.1502 15.7065 11.4817 14.2494 11.6406V14.5063C15.0237 14.6103 15.7591 14.7421 16.4181 14.8941C17.2548 15.0872 18.0038 15.3211 18.5605 15.5904C18.8361 15.7238 19.1031 15.884 19.312 16.0805C19.5139 16.2703 19.7494 16.5794 19.7494 16.9999C19.7494 17.384 19.5626 17.6788 19.3612 17.8765C19.1678 18.0663 18.928 18.2026 18.7032 18.3043C18.2515 18.5087 17.675 18.6547 17.1153 18.7666C16.5451 18.8806 15.9403 18.9691 15.4125 19.0434C15.3374 19.054 15.2644 19.0642 15.1935 19.0741C15.0341 19.0964 14.8856 19.1172 14.7494 19.1369V20.4999C14.7494 20.9141 14.4136 21.2499 13.9994 21.2499C13.5852 21.2499 13.2494 20.9141 13.2494 20.4999V18.4999C13.2494 18.1424 13.5018 17.8346 13.8523 17.7645C14.145 17.706 14.5563 17.6485 14.9909 17.5878C15.0613 17.578 15.1323 17.568 15.2035 17.558C15.7305 17.4839 16.2974 17.4005 16.8211 17.2957C17.2975 17.2005 17.6983 17.0949 17.9855 16.9799C17.961 16.9672 17.9349 16.9541 17.9071 16.9407C17.4951 16.7413 16.869 16.5376 16.0808 16.3557C14.6845 16.0335 12.8903 15.8045 11.1392 15.7585C11.0973 16.7857 11.0477 17.7758 10.9983 18.6665C10.9356 19.7953 10.8728 20.7672 10.8258 21.4572C10.8023 21.8022 10.7827 22.0768 10.7689 22.2654L10.7529 22.4818L10.7472 22.5573C10.7472 22.5574 10.7472 22.5574 9.99942 22.4999L10.7472 22.5573C10.7172 22.9481 10.3913 23.2499 9.99942 23.2499H7.99942C7.5852 23.2499 7.24942 22.9141 7.24942 22.4999C7.24942 22.0857 7.5852 21.7499 7.99942 21.7499H9.30196C9.31027 21.6316 9.31943 21.4996 9.32928 21.3552C9.37599 20.6701 9.43828 19.7046 9.50057 18.5833C9.61468 16.5293 9.72827 13.9618 9.74679 11.6411C8.27696 11.4827 7.1862 11.1524 6.4325 10.6586C5.86299 10.2855 5.46754 9.80621 5.27657 9.23326C5.08803 8.66764 5.12377 8.08608 5.27865 7.54397C5.58082 6.48629 6.37483 5.43925 7.25059 4.56343C8.0226 3.79138 8.91686 3.09427 9.74931 2.5749L9.7489 1.50029C9.74874 1.08608 10.0844 0.750162 10.4986 0.750002C10.9128 0.749842 11.2487 1.0855 11.2489 1.49971L11.2495 2.9997C11.2496 3.26894 11.1054 3.51757 10.8716 3.65116C10.0551 4.1178 9.10826 4.82703 8.31129 5.62406C7.49966 6.43574 6.91873 7.26371 6.72094 7.95603C6.62583 8.28892 6.63032 8.55111 6.69959 8.75893C6.76642 8.95942 6.91784 9.1833 7.25455 9.40391C7.96939 9.87226 9.40682 10.25 11.9996 10.25C14.5971 10.25 15.9925 9.87054 16.6612 9.41251C16.9712 9.20009 17.1018 8.98721 17.1556 8.79447C17.2128 8.58943 17.2059 8.32343 17.0951 7.9807C16.8662 7.27262 16.2588 6.4359 15.4598 5.61772C14.6756 4.81457 13.7751 4.09816 13.0604 3.62563C12.8467 3.48436 12.7199 3.24378 12.7241 2.98763L12.7488 1.48765C12.7556 1.07349 13.0969 0.74328 13.5111 0.750104ZM11.246 11.7394C11.2386 12.5625 11.2197 13.4134 11.1934 14.2594C11.7117 14.2733 12.2336 14.3023 12.7494 14.3446V11.7395C12.5076 11.7465 12.2577 11.75 11.9996 11.75C11.7404 11.75 11.4893 11.7465 11.246 11.7394ZM11.9994 5.74992C11.3091 5.74992 10.7494 6.30957 10.7494 6.99992C10.7494 7.69028 11.3091 8.24992 11.9994 8.24992C12.6898 8.24992 13.2494 7.69028 13.2494 6.99992C13.2494 6.30957 12.6898 5.74992 11.9994 5.74992ZM9.24942 6.99992C9.24942 5.48114 10.4806 4.24992 11.9994 4.24992C13.5182 4.24992 14.7494 5.48114 14.7494 6.99992C14.7494 8.51871 13.5182 9.74992 11.9994 9.74992C10.4806 9.74992 9.24942 8.51871 9.24942 6.99992Z" fill="#26272B"/>
</svg>
