<svg width="24" height="24" viewBox="0 0 24 24" fill="none" xmlns="http://www.w3.org/2000/svg">
<path fill-rule="evenodd" clip-rule="evenodd" d="M16.8472 2.87791C17.7546 2.11871 18.8335 1.75 20.0004 1.75C20.4146 1.75 20.7504 2.08579 20.7504 2.5C20.7504 2.91421 20.4146 3.25 20.0004 3.25C19.1673 3.25 18.4337 3.50629 17.8098 4.02834C17.1771 4.5577 16.6177 5.3945 16.2118 6.61218C15.3947 9.06336 15.2476 12.9178 16.2383 18.3658C16.3124 18.7733 16.0421 19.1638 15.6346 19.2379C15.2271 19.312 14.8366 19.0417 14.7625 18.6342C14.3107 16.1497 14.0817 13.9469 14.0501 12.0204C13.6553 11.894 13.3459 11.9228 13.07 12.0068C12.7317 12.1098 12.4392 12.29 12.0636 12.5214C11.9687 12.5798 11.8685 12.6416 11.761 12.7061C11.5647 12.8239 11.3421 12.9512 11.0943 13.0582L14.9746 21.25H16.5C16.9142 21.25 17.25 21.5858 17.25 22C17.25 22.4142 16.9142 22.75 16.5 22.75H14.5C14.2102 22.75 13.9463 22.583 13.8222 22.3211L9.53392 13.268C9.06936 13.1851 8.60934 12.97 8.14066 12.6192C7.21031 14.5082 6.3613 17.4649 5.74342 22.099C5.69374 22.4716 5.37592 22.7499 5.00002 22.7499L3.00002 22.7499C2.58581 22.75 2.25001 22.4142 2.25 22C2.24999 21.5858 2.58576 21.25 2.99998 21.2499L4.34635 21.2499C5.35548 14.1748 6.96738 10.6956 8.95933 9.0471C10.715 7.59414 12.6912 7.67034 14.2122 7.72899C14.2674 7.73112 14.322 7.73322 14.3759 7.73523C14.487 7.16111 14.6251 6.62875 14.7887 6.13782C15.2579 4.7305 15.9486 3.6298 16.8472 2.87791ZM14.1579 9.23448C14.1137 9.23316 14.0696 9.23183 14.0257 9.23049C12.5181 9.18472 11.1943 9.14453 9.91567 10.2027C9.57852 10.4817 9.24006 10.8438 8.90652 11.3142C9.27645 11.6181 9.5583 11.7419 9.7706 11.7859C9.91633 11.7388 10.0686 11.739 10.2086 11.7796C10.4277 11.7297 10.6704 11.6113 10.989 11.42C11.0575 11.3789 11.1312 11.3331 11.2096 11.2844C11.5937 11.0456 12.0897 10.7373 12.6331 10.5719C13.0773 10.4366 13.5536 10.3907 14.0688 10.4825C14.0873 10.0502 14.1172 9.63422 14.1579 9.23448ZM20 8.75C19.3096 8.75 18.75 9.30964 18.75 10C18.75 10.6904 19.3096 11.25 20 11.25C20.6904 11.25 21.25 10.6904 21.25 10C21.25 9.30964 20.6904 8.75 20 8.75ZM17.25 10C17.25 8.48122 18.4812 7.25 20 7.25C21.5188 7.25 22.75 8.48122 22.75 10C22.75 11.5188 21.5188 12.75 20 12.75C18.4812 12.75 17.25 11.5188 17.25 10Z" fill="#26272B"/>
</svg>
