<svg width="24" height="24" viewBox="0 0 24 24" fill="none" xmlns="http://www.w3.org/2000/svg">
<path fill-rule="evenodd" clip-rule="evenodd" d="M10.25 3.99997C10.25 2.48118 11.4812 1.24997 13 1.25C14.5187 1.25003 15.75 2.48125 15.75 4.00003C15.75 5.51882 14.5188 6.75003 13 6.75C11.4813 6.74997 10.25 5.51874 10.25 3.99997ZM12.9999 2.75C12.3096 2.74999 11.75 3.3096 11.75 3.99994C11.75 4.69031 12.3097 5.24999 13.0001 5.25C13.6904 5.25001 14.25 4.6904 14.25 4.00006C14.25 3.30969 13.6903 2.75001 12.9999 2.75ZM2.45365 2.09652C3.01481 1.87206 3.73861 1.74999 4.49996 1.75C5.2613 1.75001 5.98511 1.87208 6.54627 2.09655C6.82478 2.20795 7.10048 2.35936 7.31884 2.56585C7.53877 2.77383 7.74998 3.08924 7.75 3.49998C7.75002 3.91073 7.53883 4.22617 7.3189 4.43417C7.10055 4.64067 6.82484 4.79208 6.54635 4.90348C5.98519 5.12794 5.26139 5.25001 4.50004 5.25C3.7387 5.24999 3.01489 5.12792 2.45373 4.90345C2.17522 4.79205 1.89951 4.64064 1.68116 4.43415C1.46123 4.22617 1.25002 3.91076 1.25 3.50002C1.24998 3.08927 1.46117 2.77383 1.6811 2.56583C1.89945 2.35933 2.17516 2.20792 2.45365 2.09652ZM2.98445 3.49997C2.99302 3.50354 3.0018 3.50713 3.01081 3.51073C3.35449 3.6482 3.88069 3.74999 4.50006 3.75C5.11942 3.75001 5.64561 3.64822 5.98926 3.51076C5.99824 3.50717 6.00701 3.50359 6.01555 3.50003C6.00698 3.49646 5.9982 3.49287 5.98919 3.48927C5.64551 3.3518 5.11931 3.25001 4.49994 3.25C3.88058 3.24999 3.35439 3.35178 3.01074 3.48924C3.00176 3.49283 2.99299 3.49641 2.98445 3.49997ZM3.9 6.55C4.14853 6.21863 4.61863 6.15147 4.95 6.4C5.91582 7.12437 6.68402 7.58862 7.77209 7.80623C8.88863 8.02954 10.4071 8.00515 12.8767 7.59354C18.1655 6.71206 21.3983 8.83763 23.0303 10.4697C23.3232 10.7626 23.3232 11.2374 23.0303 11.5303C22.7374 11.8232 22.2626 11.8232 21.9697 11.5303C20.9116 10.4723 19.0166 9.11131 16.0325 8.91219C16.3564 9.60948 16.6002 10.2205 16.7643 10.7572C16.9824 11.4705 17.0785 12.1108 16.9914 12.6766C16.8988 13.2784 16.6061 13.7466 16.1583 14.0884C15.8783 14.3021 15.5509 14.4563 15.2045 14.5751C16.6832 17.254 18.4177 19.357 20.5303 21.4697C20.7448 21.6842 20.809 22.0068 20.6929 22.287C20.5768 22.5673 20.3033 22.75 20 22.75H18C17.5858 22.75 17.25 22.4142 17.25 22C17.25 21.5858 17.5858 21.25 18 21.25H18.2365C16.5568 19.4326 15.1167 17.5337 13.8557 15.2352C13.7436 15.3353 13.6262 15.4508 13.5043 15.5829C13.0402 16.0856 12.574 16.7585 12.1575 17.5172C11.3128 19.0557 10.75 20.8021 10.75 22C10.75 22.4142 10.4142 22.75 10 22.75H8.00014C7.58592 22.75 7.25014 22.4142 7.25014 22C7.25014 21.5858 7.58592 21.25 8.00014 21.25H9.29765C9.46794 19.8363 10.0774 18.1891 10.8426 16.7953C11.3011 15.9602 11.8349 15.18 12.4021 14.5655C12.6349 14.3133 12.8859 14.0753 13.1517 13.8711C12.4933 12.514 11.8856 11.0171 11.3186 9.32734C9.72368 9.50294 8.50488 9.4825 7.47791 9.2771C6.06598 8.99472 5.08418 8.37563 4.05 7.6C3.71863 7.35147 3.65147 6.88137 3.9 6.55ZM12.8324 9.12057C13.353 10.6406 13.9071 11.9928 14.5043 13.2227C14.8626 13.1205 15.0972 13.0113 15.2483 12.896C15.3941 12.7846 15.4765 12.6591 15.5089 12.4484C15.5468 12.2017 15.5179 11.8108 15.3299 11.1959C15.1496 10.6063 14.8397 9.86313 14.3726 8.92163C13.9723 8.95133 13.556 9.00101 13.1233 9.07313C13.0251 9.08949 12.9282 9.1053 12.8324 9.12057Z" fill="#26272B"/>
</svg>
