<svg width="24" height="24" viewBox="0 0 24 24" fill="none" xmlns="http://www.w3.org/2000/svg">
<path fill-rule="evenodd" clip-rule="evenodd" d="M13.0002 2.75C12.3099 2.75001 11.7502 3.30969 11.7502 4.00006C11.7502 4.6904 12.3098 5.25001 13.0001 5.25C13.6905 5.24999 14.2502 4.69031 14.2502 3.99994C14.2502 3.3096 13.6906 2.74999 13.0002 2.75ZM10.2502 4.00003C10.2502 2.48125 11.4814 1.25003 13.0002 1.25C14.519 1.24997 15.7502 2.48118 15.7502 3.99997C15.7501 5.51874 14.5189 6.74997 13.0002 6.75C11.4814 6.75003 10.2501 5.51882 10.2502 4.00003ZM6.8734 11.3032C6.08817 11.9454 5.49174 12.6414 5.18115 13.3143C5.00758 13.6904 4.56198 13.8546 4.18589 13.681C3.8098 13.5074 3.64563 13.0618 3.81921 12.6857C4.25862 11.7337 5.0372 10.8671 5.92383 10.1421C6.81694 9.41171 7.8612 8.79086 8.88823 8.3436C9.90705 7.89992 10.9563 7.60649 11.8565 7.57466C12.7141 7.54434 13.7165 7.7556 14.171 8.66457C14.2134 8.74937 14.2485 8.83689 14.2772 8.92638C14.3735 9.10288 14.5761 9.32747 14.9351 9.56954C15.3726 9.86455 15.9547 10.125 16.5877 10.312C17.2193 10.4986 17.8676 10.6021 18.4266 10.6055C19.0084 10.609 19.3922 10.5039 19.5842 10.376C19.9288 10.1462 20.3945 10.2393 20.6242 10.584C20.854 10.9286 20.7609 11.3943 20.4162 11.624C19.8581 11.9961 19.117 12.1097 18.4175 12.1055C17.6952 12.101 16.906 11.9701 16.1627 11.7505C15.4714 11.5463 14.7902 11.2565 14.2202 10.8942C14.1609 11.1334 14.0874 11.3794 14.0028 11.6294C13.745 12.3914 13.3683 13.2354 12.9145 14.1062C14.6404 15.1023 16.0467 17.3991 16.23 20.75H17.5002C17.9144 20.75 18.2502 21.0858 18.2502 21.5C18.2502 21.9142 17.9144 22.25 17.5002 22.25H15.5002C15.086 22.25 14.7502 21.9142 14.7502 21.5C14.7502 18.1024 13.4329 16.1607 12.1851 15.4193C11.075 17.3059 9.66735 19.2598 8.31424 20.75H8.50018C8.91439 20.75 9.25018 21.0858 9.25018 21.5C9.25018 21.9142 8.91439 22.25 8.50018 22.25H6.50018C6.18802 22.25 5.9085 22.0566 5.79839 21.7645C5.68828 21.4724 5.77061 21.1427 6.00509 20.9366C7.49944 19.6234 9.34298 17.2444 10.7586 14.8836C10.6415 14.8444 10.5225 14.8021 10.4061 14.7557C9.9391 14.5694 9.39228 14.2719 9.0636 13.6809C8.73302 13.0866 8.70923 12.3544 8.91526 11.4914C9.03833 10.9758 9.25116 10.3797 9.5652 9.68522C9.53923 9.69629 9.5132 9.7075 9.48713 9.71885C8.57666 10.1154 7.65217 10.6664 6.8734 11.3032ZM11.5248 9.10744C10.8742 10.3285 10.5253 11.2068 10.3743 11.8397C10.2131 12.5147 10.2988 12.8157 10.3745 12.9518C10.4521 13.0913 10.6084 13.2215 10.9617 13.3624C11.1247 13.4274 11.3044 13.4853 11.5123 13.55C11.9727 12.6799 12.3415 11.8594 12.5819 11.1487C12.747 10.6609 12.8436 10.2479 12.8754 9.91998C12.8968 9.69916 12.8857 9.54809 12.8658 9.45016C12.8452 9.40185 12.8263 9.35269 12.8093 9.30268C12.738 9.20481 12.5243 9.05199 11.9095 9.07373C11.7883 9.07801 11.6597 9.0893 11.5248 9.10744Z" fill="#26272B"/>
</svg>
