<svg width="24" height="24" viewBox="0 0 24 24" fill="none" xmlns="http://www.w3.org/2000/svg">
<path fill-rule="evenodd" clip-rule="evenodd" d="M1.07934 4.41475C1.26459 4.04427 1.71509 3.8941 2.08557 4.07934C3.74098 4.90705 5.27253 5.55929 6.75736 6.04702C6.97566 6.08773 7.1849 6.15422 7.38177 6.24322C8.76846 6.65892 10.1234 6.93022 11.5108 7.06624C12.5454 7.16767 13.6039 7.19447 14.7134 7.14767C14.717 7.14748 14.7207 7.14733 14.7243 7.1472C16.909 7.05411 19.2916 6.67581 22.0784 6.0201C22.4776 5.92616 22.8783 6.17036 22.9778 6.56826L23.4778 8.56826C23.5782 8.97011 23.3339 9.37731 22.9321 9.47777C22.5302 9.57823 22.123 9.33391 22.0226 8.93207L21.701 7.64576C19.46 8.1471 17.4441 8.47109 15.5523 8.60282C15.5926 9.20912 15.6323 9.89411 15.6704 10.612C15.6788 10.6568 15.6832 10.703 15.6832 10.7502C15.6832 10.7702 15.6824 10.79 15.6809 10.8096C15.7404 11.9479 15.7959 13.1574 15.8433 14.2598C15.8902 15.3524 15.9293 16.3432 15.9567 17.0608C15.9703 17.4196 15.9811 17.7102 15.9884 17.9112L15.9997 18.2224L15.9997 18.2237C16.0069 18.4271 15.9311 18.6247 15.7897 18.7711C15.6484 18.9175 15.4537 19.0002 15.2502 19.0002H13.2504C12.8362 19.0002 12.5004 18.6644 12.5004 18.2502C12.5004 17.836 12.8362 17.5002 13.2504 17.5002H14.4722C14.4678 17.3837 14.463 17.2559 14.4578 17.118C14.4304 16.402 14.3914 15.4137 14.3446 14.3241C14.3055 13.4141 14.2611 12.4357 14.2136 11.4874C13.9153 11.4784 13.548 11.4629 13.163 11.4364C12.6984 11.4044 12.1937 11.3555 11.748 11.2791C11.3432 11.2097 10.8519 11.098 10.517 10.8747C10.1436 10.6256 9.94232 10.2549 9.83065 9.93581C9.71749 9.61248 9.67124 9.27205 9.65331 8.98478C9.63786 8.73733 9.64217 8.5067 9.65187 8.32447C9.41501 8.28269 9.17865 8.2371 8.94255 8.18769C8.98032 8.36932 9.00016 8.55752 9.00016 8.75035C9.00016 10.2691 7.76895 11.5003 6.25016 11.5003C4.73138 11.5003 3.50016 10.2691 3.50016 8.75035C3.50016 7.96707 3.82763 7.26028 4.35313 6.75942C3.40077 6.37282 2.42654 5.92688 1.41475 5.42098C1.04427 5.23574 0.894102 4.78524 1.07934 4.41475ZM6.40499 7.50984C6.35426 7.50357 6.30259 7.50035 6.25016 7.50035C5.55981 7.50035 5.00016 8.05999 5.00016 8.75035C5.00016 9.4407 5.55981 10.0003 6.25016 10.0003C6.94052 10.0003 7.50016 9.4407 7.50016 8.75035C7.50016 8.27065 7.22995 7.85406 6.83343 7.64449C6.69083 7.601 6.54803 7.55612 6.40499 7.50984ZM11.1446 8.53644C11.1418 8.64602 11.1426 8.76727 11.1504 8.89132C11.1637 9.10401 11.1955 9.29481 11.2464 9.44027C11.2972 9.5852 11.3445 9.62321 11.349 9.62653C11.3502 9.62721 11.3634 9.63512 11.3937 9.64795C11.4276 9.66226 11.474 9.679 11.5346 9.69706C11.657 9.73352 11.814 9.76853 12.0014 9.80065C12.376 9.86486 12.8244 9.90955 13.266 9.93994C13.5759 9.96127 13.8756 9.97509 14.1338 9.98405C14.1073 9.51703 14.0804 9.07324 14.0533 8.66707C13.137 8.68077 12.2449 8.6454 11.3645 8.55909C11.2911 8.55189 11.2178 8.54434 11.1446 8.53644Z" fill="#26272B"/>
</svg>
