<svg width="24" height="24" viewBox="0 0 24 24" fill="none" xmlns="http://www.w3.org/2000/svg">
<path fill-rule="evenodd" clip-rule="evenodd" d="M11.9999 3.25C11.3096 3.25001 10.7499 3.80969 10.7499 4.50006C10.7499 5.1904 11.3095 5.75001 11.9998 5.75C12.6902 5.74999 13.2499 5.19031 13.2499 4.49994C13.2499 3.8096 12.6903 3.24999 11.9999 3.25ZM9.24989 4.50003C9.24992 2.98125 10.4811 1.75003 11.9999 1.75C13.5187 1.74997 14.7499 2.98118 14.7499 4.49997C14.7499 6.01874 13.5186 7.24997 11.9999 7.25C10.4811 7.25003 9.24986 6.01882 9.24989 4.50003ZM21.7274 7.81804C21.8279 8.21988 21.5836 8.6271 21.1818 8.72759C19.24 9.21322 17.302 9.58072 14.7317 9.7796C14.5315 12.7915 15.0443 14.8767 15.9039 16.5269C16.7966 18.2408 18.0868 19.5391 19.5278 20.9673C19.7437 21.1813 19.8091 21.5044 19.6934 21.7855C19.5777 22.0665 19.3038 22.25 18.9998 22.25H16.9999C16.5856 22.25 16.2499 21.9142 16.2499 21.5C16.2499 21.0858 16.5856 20.75 16.9999 20.75H17.2039C16.2196 19.7141 15.2873 18.5902 14.5735 17.2198C14.1129 16.3355 13.7479 15.3592 13.5085 14.2482C13.0349 14.245 12.595 14.2378 12.1835 14.2311C11.3432 14.2174 10.621 14.2057 9.97026 14.2336C8.90186 14.2794 8.24484 14.432 7.80581 14.7393C7.40143 15.0224 7.06173 15.5257 6.86288 16.5906C6.6614 17.6696 6.62497 19.2198 6.74921 21.4581C6.76063 21.6639 6.68684 21.8654 6.54517 22.0151C6.4035 22.1648 6.20644 22.2497 6.00031 22.2496L3.99991 22.2495C3.5857 22.2495 3.24993 21.9137 3.24996 21.4995C3.24999 21.0852 3.5858 20.7495 4.00002 20.7495L5.21292 20.7496C5.13533 18.8772 5.18062 17.4279 5.38837 16.3153C5.62714 15.0366 6.1 14.1024 6.94562 13.5105C7.70733 12.9773 8.66261 12.8039 9.70306 12.745C9.63564 12.1409 9.64393 11.4011 9.66634 10.8108C9.67878 10.4831 9.69655 10.1823 9.71273 9.94623C7.79784 9.94315 5.58322 9.88035 2.96259 9.74941C2.54889 9.72874 2.23028 9.37661 2.25095 8.96291C2.27162 8.54922 2.62375 8.23061 3.03745 8.25128C12.9962 8.74888 16.9156 8.24831 20.8179 7.27241C21.2197 7.17191 21.6269 7.4162 21.7274 7.81804ZM11.2172 9.93555C11.2169 9.93929 11.2167 9.94306 11.2164 9.94685C11.1993 10.1834 11.1789 10.5094 11.1653 10.8677C11.1396 11.5444 11.1422 12.2579 11.2116 12.7183C11.5516 12.7207 11.9085 12.7263 12.2797 12.7322C12.6006 12.7372 12.9321 12.7425 13.2726 12.7459C13.1829 11.8703 13.1627 10.9177 13.223 9.87297C12.5939 9.90283 11.9276 9.92387 11.2172 9.93555Z" fill="#26272B"/>
</svg>
