<svg width="24" height="24" viewBox="0 0 24 24" fill="none" xmlns="http://www.w3.org/2000/svg">
<path fill-rule="evenodd" clip-rule="evenodd" d="M15.7447 0.766038C16.1501 0.850841 16.41 1.24826 16.3252 1.6537C16.1282 2.59585 15.9383 3.46302 15.7614 4.27132C15.4629 5.63506 15.201 6.83119 15.003 7.93702C14.8672 8.69563 14.7647 9.39583 14.7038 10.0573C14.7033 10.0641 14.7026 10.071 14.7019 10.0778C14.6244 10.9306 14.6161 11.7192 14.6947 12.4862C14.7702 13.2218 14.9268 13.9504 15.1903 14.7066C15.2026 14.7355 15.2132 14.7652 15.2218 14.7957C15.9363 16.7885 17.3951 18.9812 20.0621 22.0039C20.2572 22.225 20.3047 22.5399 20.1834 22.8087C20.0621 23.0774 19.7946 23.2502 19.4998 23.2502H17.5C17.0858 23.2502 16.75 22.9144 16.75 22.5002C16.75 22.0859 17.0858 21.7502 17.5 21.7502H17.8663C15.9296 19.4298 14.6796 17.5147 13.9546 15.6854C12.3074 15.4763 11.0728 15.384 10.1419 15.4439C9.13182 15.5089 8.60781 15.7456 8.29617 16.0767C7.97195 16.4212 7.74285 17.0083 7.6537 18.0857C7.56521 19.155 7.62301 20.5707 7.74834 22.4507C7.76215 22.6578 7.6895 22.8614 7.54768 23.013C7.40587 23.1645 7.20758 23.2506 7 23.2506H5C4.58579 23.2506 4.25 22.9148 4.25 22.5006C4.25 22.0864 4.58579 21.7506 5 21.7506H6.20089C6.11086 20.2412 6.07431 18.983 6.15881 17.9619C6.25715 16.7736 6.52805 15.7668 7.20383 15.0487C7.89219 14.3173 8.86818 14.0227 10.0456 13.947C10.0849 13.9445 10.1245 13.9422 10.1645 13.9401C10.1295 13.6562 10.0918 13.304 10.0649 12.9281C10.0325 12.4743 10.0149 11.9709 10.0408 11.505C10.0653 11.0637 10.1325 10.5588 10.3297 10.1644C10.583 9.65742 11.0517 9.4078 11.4499 9.28359C11.8532 9.15781 12.2922 9.12466 12.6659 9.12475C12.8889 9.1248 13.1037 9.13684 13.2952 9.15363C13.3405 8.80272 13.3945 8.4452 13.4559 8.07947C13.1582 8.18985 12.8361 8.25015 12.5 8.25015C10.9812 8.25015 9.75 7.01893 9.75 5.50015C9.75 3.98137 10.9812 2.75015 12.5 2.75015C13.2336 2.75015 13.9002 3.03744 14.3933 3.50565C14.5429 2.82101 14.6989 2.10238 14.857 1.3466C14.9418 0.941162 15.3392 0.681235 15.7447 0.766038ZM13.1581 10.6474C13.0044 10.634 12.8362 10.6248 12.6655 10.6248C12.3628 10.6247 12.0943 10.6539 11.8966 10.7156C11.8007 10.7454 11.7409 10.7771 11.7067 10.8015C11.6905 10.8131 11.6817 10.8218 11.6774 10.8266C11.6735 10.8311 11.6721 10.8336 11.6714 10.8349C11.6186 10.9407 11.5608 11.1859 11.5385 11.5883C11.5175 11.9661 11.531 12.4001 11.5611 12.8212C11.591 13.2396 11.636 13.6303 11.6738 13.9173C11.6754 13.93 11.6771 13.9425 11.6787 13.9548C12.2213 13.9856 12.8122 14.0403 13.4539 14.1138C13.3362 13.6248 13.2534 13.1354 13.2026 12.6391C13.1354 11.9839 13.1245 11.3244 13.1581 10.6474ZM12.5 4.25015C11.8096 4.25015 11.25 4.8098 11.25 5.50015C11.25 6.19051 11.8096 6.75015 12.5 6.75015C13.1904 6.75015 13.75 6.19051 13.75 5.50015C13.75 4.8098 13.1904 4.25015 12.5 4.25015Z" fill="#26272B"/>
</svg>
